G04*
G04 #@! TF.GenerationSoftware,Altium Limited,Altium Designer,22.0.2 (36)*
G04*
G04 Layer_Physical_Order=4*
G04 Layer_Color=16440176*
%FSLAX25Y25*%
%MOIN*%
G70*
G04*
G04 #@! TF.SameCoordinates,8DF314AF-FFA0-4F09-AA67-4057F65CF364*
G04*
G04*
G04 #@! TF.FilePolarity,Positive*
G04*
G01*
G75*
%ADD94C,0.05118*%
%ADD95C,0.06693*%
%ADD98C,0.08661*%
%ADD101C,0.02165*%
%ADD102C,0.01772*%
G36*
X1258500Y1036222D02*
X1258000Y1035973D01*
X1257380Y1036331D01*
X1256471Y1036575D01*
X1255529D01*
X1254620Y1036331D01*
X1253805Y1035861D01*
X1253139Y1035195D01*
X1252774Y1034562D01*
X1252771Y1034561D01*
X1252229D01*
X1252226Y1034562D01*
X1251861Y1035195D01*
X1251195Y1035861D01*
X1250380Y1036331D01*
X1249471Y1036575D01*
X1248529D01*
X1247620Y1036331D01*
X1246805Y1035861D01*
X1246140Y1035195D01*
X1245774Y1034562D01*
X1245772Y1034561D01*
X1245228D01*
X1245226Y1034562D01*
X1244860Y1035195D01*
X1244195Y1035861D01*
X1243380Y1036331D01*
X1242471Y1036575D01*
X1241529D01*
X1240620Y1036331D01*
X1239805Y1035861D01*
X1239139Y1035195D01*
X1239056Y1035051D01*
X1238335D01*
X1237996Y1034960D01*
X1237860Y1035195D01*
X1237195Y1035861D01*
X1236380Y1036331D01*
X1235471Y1036575D01*
X1234529D01*
X1233620Y1036331D01*
X1232805Y1035861D01*
X1232139Y1035195D01*
X1231774Y1034562D01*
X1231771Y1034561D01*
X1231229D01*
X1231226Y1034562D01*
X1230861Y1035195D01*
X1230195Y1035861D01*
X1229380Y1036331D01*
X1228471Y1036575D01*
X1227529D01*
X1226620Y1036331D01*
X1225805Y1035861D01*
X1225140Y1035195D01*
X1224774Y1034562D01*
X1224771Y1034561D01*
X1224228D01*
X1224226Y1034562D01*
X1223860Y1035195D01*
X1223195Y1035861D01*
X1222380Y1036331D01*
X1221471Y1036575D01*
X1220529D01*
X1219620Y1036331D01*
X1218805Y1035861D01*
X1218139Y1035195D01*
X1217774Y1034562D01*
X1217772Y1034561D01*
X1217229D01*
X1217226Y1034562D01*
X1216860Y1035195D01*
X1216195Y1035861D01*
X1215380Y1036331D01*
X1214471Y1036575D01*
X1213529D01*
X1212620Y1036331D01*
X1211805Y1035861D01*
X1211139Y1035195D01*
X1210774Y1034562D01*
X1210771Y1034561D01*
X1210229D01*
X1210226Y1034562D01*
X1209861Y1035195D01*
X1209195Y1035861D01*
X1208380Y1036331D01*
X1207471Y1036575D01*
X1206529D01*
X1205620Y1036331D01*
X1204805Y1035861D01*
X1204140Y1035195D01*
X1203774Y1034562D01*
X1203771Y1034561D01*
X1203228D01*
X1203226Y1034562D01*
X1202861Y1035195D01*
X1202195Y1035861D01*
X1201380Y1036331D01*
X1200471Y1036575D01*
X1199529D01*
X1198620Y1036331D01*
X1197805Y1035861D01*
X1197139Y1035195D01*
X1196774Y1034562D01*
X1196772Y1034561D01*
X1196229D01*
X1196226Y1034562D01*
X1195860Y1035195D01*
X1195195Y1035861D01*
X1194380Y1036331D01*
X1193471Y1036575D01*
X1192529D01*
X1191620Y1036331D01*
X1190805Y1035861D01*
X1190139Y1035195D01*
X1189669Y1034380D01*
X1189425Y1033471D01*
Y1032529D01*
X1189669Y1031620D01*
X1190139Y1030805D01*
X1190805Y1030140D01*
X1191438Y1029774D01*
X1191439Y1029772D01*
Y1029228D01*
X1191438Y1029226D01*
X1190805Y1028860D01*
X1190139Y1028195D01*
X1189669Y1027380D01*
X1189425Y1026471D01*
Y1025529D01*
X1189669Y1024620D01*
X1190139Y1023805D01*
X1190805Y1023139D01*
X1191620Y1022669D01*
X1192529Y1022425D01*
X1193471D01*
X1194380Y1022669D01*
X1195195Y1023139D01*
X1195860Y1023805D01*
X1196226Y1024438D01*
X1196229Y1024439D01*
X1196772D01*
X1196774Y1024438D01*
X1197139Y1023805D01*
X1197805Y1023139D01*
X1198438Y1022774D01*
X1198439Y1022771D01*
Y1022229D01*
X1198438Y1022226D01*
X1197805Y1021861D01*
X1197139Y1021195D01*
X1196669Y1020380D01*
X1196425Y1019471D01*
Y1018529D01*
X1196669Y1017620D01*
X1197139Y1016805D01*
X1197805Y1016140D01*
X1198438Y1015774D01*
X1198439Y1015771D01*
Y1015228D01*
X1198438Y1015226D01*
X1197805Y1014861D01*
X1197139Y1014195D01*
X1196669Y1013380D01*
X1196425Y1012471D01*
Y1011529D01*
X1196669Y1010620D01*
X1197139Y1009805D01*
X1197805Y1009140D01*
X1198438Y1008774D01*
X1198439Y1008772D01*
Y1008228D01*
X1198438Y1008226D01*
X1197805Y1007860D01*
X1197139Y1007195D01*
X1196669Y1006380D01*
X1196425Y1005471D01*
Y1004529D01*
X1196669Y1003620D01*
X1197139Y1002805D01*
X1197805Y1002139D01*
X1198620Y1001669D01*
X1199529Y1001425D01*
X1200471D01*
X1201380Y1001669D01*
X1202195Y1002139D01*
X1202861Y1002805D01*
X1203226Y1003438D01*
X1203228Y1003439D01*
X1203771D01*
X1203774Y1003438D01*
X1204140Y1002805D01*
X1204805Y1002139D01*
X1205620Y1001669D01*
X1206529Y1001425D01*
X1207471D01*
X1208380Y1001669D01*
X1209195Y1002139D01*
X1209861Y1002805D01*
X1210226Y1003438D01*
X1210229Y1003439D01*
X1210771D01*
X1210774Y1003438D01*
X1211139Y1002805D01*
X1211805Y1002139D01*
X1212620Y1001669D01*
X1213529Y1001425D01*
X1214471D01*
X1215380Y1001669D01*
X1216195Y1002139D01*
X1216860Y1002805D01*
X1217226Y1003438D01*
X1217229Y1003439D01*
X1217772D01*
X1217774Y1003438D01*
X1218139Y1002805D01*
X1218805Y1002139D01*
X1219620Y1001669D01*
X1220529Y1001425D01*
X1221471D01*
X1222380Y1001669D01*
X1223195Y1002139D01*
X1223860Y1002805D01*
X1224226Y1003438D01*
X1224228Y1003439D01*
X1224771D01*
X1224774Y1003438D01*
X1225140Y1002805D01*
X1225805Y1002139D01*
X1226620Y1001669D01*
X1227529Y1001425D01*
X1228471D01*
X1229380Y1001669D01*
X1230195Y1002139D01*
X1230861Y1002805D01*
X1231226Y1003438D01*
X1231229Y1003439D01*
X1231771D01*
X1231774Y1003438D01*
X1232139Y1002805D01*
X1232805Y1002139D01*
X1233620Y1001669D01*
X1234529Y1001425D01*
X1235471D01*
X1236380Y1001669D01*
X1237195Y1002139D01*
X1237860Y1002805D01*
X1238226Y1003438D01*
X1238229Y1003439D01*
X1238772D01*
X1238774Y1003438D01*
X1239139Y1002805D01*
X1239805Y1002139D01*
X1240438Y1001774D01*
X1240439Y1001772D01*
Y1001229D01*
X1240438Y1001226D01*
X1239805Y1000861D01*
X1239139Y1000195D01*
X1238669Y999380D01*
X1238425Y998471D01*
Y997529D01*
X1238669Y996620D01*
X1239139Y995805D01*
X1239805Y995140D01*
X1240438Y994774D01*
X1240439Y994771D01*
Y994228D01*
X1240438Y994226D01*
X1239805Y993861D01*
X1239139Y993195D01*
X1238669Y992380D01*
X1238425Y991471D01*
Y990529D01*
X1238669Y989620D01*
X1239139Y988805D01*
X1239805Y988140D01*
X1240438Y987774D01*
X1240439Y987772D01*
Y987228D01*
X1240438Y987226D01*
X1239805Y986860D01*
X1239139Y986195D01*
X1238669Y985380D01*
X1238425Y984471D01*
Y983529D01*
X1238669Y982620D01*
X1239139Y981805D01*
X1239805Y981139D01*
X1240620Y980669D01*
X1241529Y980425D01*
X1242471D01*
X1243380Y980669D01*
X1244195Y981139D01*
X1244860Y981805D01*
X1245226Y982438D01*
X1245228Y982439D01*
X1245772D01*
X1245774Y982438D01*
X1246140Y981805D01*
X1246805Y981139D01*
X1247620Y980669D01*
X1248529Y980425D01*
X1249471D01*
X1250380Y980669D01*
X1251195Y981139D01*
X1251861Y981805D01*
X1252226Y982438D01*
X1252229Y982439D01*
X1252771D01*
X1252774Y982438D01*
X1253139Y981805D01*
X1253805Y981139D01*
X1254620Y980669D01*
X1255529Y980425D01*
X1256471D01*
X1257380Y980669D01*
X1258195Y981139D01*
X1258860Y981805D01*
X1259226Y982438D01*
X1259229Y982439D01*
X1259772D01*
X1259774Y982438D01*
X1260139Y981805D01*
X1260805Y981139D01*
X1261620Y980669D01*
X1262529Y980425D01*
X1263471D01*
X1264380Y980669D01*
X1265195Y981139D01*
X1265860Y981805D01*
X1266331Y982620D01*
X1266575Y983529D01*
Y984471D01*
X1266331Y985380D01*
X1265860Y986195D01*
X1265195Y986860D01*
X1264562Y987226D01*
X1264561Y987228D01*
Y987772D01*
X1264562Y987774D01*
X1265195Y988140D01*
X1265860Y988805D01*
X1266226Y989438D01*
X1266228Y989439D01*
X1266772D01*
X1266774Y989438D01*
X1267140Y988805D01*
X1267805Y988140D01*
X1268620Y987669D01*
X1269529Y987425D01*
X1270471D01*
X1271380Y987669D01*
X1272195Y988140D01*
X1272861Y988805D01*
X1273226Y989438D01*
X1273228Y989439D01*
X1273771D01*
X1273774Y989438D01*
X1274139Y988805D01*
X1274805Y988140D01*
X1275620Y987669D01*
X1276529Y987425D01*
X1277471D01*
X1278380Y987669D01*
X1279195Y988140D01*
X1279860Y988805D01*
X1280226Y989438D01*
X1280229Y989439D01*
X1280772D01*
X1280774Y989438D01*
X1281139Y988805D01*
X1281805Y988140D01*
X1282438Y987774D01*
X1282439Y987772D01*
Y987228D01*
X1282438Y987226D01*
X1281805Y986860D01*
X1281139Y986195D01*
X1280669Y985380D01*
X1280425Y984471D01*
Y983529D01*
X1280669Y982620D01*
X1281139Y981805D01*
X1281805Y981139D01*
X1282620Y980669D01*
X1283529Y980425D01*
X1284471D01*
X1285380Y980669D01*
X1286195Y981139D01*
X1286860Y981805D01*
X1287331Y982620D01*
X1287500Y983250D01*
X1288000Y983184D01*
Y955587D01*
X1287500Y955453D01*
X1287360Y955695D01*
X1286695Y956361D01*
X1285880Y956831D01*
X1284971Y957075D01*
X1284029D01*
X1283120Y956831D01*
X1282305Y956361D01*
X1281639Y955695D01*
X1281274Y955062D01*
X1281271Y955061D01*
X1280729D01*
X1280726Y955062D01*
X1280361Y955695D01*
X1279695Y956361D01*
X1278880Y956831D01*
X1277971Y957075D01*
X1277029D01*
X1276120Y956831D01*
X1275913Y956712D01*
X1275547Y957078D01*
X1275831Y957570D01*
X1276075Y958479D01*
Y959420D01*
X1275831Y960329D01*
X1275360Y961144D01*
X1274695Y961810D01*
X1273880Y962281D01*
X1272971Y962524D01*
X1272029D01*
X1271120Y962281D01*
X1270305Y961810D01*
X1269639Y961144D01*
X1269169Y960329D01*
X1268925Y959420D01*
Y958479D01*
X1269169Y957570D01*
X1269326Y957297D01*
X1269135Y956835D01*
X1269120Y956831D01*
X1268305Y956361D01*
X1267640Y955695D01*
X1267274Y955062D01*
X1267272Y955061D01*
X1266728D01*
X1266726Y955062D01*
X1266360Y955695D01*
X1265695Y956361D01*
X1264880Y956831D01*
X1263971Y957075D01*
X1263029D01*
X1262120Y956831D01*
X1261305Y956361D01*
X1260639Y955695D01*
X1260274Y955062D01*
X1260271Y955061D01*
X1259729D01*
X1259726Y955062D01*
X1259361Y955695D01*
X1258695Y956361D01*
X1257880Y956831D01*
X1256971Y957075D01*
X1256029D01*
X1255120Y956831D01*
X1254305Y956361D01*
X1253640Y955695D01*
X1253268Y955051D01*
X1252732D01*
X1252361Y955695D01*
X1251695Y956361D01*
X1250880Y956831D01*
X1249971Y957075D01*
X1249029D01*
X1248120Y956831D01*
X1247305Y956361D01*
X1246640Y955695D01*
X1246274Y955062D01*
X1246272Y955061D01*
X1245728D01*
X1245726Y955062D01*
X1245360Y955695D01*
X1244695Y956361D01*
X1243880Y956831D01*
X1242971Y957075D01*
X1242029D01*
X1241120Y956831D01*
X1240305Y956361D01*
X1239639Y955695D01*
X1239169Y954880D01*
X1238925Y953971D01*
Y953029D01*
X1239169Y952120D01*
X1239639Y951305D01*
X1240305Y950640D01*
X1240938Y950274D01*
X1240939Y950272D01*
Y949728D01*
X1240938Y949726D01*
X1240305Y949360D01*
X1239639Y948695D01*
X1239169Y947880D01*
X1238925Y946971D01*
Y946029D01*
X1239169Y945120D01*
X1239639Y944305D01*
X1240305Y943639D01*
X1240938Y943274D01*
X1240939Y943272D01*
Y942729D01*
X1240938Y942726D01*
X1240305Y942360D01*
X1239639Y941695D01*
X1239169Y940880D01*
X1238925Y939971D01*
Y939029D01*
X1239169Y938120D01*
X1239639Y937305D01*
X1240305Y936639D01*
X1240938Y936274D01*
X1240939Y936271D01*
Y935728D01*
X1240938Y935726D01*
X1240305Y935361D01*
X1239639Y934695D01*
X1239169Y933880D01*
X1238925Y932971D01*
Y932029D01*
X1239169Y931120D01*
X1239639Y930305D01*
X1240305Y929640D01*
X1240938Y929274D01*
X1240939Y929272D01*
Y928728D01*
X1240938Y928726D01*
X1240305Y928360D01*
X1239639Y927695D01*
X1239169Y926880D01*
X1238925Y925971D01*
Y925029D01*
X1239169Y924120D01*
X1239639Y923305D01*
X1240305Y922639D01*
X1240938Y922274D01*
X1240939Y922272D01*
Y921729D01*
X1240938Y921726D01*
X1240305Y921360D01*
X1239639Y920695D01*
X1239169Y919880D01*
X1238925Y918971D01*
Y918029D01*
X1239169Y917120D01*
X1239639Y916305D01*
X1240305Y915639D01*
X1240938Y915274D01*
X1240939Y915271D01*
Y914729D01*
X1240938Y914726D01*
X1240305Y914361D01*
X1239639Y913695D01*
X1239169Y912880D01*
X1238925Y911971D01*
Y911029D01*
X1239169Y910120D01*
X1239639Y909305D01*
X1240305Y908640D01*
X1240938Y908274D01*
X1240939Y908272D01*
Y907728D01*
X1240938Y907726D01*
X1240305Y907360D01*
X1239639Y906695D01*
X1239169Y905880D01*
X1238925Y904971D01*
Y904029D01*
X1239169Y903120D01*
X1239639Y902305D01*
X1240305Y901639D01*
X1241120Y901169D01*
X1242029Y900925D01*
X1242971D01*
X1243880Y901169D01*
X1244695Y901639D01*
X1245360Y902305D01*
X1245726Y902938D01*
X1245728Y902939D01*
X1246272D01*
X1246274Y902938D01*
X1246640Y902305D01*
X1247305Y901639D01*
X1248120Y901169D01*
X1249029Y900925D01*
X1249971D01*
X1250880Y901169D01*
X1251695Y901639D01*
X1252361Y902305D01*
X1252726Y902938D01*
X1252728Y902939D01*
X1253271D01*
X1253274Y902938D01*
X1253640Y902305D01*
X1254305Y901639D01*
X1255120Y901169D01*
X1256029Y900925D01*
X1256971D01*
X1257880Y901169D01*
X1258695Y901639D01*
X1259361Y902305D01*
X1259726Y902938D01*
X1259729Y902939D01*
X1260271D01*
X1260274Y902938D01*
X1260639Y902305D01*
X1261305Y901639D01*
X1262120Y901169D01*
X1263029Y900925D01*
X1263971D01*
X1264880Y901169D01*
X1265695Y901639D01*
X1266360Y902305D01*
X1266831Y903120D01*
X1267075Y904029D01*
Y904069D01*
X1267575Y904276D01*
X1268151Y903700D01*
X1269268Y902954D01*
X1270510Y902439D01*
X1271828Y902177D01*
X1273172D01*
X1274490Y902439D01*
X1274548Y902463D01*
X1274640Y902305D01*
X1275305Y901639D01*
X1276120Y901169D01*
X1277029Y900925D01*
X1277971D01*
X1278880Y901169D01*
X1279695Y901639D01*
X1280361Y902305D01*
X1280726Y902938D01*
X1280729Y902939D01*
X1281271D01*
X1281274Y902938D01*
X1281639Y902305D01*
X1282305Y901639D01*
X1283120Y901169D01*
X1284029Y900925D01*
X1284971D01*
X1285880Y901169D01*
X1286695Y901639D01*
X1287360Y902305D01*
X1287500Y902547D01*
X1288000Y902413D01*
Y697500D01*
X1259000D01*
Y667500D01*
X946000D01*
Y695684D01*
X946500Y695750D01*
X946669Y695120D01*
X947139Y694305D01*
X947805Y693640D01*
X948620Y693169D01*
X949529Y692925D01*
X950471D01*
X951380Y693169D01*
X952195Y693640D01*
X952861Y694305D01*
X953331Y695120D01*
X953575Y696029D01*
Y696971D01*
X953331Y697880D01*
X952861Y698695D01*
X952195Y699361D01*
X951380Y699831D01*
X950471Y700075D01*
X949529D01*
X948620Y699831D01*
X947805Y699361D01*
X947139Y698695D01*
X946669Y697880D01*
X946500Y697250D01*
X946000Y697316D01*
Y697500D01*
X916500D01*
Y981913D01*
X917000Y982047D01*
X917140Y981805D01*
X917805Y981139D01*
X918620Y980669D01*
X919529Y980425D01*
X920471D01*
X921380Y980669D01*
X922195Y981139D01*
X922861Y981805D01*
X923331Y982620D01*
X923575Y983529D01*
Y984471D01*
X923331Y985380D01*
X922861Y986195D01*
X922195Y986860D01*
X921562Y987226D01*
X921561Y987228D01*
Y987772D01*
X921562Y987774D01*
X922195Y988140D01*
X922861Y988805D01*
X923226Y989438D01*
X923228Y989439D01*
X923771D01*
X923774Y989438D01*
X924139Y988805D01*
X924805Y988140D01*
X925620Y987669D01*
X926529Y987425D01*
X927471D01*
X928380Y987669D01*
X929195Y988140D01*
X929860Y988805D01*
X930226Y989438D01*
X930229Y989439D01*
X930772D01*
X930774Y989438D01*
X931139Y988805D01*
X931805Y988140D01*
X932620Y987669D01*
X933529Y987425D01*
X934471D01*
X935380Y987669D01*
X936195Y988140D01*
X936860Y988805D01*
X937226Y989438D01*
X937228Y989439D01*
X937772D01*
X937774Y989438D01*
X938140Y988805D01*
X938805Y988140D01*
X939620Y987669D01*
X940529Y987425D01*
X941471D01*
X942380Y987669D01*
X943195Y988140D01*
X943861Y988805D01*
X944226Y989438D01*
X944228Y989439D01*
X944771D01*
X944774Y989438D01*
X945140Y988805D01*
X945805Y988140D01*
X946438Y987774D01*
X946439Y987772D01*
Y987228D01*
X946438Y987226D01*
X945805Y986860D01*
X945140Y986195D01*
X944669Y985380D01*
X944425Y984471D01*
Y983529D01*
X944669Y982620D01*
X945140Y981805D01*
X945805Y981139D01*
X946620Y980669D01*
X947529Y980425D01*
X948471D01*
X949380Y980669D01*
X950195Y981139D01*
X950861Y981805D01*
X951226Y982438D01*
X951229Y982439D01*
X951772D01*
X951774Y982438D01*
X952139Y981805D01*
X952805Y981139D01*
X953620Y980669D01*
X954529Y980425D01*
X955471D01*
X956380Y980669D01*
X957195Y981139D01*
X957860Y981805D01*
X958226Y982438D01*
X958228Y982439D01*
X958772D01*
X958774Y982438D01*
X959140Y981805D01*
X959805Y981139D01*
X960620Y980669D01*
X961529Y980425D01*
X962471D01*
X963380Y980669D01*
X964195Y981139D01*
X964861Y981805D01*
X965331Y982620D01*
X965575Y983529D01*
Y984471D01*
X965331Y985380D01*
X964861Y986195D01*
X964195Y986860D01*
X963562Y987226D01*
X963561Y987228D01*
Y987772D01*
X963562Y987774D01*
X964195Y988140D01*
X964861Y988805D01*
X965331Y989620D01*
X965575Y990529D01*
Y991471D01*
X965331Y992380D01*
X964861Y993195D01*
X964195Y993861D01*
X963562Y994226D01*
X963561Y994228D01*
Y994771D01*
X963562Y994774D01*
X964195Y995140D01*
X964861Y995805D01*
X965226Y996438D01*
X965228Y996439D01*
X965771D01*
X965774Y996438D01*
X966140Y995805D01*
X966805Y995140D01*
X967620Y994669D01*
X968529Y994425D01*
X969471D01*
X970380Y994669D01*
X971195Y995140D01*
X971861Y995805D01*
X972331Y996620D01*
X972575Y997529D01*
Y998471D01*
X972331Y999380D01*
X971861Y1000195D01*
X971195Y1000861D01*
X970562Y1001226D01*
X970561Y1001229D01*
Y1001772D01*
X970562Y1001774D01*
X971195Y1002139D01*
X971861Y1002805D01*
X972226Y1003438D01*
X972229Y1003439D01*
X972771D01*
X972774Y1003438D01*
X973139Y1002805D01*
X973805Y1002139D01*
X974620Y1001669D01*
X975529Y1001425D01*
X976471D01*
X977380Y1001669D01*
X978195Y1002139D01*
X978860Y1002805D01*
X979226Y1003438D01*
X979228Y1003439D01*
X979772D01*
X979774Y1003438D01*
X980140Y1002805D01*
X980805Y1002139D01*
X981620Y1001669D01*
X982529Y1001425D01*
X983471D01*
X984380Y1001669D01*
X985195Y1002139D01*
X985861Y1002805D01*
X986226Y1003438D01*
X986228Y1003439D01*
X986771D01*
X986774Y1003438D01*
X987140Y1002805D01*
X987805Y1002139D01*
X988620Y1001669D01*
X989529Y1001425D01*
X990471D01*
X991380Y1001669D01*
X992195Y1002139D01*
X992861Y1002805D01*
X993226Y1003438D01*
X993229Y1003439D01*
X993771D01*
X993774Y1003438D01*
X994139Y1002805D01*
X994805Y1002139D01*
X995620Y1001669D01*
X996529Y1001425D01*
X997471D01*
X998380Y1001669D01*
X999195Y1002139D01*
X999860Y1002805D01*
X1000226Y1003438D01*
X1000229Y1003439D01*
X1000772D01*
X1000774Y1003438D01*
X1001140Y1002805D01*
X1001805Y1002139D01*
X1002620Y1001669D01*
X1003529Y1001425D01*
X1004471D01*
X1005380Y1001669D01*
X1006195Y1002139D01*
X1006861Y1002805D01*
X1007226Y1003438D01*
X1007228Y1003439D01*
X1007771D01*
X1007774Y1003438D01*
X1008140Y1002805D01*
X1008805Y1002139D01*
X1009620Y1001669D01*
X1010529Y1001425D01*
X1011471D01*
X1012380Y1001669D01*
X1013195Y1002139D01*
X1013861Y1002805D01*
X1014331Y1003620D01*
X1014575Y1004529D01*
Y1005471D01*
X1014331Y1006380D01*
X1013861Y1007195D01*
X1013195Y1007860D01*
X1012562Y1008226D01*
X1012561Y1008228D01*
Y1008772D01*
X1012562Y1008774D01*
X1013195Y1009140D01*
X1013861Y1009805D01*
X1014331Y1010620D01*
X1014575Y1011529D01*
Y1012471D01*
X1014331Y1013380D01*
X1013861Y1014195D01*
X1013195Y1014861D01*
X1012562Y1015226D01*
X1012561Y1015228D01*
Y1015771D01*
X1012562Y1015774D01*
X1013195Y1016140D01*
X1013861Y1016805D01*
X1014331Y1017620D01*
X1014575Y1018529D01*
Y1019471D01*
X1014331Y1020380D01*
X1013861Y1021195D01*
X1013195Y1021861D01*
X1012562Y1022226D01*
X1012561Y1022229D01*
Y1022771D01*
X1012562Y1022774D01*
X1013195Y1023139D01*
X1013861Y1023805D01*
X1014331Y1024620D01*
X1014575Y1025529D01*
Y1026471D01*
X1014331Y1027380D01*
X1013861Y1028195D01*
X1013195Y1028860D01*
X1012562Y1029226D01*
X1012561Y1029228D01*
Y1029772D01*
X1012562Y1029774D01*
X1013195Y1030140D01*
X1013861Y1030805D01*
X1014331Y1031620D01*
X1014575Y1032529D01*
Y1033471D01*
X1014331Y1034380D01*
X1013861Y1035195D01*
X1013195Y1035861D01*
X1012380Y1036331D01*
X1011471Y1036575D01*
X1010529D01*
X1009620Y1036331D01*
X1008805Y1035861D01*
X1008140Y1035195D01*
X1007774Y1034562D01*
X1007771Y1034561D01*
X1007228D01*
X1007226Y1034562D01*
X1006861Y1035195D01*
X1006195Y1035861D01*
X1005380Y1036331D01*
X1004471Y1036575D01*
X1003529D01*
X1002620Y1036331D01*
X1001805Y1035861D01*
X1001140Y1035195D01*
X1000774Y1034562D01*
X1000772Y1034561D01*
X1000229D01*
X1000226Y1034562D01*
X999860Y1035195D01*
X999195Y1035861D01*
X998380Y1036331D01*
X997471Y1036575D01*
X996529D01*
X995620Y1036331D01*
X994805Y1035861D01*
X994139Y1035195D01*
X993774Y1034562D01*
X993771Y1034561D01*
X993229D01*
X993226Y1034562D01*
X992861Y1035195D01*
X992195Y1035861D01*
X991380Y1036331D01*
X990471Y1036575D01*
X989529D01*
X988620Y1036331D01*
X987805Y1035861D01*
X987140Y1035195D01*
X986774Y1034562D01*
X986771Y1034561D01*
X986228D01*
X986226Y1034562D01*
X985861Y1035195D01*
X985195Y1035861D01*
X984380Y1036331D01*
X983471Y1036575D01*
X982529D01*
X981620Y1036331D01*
X980805Y1035861D01*
X980140Y1035195D01*
X979774Y1034562D01*
X979772Y1034561D01*
X979228D01*
X979226Y1034562D01*
X978860Y1035195D01*
X978195Y1035861D01*
X977380Y1036331D01*
X976471Y1036575D01*
X975529D01*
X974620Y1036331D01*
X973805Y1035861D01*
X973139Y1035195D01*
X972768Y1034551D01*
X972232D01*
X971861Y1035195D01*
X971195Y1035861D01*
X970380Y1036331D01*
X969471Y1036575D01*
X968529D01*
X967620Y1036331D01*
X966805Y1035861D01*
X966140Y1035195D01*
X965774Y1034562D01*
X965771Y1034561D01*
X965228D01*
X965226Y1034562D01*
X964861Y1035195D01*
X964195Y1035861D01*
X963380Y1036331D01*
X962471Y1036575D01*
X961529D01*
X960620Y1036331D01*
X959805Y1035861D01*
X959140Y1035195D01*
X958774Y1034562D01*
X958772Y1034561D01*
X958228D01*
X958226Y1034562D01*
X957860Y1035195D01*
X957195Y1035861D01*
X956380Y1036331D01*
X955471Y1036575D01*
X954529D01*
X953620Y1036331D01*
X952805Y1035861D01*
X952139Y1035195D01*
X951669Y1034380D01*
X951425Y1033471D01*
Y1032529D01*
X951669Y1031620D01*
X952139Y1030805D01*
X952805Y1030140D01*
X953438Y1029774D01*
X953439Y1029772D01*
Y1029228D01*
X953438Y1029226D01*
X952805Y1028860D01*
X952139Y1028195D01*
X951669Y1027380D01*
X951425Y1026471D01*
Y1025529D01*
X951669Y1024620D01*
X952139Y1023805D01*
X952805Y1023139D01*
X953438Y1022774D01*
X953439Y1022771D01*
Y1022229D01*
X953438Y1022226D01*
X952805Y1021861D01*
X952139Y1021195D01*
X951669Y1020380D01*
X951425Y1019471D01*
Y1018529D01*
X951669Y1017620D01*
X952139Y1016805D01*
X952805Y1016140D01*
X953438Y1015774D01*
X953439Y1015771D01*
Y1015228D01*
X953438Y1015226D01*
X952805Y1014861D01*
X952139Y1014195D01*
X951774Y1013562D01*
X951772Y1013561D01*
X951229D01*
X951226Y1013562D01*
X950861Y1014195D01*
X950195Y1014861D01*
X949380Y1015331D01*
X948471Y1015575D01*
X947529D01*
X946620Y1015331D01*
X945805Y1014861D01*
X945140Y1014195D01*
X944669Y1013380D01*
X944425Y1012471D01*
Y1011529D01*
X944669Y1010620D01*
X945140Y1009805D01*
X945805Y1009140D01*
X946438Y1008774D01*
X946439Y1008772D01*
Y1008228D01*
X946438Y1008226D01*
X945805Y1007860D01*
X945140Y1007195D01*
X944774Y1006562D01*
X944771Y1006561D01*
X944228D01*
X944226Y1006562D01*
X943861Y1007195D01*
X943195Y1007860D01*
X942380Y1008331D01*
X941471Y1008575D01*
X940529D01*
X939620Y1008331D01*
X938805Y1007860D01*
X938140Y1007195D01*
X937774Y1006562D01*
X937772Y1006561D01*
X937228D01*
X937226Y1006562D01*
X936860Y1007195D01*
X936195Y1007860D01*
X935380Y1008331D01*
X934471Y1008575D01*
X933529D01*
X932620Y1008331D01*
X931805Y1007860D01*
X931139Y1007195D01*
X930774Y1006562D01*
X930772Y1006561D01*
X930229D01*
X930226Y1006562D01*
X929860Y1007195D01*
X929195Y1007860D01*
X928380Y1008331D01*
X927471Y1008575D01*
X926529D01*
X925620Y1008331D01*
X924805Y1007860D01*
X924139Y1007195D01*
X923774Y1006562D01*
X923771Y1006561D01*
X923228D01*
X923226Y1006562D01*
X922861Y1007195D01*
X922195Y1007860D01*
X921380Y1008331D01*
X920471Y1008575D01*
X919529D01*
X918620Y1008331D01*
X917805Y1007860D01*
X917140Y1007195D01*
X917000Y1006953D01*
X916500Y1007087D01*
Y1009500D01*
X936000D01*
X936980Y1009548D01*
X938903Y1009931D01*
X940714Y1010681D01*
X942344Y1011770D01*
X943730Y1013156D01*
X944819Y1014786D01*
X945569Y1016597D01*
X945952Y1018520D01*
X946000Y1019500D01*
Y1039000D01*
X1258500D01*
Y1036222D01*
D02*
G37*
%LPC*%
G36*
X1177471Y1034575D02*
X1176529D01*
X1175620Y1034331D01*
X1174805Y1033860D01*
X1174139Y1033195D01*
X1173774Y1032562D01*
X1173771Y1032561D01*
X1173228D01*
X1173226Y1032562D01*
X1172861Y1033195D01*
X1172195Y1033860D01*
X1171380Y1034331D01*
X1170471Y1034575D01*
X1169529D01*
X1168620Y1034331D01*
X1167805Y1033860D01*
X1167140Y1033195D01*
X1166774Y1032562D01*
X1166772Y1032561D01*
X1166228D01*
X1166226Y1032562D01*
X1165860Y1033195D01*
X1165195Y1033860D01*
X1164380Y1034331D01*
X1163471Y1034575D01*
X1162529D01*
X1161620Y1034331D01*
X1160805Y1033860D01*
X1160139Y1033195D01*
X1159774Y1032562D01*
X1159772Y1032561D01*
X1159229D01*
X1159226Y1032562D01*
X1158860Y1033195D01*
X1158195Y1033860D01*
X1157380Y1034331D01*
X1156471Y1034575D01*
X1155529D01*
X1154620Y1034331D01*
X1153805Y1033860D01*
X1153139Y1033195D01*
X1152774Y1032562D01*
X1152771Y1032561D01*
X1152229D01*
X1152226Y1032562D01*
X1151861Y1033195D01*
X1151195Y1033860D01*
X1150380Y1034331D01*
X1149471Y1034575D01*
X1148529D01*
X1147620Y1034331D01*
X1146805Y1033860D01*
X1146140Y1033195D01*
X1145774Y1032562D01*
X1145772Y1032561D01*
X1145228D01*
X1145226Y1032562D01*
X1144860Y1033195D01*
X1144195Y1033860D01*
X1143380Y1034331D01*
X1142471Y1034575D01*
X1141529D01*
X1140620Y1034331D01*
X1139805Y1033860D01*
X1139139Y1033195D01*
X1138774Y1032562D01*
X1138772Y1032561D01*
X1138229D01*
X1138226Y1032562D01*
X1137860Y1033195D01*
X1137195Y1033860D01*
X1136380Y1034331D01*
X1135471Y1034575D01*
X1134529D01*
X1133620Y1034331D01*
X1132805Y1033860D01*
X1132139Y1033195D01*
X1131669Y1032380D01*
X1131425Y1031471D01*
Y1030529D01*
X1131669Y1029620D01*
X1132139Y1028805D01*
X1132805Y1028139D01*
X1133438Y1027774D01*
X1133439Y1027771D01*
Y1027229D01*
X1133438Y1027226D01*
X1132805Y1026861D01*
X1132139Y1026195D01*
X1131669Y1025380D01*
X1131425Y1024471D01*
Y1023529D01*
X1131669Y1022620D01*
X1132139Y1021805D01*
X1132805Y1021140D01*
X1133438Y1020774D01*
X1133439Y1020772D01*
Y1020228D01*
X1133438Y1020226D01*
X1132805Y1019860D01*
X1132139Y1019195D01*
X1131669Y1018380D01*
X1131425Y1017471D01*
Y1016529D01*
X1131669Y1015620D01*
X1132139Y1014805D01*
X1132805Y1014139D01*
X1133438Y1013774D01*
X1133439Y1013772D01*
Y1013229D01*
X1133438Y1013226D01*
X1132805Y1012860D01*
X1132139Y1012195D01*
X1131669Y1011380D01*
X1131425Y1010471D01*
Y1009529D01*
X1131669Y1008620D01*
X1132139Y1007805D01*
X1132805Y1007139D01*
X1133438Y1006774D01*
X1133439Y1006771D01*
Y1006229D01*
X1133438Y1006226D01*
X1132805Y1005861D01*
X1132139Y1005195D01*
X1131669Y1004380D01*
X1131425Y1003471D01*
Y1002529D01*
X1131669Y1001620D01*
X1132139Y1000805D01*
X1132805Y1000140D01*
X1133620Y999669D01*
X1134529Y999425D01*
X1135471D01*
X1136380Y999669D01*
X1137195Y1000140D01*
X1137860Y1000805D01*
X1138226Y1001438D01*
X1138229Y1001439D01*
X1138772D01*
X1138774Y1001438D01*
X1139139Y1000805D01*
X1139805Y1000140D01*
X1140438Y999774D01*
X1140439Y999771D01*
Y999228D01*
X1140438Y999226D01*
X1139805Y998860D01*
X1139139Y998195D01*
X1138669Y997380D01*
X1138425Y996471D01*
Y995529D01*
X1138669Y994620D01*
X1139139Y993805D01*
X1139805Y993139D01*
X1140620Y992669D01*
X1141529Y992425D01*
X1142471D01*
X1143380Y992669D01*
X1144195Y993139D01*
X1144860Y993805D01*
X1145226Y994438D01*
X1145228Y994439D01*
X1145772D01*
X1145774Y994438D01*
X1146140Y993805D01*
X1146805Y993139D01*
X1147438Y992774D01*
X1147439Y992772D01*
Y992229D01*
X1147438Y992226D01*
X1146805Y991860D01*
X1146140Y991195D01*
X1145669Y990380D01*
X1145425Y989471D01*
Y988529D01*
X1145669Y987620D01*
X1146140Y986805D01*
X1146805Y986139D01*
X1147620Y985669D01*
X1148529Y985425D01*
X1149471D01*
X1150380Y985669D01*
X1151195Y986139D01*
X1151861Y986805D01*
X1152226Y987438D01*
X1152229Y987439D01*
X1152771D01*
X1152774Y987438D01*
X1153139Y986805D01*
X1153805Y986139D01*
X1154620Y985669D01*
X1155529Y985425D01*
X1156471D01*
X1157380Y985669D01*
X1158195Y986139D01*
X1158860Y986805D01*
X1159226Y987438D01*
X1159229Y987439D01*
X1159772D01*
X1159774Y987438D01*
X1160139Y986805D01*
X1160805Y986139D01*
X1161438Y985774D01*
X1161439Y985771D01*
Y985229D01*
X1161438Y985226D01*
X1160805Y984861D01*
X1160139Y984195D01*
X1159669Y983380D01*
X1159425Y982471D01*
Y981529D01*
X1159669Y980620D01*
X1160139Y979805D01*
X1160805Y979140D01*
X1161438Y978774D01*
X1161439Y978771D01*
Y978228D01*
X1161438Y978226D01*
X1160805Y977861D01*
X1160139Y977195D01*
X1159774Y976562D01*
X1159772Y976561D01*
X1159229D01*
X1159226Y976562D01*
X1158860Y977195D01*
X1158195Y977861D01*
X1157740Y978123D01*
X1157675Y978619D01*
X1157860Y978805D01*
X1158331Y979620D01*
X1158575Y980529D01*
Y981471D01*
X1158331Y982380D01*
X1157860Y983195D01*
X1157195Y983860D01*
X1156380Y984331D01*
X1155471Y984575D01*
X1154529D01*
X1153620Y984331D01*
X1152805Y983860D01*
X1152139Y983195D01*
X1151669Y982380D01*
X1151425Y981471D01*
Y980529D01*
X1151669Y979620D01*
X1152139Y978805D01*
X1152805Y978139D01*
X1153260Y977877D01*
X1153325Y977381D01*
X1153139Y977195D01*
X1152669Y976380D01*
X1152425Y975471D01*
Y974529D01*
X1152669Y973620D01*
X1153139Y972805D01*
X1153805Y972139D01*
X1154438Y971774D01*
X1154439Y971772D01*
Y971229D01*
X1154438Y971226D01*
X1153805Y970860D01*
X1153139Y970195D01*
X1152669Y969380D01*
X1152425Y968471D01*
Y967529D01*
X1152669Y966620D01*
X1153139Y965805D01*
X1153805Y965139D01*
X1154438Y964774D01*
X1154439Y964771D01*
Y964229D01*
X1154438Y964226D01*
X1153805Y963861D01*
X1153139Y963195D01*
X1152669Y962380D01*
X1152425Y961471D01*
Y960529D01*
X1152669Y959620D01*
X1153139Y958805D01*
X1153805Y958140D01*
X1154438Y957774D01*
X1154439Y957771D01*
Y957228D01*
X1154438Y957226D01*
X1153805Y956861D01*
X1153139Y956195D01*
X1152669Y955380D01*
X1152425Y954471D01*
Y953529D01*
X1152669Y952620D01*
X1153139Y951805D01*
X1153805Y951140D01*
X1154438Y950774D01*
X1154439Y950772D01*
Y950229D01*
X1154438Y950226D01*
X1153805Y949860D01*
X1153139Y949195D01*
X1152669Y948380D01*
X1152425Y947471D01*
Y946529D01*
X1152669Y945620D01*
X1153139Y944805D01*
X1153805Y944139D01*
X1154438Y943774D01*
X1154439Y943771D01*
Y943229D01*
X1154438Y943226D01*
X1153805Y942861D01*
X1153139Y942195D01*
X1152669Y941380D01*
X1152425Y940471D01*
Y939529D01*
X1152669Y938620D01*
X1153139Y937805D01*
X1153805Y937140D01*
X1154438Y936774D01*
X1154439Y936771D01*
Y936228D01*
X1154438Y936226D01*
X1153805Y935861D01*
X1153139Y935195D01*
X1152669Y934380D01*
X1152425Y933471D01*
Y932529D01*
X1152669Y931620D01*
X1153139Y930805D01*
X1153805Y930140D01*
X1154438Y929774D01*
X1154439Y929772D01*
Y929228D01*
X1154438Y929226D01*
X1153805Y928860D01*
X1153139Y928195D01*
X1152669Y927380D01*
X1152425Y926471D01*
Y925529D01*
X1152669Y924620D01*
X1153139Y923805D01*
X1153805Y923139D01*
X1154620Y922669D01*
X1155529Y922425D01*
X1156471D01*
X1157380Y922669D01*
X1158195Y923139D01*
X1158860Y923805D01*
X1159226Y924438D01*
X1159229Y924439D01*
X1159772D01*
X1159774Y924438D01*
X1160139Y923805D01*
X1160805Y923139D01*
X1161620Y922669D01*
X1162529Y922425D01*
X1163471D01*
X1164380Y922669D01*
X1165195Y923139D01*
X1165860Y923805D01*
X1166226Y924438D01*
X1166228Y924439D01*
X1166772D01*
X1166774Y924438D01*
X1167140Y923805D01*
X1167805Y923139D01*
X1168620Y922669D01*
X1169529Y922425D01*
X1170471D01*
X1171380Y922669D01*
X1172195Y923139D01*
X1172861Y923805D01*
X1173226Y924438D01*
X1173228Y924439D01*
X1173771D01*
X1173774Y924438D01*
X1174139Y923805D01*
X1174805Y923139D01*
X1175620Y922669D01*
X1176529Y922425D01*
X1177471D01*
X1178380Y922669D01*
X1179195Y923139D01*
X1179860Y923805D01*
X1180331Y924620D01*
X1180575Y925529D01*
Y926471D01*
X1180331Y927380D01*
X1179860Y928195D01*
X1179195Y928860D01*
X1178562Y929226D01*
X1178561Y929228D01*
Y929772D01*
X1178562Y929774D01*
X1179195Y930140D01*
X1179860Y930805D01*
X1180331Y931620D01*
X1180575Y932529D01*
Y933471D01*
X1180331Y934380D01*
X1179860Y935195D01*
X1179195Y935861D01*
X1178562Y936226D01*
X1178561Y936228D01*
Y936771D01*
X1178562Y936774D01*
X1179195Y937140D01*
X1179860Y937805D01*
X1180331Y938620D01*
X1180575Y939529D01*
Y940471D01*
X1180331Y941380D01*
X1179860Y942195D01*
X1179195Y942861D01*
X1178380Y943331D01*
X1177471Y943575D01*
X1176529D01*
X1175620Y943331D01*
X1174805Y942861D01*
X1174139Y942195D01*
X1173774Y941562D01*
X1173771Y941561D01*
X1173228D01*
X1173226Y941562D01*
X1172861Y942195D01*
X1172195Y942861D01*
X1171562Y943226D01*
X1171561Y943229D01*
Y943771D01*
X1171562Y943774D01*
X1172195Y944139D01*
X1172861Y944805D01*
X1173331Y945620D01*
X1173575Y946529D01*
Y947471D01*
X1173331Y948380D01*
X1172861Y949195D01*
X1172195Y949860D01*
X1171562Y950226D01*
X1171561Y950229D01*
Y950772D01*
X1171562Y950774D01*
X1172195Y951140D01*
X1172861Y951805D01*
X1173331Y952620D01*
X1173575Y953529D01*
Y954471D01*
X1173331Y955380D01*
X1172861Y956195D01*
X1172195Y956861D01*
X1171562Y957226D01*
X1171561Y957228D01*
Y957771D01*
X1171562Y957774D01*
X1172195Y958140D01*
X1172861Y958805D01*
X1173331Y959620D01*
X1173575Y960529D01*
Y961471D01*
X1173331Y962380D01*
X1172861Y963195D01*
X1172195Y963861D01*
X1171562Y964226D01*
X1171561Y964229D01*
Y964771D01*
X1171562Y964774D01*
X1172195Y965139D01*
X1172861Y965805D01*
X1173331Y966620D01*
X1173575Y967529D01*
Y968471D01*
X1173331Y969380D01*
X1172861Y970195D01*
X1172195Y970860D01*
X1171562Y971226D01*
X1171561Y971229D01*
Y971772D01*
X1171562Y971774D01*
X1172195Y972139D01*
X1172861Y972805D01*
X1173331Y973620D01*
X1173575Y974529D01*
Y975471D01*
X1173331Y976380D01*
X1172861Y977195D01*
X1172195Y977861D01*
X1171562Y978226D01*
X1171561Y978228D01*
Y978771D01*
X1171562Y978774D01*
X1172195Y979140D01*
X1172861Y979805D01*
X1173331Y980620D01*
X1173575Y981529D01*
Y982471D01*
X1173331Y983380D01*
X1172861Y984195D01*
X1172195Y984861D01*
X1171380Y985331D01*
X1170471Y985575D01*
X1169529D01*
X1168620Y985331D01*
X1167805Y984861D01*
X1167140Y984195D01*
X1166774Y983562D01*
X1166772Y983561D01*
X1166228D01*
X1166226Y983562D01*
X1165860Y984195D01*
X1165195Y984861D01*
X1164562Y985226D01*
X1164561Y985229D01*
Y985771D01*
X1164562Y985774D01*
X1165195Y986139D01*
X1165860Y986805D01*
X1166331Y987620D01*
X1166575Y988529D01*
Y989471D01*
X1166331Y990380D01*
X1165860Y991195D01*
X1165195Y991860D01*
X1164562Y992226D01*
X1164561Y992229D01*
Y992772D01*
X1164562Y992774D01*
X1165195Y993139D01*
X1165860Y993805D01*
X1166331Y994620D01*
X1166575Y995529D01*
Y996471D01*
X1166331Y997380D01*
X1165860Y998195D01*
X1165195Y998860D01*
X1164562Y999226D01*
X1164561Y999228D01*
Y999771D01*
X1164562Y999774D01*
X1165195Y1000140D01*
X1165860Y1000805D01*
X1166331Y1001620D01*
X1166575Y1002529D01*
Y1003471D01*
X1166331Y1004380D01*
X1165860Y1005195D01*
X1165195Y1005861D01*
X1164562Y1006226D01*
X1164561Y1006229D01*
Y1006771D01*
X1164562Y1006774D01*
X1165195Y1007139D01*
X1165860Y1007805D01*
X1166331Y1008620D01*
X1166575Y1009529D01*
Y1010471D01*
X1166331Y1011380D01*
X1165860Y1012195D01*
X1165195Y1012860D01*
X1164562Y1013226D01*
X1164561Y1013229D01*
Y1013772D01*
X1164562Y1013774D01*
X1165195Y1014139D01*
X1165860Y1014805D01*
X1166331Y1015620D01*
X1166575Y1016529D01*
Y1017471D01*
X1166331Y1018380D01*
X1165860Y1019195D01*
X1165195Y1019860D01*
X1164562Y1020226D01*
X1164561Y1020228D01*
Y1020772D01*
X1164562Y1020774D01*
X1165195Y1021140D01*
X1165860Y1021805D01*
X1166226Y1022438D01*
X1166228Y1022439D01*
X1166772D01*
X1166774Y1022438D01*
X1167140Y1021805D01*
X1167805Y1021140D01*
X1168620Y1020669D01*
X1169529Y1020425D01*
X1170471D01*
X1171380Y1020669D01*
X1172195Y1021140D01*
X1172861Y1021805D01*
X1173226Y1022438D01*
X1173228Y1022439D01*
X1173771D01*
X1173774Y1022438D01*
X1174139Y1021805D01*
X1174805Y1021140D01*
X1175620Y1020669D01*
X1176529Y1020425D01*
X1177471D01*
X1178380Y1020669D01*
X1179195Y1021140D01*
X1179860Y1021805D01*
X1180331Y1022620D01*
X1180575Y1023529D01*
Y1024471D01*
X1180331Y1025380D01*
X1179860Y1026195D01*
X1179195Y1026861D01*
X1178562Y1027226D01*
X1178561Y1027229D01*
Y1027771D01*
X1178562Y1027774D01*
X1179195Y1028139D01*
X1179860Y1028805D01*
X1180331Y1029620D01*
X1180575Y1030529D01*
Y1031471D01*
X1180331Y1032380D01*
X1179860Y1033195D01*
X1179195Y1033860D01*
X1178380Y1034331D01*
X1177471Y1034575D01*
D02*
G37*
G36*
X1122471Y1028075D02*
X1121529D01*
X1120620Y1027831D01*
X1119805Y1027361D01*
X1119139Y1026695D01*
X1118774Y1026062D01*
X1118771Y1026061D01*
X1118229D01*
X1118226Y1026062D01*
X1117861Y1026695D01*
X1117195Y1027361D01*
X1116380Y1027831D01*
X1115471Y1028075D01*
X1114529D01*
X1113620Y1027831D01*
X1112805Y1027361D01*
X1112140Y1026695D01*
X1111774Y1026062D01*
X1111771Y1026061D01*
X1111228D01*
X1111226Y1026062D01*
X1110861Y1026695D01*
X1110195Y1027361D01*
X1109380Y1027831D01*
X1108471Y1028075D01*
X1107529D01*
X1106620Y1027831D01*
X1105805Y1027361D01*
X1105140Y1026695D01*
X1104774Y1026062D01*
X1104772Y1026061D01*
X1104228D01*
X1104226Y1026062D01*
X1103860Y1026695D01*
X1103195Y1027361D01*
X1102380Y1027831D01*
X1101471Y1028075D01*
X1100529D01*
X1099620Y1027831D01*
X1098805Y1027361D01*
X1098139Y1026695D01*
X1097774Y1026062D01*
X1097771Y1026061D01*
X1097229D01*
X1097226Y1026062D01*
X1096861Y1026695D01*
X1096195Y1027361D01*
X1095380Y1027831D01*
X1094471Y1028075D01*
X1093529D01*
X1092620Y1027831D01*
X1091805Y1027361D01*
X1091140Y1026695D01*
X1090774Y1026062D01*
X1090771Y1026061D01*
X1090228D01*
X1090226Y1026062D01*
X1089861Y1026695D01*
X1089195Y1027361D01*
X1088380Y1027831D01*
X1087471Y1028075D01*
X1086529D01*
X1085620Y1027831D01*
X1085000Y1027473D01*
X1084380Y1027831D01*
X1083471Y1028075D01*
X1082529D01*
X1081620Y1027831D01*
X1080805Y1027361D01*
X1080140Y1026695D01*
X1079669Y1025880D01*
X1079425Y1024971D01*
Y1024029D01*
X1079669Y1023120D01*
X1080140Y1022305D01*
X1080805Y1021640D01*
X1081438Y1021274D01*
X1081439Y1021272D01*
Y1020728D01*
X1081438Y1020726D01*
X1080805Y1020360D01*
X1080140Y1019695D01*
X1079669Y1018880D01*
X1079425Y1017971D01*
Y1017029D01*
X1079669Y1016120D01*
X1080140Y1015305D01*
X1080805Y1014639D01*
X1081438Y1014274D01*
X1081439Y1014272D01*
Y1013729D01*
X1081438Y1013726D01*
X1080805Y1013361D01*
X1080140Y1012695D01*
X1079669Y1011880D01*
X1079425Y1010971D01*
Y1010029D01*
X1079669Y1009120D01*
X1080140Y1008305D01*
X1080805Y1007640D01*
X1081438Y1007274D01*
X1081439Y1007271D01*
Y1006728D01*
X1081438Y1006726D01*
X1080805Y1006361D01*
X1080140Y1005695D01*
X1079669Y1004880D01*
X1079425Y1003971D01*
Y1003029D01*
X1079669Y1002120D01*
X1080140Y1001305D01*
X1080805Y1000640D01*
X1081438Y1000274D01*
X1081439Y1000272D01*
Y999728D01*
X1081438Y999726D01*
X1080805Y999360D01*
X1080140Y998695D01*
X1079669Y997880D01*
X1079425Y996971D01*
Y996029D01*
X1079669Y995120D01*
X1080140Y994305D01*
X1080805Y993639D01*
X1081438Y993274D01*
X1081439Y993272D01*
Y992729D01*
X1081438Y992726D01*
X1080805Y992360D01*
X1080140Y991695D01*
X1079669Y990880D01*
X1079425Y989971D01*
Y989029D01*
X1079669Y988120D01*
X1080140Y987305D01*
X1080805Y986639D01*
X1081438Y986274D01*
X1081439Y986271D01*
Y985728D01*
X1081438Y985726D01*
X1080805Y985361D01*
X1080140Y984695D01*
X1079669Y983880D01*
X1079425Y982971D01*
Y982029D01*
X1079669Y981120D01*
X1080140Y980305D01*
X1080805Y979640D01*
X1081438Y979274D01*
X1081439Y979272D01*
Y978728D01*
X1081438Y978726D01*
X1080805Y978360D01*
X1080140Y977695D01*
X1079669Y976880D01*
X1079425Y975971D01*
Y975029D01*
X1079669Y974120D01*
X1080140Y973305D01*
X1080805Y972639D01*
X1081438Y972274D01*
X1081439Y972272D01*
Y971729D01*
X1081438Y971726D01*
X1080805Y971360D01*
X1080140Y970695D01*
X1079669Y969880D01*
X1079425Y968971D01*
Y968029D01*
X1079669Y967120D01*
X1080140Y966305D01*
X1080805Y965639D01*
X1081438Y965274D01*
X1081439Y965271D01*
Y964729D01*
X1081438Y964726D01*
X1080805Y964361D01*
X1080140Y963695D01*
X1079669Y962880D01*
X1079425Y961971D01*
Y961029D01*
X1079669Y960120D01*
X1080140Y959305D01*
X1080805Y958640D01*
X1081438Y958274D01*
X1081439Y958272D01*
Y957728D01*
X1081438Y957726D01*
X1080805Y957360D01*
X1080140Y956695D01*
X1079669Y955880D01*
X1079425Y954971D01*
Y954029D01*
X1079669Y953120D01*
X1080140Y952305D01*
X1080805Y951639D01*
X1081438Y951274D01*
X1081439Y951272D01*
Y950729D01*
X1081438Y950726D01*
X1080805Y950360D01*
X1080140Y949695D01*
X1079669Y948880D01*
X1079425Y947971D01*
Y947029D01*
X1079669Y946120D01*
X1080140Y945305D01*
X1080805Y944639D01*
X1081438Y944274D01*
X1081439Y944271D01*
Y943729D01*
X1081438Y943726D01*
X1080805Y943361D01*
X1080140Y942695D01*
X1079669Y941880D01*
X1079425Y940971D01*
Y940029D01*
X1079669Y939120D01*
X1080140Y938305D01*
X1080805Y937640D01*
X1081620Y937169D01*
X1082529Y936925D01*
X1083471D01*
X1084380Y937169D01*
X1085000Y937527D01*
X1085438Y937274D01*
X1085439Y937271D01*
Y936728D01*
X1085438Y936726D01*
X1084805Y936360D01*
X1084140Y935695D01*
X1083669Y934880D01*
X1083425Y933971D01*
Y933029D01*
X1083669Y932120D01*
X1084140Y931305D01*
X1084805Y930639D01*
X1085620Y930169D01*
X1086529Y929925D01*
X1087471D01*
X1088380Y930169D01*
X1089195Y930639D01*
X1089861Y931305D01*
X1090226Y931938D01*
X1090228Y931939D01*
X1090771D01*
X1090774Y931938D01*
X1091140Y931305D01*
X1091805Y930639D01*
X1092438Y930274D01*
X1092439Y930272D01*
Y929729D01*
X1092438Y929726D01*
X1091805Y929360D01*
X1091140Y928695D01*
X1090669Y927880D01*
X1090425Y926971D01*
Y926029D01*
X1090669Y925120D01*
X1091140Y924305D01*
X1091805Y923639D01*
X1092620Y923169D01*
X1093529Y922925D01*
X1094471D01*
X1095380Y923169D01*
X1096195Y923639D01*
X1096861Y924305D01*
X1097226Y924938D01*
X1097229Y924939D01*
X1097771D01*
X1097774Y924938D01*
X1098139Y924305D01*
X1098805Y923639D01*
X1099620Y923169D01*
X1100529Y922925D01*
X1101471D01*
X1102380Y923169D01*
X1103195Y923639D01*
X1103860Y924305D01*
X1104226Y924938D01*
X1104228Y924939D01*
X1104772D01*
X1104774Y924938D01*
X1105140Y924305D01*
X1105805Y923639D01*
X1106620Y923169D01*
X1107529Y922925D01*
X1108471D01*
X1109380Y923169D01*
X1110195Y923639D01*
X1110861Y924305D01*
X1111331Y925120D01*
X1111575Y926029D01*
Y926971D01*
X1111331Y927880D01*
X1110861Y928695D01*
X1110195Y929360D01*
X1109562Y929726D01*
X1109561Y929729D01*
Y930272D01*
X1109562Y930274D01*
X1110195Y930639D01*
X1110861Y931305D01*
X1111226Y931938D01*
X1111228Y931939D01*
X1111771D01*
X1111774Y931938D01*
X1112140Y931305D01*
X1112805Y930639D01*
X1113620Y930169D01*
X1114529Y929925D01*
X1115471D01*
X1116380Y930169D01*
X1117195Y930639D01*
X1117861Y931305D01*
X1118331Y932120D01*
X1118575Y933029D01*
Y933971D01*
X1118331Y934880D01*
X1117861Y935695D01*
X1117195Y936360D01*
X1116562Y936726D01*
X1116561Y936728D01*
Y937271D01*
X1116562Y937274D01*
X1117195Y937640D01*
X1117861Y938305D01*
X1118331Y939120D01*
X1118575Y940029D01*
Y940971D01*
X1118331Y941880D01*
X1117861Y942695D01*
X1117195Y943361D01*
X1116562Y943726D01*
X1116561Y943729D01*
Y944271D01*
X1116562Y944274D01*
X1117195Y944639D01*
X1117861Y945305D01*
X1118331Y946120D01*
X1118575Y947029D01*
Y947971D01*
X1118331Y948880D01*
X1117861Y949695D01*
X1117195Y950360D01*
X1116562Y950726D01*
X1116561Y950729D01*
Y951272D01*
X1116562Y951274D01*
X1117195Y951639D01*
X1117861Y952305D01*
X1118331Y953120D01*
X1118575Y954029D01*
Y954971D01*
X1118331Y955880D01*
X1117861Y956695D01*
X1117195Y957360D01*
X1116562Y957726D01*
X1116561Y957728D01*
Y958272D01*
X1116562Y958274D01*
X1117195Y958640D01*
X1117861Y959305D01*
X1118331Y960120D01*
X1118575Y961029D01*
Y961971D01*
X1118331Y962880D01*
X1117861Y963695D01*
X1117195Y964361D01*
X1116562Y964726D01*
X1116561Y964729D01*
Y965271D01*
X1116562Y965274D01*
X1117195Y965639D01*
X1117861Y966305D01*
X1118331Y967120D01*
X1118575Y968029D01*
Y968971D01*
X1118331Y969880D01*
X1117861Y970695D01*
X1117195Y971360D01*
X1116380Y971831D01*
X1115471Y972075D01*
X1114529D01*
X1113620Y971831D01*
X1112805Y971360D01*
X1112140Y970695D01*
X1111774Y970062D01*
X1111771Y970061D01*
X1111228D01*
X1111226Y970062D01*
X1110861Y970695D01*
X1110195Y971360D01*
X1109562Y971726D01*
X1109561Y971729D01*
Y972272D01*
X1109562Y972274D01*
X1110195Y972639D01*
X1110861Y973305D01*
X1111331Y974120D01*
X1111575Y975029D01*
Y975971D01*
X1111331Y976880D01*
X1110861Y977695D01*
X1110195Y978360D01*
X1109562Y978726D01*
X1109561Y978728D01*
Y979272D01*
X1109562Y979274D01*
X1110195Y979640D01*
X1110861Y980305D01*
X1111226Y980938D01*
X1111228Y980939D01*
X1111771D01*
X1111774Y980938D01*
X1112140Y980305D01*
X1112805Y979640D01*
X1113260Y979377D01*
X1113325Y978881D01*
X1113140Y978695D01*
X1112669Y977880D01*
X1112425Y976971D01*
Y976029D01*
X1112669Y975120D01*
X1113140Y974305D01*
X1113805Y973639D01*
X1114620Y973169D01*
X1115529Y972925D01*
X1116471D01*
X1117380Y973169D01*
X1118195Y973639D01*
X1118861Y974305D01*
X1119331Y975120D01*
X1119575Y976029D01*
Y976971D01*
X1119331Y977880D01*
X1118861Y978695D01*
X1118195Y979360D01*
X1117740Y979623D01*
X1117675Y980119D01*
X1117861Y980305D01*
X1118331Y981120D01*
X1118575Y982029D01*
Y982971D01*
X1118331Y983880D01*
X1117861Y984695D01*
X1117195Y985361D01*
X1116562Y985726D01*
X1116561Y985728D01*
Y986271D01*
X1116562Y986274D01*
X1117195Y986639D01*
X1117861Y987305D01*
X1118331Y988120D01*
X1118575Y989029D01*
Y989971D01*
X1118331Y990880D01*
X1117861Y991695D01*
X1117195Y992360D01*
X1116562Y992726D01*
X1116561Y992729D01*
Y993272D01*
X1116562Y993274D01*
X1117195Y993639D01*
X1117861Y994305D01*
X1118226Y994938D01*
X1118229Y994939D01*
X1118771D01*
X1118774Y994938D01*
X1119139Y994305D01*
X1119805Y993639D01*
X1120620Y993169D01*
X1121529Y992925D01*
X1122471D01*
X1123380Y993169D01*
X1124195Y993639D01*
X1124860Y994305D01*
X1125331Y995120D01*
X1125575Y996029D01*
Y996971D01*
X1125331Y997880D01*
X1124860Y998695D01*
X1124195Y999360D01*
X1123562Y999726D01*
X1123561Y999728D01*
Y1000272D01*
X1123562Y1000274D01*
X1124195Y1000640D01*
X1124860Y1001305D01*
X1125331Y1002120D01*
X1125575Y1003029D01*
Y1003971D01*
X1125331Y1004880D01*
X1124860Y1005695D01*
X1124195Y1006361D01*
X1123562Y1006726D01*
X1123561Y1006728D01*
Y1007271D01*
X1123562Y1007274D01*
X1124195Y1007640D01*
X1124860Y1008305D01*
X1125331Y1009120D01*
X1125575Y1010029D01*
Y1010971D01*
X1125331Y1011880D01*
X1124860Y1012695D01*
X1124195Y1013361D01*
X1123562Y1013726D01*
X1123561Y1013729D01*
Y1014272D01*
X1123562Y1014274D01*
X1124195Y1014639D01*
X1124860Y1015305D01*
X1125331Y1016120D01*
X1125575Y1017029D01*
Y1017971D01*
X1125331Y1018880D01*
X1124860Y1019695D01*
X1124195Y1020360D01*
X1123562Y1020726D01*
X1123561Y1020728D01*
Y1021272D01*
X1123562Y1021274D01*
X1124195Y1021640D01*
X1124860Y1022305D01*
X1125331Y1023120D01*
X1125575Y1024029D01*
Y1024971D01*
X1125331Y1025880D01*
X1124860Y1026695D01*
X1124195Y1027361D01*
X1123380Y1027831D01*
X1122471Y1028075D01*
D02*
G37*
G36*
X1032405Y1033930D02*
X1031075D01*
X1029790Y1033586D01*
X1028638Y1032921D01*
X1027698Y1031980D01*
X1027033Y1030828D01*
X1026688Y1029544D01*
Y1028214D01*
X1027033Y1026929D01*
X1027698Y1025777D01*
X1028638Y1024837D01*
X1029790Y1024172D01*
X1031075Y1023827D01*
X1032405D01*
X1033689Y1024172D01*
X1034841Y1024837D01*
X1035782Y1025777D01*
X1036447Y1026929D01*
X1036791Y1028214D01*
Y1029544D01*
X1036447Y1030828D01*
X1035782Y1031980D01*
X1034841Y1032921D01*
X1033689Y1033586D01*
X1032405Y1033930D01*
D02*
G37*
G36*
X1034971Y1014575D02*
X1034029D01*
X1033120Y1014331D01*
X1032305Y1013861D01*
X1031639Y1013195D01*
X1031274Y1012562D01*
X1031271Y1012561D01*
X1030729D01*
X1030726Y1012562D01*
X1030361Y1013195D01*
X1029695Y1013861D01*
X1028880Y1014331D01*
X1027971Y1014575D01*
X1027029D01*
X1026120Y1014331D01*
X1025305Y1013861D01*
X1024640Y1013195D01*
X1024169Y1012380D01*
X1023925Y1011471D01*
Y1010529D01*
X1024169Y1009620D01*
X1024640Y1008805D01*
X1025305Y1008140D01*
X1025938Y1007774D01*
X1025939Y1007771D01*
Y1007228D01*
X1025938Y1007226D01*
X1025305Y1006861D01*
X1024640Y1006195D01*
X1024169Y1005380D01*
X1023925Y1004471D01*
Y1003529D01*
X1024169Y1002620D01*
X1024640Y1001805D01*
X1025305Y1001140D01*
X1025938Y1000774D01*
X1025939Y1000772D01*
Y1000229D01*
X1025938Y1000226D01*
X1025305Y999860D01*
X1024640Y999195D01*
X1024169Y998380D01*
X1023925Y997471D01*
Y996529D01*
X1024169Y995620D01*
X1024640Y994805D01*
X1025305Y994139D01*
X1025938Y993774D01*
X1025939Y993771D01*
Y993229D01*
X1025938Y993226D01*
X1025305Y992861D01*
X1024640Y992195D01*
X1024274Y991562D01*
X1024271Y991561D01*
X1023728D01*
X1023726Y991562D01*
X1023361Y992195D01*
X1022695Y992861D01*
X1021880Y993331D01*
X1020971Y993575D01*
X1020029D01*
X1019120Y993331D01*
X1018305Y992861D01*
X1017640Y992195D01*
X1017169Y991380D01*
X1016925Y990471D01*
Y989529D01*
X1017169Y988620D01*
X1017640Y987805D01*
X1018305Y987140D01*
X1018938Y986774D01*
X1018939Y986771D01*
Y986228D01*
X1018938Y986226D01*
X1018305Y985861D01*
X1017640Y985195D01*
X1017169Y984380D01*
X1016925Y983471D01*
Y982529D01*
X1017169Y981620D01*
X1017640Y980805D01*
X1018305Y980140D01*
X1018938Y979774D01*
X1018939Y979772D01*
Y979228D01*
X1018938Y979226D01*
X1018305Y978860D01*
X1017640Y978195D01*
X1017169Y977380D01*
X1016925Y976471D01*
Y975529D01*
X1017169Y974620D01*
X1017640Y973805D01*
X1018305Y973139D01*
X1018938Y972774D01*
X1018939Y972771D01*
Y972229D01*
X1018938Y972226D01*
X1018305Y971861D01*
X1017640Y971195D01*
X1017169Y970380D01*
X1016925Y969471D01*
Y968529D01*
X1017169Y967620D01*
X1017640Y966805D01*
X1018305Y966140D01*
X1018938Y965774D01*
X1018939Y965771D01*
Y965228D01*
X1018938Y965226D01*
X1018305Y964861D01*
X1017640Y964195D01*
X1017169Y963380D01*
X1016925Y962471D01*
Y961529D01*
X1017169Y960620D01*
X1017640Y959805D01*
X1018305Y959140D01*
X1018938Y958774D01*
X1018939Y958772D01*
Y958228D01*
X1018938Y958226D01*
X1018305Y957860D01*
X1017640Y957195D01*
X1017169Y956380D01*
X1016925Y955471D01*
Y954529D01*
X1017169Y953620D01*
X1017640Y952805D01*
X1018305Y952139D01*
X1018938Y951774D01*
X1018939Y951772D01*
Y951229D01*
X1018938Y951226D01*
X1018305Y950861D01*
X1017640Y950195D01*
X1017169Y949380D01*
X1016925Y948471D01*
Y947529D01*
X1017169Y946620D01*
X1017640Y945805D01*
X1018305Y945140D01*
X1018938Y944774D01*
X1018939Y944771D01*
Y944228D01*
X1018938Y944226D01*
X1018305Y943861D01*
X1017640Y943195D01*
X1017169Y942380D01*
X1016925Y941471D01*
Y940529D01*
X1017169Y939620D01*
X1017640Y938805D01*
X1018305Y938140D01*
X1018938Y937774D01*
X1018939Y937772D01*
Y937228D01*
X1018938Y937226D01*
X1018305Y936860D01*
X1017640Y936195D01*
X1017169Y935380D01*
X1016925Y934471D01*
Y933529D01*
X1017169Y932620D01*
X1017640Y931805D01*
X1018305Y931139D01*
X1018938Y930774D01*
X1018939Y930772D01*
Y930229D01*
X1018938Y930226D01*
X1018305Y929860D01*
X1017640Y929195D01*
X1017169Y928380D01*
X1016925Y927471D01*
Y926529D01*
X1017169Y925620D01*
X1017640Y924805D01*
X1018305Y924139D01*
X1019120Y923669D01*
X1020029Y923425D01*
X1020971D01*
X1021880Y923669D01*
X1022695Y924139D01*
X1023361Y924805D01*
X1023726Y925438D01*
X1023728Y925439D01*
X1024271D01*
X1024274Y925438D01*
X1024640Y924805D01*
X1025305Y924139D01*
X1026120Y923669D01*
X1027029Y923425D01*
X1027971D01*
X1028880Y923669D01*
X1029695Y924139D01*
X1030361Y924805D01*
X1030726Y925438D01*
X1030729Y925439D01*
X1031271D01*
X1031274Y925438D01*
X1031639Y924805D01*
X1032305Y924139D01*
X1033120Y923669D01*
X1034029Y923425D01*
X1034971D01*
X1035880Y923669D01*
X1036695Y924139D01*
X1037360Y924805D01*
X1037726Y925438D01*
X1037729Y925439D01*
X1038272D01*
X1038274Y925438D01*
X1038640Y924805D01*
X1039305Y924139D01*
X1040120Y923669D01*
X1041029Y923425D01*
X1041971D01*
X1042880Y923669D01*
X1043695Y924139D01*
X1044361Y924805D01*
X1044726Y925438D01*
X1044728Y925439D01*
X1045271D01*
X1045274Y925438D01*
X1045640Y924805D01*
X1046305Y924139D01*
X1047120Y923669D01*
X1048029Y923425D01*
X1048971D01*
X1049880Y923669D01*
X1050695Y924139D01*
X1051361Y924805D01*
X1051831Y925620D01*
X1052075Y926529D01*
Y927471D01*
X1051831Y928380D01*
X1051361Y929195D01*
X1050695Y929860D01*
X1050062Y930226D01*
X1050061Y930229D01*
Y930772D01*
X1050062Y930774D01*
X1050695Y931139D01*
X1051361Y931805D01*
X1051831Y932620D01*
X1052075Y933529D01*
Y934471D01*
X1051831Y935380D01*
X1051361Y936195D01*
X1050695Y936860D01*
X1050062Y937226D01*
X1050061Y937228D01*
Y937772D01*
X1050062Y937774D01*
X1050695Y938140D01*
X1051361Y938805D01*
X1051831Y939620D01*
X1052075Y940529D01*
Y941471D01*
X1051831Y942380D01*
X1051361Y943195D01*
X1050695Y943861D01*
X1050062Y944226D01*
X1050061Y944228D01*
Y944771D01*
X1050062Y944774D01*
X1050695Y945140D01*
X1051361Y945805D01*
X1051831Y946620D01*
X1052075Y947529D01*
Y948471D01*
X1051831Y949380D01*
X1051361Y950195D01*
X1050695Y950861D01*
X1050062Y951226D01*
X1050061Y951229D01*
Y951772D01*
X1050062Y951774D01*
X1050695Y952139D01*
X1051361Y952805D01*
X1051831Y953620D01*
X1052075Y954529D01*
Y955471D01*
X1051831Y956380D01*
X1051361Y957195D01*
X1050695Y957860D01*
X1050062Y958226D01*
X1050061Y958228D01*
Y958772D01*
X1050062Y958774D01*
X1050695Y959140D01*
X1051361Y959805D01*
X1051831Y960620D01*
X1052075Y961529D01*
Y962471D01*
X1051831Y963380D01*
X1051361Y964195D01*
X1050695Y964861D01*
X1050062Y965226D01*
X1050061Y965228D01*
Y965771D01*
X1050062Y965774D01*
X1050695Y966140D01*
X1051361Y966805D01*
X1051831Y967620D01*
X1052075Y968529D01*
Y969471D01*
X1051831Y970380D01*
X1051361Y971195D01*
X1050695Y971861D01*
X1050062Y972226D01*
X1050061Y972229D01*
Y972771D01*
X1050062Y972774D01*
X1050695Y973139D01*
X1051361Y973805D01*
X1051831Y974620D01*
X1052075Y975529D01*
Y976471D01*
X1051831Y977380D01*
X1051361Y978195D01*
X1050695Y978860D01*
X1050062Y979226D01*
X1050061Y979228D01*
Y979772D01*
X1050062Y979774D01*
X1050695Y980140D01*
X1051361Y980805D01*
X1051831Y981620D01*
X1052075Y982529D01*
Y983471D01*
X1051831Y984380D01*
X1051361Y985195D01*
X1050695Y985861D01*
X1050062Y986226D01*
X1050061Y986228D01*
Y986771D01*
X1050062Y986774D01*
X1050695Y987140D01*
X1051361Y987805D01*
X1051831Y988620D01*
X1052075Y989529D01*
Y990471D01*
X1051831Y991380D01*
X1051361Y992195D01*
X1050695Y992861D01*
X1050062Y993226D01*
X1050061Y993229D01*
Y993771D01*
X1050062Y993774D01*
X1050695Y994139D01*
X1051361Y994805D01*
X1051831Y995620D01*
X1052075Y996529D01*
Y997471D01*
X1051831Y998380D01*
X1051361Y999195D01*
X1050695Y999860D01*
X1049880Y1000331D01*
X1048971Y1000575D01*
X1048029D01*
X1047120Y1000331D01*
X1046305Y999860D01*
X1045640Y999195D01*
X1045274Y998562D01*
X1045271Y998561D01*
X1044728D01*
X1044726Y998562D01*
X1044361Y999195D01*
X1043695Y999860D01*
X1043062Y1000226D01*
X1043061Y1000229D01*
Y1000772D01*
X1043062Y1000774D01*
X1043695Y1001140D01*
X1044361Y1001805D01*
X1044831Y1002620D01*
X1045075Y1003529D01*
Y1004471D01*
X1044831Y1005380D01*
X1044361Y1006195D01*
X1043695Y1006861D01*
X1042880Y1007331D01*
X1041971Y1007575D01*
X1041029D01*
X1040120Y1007331D01*
X1039305Y1006861D01*
X1038640Y1006195D01*
X1038274Y1005562D01*
X1038272Y1005561D01*
X1037729D01*
X1037726Y1005562D01*
X1037360Y1006195D01*
X1036695Y1006861D01*
X1036062Y1007226D01*
X1036061Y1007228D01*
Y1007771D01*
X1036062Y1007774D01*
X1036695Y1008140D01*
X1037360Y1008805D01*
X1037831Y1009620D01*
X1038075Y1010529D01*
Y1011471D01*
X1037831Y1012380D01*
X1037360Y1013195D01*
X1036695Y1013861D01*
X1035880Y1014331D01*
X1034971Y1014575D01*
D02*
G37*
G36*
X1180842Y1010851D02*
X1179512D01*
X1178228Y1010507D01*
X1177076Y1009842D01*
X1176136Y1008901D01*
X1175471Y1007749D01*
X1175126Y1006465D01*
Y1005135D01*
X1175471Y1003850D01*
X1176136Y1002698D01*
X1177076Y1001758D01*
X1178228Y1001093D01*
X1179512Y1000749D01*
X1180842D01*
X1182127Y1001093D01*
X1183279Y1001758D01*
X1184219Y1002698D01*
X1184884Y1003850D01*
X1185229Y1005135D01*
Y1006465D01*
X1184884Y1007749D01*
X1184219Y1008901D01*
X1183279Y1009842D01*
X1182127Y1010507D01*
X1180842Y1010851D01*
D02*
G37*
G36*
X1231518Y994345D02*
X1230576D01*
X1229667Y994102D01*
X1228852Y993631D01*
X1228186Y992966D01*
X1227716Y992150D01*
X1227472Y991241D01*
Y990300D01*
X1227716Y989391D01*
X1228186Y988576D01*
X1228852Y987910D01*
X1229667Y987439D01*
X1230576Y987196D01*
X1231518D01*
X1232427Y987439D01*
X1233242Y987910D01*
X1233907Y988576D01*
X1234378Y989391D01*
X1234622Y990300D01*
Y991241D01*
X1234378Y992150D01*
X1233907Y992966D01*
X1233242Y993631D01*
X1232427Y994102D01*
X1231518Y994345D01*
D02*
G37*
G36*
X1208484D02*
X1207543D01*
X1206634Y994102D01*
X1205819Y993631D01*
X1205153Y992966D01*
X1204683Y992150D01*
X1204439Y991241D01*
Y990300D01*
X1204683Y989391D01*
X1205153Y988576D01*
X1205819Y987910D01*
X1206634Y987439D01*
X1207543Y987196D01*
X1208484D01*
X1209394Y987439D01*
X1210209Y987910D01*
X1210874Y988576D01*
X1211345Y989391D01*
X1211589Y990300D01*
Y991241D01*
X1211345Y992150D01*
X1210874Y992966D01*
X1210209Y993631D01*
X1209394Y994102D01*
X1208484Y994345D01*
D02*
G37*
G36*
X997332D02*
X996391D01*
X995482Y994102D01*
X994666Y993631D01*
X994001Y992966D01*
X993530Y992150D01*
X993287Y991241D01*
Y990300D01*
X993530Y989391D01*
X994001Y988576D01*
X994666Y987910D01*
X995482Y987439D01*
X996391Y987196D01*
X997332D01*
X998241Y987439D01*
X999056Y987910D01*
X999722Y988576D01*
X1000193Y989391D01*
X1000436Y990300D01*
Y991241D01*
X1000193Y992150D01*
X999722Y992966D01*
X999056Y993631D01*
X998241Y994102D01*
X997332Y994345D01*
D02*
G37*
G36*
X974166D02*
X973225D01*
X972316Y994102D01*
X971500Y993631D01*
X970835Y992966D01*
X970364Y992150D01*
X970121Y991241D01*
Y990300D01*
X970364Y989391D01*
X970835Y988576D01*
X971500Y987910D01*
X972316Y987439D01*
X973225Y987196D01*
X974166D01*
X975075Y987439D01*
X975890Y987910D01*
X976556Y988576D01*
X977027Y989391D01*
X977270Y990300D01*
Y991241D01*
X977027Y992150D01*
X976556Y992966D01*
X975890Y993631D01*
X975075Y994102D01*
X974166Y994345D01*
D02*
G37*
G36*
X1272971Y986668D02*
X1272029D01*
X1271120Y986424D01*
X1270305Y985954D01*
X1269639Y985288D01*
X1269169Y984473D01*
X1268925Y983564D01*
Y982623D01*
X1269169Y981713D01*
X1269639Y980898D01*
X1270305Y980233D01*
X1271120Y979762D01*
X1272029Y979518D01*
X1272971D01*
X1273880Y979762D01*
X1274695Y980233D01*
X1275360Y980898D01*
X1275831Y981713D01*
X1276075Y982623D01*
Y983564D01*
X1275831Y984473D01*
X1275360Y985288D01*
X1274695Y985954D01*
X1273880Y986424D01*
X1272971Y986668D01*
D02*
G37*
G36*
X932471D02*
X931529D01*
X930620Y986424D01*
X929805Y985954D01*
X929140Y985288D01*
X928669Y984473D01*
X928425Y983564D01*
Y982623D01*
X928669Y981713D01*
X929140Y980898D01*
X929805Y980233D01*
X930620Y979762D01*
X931529Y979518D01*
X932471D01*
X933380Y979762D01*
X934195Y980233D01*
X934861Y980898D01*
X935331Y981713D01*
X935575Y982623D01*
Y983564D01*
X935331Y984473D01*
X934861Y985288D01*
X934195Y985954D01*
X933380Y986424D01*
X932471Y986668D01*
D02*
G37*
G36*
X1208484Y984471D02*
X1207543D01*
X1206634Y984227D01*
X1205819Y983757D01*
X1205153Y983091D01*
X1204683Y982276D01*
X1204439Y981367D01*
Y980425D01*
X1204683Y979516D01*
X1205153Y978701D01*
X1205819Y978035D01*
X1206634Y977565D01*
X1207543Y977321D01*
X1208484D01*
X1209394Y977565D01*
X1210209Y978035D01*
X1210874Y978701D01*
X1211345Y979516D01*
X1211589Y980425D01*
Y981367D01*
X1211345Y982276D01*
X1210874Y983091D01*
X1210209Y983757D01*
X1209394Y984227D01*
X1208484Y984471D01*
D02*
G37*
G36*
X1148042Y982575D02*
X1147101D01*
X1146192Y982331D01*
X1145377Y981861D01*
X1144711Y981195D01*
X1144241Y980380D01*
X1143997Y979471D01*
Y978529D01*
X1144241Y977620D01*
X1144711Y976805D01*
X1145377Y976140D01*
X1146192Y975669D01*
X1147101Y975425D01*
X1148042D01*
X1148952Y975669D01*
X1149767Y976140D01*
X1150432Y976805D01*
X1150903Y977620D01*
X1151147Y978529D01*
Y979471D01*
X1150903Y980380D01*
X1150432Y981195D01*
X1149767Y981861D01*
X1148952Y982331D01*
X1148042Y982575D01*
D02*
G37*
G36*
X1123899D02*
X1122958D01*
X1122048Y982331D01*
X1121233Y981861D01*
X1120568Y981195D01*
X1120097Y980380D01*
X1119853Y979471D01*
Y978529D01*
X1120097Y977620D01*
X1120568Y976805D01*
X1121233Y976140D01*
X1122048Y975669D01*
X1122958Y975425D01*
X1123899D01*
X1124808Y975669D01*
X1125623Y976140D01*
X1126289Y976805D01*
X1126759Y977620D01*
X1127003Y978529D01*
Y979471D01*
X1126759Y980380D01*
X1126289Y981195D01*
X1125623Y981861D01*
X1124808Y982331D01*
X1123899Y982575D01*
D02*
G37*
G36*
X1208484Y974596D02*
X1207543D01*
X1206634Y974352D01*
X1205819Y973882D01*
X1205153Y973216D01*
X1204683Y972401D01*
X1204439Y971492D01*
Y970551D01*
X1204683Y969641D01*
X1205153Y968826D01*
X1205819Y968161D01*
X1206634Y967690D01*
X1207543Y967447D01*
X1208484D01*
X1209394Y967690D01*
X1210209Y968161D01*
X1210874Y968826D01*
X1211345Y969641D01*
X1211589Y970551D01*
Y971492D01*
X1211345Y972401D01*
X1210874Y973216D01*
X1210209Y973882D01*
X1209394Y974352D01*
X1208484Y974596D01*
D02*
G37*
G36*
X963971Y963075D02*
X963029D01*
X962120Y962831D01*
X961305Y962360D01*
X960639Y961695D01*
X960274Y961062D01*
X960271Y961061D01*
X959729D01*
X959726Y961062D01*
X959361Y961695D01*
X958695Y962360D01*
X957880Y962831D01*
X956971Y963075D01*
X956029D01*
X955120Y962831D01*
X954305Y962360D01*
X953640Y961695D01*
X953274Y961062D01*
X953271Y961061D01*
X952728D01*
X952726Y961062D01*
X952361Y961695D01*
X951695Y962360D01*
X950880Y962831D01*
X949971Y963075D01*
X949029D01*
X948120Y962831D01*
X947305Y962360D01*
X946640Y961695D01*
X946274Y961062D01*
X946272Y961061D01*
X945728D01*
X945726Y961062D01*
X945360Y961695D01*
X944695Y962360D01*
X943880Y962831D01*
X942971Y963075D01*
X942029D01*
X941120Y962831D01*
X940305Y962360D01*
X939639Y961695D01*
X939169Y960880D01*
X938925Y959971D01*
Y959029D01*
X939169Y958120D01*
X939639Y957305D01*
X940305Y956639D01*
X940938Y956274D01*
X940939Y956271D01*
Y955729D01*
X940938Y955726D01*
X940305Y955361D01*
X939639Y954695D01*
X939274Y954062D01*
X939272Y954061D01*
X938729D01*
X938726Y954062D01*
X938361Y954695D01*
X937695Y955361D01*
X936880Y955831D01*
X935971Y956075D01*
X935029D01*
X934836Y956023D01*
X934577Y956471D01*
X934861Y956754D01*
X935331Y957570D01*
X935575Y958479D01*
Y959420D01*
X935331Y960329D01*
X934861Y961144D01*
X934195Y961810D01*
X933380Y962281D01*
X932471Y962524D01*
X931529D01*
X930620Y962281D01*
X929805Y961810D01*
X929140Y961144D01*
X928669Y960329D01*
X928425Y959420D01*
Y958479D01*
X928669Y957570D01*
X929140Y956754D01*
X929422Y956471D01*
X929164Y956023D01*
X928971Y956075D01*
X928029D01*
X927120Y955831D01*
X926305Y955361D01*
X925640Y954695D01*
X925274Y954062D01*
X925272Y954061D01*
X924728D01*
X924726Y954062D01*
X924360Y954695D01*
X923695Y955361D01*
X923062Y955726D01*
X923061Y955729D01*
Y956271D01*
X923062Y956274D01*
X923695Y956639D01*
X924360Y957305D01*
X924831Y958120D01*
X925075Y959029D01*
Y959971D01*
X924831Y960880D01*
X924360Y961695D01*
X923695Y962360D01*
X922880Y962831D01*
X921971Y963075D01*
X921029D01*
X920120Y962831D01*
X919305Y962360D01*
X918639Y961695D01*
X918169Y960880D01*
X917925Y959971D01*
Y959029D01*
X918169Y958120D01*
X918639Y957305D01*
X919305Y956639D01*
X919938Y956274D01*
X919939Y956271D01*
Y955729D01*
X919938Y955726D01*
X919305Y955361D01*
X918639Y954695D01*
X918169Y953880D01*
X917925Y952971D01*
Y952029D01*
X918169Y951120D01*
X918639Y950305D01*
X919305Y949640D01*
X919938Y949274D01*
X919939Y949271D01*
Y948728D01*
X919938Y948726D01*
X919305Y948361D01*
X918639Y947695D01*
X918169Y946880D01*
X917925Y945971D01*
Y945029D01*
X918169Y944120D01*
X918639Y943305D01*
X919305Y942640D01*
X919938Y942274D01*
X919939Y942272D01*
Y941728D01*
X919938Y941726D01*
X919305Y941360D01*
X918639Y940695D01*
X918169Y939880D01*
X917925Y938971D01*
Y938029D01*
X918169Y937120D01*
X918639Y936305D01*
X919305Y935639D01*
X919938Y935274D01*
X919939Y935271D01*
Y934729D01*
X919938Y934726D01*
X919305Y934361D01*
X918639Y933695D01*
X918169Y932880D01*
X917925Y931971D01*
Y931029D01*
X918169Y930120D01*
X918639Y929305D01*
X919305Y928640D01*
X919938Y928274D01*
X919939Y928271D01*
Y927728D01*
X919938Y927726D01*
X919305Y927361D01*
X918639Y926695D01*
X918169Y925880D01*
X917925Y924971D01*
Y924029D01*
X918169Y923120D01*
X918639Y922305D01*
X919305Y921640D01*
X919938Y921274D01*
X919939Y921272D01*
Y920728D01*
X919938Y920726D01*
X919305Y920360D01*
X918639Y919695D01*
X918169Y918880D01*
X917925Y917971D01*
Y917029D01*
X918169Y916120D01*
X918639Y915305D01*
X919305Y914639D01*
X919938Y914274D01*
X919939Y914272D01*
Y913729D01*
X919938Y913726D01*
X919305Y913361D01*
X918639Y912695D01*
X918169Y911880D01*
X917925Y910971D01*
Y910029D01*
X918169Y909120D01*
X918639Y908305D01*
X919305Y907640D01*
X919938Y907274D01*
X919939Y907271D01*
Y906728D01*
X919938Y906726D01*
X919305Y906361D01*
X918639Y905695D01*
X918169Y904880D01*
X917925Y903971D01*
Y903029D01*
X918169Y902120D01*
X918639Y901305D01*
X919305Y900640D01*
X920120Y900169D01*
X921029Y899925D01*
X921971D01*
X922880Y900169D01*
X923695Y900640D01*
X924360Y901305D01*
X924831Y902120D01*
X925075Y903029D01*
Y903971D01*
X925057Y904037D01*
X925076Y904080D01*
X925223Y904119D01*
X925622Y904068D01*
X925954Y903268D01*
X926700Y902151D01*
X927651Y901200D01*
X928768Y900454D01*
X930010Y899939D01*
X931328Y899677D01*
X932672D01*
X933990Y899939D01*
X935232Y900454D01*
X936349Y901200D01*
X937300Y902151D01*
X938046Y903268D01*
X938378Y904068D01*
X938697Y904126D01*
X938924Y904080D01*
X938943Y904037D01*
X938925Y903971D01*
Y903029D01*
X939169Y902120D01*
X939639Y901305D01*
X940305Y900640D01*
X941120Y900169D01*
X942029Y899925D01*
X942971D01*
X943880Y900169D01*
X944695Y900640D01*
X945360Y901305D01*
X945726Y901938D01*
X945728Y901939D01*
X946272D01*
X946274Y901938D01*
X946640Y901305D01*
X947305Y900640D01*
X948120Y900169D01*
X949029Y899925D01*
X949971D01*
X950880Y900169D01*
X951695Y900640D01*
X952361Y901305D01*
X952726Y901938D01*
X952728Y901939D01*
X953271D01*
X953274Y901938D01*
X953640Y901305D01*
X954305Y900640D01*
X955120Y900169D01*
X956029Y899925D01*
X956971D01*
X957880Y900169D01*
X958695Y900640D01*
X959361Y901305D01*
X959726Y901938D01*
X959729Y901939D01*
X960271D01*
X960274Y901938D01*
X960639Y901305D01*
X961305Y900640D01*
X962120Y900169D01*
X963029Y899925D01*
X963971D01*
X964880Y900169D01*
X965695Y900640D01*
X966360Y901305D01*
X966831Y902120D01*
X967075Y903029D01*
Y903971D01*
X966831Y904880D01*
X966360Y905695D01*
X965695Y906361D01*
X965062Y906726D01*
X965061Y906728D01*
Y907271D01*
X965062Y907274D01*
X965695Y907640D01*
X966360Y908305D01*
X966831Y909120D01*
X967075Y910029D01*
Y910971D01*
X966831Y911880D01*
X966360Y912695D01*
X965695Y913361D01*
X965062Y913726D01*
X965061Y913729D01*
Y914272D01*
X965062Y914274D01*
X965695Y914639D01*
X966360Y915305D01*
X966831Y916120D01*
X967075Y917029D01*
Y917971D01*
X966831Y918880D01*
X966360Y919695D01*
X965695Y920360D01*
X965062Y920726D01*
X965061Y920728D01*
Y921272D01*
X965062Y921274D01*
X965695Y921640D01*
X966360Y922305D01*
X966831Y923120D01*
X967075Y924029D01*
Y924971D01*
X966831Y925880D01*
X966360Y926695D01*
X965695Y927361D01*
X965062Y927726D01*
X965061Y927728D01*
Y928271D01*
X965062Y928274D01*
X965695Y928640D01*
X966360Y929305D01*
X966831Y930120D01*
X967075Y931029D01*
Y931971D01*
X966831Y932880D01*
X966360Y933695D01*
X965695Y934361D01*
X965062Y934726D01*
X965061Y934729D01*
Y935271D01*
X965062Y935274D01*
X965695Y935639D01*
X966360Y936305D01*
X966831Y937120D01*
X967075Y938029D01*
Y938971D01*
X966831Y939880D01*
X966360Y940695D01*
X965695Y941360D01*
X965062Y941726D01*
X965061Y941728D01*
Y942272D01*
X965062Y942274D01*
X965695Y942640D01*
X966360Y943305D01*
X966831Y944120D01*
X967075Y945029D01*
Y945971D01*
X966831Y946880D01*
X966360Y947695D01*
X965695Y948361D01*
X965062Y948726D01*
X965061Y948728D01*
Y949271D01*
X965062Y949274D01*
X965695Y949640D01*
X966360Y950305D01*
X966831Y951120D01*
X967075Y952029D01*
Y952971D01*
X966831Y953880D01*
X966360Y954695D01*
X965695Y955361D01*
X965062Y955726D01*
X965061Y955729D01*
Y956271D01*
X965062Y956274D01*
X965695Y956639D01*
X966360Y957305D01*
X966831Y958120D01*
X967075Y959029D01*
Y959971D01*
X966831Y960880D01*
X966360Y961695D01*
X965695Y962360D01*
X964880Y962831D01*
X963971Y963075D01*
D02*
G37*
G36*
X1212971Y920575D02*
X1212029D01*
X1211120Y920331D01*
X1210305Y919860D01*
X1209639Y919195D01*
X1209169Y918380D01*
X1208925Y917471D01*
Y916529D01*
X1209169Y915620D01*
X1209639Y914805D01*
X1210305Y914139D01*
X1211120Y913669D01*
X1212029Y913425D01*
X1212971D01*
X1213880Y913669D01*
X1214695Y914139D01*
X1215361Y914805D01*
X1215831Y915620D01*
X1216075Y916529D01*
Y917471D01*
X1215831Y918380D01*
X1215361Y919195D01*
X1214695Y919860D01*
X1213880Y920331D01*
X1212971Y920575D01*
D02*
G37*
G36*
X1078471Y920075D02*
X1077529D01*
X1076620Y919831D01*
X1075805Y919361D01*
X1075140Y918695D01*
X1074669Y917880D01*
X1074425Y916971D01*
Y916029D01*
X1074669Y915120D01*
X1075140Y914305D01*
X1075805Y913640D01*
X1076620Y913169D01*
X1077529Y912925D01*
X1078471D01*
X1079380Y913169D01*
X1080195Y913640D01*
X1080861Y914305D01*
X1081331Y915120D01*
X1081575Y916029D01*
Y916971D01*
X1081331Y917880D01*
X1080861Y918695D01*
X1080195Y919361D01*
X1079380Y919831D01*
X1078471Y920075D01*
D02*
G37*
G36*
X1189165Y922051D02*
X1187835D01*
X1186550Y921707D01*
X1185398Y921042D01*
X1184458Y920102D01*
X1183793Y918950D01*
X1183449Y917665D01*
Y916335D01*
X1183793Y915050D01*
X1184458Y913898D01*
X1185398Y912958D01*
X1186550Y912293D01*
X1187835Y911949D01*
X1189165D01*
X1190450Y912293D01*
X1191601Y912958D01*
X1192542Y913898D01*
X1193207Y915050D01*
X1193551Y916335D01*
Y917665D01*
X1193207Y918950D01*
X1192542Y920102D01*
X1191601Y921042D01*
X1190450Y921707D01*
X1189165Y922051D01*
D02*
G37*
G36*
X1046165Y921551D02*
X1044835D01*
X1043550Y921207D01*
X1042398Y920542D01*
X1041458Y919602D01*
X1040793Y918450D01*
X1040449Y917165D01*
Y915835D01*
X1040793Y914550D01*
X1041458Y913398D01*
X1042398Y912458D01*
X1043550Y911793D01*
X1044835Y911449D01*
X1046165D01*
X1047450Y911793D01*
X1048602Y912458D01*
X1049542Y913398D01*
X1050207Y914550D01*
X1050551Y915835D01*
Y917165D01*
X1050207Y918450D01*
X1049542Y919602D01*
X1048602Y920542D01*
X1047450Y921207D01*
X1046165Y921551D01*
D02*
G37*
G36*
X1157471Y850075D02*
X1156529D01*
X1155620Y849831D01*
X1154805Y849360D01*
X1154140Y848695D01*
X1153669Y847880D01*
X1153425Y846971D01*
Y846029D01*
X1153669Y845120D01*
X1154140Y844305D01*
X1154805Y843639D01*
X1155620Y843169D01*
X1156529Y842925D01*
X1157471D01*
X1158380Y843169D01*
X1159195Y843639D01*
X1159861Y844305D01*
X1160331Y845120D01*
X1160575Y846029D01*
Y846971D01*
X1160331Y847880D01*
X1159861Y848695D01*
X1159195Y849360D01*
X1158380Y849831D01*
X1157471Y850075D01*
D02*
G37*
G36*
X1140471D02*
X1139529D01*
X1138620Y849831D01*
X1137805Y849360D01*
X1137140Y848695D01*
X1136669Y847880D01*
X1136425Y846971D01*
Y846029D01*
X1136669Y845120D01*
X1137140Y844305D01*
X1137805Y843639D01*
X1138620Y843169D01*
X1139529Y842925D01*
X1140471D01*
X1141380Y843169D01*
X1142195Y843639D01*
X1142861Y844305D01*
X1143331Y845120D01*
X1143575Y846029D01*
Y846971D01*
X1143331Y847880D01*
X1142861Y848695D01*
X1142195Y849360D01*
X1141380Y849831D01*
X1140471Y850075D01*
D02*
G37*
G36*
X1081471Y849575D02*
X1080529D01*
X1079620Y849331D01*
X1078805Y848860D01*
X1078139Y848195D01*
X1077669Y847380D01*
X1077425Y846471D01*
Y845529D01*
X1077669Y844620D01*
X1078139Y843805D01*
X1078805Y843139D01*
X1079620Y842669D01*
X1080529Y842425D01*
X1081471D01*
X1082380Y842669D01*
X1083195Y843139D01*
X1083860Y843805D01*
X1084331Y844620D01*
X1084575Y845529D01*
Y846471D01*
X1084331Y847380D01*
X1083860Y848195D01*
X1083195Y848860D01*
X1082380Y849331D01*
X1081471Y849575D01*
D02*
G37*
G36*
X1067471D02*
X1066529D01*
X1065620Y849331D01*
X1064805Y848860D01*
X1064139Y848195D01*
X1063669Y847380D01*
X1063425Y846471D01*
Y845529D01*
X1063669Y844620D01*
X1064139Y843805D01*
X1064805Y843139D01*
X1065620Y842669D01*
X1066529Y842425D01*
X1067471D01*
X1068380Y842669D01*
X1069195Y843139D01*
X1069860Y843805D01*
X1070331Y844620D01*
X1070575Y845529D01*
Y846471D01*
X1070331Y847380D01*
X1069860Y848195D01*
X1069195Y848860D01*
X1068380Y849331D01*
X1067471Y849575D01*
D02*
G37*
G36*
X1020251Y845043D02*
X1019310D01*
X1018400Y844800D01*
X1017585Y844329D01*
X1016920Y843664D01*
X1016449Y842848D01*
X1016205Y841939D01*
Y840998D01*
X1016449Y840089D01*
X1016920Y839274D01*
X1017585Y838608D01*
X1018400Y838137D01*
X1019310Y837894D01*
X1020251D01*
X1021160Y838137D01*
X1021975Y838608D01*
X1022641Y839274D01*
X1023111Y840089D01*
X1023355Y840998D01*
Y841939D01*
X1023111Y842848D01*
X1022641Y843664D01*
X1021975Y844329D01*
X1021160Y844800D01*
X1020251Y845043D01*
D02*
G37*
G36*
X1046981Y844626D02*
X1045651D01*
X1044366Y844281D01*
X1043215Y843616D01*
X1042274Y842676D01*
X1041609Y841524D01*
X1041265Y840239D01*
Y838909D01*
X1041609Y837625D01*
X1042274Y836473D01*
X1043215Y835532D01*
X1044366Y834867D01*
X1045651Y834523D01*
X1046981D01*
X1048266Y834867D01*
X1049418Y835532D01*
X1050358Y836473D01*
X1051023Y837625D01*
X1051367Y838909D01*
Y840239D01*
X1051023Y841524D01*
X1050358Y842676D01*
X1049418Y843616D01*
X1048266Y844281D01*
X1046981Y844626D01*
D02*
G37*
G36*
X1121526Y844533D02*
X1120196D01*
X1118911Y844188D01*
X1117759Y843524D01*
X1116819Y842583D01*
X1116154Y841431D01*
X1115810Y840147D01*
Y838817D01*
X1116154Y837532D01*
X1116819Y836380D01*
X1117759Y835440D01*
X1118911Y834775D01*
X1120196Y834430D01*
X1121526D01*
X1122811Y834775D01*
X1123962Y835440D01*
X1124903Y836380D01*
X1125568Y837532D01*
X1125912Y838817D01*
Y840147D01*
X1125568Y841431D01*
X1124903Y842583D01*
X1123962Y843524D01*
X1122811Y844188D01*
X1121526Y844533D01*
D02*
G37*
G36*
X1246471Y833575D02*
X1245529D01*
X1244620Y833331D01*
X1243805Y832860D01*
X1243139Y832195D01*
X1242669Y831380D01*
X1242425Y830471D01*
Y829529D01*
X1242669Y828620D01*
X1243139Y827805D01*
X1243805Y827139D01*
X1244620Y826669D01*
X1245529Y826425D01*
X1246471D01*
X1247380Y826669D01*
X1248195Y827139D01*
X1248860Y827805D01*
X1249331Y828620D01*
X1249575Y829529D01*
Y830471D01*
X1249331Y831380D01*
X1248860Y832195D01*
X1248195Y832860D01*
X1247380Y833331D01*
X1246471Y833575D01*
D02*
G37*
G36*
X970502Y823043D02*
X969561D01*
X968652Y822800D01*
X968032Y822441D01*
X967411Y822800D01*
X966502Y823043D01*
X965561D01*
X964652Y822800D01*
X963837Y822329D01*
X963171Y821663D01*
X962700Y820848D01*
X962457Y819939D01*
Y818998D01*
X962700Y818089D01*
X963171Y817273D01*
X963837Y816608D01*
X964652Y816137D01*
X965561Y815894D01*
X966502D01*
X967411Y816137D01*
X968032Y816495D01*
X968652Y816137D01*
X969561Y815894D01*
X970502D01*
X971411Y816137D01*
X972227Y816608D01*
X972892Y817273D01*
X973363Y818089D01*
X973606Y818998D01*
Y819939D01*
X973363Y820848D01*
X972892Y821663D01*
X972227Y822329D01*
X971411Y822800D01*
X970502Y823043D01*
D02*
G37*
G36*
X1239971Y827575D02*
X1239029D01*
X1238120Y827331D01*
X1237305Y826861D01*
X1236639Y826195D01*
X1236169Y825380D01*
X1235925Y824471D01*
Y823529D01*
X1236169Y822620D01*
X1236639Y821805D01*
X1237305Y821140D01*
X1238120Y820669D01*
X1239029Y820425D01*
X1239971D01*
X1240880Y820669D01*
X1241695Y821140D01*
X1242360Y821805D01*
X1242831Y822620D01*
X1243075Y823529D01*
Y824471D01*
X1242831Y825380D01*
X1242360Y826195D01*
X1241695Y826861D01*
X1240880Y827331D01*
X1239971Y827575D01*
D02*
G37*
G36*
X985971Y827075D02*
X985029D01*
X984120Y826831D01*
X983305Y826361D01*
X982640Y825695D01*
X982169Y824880D01*
X981925Y823971D01*
Y823029D01*
X982169Y822120D01*
X982640Y821305D01*
X983305Y820640D01*
X984120Y820169D01*
X985029Y819925D01*
X985971D01*
X986880Y820169D01*
X987695Y820640D01*
X988361Y821305D01*
X988831Y822120D01*
X989075Y823029D01*
Y823971D01*
X988831Y824880D01*
X988361Y825695D01*
X987695Y826361D01*
X986880Y826831D01*
X985971Y827075D01*
D02*
G37*
G36*
X1122070Y825163D02*
X1121128D01*
X1120219Y824920D01*
X1119404Y824449D01*
X1118738Y823784D01*
X1118268Y822968D01*
X1118024Y822059D01*
Y821118D01*
X1118268Y820209D01*
X1118738Y819394D01*
X1119404Y818728D01*
X1120219Y818257D01*
X1121128Y818014D01*
X1122070D01*
X1122979Y818257D01*
X1123794Y818728D01*
X1124459Y819394D01*
X1124930Y820209D01*
X1125174Y821118D01*
Y822059D01*
X1124930Y822968D01*
X1124459Y823784D01*
X1123794Y824449D01*
X1122979Y824920D01*
X1122070Y825163D01*
D02*
G37*
G36*
X1047559Y824860D02*
X1046618D01*
X1045709Y824616D01*
X1044894Y824146D01*
X1044228Y823480D01*
X1043758Y822665D01*
X1043514Y821756D01*
Y820815D01*
X1043758Y819905D01*
X1044228Y819090D01*
X1044894Y818425D01*
X1045709Y817954D01*
X1046618Y817710D01*
X1047559D01*
X1048469Y817954D01*
X1049284Y818425D01*
X1049949Y819090D01*
X1050420Y819905D01*
X1050664Y820815D01*
Y821756D01*
X1050420Y822665D01*
X1049949Y823480D01*
X1049284Y824146D01*
X1048469Y824616D01*
X1047559Y824860D01*
D02*
G37*
G36*
X932672Y827384D02*
X931328D01*
X930010Y827121D01*
X928768Y826607D01*
X927651Y825860D01*
X926700Y824910D01*
X925954Y823792D01*
X925439Y822551D01*
X925177Y821233D01*
Y819889D01*
X925439Y818571D01*
X925954Y817329D01*
X926700Y816211D01*
X927651Y815261D01*
X928768Y814514D01*
X930010Y814000D01*
X931328Y813738D01*
X932672D01*
X933990Y814000D01*
X935232Y814514D01*
X936349Y815261D01*
X937300Y816211D01*
X938046Y817329D01*
X938561Y818571D01*
X938823Y819889D01*
Y821233D01*
X938561Y822551D01*
X938046Y823792D01*
X937300Y824910D01*
X936349Y825860D01*
X935232Y826607D01*
X933990Y827121D01*
X932672Y827384D01*
D02*
G37*
G36*
X1065971Y820575D02*
X1065029D01*
X1064120Y820331D01*
X1063305Y819860D01*
X1062640Y819195D01*
X1062169Y818380D01*
X1061925Y817471D01*
Y816529D01*
X1062169Y815620D01*
X1062640Y814805D01*
X1063305Y814139D01*
X1064120Y813669D01*
X1065029Y813425D01*
X1065971D01*
X1066880Y813669D01*
X1067695Y814139D01*
X1068361Y814805D01*
X1068831Y815620D01*
X1069075Y816529D01*
Y817471D01*
X1068831Y818380D01*
X1068361Y819195D01*
X1067695Y819860D01*
X1066880Y820331D01*
X1065971Y820575D01*
D02*
G37*
G36*
X1131448Y815221D02*
X1130507D01*
X1129598Y814977D01*
X1128783Y814507D01*
X1128117Y813841D01*
X1127647Y813026D01*
X1127403Y812117D01*
Y811175D01*
X1127647Y810266D01*
X1128117Y809451D01*
X1128783Y808785D01*
X1129598Y808315D01*
X1130507Y808071D01*
X1131448D01*
X1132358Y808315D01*
X1133173Y808785D01*
X1133838Y809451D01*
X1134309Y810266D01*
X1134552Y811175D01*
Y812117D01*
X1134309Y813026D01*
X1133838Y813841D01*
X1133173Y814507D01*
X1132358Y814977D01*
X1131448Y815221D01*
D02*
G37*
G36*
X1056938Y815221D02*
X1055997D01*
X1055088Y814977D01*
X1054272Y814506D01*
X1053607Y813841D01*
X1053136Y813026D01*
X1052893Y812117D01*
Y811175D01*
X1053136Y810266D01*
X1053607Y809451D01*
X1054272Y808785D01*
X1055088Y808315D01*
X1055997Y808071D01*
X1056938D01*
X1057847Y808315D01*
X1058663Y808785D01*
X1059328Y809451D01*
X1059799Y810266D01*
X1060042Y811175D01*
Y812117D01*
X1059799Y813026D01*
X1059328Y813841D01*
X1058663Y814506D01*
X1057847Y814977D01*
X1056938Y815221D01*
D02*
G37*
G36*
X1232445Y809096D02*
X1231555D01*
X1230696Y808865D01*
X1229926Y808421D01*
X1229297Y807792D01*
X1228852Y807022D01*
X1228622Y806162D01*
Y805273D01*
X1228852Y804414D01*
X1229297Y803644D01*
X1229926Y803015D01*
X1230696Y802570D01*
X1231555Y802340D01*
X1232445D01*
X1233304Y802570D01*
X1234074Y803015D01*
X1234703Y803644D01*
X1235148Y804414D01*
X1235378Y805273D01*
Y806162D01*
X1235148Y807022D01*
X1234703Y807792D01*
X1234074Y808421D01*
X1233304Y808865D01*
X1232445Y809096D01*
D02*
G37*
G36*
X1223945Y805878D02*
X1223055D01*
X1222196Y805648D01*
X1221426Y805203D01*
X1220797Y804574D01*
X1220352Y803804D01*
X1220122Y802945D01*
Y802055D01*
X1220352Y801196D01*
X1220797Y800426D01*
X1221426Y799797D01*
X1222196Y799352D01*
X1223055Y799122D01*
X1223945D01*
X1224804Y799352D01*
X1225574Y799797D01*
X1226203Y800426D01*
X1226648Y801196D01*
X1226878Y802055D01*
Y802945D01*
X1226648Y803804D01*
X1226203Y804574D01*
X1225574Y805203D01*
X1224804Y805648D01*
X1223945Y805878D01*
D02*
G37*
G36*
X1033221Y805160D02*
X1032279D01*
X1031370Y804916D01*
X1030555Y804446D01*
X1029889Y803780D01*
X1029419Y802965D01*
X1029175Y802056D01*
Y801114D01*
X1029419Y800205D01*
X1029889Y799390D01*
X1030555Y798724D01*
X1031370Y798254D01*
X1032279Y798010D01*
X1033221D01*
X1034130Y798254D01*
X1034945Y798724D01*
X1035610Y799390D01*
X1036081Y800205D01*
X1036325Y801114D01*
Y802056D01*
X1036081Y802965D01*
X1035610Y803780D01*
X1034945Y804446D01*
X1034130Y804916D01*
X1033221Y805160D01*
D02*
G37*
G36*
X1211971Y805075D02*
X1211029D01*
X1210120Y804831D01*
X1209305Y804360D01*
X1208640Y803695D01*
X1208169Y802880D01*
X1207925Y801971D01*
Y801029D01*
X1208169Y800120D01*
X1208640Y799305D01*
X1209305Y798639D01*
X1210120Y798169D01*
X1211029Y797925D01*
X1211971D01*
X1212880Y798169D01*
X1213695Y798639D01*
X1214361Y799305D01*
X1214831Y800120D01*
X1215075Y801029D01*
Y801971D01*
X1214831Y802880D01*
X1214361Y803695D01*
X1213695Y804360D01*
X1212880Y804831D01*
X1211971Y805075D01*
D02*
G37*
G36*
X1190971Y804575D02*
X1190029D01*
X1189120Y804331D01*
X1188305Y803860D01*
X1187640Y803195D01*
X1187169Y802380D01*
X1186925Y801471D01*
Y800529D01*
X1187169Y799620D01*
X1187640Y798805D01*
X1188305Y798139D01*
X1189120Y797669D01*
X1190029Y797425D01*
X1190971D01*
X1191880Y797669D01*
X1192695Y798139D01*
X1193361Y798805D01*
X1193831Y799620D01*
X1194075Y800529D01*
Y801471D01*
X1193831Y802380D01*
X1193361Y803195D01*
X1192695Y803860D01*
X1191880Y804331D01*
X1190971Y804575D01*
D02*
G37*
G36*
X1087344Y798378D02*
X1086454D01*
X1085595Y798148D01*
X1084825Y797703D01*
X1084196Y797074D01*
X1083751Y796304D01*
X1083654Y795940D01*
X1083445Y795996D01*
X1082555D01*
X1081696Y795766D01*
X1080926Y795321D01*
X1080297Y794692D01*
X1079852Y793922D01*
X1079622Y793063D01*
Y792173D01*
X1079852Y791314D01*
X1080297Y790544D01*
X1080926Y789915D01*
X1081696Y789470D01*
X1082555Y789240D01*
X1083070D01*
X1083155Y789109D01*
X1083248Y788740D01*
X1082671Y788163D01*
X1082200Y787348D01*
X1081957Y786439D01*
Y785498D01*
X1082200Y784589D01*
X1082671Y783773D01*
X1083337Y783108D01*
X1084152Y782637D01*
X1085061Y782394D01*
X1086002D01*
X1086911Y782637D01*
X1087727Y783108D01*
X1088392Y783773D01*
X1088863Y784589D01*
X1089106Y785498D01*
Y786439D01*
X1088863Y787348D01*
X1088392Y788163D01*
X1087727Y788829D01*
X1086911Y789300D01*
X1086002Y789543D01*
X1085384D01*
X1085202Y790043D01*
X1085703Y790544D01*
X1086148Y791314D01*
X1086245Y791678D01*
X1086454Y791622D01*
X1087344D01*
X1088203Y791852D01*
X1088973Y792297D01*
X1089602Y792926D01*
X1090047Y793696D01*
X1090277Y794555D01*
Y795445D01*
X1090047Y796304D01*
X1089602Y797074D01*
X1088973Y797703D01*
X1088203Y798148D01*
X1087344Y798378D01*
D02*
G37*
G36*
X1180494Y786790D02*
X1179605D01*
X1178746Y786560D01*
X1177975Y786115D01*
X1177380Y785520D01*
X1177241Y785465D01*
X1176927D01*
X1176789Y785520D01*
X1176193Y786115D01*
X1175422Y786560D01*
X1174563Y786790D01*
X1173674D01*
X1172815Y786560D01*
X1172044Y786115D01*
X1171416Y785486D01*
X1170971Y784716D01*
X1170741Y783857D01*
Y782968D01*
X1170971Y782108D01*
X1171416Y781338D01*
X1172044Y780709D01*
X1172815Y780265D01*
X1173674Y780034D01*
X1174563D01*
X1175422Y780265D01*
X1176193Y780709D01*
X1176789Y781305D01*
X1176927Y781360D01*
X1177241D01*
X1177380Y781305D01*
X1177975Y780709D01*
X1178746Y780265D01*
X1179605Y780034D01*
X1180494D01*
X1181353Y780265D01*
X1182124Y780709D01*
X1182753Y781338D01*
X1183197Y782108D01*
X1183428Y782968D01*
Y783857D01*
X1183197Y784716D01*
X1182753Y785486D01*
X1182124Y786115D01*
X1181353Y786560D01*
X1180494Y786790D01*
D02*
G37*
G36*
X978971Y792075D02*
X978029D01*
X977120Y791831D01*
X976305Y791361D01*
X975640Y790695D01*
X975169Y789880D01*
X974925Y788971D01*
Y788029D01*
X975169Y787120D01*
X975640Y786305D01*
X976305Y785639D01*
X977120Y785169D01*
X978029Y784925D01*
X978971D01*
X979880Y785169D01*
X980695Y785639D01*
X981361Y786305D01*
X981831Y787120D01*
X982075Y788029D01*
Y788971D01*
X981831Y789880D01*
X981361Y790695D01*
X980695Y791361D01*
X979880Y791831D01*
X978971Y792075D01*
D02*
G37*
G36*
X970971D02*
X970029D01*
X969120Y791831D01*
X968305Y791361D01*
X967640Y790695D01*
X967169Y789880D01*
X966925Y788971D01*
Y788029D01*
X967169Y787120D01*
X967640Y786305D01*
X968305Y785639D01*
X969120Y785169D01*
X970029Y784925D01*
X970971D01*
X971880Y785169D01*
X972695Y785639D01*
X973361Y786305D01*
X973831Y787120D01*
X974075Y788029D01*
Y788971D01*
X973831Y789880D01*
X973361Y790695D01*
X972695Y791361D01*
X971880Y791831D01*
X970971Y792075D01*
D02*
G37*
G36*
X955471Y796075D02*
X954529D01*
X953620Y795831D01*
X952805Y795361D01*
X952139Y794695D01*
X951669Y793880D01*
X951425Y792971D01*
Y792029D01*
X951669Y791120D01*
X952027Y790500D01*
X951669Y789880D01*
X951425Y788971D01*
Y788029D01*
X951669Y787120D01*
X952027Y786500D01*
X951669Y785880D01*
X951425Y784971D01*
Y784029D01*
X951669Y783120D01*
X952139Y782305D01*
X952805Y781639D01*
X953620Y781169D01*
X954529Y780925D01*
X955471D01*
X956380Y781169D01*
X957195Y781639D01*
X957860Y782305D01*
X958331Y783120D01*
X958575Y784029D01*
Y784971D01*
X958331Y785880D01*
X957973Y786500D01*
X958331Y787120D01*
X958491Y787717D01*
X959009D01*
X959169Y787120D01*
X959639Y786305D01*
X960305Y785639D01*
X961120Y785169D01*
X962029Y784925D01*
X962971D01*
X963880Y785169D01*
X964695Y785639D01*
X965361Y786305D01*
X965831Y787120D01*
X966075Y788029D01*
Y788971D01*
X965831Y789880D01*
X965361Y790695D01*
X964695Y791361D01*
X963880Y791831D01*
X962971Y792075D01*
X962029D01*
X961120Y791831D01*
X960305Y791361D01*
X959639Y790695D01*
X959169Y789880D01*
X959009Y789283D01*
X958491D01*
X958331Y789880D01*
X957973Y790500D01*
X958331Y791120D01*
X958575Y792029D01*
Y792971D01*
X958331Y793880D01*
X957860Y794695D01*
X957195Y795361D01*
X956380Y795831D01*
X955471Y796075D01*
D02*
G37*
G36*
X1063971Y783490D02*
X1063029D01*
X1062120Y783246D01*
X1061305Y782776D01*
X1061000Y782471D01*
X1060695Y782776D01*
X1059880Y783246D01*
X1058971Y783490D01*
X1058029D01*
X1057120Y783246D01*
X1056305Y782776D01*
X1055639Y782110D01*
X1055169Y781295D01*
X1054925Y780386D01*
Y779444D01*
X1055169Y778535D01*
X1055639Y777720D01*
X1056305Y777054D01*
X1057120Y776584D01*
X1058029Y776340D01*
X1058971D01*
X1059880Y776584D01*
X1060695Y777054D01*
X1061000Y777359D01*
X1061305Y777054D01*
X1062120Y776584D01*
X1063029Y776340D01*
X1063971D01*
X1064880Y776584D01*
X1065695Y777054D01*
X1066360Y777720D01*
X1066632Y778191D01*
X1067169Y778120D01*
X1067640Y777305D01*
X1068305Y776640D01*
X1069120Y776169D01*
X1070029Y775925D01*
X1070971D01*
X1071880Y776169D01*
X1072695Y776640D01*
X1073361Y777305D01*
X1073831Y778120D01*
X1074075Y779029D01*
Y779971D01*
X1073831Y780880D01*
X1073361Y781695D01*
X1072695Y782361D01*
X1071880Y782831D01*
X1070971Y783075D01*
X1070029D01*
X1069120Y782831D01*
X1068305Y782361D01*
X1067640Y781695D01*
X1067368Y781224D01*
X1066831Y781295D01*
X1066360Y782110D01*
X1065695Y782776D01*
X1064880Y783246D01*
X1063971Y783490D01*
D02*
G37*
G36*
X1108034Y783490D02*
X1107093D01*
X1106183Y783246D01*
X1105368Y782775D01*
X1105063Y782470D01*
X1104758Y782775D01*
X1103943Y783246D01*
X1103034Y783490D01*
X1102093D01*
X1101183Y783246D01*
X1100368Y782775D01*
X1099703Y782110D01*
X1099232Y781295D01*
X1098988Y780385D01*
Y779444D01*
X1099232Y778535D01*
X1099703Y777720D01*
X1100368Y777054D01*
X1101183Y776584D01*
X1102093Y776340D01*
X1103034D01*
X1103943Y776584D01*
X1104758Y777054D01*
X1105063Y777359D01*
X1105368Y777054D01*
X1106183Y776584D01*
X1107093Y776340D01*
X1108034D01*
X1108943Y776584D01*
X1109758Y777054D01*
X1110424Y777720D01*
X1110442Y777752D01*
X1110942Y777618D01*
Y777070D01*
X1111186Y776161D01*
X1111657Y775346D01*
X1112322Y774680D01*
X1113137Y774209D01*
X1114046Y773966D01*
X1114988D01*
X1115897Y774209D01*
X1116712Y774680D01*
X1117378Y775346D01*
X1117848Y776161D01*
X1118092Y777070D01*
Y778011D01*
X1117848Y778920D01*
X1117378Y779735D01*
X1116712Y780401D01*
X1115897Y780872D01*
X1114988Y781115D01*
X1114046D01*
X1113137Y780872D01*
X1112322Y780401D01*
X1111657Y779735D01*
X1111638Y779703D01*
X1111138Y779837D01*
Y780385D01*
X1110894Y781295D01*
X1110424Y782110D01*
X1109758Y782775D01*
X1108943Y783246D01*
X1108034Y783490D01*
D02*
G37*
G36*
X1020150Y788302D02*
X1019209D01*
X1018299Y788058D01*
X1017484Y787587D01*
X1016819Y786922D01*
X1016348Y786107D01*
X1016105Y785198D01*
Y784256D01*
X1016348Y783347D01*
X1016819Y782532D01*
X1017484Y781866D01*
X1018299Y781396D01*
X1019209Y781152D01*
X1020150D01*
X1021059Y781396D01*
X1021874Y781866D01*
X1022540Y782532D01*
X1023011Y783347D01*
X1023254Y784256D01*
Y785198D01*
X1023011Y786107D01*
X1022540Y786922D01*
X1021874Y787587D01*
X1021059Y788058D01*
X1020150Y788302D01*
D02*
G37*
G36*
X1194971Y784075D02*
X1194029D01*
X1193120Y783831D01*
X1192305Y783360D01*
X1191640Y782695D01*
X1191169Y781880D01*
X1190925Y780971D01*
Y780029D01*
X1191169Y779120D01*
X1191640Y778305D01*
X1192305Y777639D01*
X1193120Y777169D01*
X1194029Y776925D01*
X1194971D01*
X1195880Y777169D01*
X1196695Y777639D01*
X1197361Y778305D01*
X1197831Y779120D01*
X1198075Y780029D01*
Y780971D01*
X1197831Y781880D01*
X1197361Y782695D01*
X1196695Y783360D01*
X1195880Y783831D01*
X1194971Y784075D01*
D02*
G37*
G36*
X1246471Y783575D02*
X1245529D01*
X1244620Y783331D01*
X1243805Y782861D01*
X1243139Y782195D01*
X1242669Y781380D01*
X1242425Y780471D01*
Y779529D01*
X1242669Y778620D01*
X1243139Y777805D01*
X1243805Y777140D01*
X1244620Y776669D01*
X1245529Y776425D01*
X1246471D01*
X1247380Y776669D01*
X1248195Y777140D01*
X1248860Y777805D01*
X1249331Y778620D01*
X1249575Y779529D01*
Y780471D01*
X1249331Y781380D01*
X1248860Y782195D01*
X1248195Y782861D01*
X1247380Y783331D01*
X1246471Y783575D01*
D02*
G37*
G36*
X1048971D02*
X1048029D01*
X1047120Y783331D01*
X1046305Y782861D01*
X1045640Y782195D01*
X1045169Y781380D01*
X1044925Y780471D01*
Y779529D01*
X1045169Y778620D01*
X1045640Y777805D01*
X1046305Y777140D01*
X1047120Y776669D01*
X1048029Y776425D01*
X1048971D01*
X1049880Y776669D01*
X1050695Y777140D01*
X1051361Y777805D01*
X1051831Y778620D01*
X1052075Y779529D01*
Y780471D01*
X1051831Y781380D01*
X1051361Y782195D01*
X1050695Y782861D01*
X1049880Y783331D01*
X1048971Y783575D01*
D02*
G37*
G36*
X1081002Y783490D02*
X1080061D01*
X1079152Y783246D01*
X1078337Y782776D01*
X1077671Y782110D01*
X1077200Y781295D01*
X1076957Y780386D01*
Y779444D01*
X1077200Y778535D01*
X1077671Y777720D01*
X1078337Y777054D01*
X1079152Y776584D01*
X1080061Y776340D01*
X1081002D01*
X1081911Y776584D01*
X1082727Y777054D01*
X1083392Y777720D01*
X1083863Y778535D01*
X1084106Y779444D01*
Y780386D01*
X1083863Y781295D01*
X1083392Y782110D01*
X1082727Y782776D01*
X1081911Y783246D01*
X1081002Y783490D01*
D02*
G37*
G36*
X1221971Y781575D02*
X1221029D01*
X1220120Y781331D01*
X1219305Y780861D01*
X1218639Y780195D01*
X1218169Y779380D01*
X1217925Y778471D01*
Y777529D01*
X1218169Y776620D01*
X1218639Y775805D01*
X1219305Y775140D01*
X1220120Y774669D01*
X1221029Y774425D01*
X1221971D01*
X1222880Y774669D01*
X1223695Y775140D01*
X1224360Y775805D01*
X1224831Y776620D01*
X1225075Y777529D01*
Y778471D01*
X1224831Y779380D01*
X1224360Y780195D01*
X1223695Y780861D01*
X1222880Y781331D01*
X1221971Y781575D01*
D02*
G37*
G36*
X1092971D02*
X1092029D01*
X1091120Y781331D01*
X1090305Y780861D01*
X1089639Y780195D01*
X1089169Y779380D01*
X1088925Y778471D01*
Y777529D01*
X1089169Y776620D01*
X1089639Y775805D01*
X1090305Y775140D01*
X1091120Y774669D01*
X1092029Y774425D01*
X1092971D01*
X1093880Y774669D01*
X1094695Y775140D01*
X1095360Y775805D01*
X1095831Y776620D01*
X1096075Y777529D01*
Y778471D01*
X1095831Y779380D01*
X1095360Y780195D01*
X1094695Y780861D01*
X1093880Y781331D01*
X1092971Y781575D01*
D02*
G37*
G36*
X1203945Y778878D02*
X1203055D01*
X1202196Y778648D01*
X1201426Y778203D01*
X1200797Y777574D01*
X1200352Y776804D01*
X1200122Y775945D01*
Y775055D01*
X1200352Y774196D01*
X1200797Y773426D01*
X1201426Y772797D01*
X1202196Y772352D01*
X1203055Y772122D01*
X1203945D01*
X1204804Y772352D01*
X1205480Y772743D01*
X1205926Y772297D01*
X1206696Y771852D01*
X1207555Y771622D01*
X1208445D01*
X1209304Y771852D01*
X1210074Y772297D01*
X1210703Y772926D01*
X1211148Y773696D01*
X1211378Y774555D01*
Y775445D01*
X1211148Y776304D01*
X1210703Y777074D01*
X1210074Y777703D01*
X1209304Y778148D01*
X1208445Y778378D01*
X1207555D01*
X1206696Y778148D01*
X1206020Y777757D01*
X1205574Y778203D01*
X1204804Y778648D01*
X1203945Y778878D01*
D02*
G37*
G36*
X1156165Y788463D02*
X1154835D01*
X1153550Y788119D01*
X1152398Y787454D01*
X1151458Y786514D01*
X1150793Y785362D01*
X1150449Y784077D01*
Y782747D01*
X1150793Y781463D01*
X1151458Y780311D01*
X1152338Y779430D01*
X1151458Y778550D01*
X1150793Y777398D01*
X1150449Y776114D01*
Y774784D01*
X1150793Y773499D01*
X1151458Y772347D01*
X1152398Y771407D01*
X1153550Y770742D01*
X1154835Y770397D01*
X1156165D01*
X1157450Y770742D01*
X1158601Y771407D01*
X1159542Y772347D01*
X1160207Y773499D01*
X1160551Y774784D01*
Y776114D01*
X1160207Y777398D01*
X1159542Y778550D01*
X1158662Y779430D01*
X1159542Y780311D01*
X1160207Y781463D01*
X1160551Y782747D01*
Y784077D01*
X1160207Y785362D01*
X1159542Y786514D01*
X1158601Y787454D01*
X1157450Y788119D01*
X1156165Y788463D01*
D02*
G37*
G36*
X1214894Y770327D02*
X1214004D01*
X1213145Y770097D01*
X1212375Y769652D01*
X1211746Y769023D01*
X1211588Y768749D01*
X1211010D01*
X1210853Y769023D01*
X1210224Y769652D01*
X1209453Y770097D01*
X1208594Y770327D01*
X1207705D01*
X1206846Y770097D01*
X1206075Y769652D01*
X1205447Y769023D01*
X1205289Y768749D01*
X1204711D01*
X1204553Y769023D01*
X1203924Y769652D01*
X1203154Y770097D01*
X1202295Y770327D01*
X1201406D01*
X1200547Y770097D01*
X1199776Y769652D01*
X1199147Y769023D01*
X1198703Y768253D01*
X1198472Y767393D01*
Y766504D01*
X1198703Y765645D01*
X1198859Y765374D01*
X1198703Y765103D01*
X1198472Y764244D01*
Y763354D01*
X1198703Y762495D01*
X1199147Y761725D01*
X1199776Y761096D01*
X1200050Y760938D01*
Y760361D01*
X1199776Y760203D01*
X1199147Y759574D01*
X1198703Y758804D01*
X1198472Y757945D01*
Y757728D01*
X1198256D01*
X1197397Y757498D01*
X1197126Y757342D01*
X1196855Y757498D01*
X1195996Y757728D01*
X1195780D01*
Y757945D01*
X1195549Y758804D01*
X1195105Y759574D01*
X1194476Y760203D01*
X1193705Y760648D01*
X1192846Y760878D01*
X1191957D01*
X1191098Y760648D01*
X1190327Y760203D01*
X1189699Y759574D01*
X1189254Y758804D01*
X1189024Y757945D01*
Y757055D01*
X1189254Y756196D01*
X1189699Y755426D01*
X1190327Y754797D01*
X1191098Y754352D01*
X1191957Y754122D01*
X1192173D01*
Y753906D01*
X1192403Y753047D01*
X1192848Y752276D01*
X1193299Y751826D01*
X1193040Y751377D01*
X1192846Y751429D01*
X1191957D01*
X1191098Y751199D01*
X1190327Y750754D01*
X1189699Y750125D01*
X1189254Y749355D01*
X1189024Y748496D01*
Y747607D01*
X1189254Y746747D01*
X1189699Y745977D01*
X1190327Y745348D01*
X1191098Y744903D01*
X1191957Y744673D01*
X1192846D01*
X1193705Y744903D01*
X1194476Y745348D01*
X1195105Y745977D01*
X1195549Y746747D01*
X1195780Y747607D01*
Y748496D01*
X1195549Y749355D01*
X1195105Y750125D01*
X1194654Y750576D01*
X1194913Y751024D01*
X1195107Y750973D01*
X1195996D01*
X1196855Y751203D01*
X1197126Y751359D01*
X1197397Y751203D01*
X1198256Y750973D01*
X1198472D01*
Y750756D01*
X1198703Y749897D01*
X1198859Y749626D01*
X1198703Y749355D01*
X1198472Y748496D01*
Y747607D01*
X1198703Y746747D01*
X1199147Y745977D01*
X1199598Y745526D01*
X1199339Y745078D01*
X1199146Y745130D01*
X1198256D01*
X1197397Y744900D01*
X1196627Y744455D01*
X1195998Y743826D01*
X1195553Y743056D01*
X1195323Y742197D01*
Y741307D01*
X1195553Y740448D01*
X1195998Y739678D01*
X1196627Y739049D01*
X1197397Y738604D01*
X1198256Y738374D01*
X1199146D01*
X1200005Y738604D01*
X1200775Y739049D01*
X1201404Y739678D01*
X1201849Y740448D01*
X1202079Y741307D01*
Y742197D01*
X1201849Y743056D01*
X1201404Y743826D01*
X1200953Y744277D01*
X1201212Y744725D01*
X1201406Y744673D01*
X1202295D01*
X1203154Y744903D01*
X1203425Y745060D01*
X1203696Y744903D01*
X1204555Y744673D01*
X1205445D01*
X1206304Y744903D01*
X1206575Y745060D01*
X1206846Y744903D01*
X1207705Y744673D01*
X1207921D01*
Y744457D01*
X1208152Y743598D01*
X1208596Y742828D01*
X1209225Y742199D01*
X1209995Y741754D01*
X1210855Y741524D01*
X1211744D01*
X1212603Y741754D01*
X1213373Y742199D01*
X1214002Y742828D01*
X1214447Y743598D01*
X1214677Y744457D01*
Y745346D01*
X1214447Y746205D01*
X1214002Y746976D01*
X1213373Y747605D01*
X1212603Y748049D01*
X1211744Y748279D01*
X1211528D01*
Y748496D01*
X1211297Y749355D01*
X1210853Y750125D01*
X1210224Y750754D01*
X1209453Y751199D01*
X1208594Y751429D01*
X1208378D01*
Y751646D01*
X1208148Y752505D01*
X1207703Y753275D01*
X1207252Y753726D01*
X1207511Y754174D01*
X1207705Y754122D01*
X1208594D01*
X1209453Y754352D01*
X1210224Y754797D01*
X1210674Y755248D01*
X1211123Y754989D01*
X1211071Y754795D01*
Y753906D01*
X1211301Y753047D01*
X1211746Y752276D01*
X1212375Y751647D01*
X1213145Y751203D01*
X1214004Y750973D01*
X1214894D01*
X1215753Y751203D01*
X1216523Y751647D01*
X1217152Y752276D01*
X1217597Y753047D01*
X1217827Y753906D01*
Y754122D01*
X1218043D01*
X1218902Y754352D01*
X1219271Y754565D01*
X1219700Y754235D01*
X1219622Y753945D01*
Y753055D01*
X1219852Y752196D01*
X1220297Y751426D01*
X1220512Y751211D01*
X1220447Y750715D01*
X1220426Y750703D01*
X1219797Y750074D01*
X1219352Y749304D01*
X1219122Y748445D01*
Y747555D01*
X1219352Y746696D01*
X1219797Y745926D01*
X1220426Y745297D01*
X1221196Y744852D01*
X1222055Y744622D01*
X1222945D01*
X1223804Y744852D01*
X1224574Y745297D01*
X1225203Y745926D01*
X1225648Y746696D01*
X1225878Y747555D01*
Y747747D01*
X1226378Y748036D01*
X1226696Y747852D01*
X1227555Y747622D01*
X1228445D01*
X1229304Y747852D01*
X1230074Y748297D01*
X1230703Y748926D01*
X1231148Y749696D01*
X1231378Y750555D01*
Y751445D01*
X1231148Y752304D01*
X1230703Y753074D01*
X1230074Y753703D01*
X1229304Y754148D01*
X1228445Y754378D01*
X1227555D01*
X1226696Y754148D01*
X1226277Y754321D01*
X1226148Y754804D01*
X1225703Y755574D01*
X1225527Y755750D01*
X1225703Y755926D01*
X1226148Y756696D01*
X1226378Y757555D01*
Y758445D01*
X1226148Y759304D01*
X1225746Y760000D01*
X1226148Y760696D01*
X1226378Y761555D01*
Y762445D01*
X1226148Y763304D01*
X1225703Y764074D01*
X1225074Y764703D01*
X1224304Y765148D01*
X1223445Y765378D01*
X1222555D01*
X1221696Y765148D01*
X1220926Y764703D01*
X1220297Y764074D01*
X1219852Y763304D01*
X1219622Y762445D01*
Y761555D01*
X1219852Y760696D01*
X1219869Y760667D01*
X1219503Y760301D01*
X1218902Y760648D01*
X1218043Y760878D01*
X1217827D01*
Y761094D01*
X1217597Y761953D01*
X1217152Y762724D01*
X1216523Y763353D01*
X1216249Y763511D01*
Y764088D01*
X1216523Y764246D01*
X1217152Y764875D01*
X1217597Y765645D01*
X1217827Y766504D01*
Y767393D01*
X1217597Y768253D01*
X1217152Y769023D01*
X1216523Y769652D01*
X1215753Y770097D01*
X1214894Y770327D01*
D02*
G37*
G36*
X1132471Y773075D02*
X1131529D01*
X1130620Y772831D01*
X1129805Y772361D01*
X1129140Y771695D01*
X1128669Y770880D01*
X1128425Y769971D01*
Y769029D01*
X1128669Y768120D01*
X1129140Y767305D01*
X1129805Y766640D01*
X1130620Y766169D01*
X1131529Y765925D01*
X1132471D01*
X1133380Y766169D01*
X1134195Y766640D01*
X1134861Y767305D01*
X1135331Y768120D01*
X1135575Y769029D01*
Y769971D01*
X1135331Y770880D01*
X1134861Y771695D01*
X1134195Y772361D01*
X1133380Y772831D01*
X1132471Y773075D01*
D02*
G37*
G36*
X1180494Y778826D02*
X1179605D01*
X1178746Y778596D01*
X1177975Y778152D01*
X1177347Y777523D01*
X1176902Y776752D01*
X1176672Y775893D01*
Y775004D01*
X1176902Y774145D01*
X1177347Y773374D01*
X1177975Y772745D01*
X1178746Y772301D01*
X1178998Y772233D01*
X1179126Y771681D01*
X1178640Y771195D01*
X1178169Y770380D01*
X1177925Y769471D01*
Y768529D01*
X1178169Y767620D01*
X1178640Y766805D01*
X1179305Y766140D01*
X1180120Y765669D01*
X1181029Y765425D01*
X1181971D01*
X1182880Y765669D01*
X1183695Y766140D01*
X1184361Y766805D01*
X1184831Y767620D01*
X1185075Y768529D01*
Y769471D01*
X1184831Y770380D01*
X1184361Y771195D01*
X1183695Y771861D01*
X1182880Y772331D01*
X1182514Y772429D01*
X1182365Y772987D01*
X1182753Y773374D01*
X1183197Y774145D01*
X1183428Y775004D01*
Y775893D01*
X1183197Y776752D01*
X1182753Y777523D01*
X1182124Y778152D01*
X1181353Y778596D01*
X1180494Y778826D01*
D02*
G37*
G36*
X1165445Y771878D02*
X1164555D01*
X1163696Y771648D01*
X1162926Y771203D01*
X1162297Y770574D01*
X1161852Y769804D01*
X1161622Y768945D01*
Y768055D01*
X1161852Y767196D01*
X1162297Y766426D01*
X1162926Y765797D01*
X1163696Y765352D01*
X1164555Y765122D01*
X1165445D01*
X1166304Y765352D01*
X1167074Y765797D01*
X1167703Y766426D01*
X1168148Y767196D01*
X1168378Y768055D01*
Y768945D01*
X1168148Y769804D01*
X1167703Y770574D01*
X1167074Y771203D01*
X1166304Y771648D01*
X1165445Y771878D01*
D02*
G37*
G36*
X1192846Y770327D02*
X1191957D01*
X1191098Y770097D01*
X1190327Y769652D01*
X1189699Y769023D01*
X1189254Y768253D01*
X1189024Y767393D01*
Y766504D01*
X1189254Y765645D01*
X1189699Y764875D01*
X1190327Y764246D01*
X1191098Y763801D01*
X1191957Y763571D01*
X1192846D01*
X1193705Y763801D01*
X1194476Y764246D01*
X1195105Y764875D01*
X1195549Y765645D01*
X1195780Y766504D01*
Y767393D01*
X1195549Y768253D01*
X1195105Y769023D01*
X1194476Y769652D01*
X1193705Y770097D01*
X1192846Y770327D01*
D02*
G37*
G36*
X1225471Y773575D02*
X1224529D01*
X1223620Y773331D01*
X1222805Y772860D01*
X1222139Y772195D01*
X1221669Y771380D01*
X1221425Y770471D01*
Y769529D01*
X1221669Y768620D01*
X1222139Y767805D01*
X1222805Y767139D01*
X1223620Y766669D01*
X1224529Y766425D01*
X1225471D01*
X1226380Y766669D01*
X1227195Y767139D01*
X1227272Y767217D01*
X1227772Y767009D01*
Y766466D01*
X1228002Y765607D01*
X1228447Y764837D01*
X1229076Y764208D01*
X1229846Y763763D01*
X1230705Y763533D01*
X1231595D01*
X1232454Y763763D01*
X1233224Y764208D01*
X1233853Y764837D01*
X1234298Y765607D01*
X1234528Y766466D01*
Y767355D01*
X1234298Y768215D01*
X1233853Y768985D01*
X1233224Y769614D01*
X1232454Y770059D01*
X1231595Y770289D01*
X1230705D01*
X1229846Y770059D01*
X1229076Y769614D01*
X1229075Y769613D01*
X1228575Y769820D01*
Y770471D01*
X1228331Y771380D01*
X1227861Y772195D01*
X1227195Y772860D01*
X1226380Y773331D01*
X1225471Y773575D01*
D02*
G37*
G36*
X1033971Y770575D02*
X1033029D01*
X1032120Y770331D01*
X1031305Y769861D01*
X1030639Y769195D01*
X1030169Y768380D01*
X1029925Y767471D01*
Y766529D01*
X1030169Y765620D01*
X1030639Y764805D01*
X1031305Y764140D01*
X1032120Y763669D01*
X1033029Y763425D01*
X1033971D01*
X1034880Y763669D01*
X1035695Y764140D01*
X1036360Y764805D01*
X1036831Y765620D01*
X1037075Y766529D01*
Y767471D01*
X1036831Y768380D01*
X1036360Y769195D01*
X1035695Y769861D01*
X1034880Y770331D01*
X1033971Y770575D01*
D02*
G37*
G36*
X1180494Y762941D02*
X1179605D01*
X1178746Y762711D01*
X1177976Y762266D01*
X1177347Y761637D01*
X1176902Y760867D01*
X1176672Y760008D01*
Y759118D01*
X1176902Y758259D01*
X1177347Y757489D01*
X1177976Y756860D01*
X1178746Y756415D01*
X1179605Y756185D01*
X1180494D01*
X1181353Y756415D01*
X1182124Y756860D01*
X1182753Y757489D01*
X1183197Y758259D01*
X1183428Y759118D01*
Y760008D01*
X1183197Y760867D01*
X1182753Y761637D01*
X1182124Y762266D01*
X1181353Y762711D01*
X1180494Y762941D01*
D02*
G37*
G36*
X1092971Y763075D02*
X1092029D01*
X1091120Y762831D01*
X1090305Y762360D01*
X1089639Y761695D01*
X1089169Y760880D01*
X1088925Y759971D01*
Y759029D01*
X1089169Y758120D01*
X1089639Y757305D01*
X1090305Y756639D01*
X1091120Y756169D01*
X1092029Y755925D01*
X1092971D01*
X1093880Y756169D01*
X1094695Y756639D01*
X1095360Y757305D01*
X1095831Y758120D01*
X1096075Y759029D01*
Y759971D01*
X1095831Y760880D01*
X1095360Y761695D01*
X1094695Y762360D01*
X1093880Y762831D01*
X1092971Y763075D01*
D02*
G37*
G36*
X1070971Y761575D02*
X1070029D01*
X1069120Y761331D01*
X1068305Y760860D01*
X1067640Y760195D01*
X1067169Y759380D01*
X1066925Y758471D01*
Y757529D01*
X1067169Y756620D01*
X1067640Y755805D01*
X1068305Y755139D01*
X1069120Y754669D01*
X1070029Y754425D01*
X1070971D01*
X1071880Y754669D01*
X1072695Y755139D01*
X1073361Y755805D01*
X1073831Y756620D01*
X1074075Y757529D01*
Y758471D01*
X1073831Y759380D01*
X1073361Y760195D01*
X1072695Y760860D01*
X1071880Y761331D01*
X1070971Y761575D01*
D02*
G37*
G36*
X1048971D02*
X1048029D01*
X1047120Y761331D01*
X1046305Y760860D01*
X1045640Y760195D01*
X1045169Y759380D01*
X1044925Y758471D01*
Y757529D01*
X1045169Y756620D01*
X1045640Y755805D01*
X1046305Y755139D01*
X1047120Y754669D01*
X1048029Y754425D01*
X1048971D01*
X1049880Y754669D01*
X1050695Y755139D01*
X1051361Y755805D01*
X1051831Y756620D01*
X1052075Y757529D01*
Y758471D01*
X1051831Y759380D01*
X1051361Y760195D01*
X1050695Y760860D01*
X1049880Y761331D01*
X1048971Y761575D01*
D02*
G37*
G36*
X1261339Y759839D02*
X1249661D01*
Y748161D01*
X1261339D01*
Y759839D01*
D02*
G37*
G36*
X1156165Y764614D02*
X1154835D01*
X1153550Y764270D01*
X1152398Y763605D01*
X1151458Y762664D01*
X1150793Y761513D01*
X1150449Y760228D01*
Y758898D01*
X1150793Y757613D01*
X1151458Y756461D01*
X1152336Y755583D01*
X1152371Y755281D01*
X1152336Y754980D01*
X1151458Y754102D01*
X1150793Y752950D01*
X1150449Y751665D01*
Y750335D01*
X1150793Y749050D01*
X1151356Y748075D01*
X1151142Y747619D01*
X1151092Y747575D01*
X1150784D01*
X1149875Y747331D01*
X1149059Y746861D01*
X1148394Y746195D01*
X1147923Y745380D01*
X1147680Y744471D01*
Y743529D01*
X1147923Y742620D01*
X1148394Y741805D01*
X1149059Y741140D01*
X1149875Y740669D01*
X1150784Y740425D01*
X1151725D01*
X1152634Y740669D01*
X1153450Y741140D01*
X1154115Y741805D01*
X1154586Y742620D01*
X1154829Y743529D01*
Y744471D01*
X1154586Y745380D01*
X1154478Y745566D01*
X1154782Y745963D01*
X1154835Y745949D01*
X1156165D01*
X1157450Y746293D01*
X1158601Y746958D01*
X1159542Y747898D01*
X1160207Y749050D01*
X1160551Y750335D01*
Y751665D01*
X1160207Y752950D01*
X1159542Y754102D01*
X1158664Y754980D01*
X1158629Y755281D01*
X1158664Y755583D01*
X1159542Y756461D01*
X1160207Y757613D01*
X1160551Y758898D01*
Y760228D01*
X1160207Y761513D01*
X1159542Y762664D01*
X1158601Y763605D01*
X1157450Y764270D01*
X1156165Y764614D01*
D02*
G37*
G36*
X1037970Y752553D02*
X1037080D01*
X1036221Y752322D01*
X1035451Y751878D01*
X1034822Y751249D01*
X1034377Y750478D01*
X1034147Y749619D01*
Y748730D01*
X1034377Y747871D01*
X1034822Y747100D01*
X1035451Y746472D01*
X1036221Y746027D01*
X1037080Y745797D01*
X1037970D01*
X1038829Y746027D01*
X1039599Y746472D01*
X1040228Y747100D01*
X1040673Y747871D01*
X1040903Y748730D01*
Y749619D01*
X1040673Y750478D01*
X1040228Y751249D01*
X1039599Y751878D01*
X1038829Y752322D01*
X1037970Y752553D01*
D02*
G37*
G36*
X989162Y745782D02*
X988012D01*
X986884Y745558D01*
X985821Y745117D01*
X984925Y744519D01*
X984482Y744637D01*
X984425Y744661D01*
Y745782D01*
X972748D01*
Y734105D01*
X984425D01*
Y735226D01*
X984482Y735250D01*
X984925Y735368D01*
X985821Y734769D01*
X986884Y734329D01*
X988012Y734105D01*
X989162D01*
X990290Y734329D01*
X991352Y734769D01*
X992309Y735408D01*
X993122Y736222D01*
X993761Y737178D01*
X994201Y738240D01*
X994425Y739368D01*
Y740518D01*
X994201Y741646D01*
X993761Y742709D01*
X993122Y743665D01*
X992309Y744479D01*
X991352Y745117D01*
X990290Y745558D01*
X989162Y745782D01*
D02*
G37*
G36*
X931471Y751075D02*
X930529D01*
X929620Y750831D01*
X928805Y750360D01*
X928139Y749695D01*
X927669Y748880D01*
X927425Y747971D01*
Y747029D01*
X927669Y746120D01*
X928139Y745305D01*
X928805Y744639D01*
X929620Y744169D01*
X930529Y743925D01*
X931471D01*
X932380Y744169D01*
X933195Y744639D01*
X933860Y745305D01*
X934331Y746120D01*
X934575Y747029D01*
Y747971D01*
X934331Y748880D01*
X933860Y749695D01*
X933195Y750360D01*
X932380Y750831D01*
X931471Y751075D01*
D02*
G37*
G36*
X1167471Y747575D02*
X1166529D01*
X1165620Y747331D01*
X1164805Y746861D01*
X1164139Y746195D01*
X1163669Y745380D01*
X1163425Y744471D01*
Y743529D01*
X1163669Y742620D01*
X1164139Y741805D01*
X1164805Y741140D01*
X1165620Y740669D01*
X1166529Y740425D01*
X1167471D01*
X1168380Y740669D01*
X1169195Y741140D01*
X1169860Y741805D01*
X1170075Y742176D01*
X1170652D01*
X1170797Y741926D01*
X1171426Y741297D01*
X1172196Y740852D01*
X1173055Y740622D01*
X1173945D01*
X1174804Y740852D01*
X1175574Y741297D01*
X1176203Y741926D01*
X1176648Y742696D01*
X1176878Y743555D01*
Y744445D01*
X1176648Y745304D01*
X1176203Y746074D01*
X1175574Y746703D01*
X1174804Y747148D01*
X1173945Y747378D01*
X1173055D01*
X1172196Y747148D01*
X1171426Y746703D01*
X1170797Y746074D01*
X1170652Y745824D01*
X1170075D01*
X1169860Y746195D01*
X1169195Y746861D01*
X1168380Y747331D01*
X1167471Y747575D01*
D02*
G37*
G36*
X1141445Y746378D02*
X1140555D01*
X1139696Y746148D01*
X1138926Y745703D01*
X1138297Y745074D01*
X1137852Y744304D01*
X1137622Y743445D01*
Y742555D01*
X1137852Y741696D01*
X1138297Y740926D01*
X1138926Y740297D01*
X1139696Y739852D01*
X1140555Y739622D01*
X1141445D01*
X1142304Y739852D01*
X1143074Y740297D01*
X1143703Y740926D01*
X1144148Y741696D01*
X1144378Y742555D01*
Y743445D01*
X1144148Y744304D01*
X1143703Y745074D01*
X1143074Y745703D01*
X1142304Y746148D01*
X1141445Y746378D01*
D02*
G37*
G36*
X1023886Y746018D02*
X1022944D01*
X1022035Y745775D01*
X1021220Y745304D01*
X1020554Y744638D01*
X1020084Y743823D01*
X1019840Y742914D01*
Y741973D01*
X1020084Y741063D01*
X1020554Y740248D01*
X1021220Y739583D01*
X1022035Y739112D01*
X1022944Y738869D01*
X1023886D01*
X1024795Y739112D01*
X1025610Y739583D01*
X1026276Y740248D01*
X1026746Y741063D01*
X1026990Y741973D01*
Y742914D01*
X1026746Y743823D01*
X1026276Y744638D01*
X1025610Y745304D01*
X1024795Y745775D01*
X1023886Y746018D01*
D02*
G37*
G36*
X1184445Y745878D02*
X1183555D01*
X1182696Y745648D01*
X1181926Y745203D01*
X1181297Y744574D01*
X1180852Y743804D01*
X1180622Y742945D01*
Y742055D01*
X1180793Y741415D01*
X1180426Y741203D01*
X1179797Y740574D01*
X1179352Y739804D01*
X1179122Y738945D01*
Y738055D01*
X1179352Y737196D01*
X1179797Y736426D01*
X1180426Y735797D01*
X1181196Y735352D01*
X1182055Y735122D01*
X1182945D01*
X1183804Y735352D01*
X1184574Y735797D01*
X1185203Y736426D01*
X1185648Y737196D01*
X1185878Y738055D01*
Y738945D01*
X1185707Y739585D01*
X1186074Y739797D01*
X1186703Y740426D01*
X1187148Y741196D01*
X1187378Y742055D01*
Y742945D01*
X1187148Y743804D01*
X1186703Y744574D01*
X1186074Y745203D01*
X1185304Y745648D01*
X1184445Y745878D01*
D02*
G37*
G36*
X934565Y741057D02*
X933624D01*
X932715Y740814D01*
X931900Y740343D01*
X931234Y739677D01*
X930763Y738862D01*
X930520Y737953D01*
Y737012D01*
X930763Y736103D01*
X931234Y735287D01*
X931900Y734622D01*
X932715Y734151D01*
X933624Y733908D01*
X934565D01*
X935474Y734151D01*
X936290Y734622D01*
X936955Y735287D01*
X937426Y736103D01*
X937669Y737012D01*
Y737953D01*
X937426Y738862D01*
X936955Y739677D01*
X936290Y740343D01*
X935474Y740814D01*
X934565Y741057D01*
D02*
G37*
G36*
X1220945Y738878D02*
X1220055D01*
X1219196Y738648D01*
X1218426Y738203D01*
X1217797Y737574D01*
X1217352Y736804D01*
X1217122Y735945D01*
Y735055D01*
X1217352Y734196D01*
X1217797Y733426D01*
X1218426Y732797D01*
X1219196Y732352D01*
X1220055Y732122D01*
X1220945D01*
X1221804Y732352D01*
X1222574Y732797D01*
X1223203Y733426D01*
X1223648Y734196D01*
X1223878Y735055D01*
Y735945D01*
X1223648Y736804D01*
X1223203Y737574D01*
X1222574Y738203D01*
X1221804Y738648D01*
X1220945Y738878D01*
D02*
G37*
G36*
X1023860Y735821D02*
X1022970D01*
X1022111Y735591D01*
X1021341Y735146D01*
X1020712Y734517D01*
X1020267Y733747D01*
X1020037Y732888D01*
Y731999D01*
X1020267Y731140D01*
X1020712Y730369D01*
X1021341Y729740D01*
X1022111Y729296D01*
X1022970Y729065D01*
X1023860D01*
X1024719Y729296D01*
X1025489Y729740D01*
X1026118Y730369D01*
X1026563Y731140D01*
X1026793Y731999D01*
Y732888D01*
X1026563Y733747D01*
X1026118Y734517D01*
X1025489Y735146D01*
X1024719Y735591D01*
X1023860Y735821D01*
D02*
G37*
G36*
X1260471Y735075D02*
X1259529D01*
X1258620Y734831D01*
X1257805Y734361D01*
X1257139Y733695D01*
X1256669Y732880D01*
X1256425Y731971D01*
Y731029D01*
X1256669Y730120D01*
X1257139Y729305D01*
X1257805Y728640D01*
X1258620Y728169D01*
X1259529Y727925D01*
X1260471D01*
X1261380Y728169D01*
X1262195Y728640D01*
X1262860Y729305D01*
X1263331Y730120D01*
X1263575Y731029D01*
Y731971D01*
X1263331Y732880D01*
X1262860Y733695D01*
X1262195Y734361D01*
X1261380Y734831D01*
X1260471Y735075D01*
D02*
G37*
G36*
X1202237Y731878D02*
X1201347D01*
X1200488Y731648D01*
X1199718Y731203D01*
X1199089Y730574D01*
X1198644Y729804D01*
X1198414Y728945D01*
Y728055D01*
X1198644Y727196D01*
X1199089Y726426D01*
X1199718Y725797D01*
X1200488Y725352D01*
X1201347Y725122D01*
X1202237D01*
X1203096Y725352D01*
X1203866Y725797D01*
X1204495Y726426D01*
X1204940Y727196D01*
X1205170Y728055D01*
Y728945D01*
X1204940Y729804D01*
X1204495Y730574D01*
X1203866Y731203D01*
X1203096Y731648D01*
X1202237Y731878D01*
D02*
G37*
G36*
X1211471Y732075D02*
X1210529D01*
X1209620Y731831D01*
X1208805Y731360D01*
X1208140Y730695D01*
X1207669Y729880D01*
X1207425Y728971D01*
Y728029D01*
X1207669Y727120D01*
X1208140Y726305D01*
X1208805Y725639D01*
X1209620Y725169D01*
X1210529Y724925D01*
X1211471D01*
X1212380Y725169D01*
X1213195Y725639D01*
X1213861Y726305D01*
X1214331Y727120D01*
X1214575Y728029D01*
Y728971D01*
X1214331Y729880D01*
X1213861Y730695D01*
X1213195Y731360D01*
X1212380Y731831D01*
X1211471Y732075D01*
D02*
G37*
G36*
X1187471D02*
X1186529D01*
X1185620Y731831D01*
X1184805Y731360D01*
X1184140Y730695D01*
X1183669Y729880D01*
X1183425Y728971D01*
Y728029D01*
X1183669Y727120D01*
X1184140Y726305D01*
X1184805Y725639D01*
X1185620Y725169D01*
X1186529Y724925D01*
X1187471D01*
X1188380Y725169D01*
X1189195Y725639D01*
X1189861Y726305D01*
X1190331Y727120D01*
X1190575Y728029D01*
Y728971D01*
X1190331Y729880D01*
X1189861Y730695D01*
X1189195Y731360D01*
X1188380Y731831D01*
X1187471Y732075D01*
D02*
G37*
G36*
X1232745Y715378D02*
X1231855D01*
X1230996Y715148D01*
X1230226Y714703D01*
X1229597Y714074D01*
X1229439Y713800D01*
X1228861D01*
X1228703Y714074D01*
X1228074Y714703D01*
X1227304Y715148D01*
X1226445Y715378D01*
X1225555D01*
X1224696Y715148D01*
X1223926Y714703D01*
X1223297Y714074D01*
X1223139Y713800D01*
X1222561D01*
X1222403Y714074D01*
X1221774Y714703D01*
X1221004Y715148D01*
X1220145Y715378D01*
X1219255D01*
X1218396Y715148D01*
X1217626Y714703D01*
X1216997Y714074D01*
X1216552Y713304D01*
X1216322Y712445D01*
Y711555D01*
X1216552Y710696D01*
X1216997Y709926D01*
X1217626Y709297D01*
X1218396Y708852D01*
X1219255Y708622D01*
X1220145D01*
X1221004Y708852D01*
X1221774Y709297D01*
X1222403Y709926D01*
X1222561Y710200D01*
X1223139D01*
X1223297Y709926D01*
X1223926Y709297D01*
X1224696Y708852D01*
X1225555Y708622D01*
X1226445D01*
X1227304Y708852D01*
X1228074Y709297D01*
X1228703Y709926D01*
X1228861Y710200D01*
X1229439D01*
X1229597Y709926D01*
X1230226Y709297D01*
X1230996Y708852D01*
X1231855Y708622D01*
X1232745D01*
X1233604Y708852D01*
X1234374Y709297D01*
X1235003Y709926D01*
X1235448Y710696D01*
X1235678Y711555D01*
Y712445D01*
X1235448Y713304D01*
X1235003Y714074D01*
X1234374Y714703D01*
X1233604Y715148D01*
X1232745Y715378D01*
D02*
G37*
G36*
X1249483Y708062D02*
X1248542D01*
X1247633Y707818D01*
X1246818Y707348D01*
X1246152Y706682D01*
X1245682Y705867D01*
X1245438Y704958D01*
Y704017D01*
X1245682Y703107D01*
X1246152Y702292D01*
X1246818Y701627D01*
X1247633Y701156D01*
X1248542Y700912D01*
X1249483D01*
X1250393Y701156D01*
X1251208Y701627D01*
X1251873Y702292D01*
X1252344Y703107D01*
X1252588Y704017D01*
Y704958D01*
X1252344Y705867D01*
X1251873Y706682D01*
X1251208Y707348D01*
X1250393Y707818D01*
X1249483Y708062D01*
D02*
G37*
G36*
X1199478Y683032D02*
X1198536D01*
X1197627Y682788D01*
X1196812Y682317D01*
X1196147Y681652D01*
X1195676Y680836D01*
X1195432Y679927D01*
Y678986D01*
X1195676Y678077D01*
X1196147Y677262D01*
X1196812Y676596D01*
X1197627Y676125D01*
X1198536Y675882D01*
X1199478D01*
X1200387Y676125D01*
X1201202Y676596D01*
X1201868Y677262D01*
X1202338Y678077D01*
X1202582Y678986D01*
Y679927D01*
X1202338Y680836D01*
X1201868Y681652D01*
X1201202Y682317D01*
X1200387Y682788D01*
X1199478Y683032D01*
D02*
G37*
G36*
X1164694Y682547D02*
X1163752D01*
X1162843Y682303D01*
X1162028Y681832D01*
X1161362Y681167D01*
X1160892Y680351D01*
X1160648Y679442D01*
Y678501D01*
X1160892Y677592D01*
X1161362Y676777D01*
X1162028Y676111D01*
X1162843Y675640D01*
X1163752Y675397D01*
X1164694D01*
X1165603Y675640D01*
X1166418Y676111D01*
X1167084Y676777D01*
X1167554Y677592D01*
X1167798Y678501D01*
Y679442D01*
X1167554Y680351D01*
X1167084Y681167D01*
X1166418Y681832D01*
X1165603Y682303D01*
X1164694Y682547D01*
D02*
G37*
G36*
X1129910D02*
X1128968D01*
X1128059Y682303D01*
X1127244Y681832D01*
X1126578Y681167D01*
X1126108Y680351D01*
X1125864Y679442D01*
Y678501D01*
X1126108Y677592D01*
X1126578Y676777D01*
X1127244Y676111D01*
X1128059Y675640D01*
X1128968Y675397D01*
X1129910D01*
X1130819Y675640D01*
X1131634Y676111D01*
X1132300Y676777D01*
X1132770Y677592D01*
X1133014Y678501D01*
Y679442D01*
X1132770Y680351D01*
X1132300Y681167D01*
X1131634Y681832D01*
X1130819Y682303D01*
X1129910Y682547D01*
D02*
G37*
G36*
X1226471Y678075D02*
X1225529D01*
X1224620Y677831D01*
X1223805Y677360D01*
X1223139Y676695D01*
X1222669Y675880D01*
X1222425Y674971D01*
Y674029D01*
X1222669Y673120D01*
X1223139Y672305D01*
X1223805Y671639D01*
X1224620Y671169D01*
X1225529Y670925D01*
X1226471D01*
X1227380Y671169D01*
X1228195Y671639D01*
X1228860Y672305D01*
X1229331Y673120D01*
X1229575Y674029D01*
Y674971D01*
X1229331Y675880D01*
X1228860Y676695D01*
X1228195Y677360D01*
X1227380Y677831D01*
X1226471Y678075D01*
D02*
G37*
G36*
X1207971Y677575D02*
X1207029D01*
X1206120Y677331D01*
X1205305Y676861D01*
X1204640Y676195D01*
X1204169Y675380D01*
X1203925Y674471D01*
Y673529D01*
X1204169Y672620D01*
X1204640Y671805D01*
X1205305Y671139D01*
X1206120Y670669D01*
X1207029Y670425D01*
X1207971D01*
X1208880Y670669D01*
X1209695Y671139D01*
X1210361Y671805D01*
X1210831Y672620D01*
X1211075Y673529D01*
Y674471D01*
X1210831Y675380D01*
X1210361Y676195D01*
X1209695Y676861D01*
X1208880Y677331D01*
X1207971Y677575D01*
D02*
G37*
G36*
X1173471D02*
X1172529D01*
X1171620Y677331D01*
X1170805Y676861D01*
X1170140Y676195D01*
X1169669Y675380D01*
X1169425Y674471D01*
Y673529D01*
X1169669Y672620D01*
X1170140Y671805D01*
X1170805Y671139D01*
X1171620Y670669D01*
X1172529Y670425D01*
X1173471D01*
X1174380Y670669D01*
X1175195Y671139D01*
X1175861Y671805D01*
X1176331Y672620D01*
X1176575Y673529D01*
Y674471D01*
X1176331Y675380D01*
X1175861Y676195D01*
X1175195Y676861D01*
X1174380Y677331D01*
X1173471Y677575D01*
D02*
G37*
G36*
X1137971D02*
X1137029D01*
X1136120Y677331D01*
X1135305Y676861D01*
X1134639Y676195D01*
X1134169Y675380D01*
X1133925Y674471D01*
Y673529D01*
X1134169Y672620D01*
X1134639Y671805D01*
X1135305Y671139D01*
X1136120Y670669D01*
X1137029Y670425D01*
X1137971D01*
X1138880Y670669D01*
X1139695Y671139D01*
X1140361Y671805D01*
X1140831Y672620D01*
X1141075Y673529D01*
Y674471D01*
X1140831Y675380D01*
X1140361Y676195D01*
X1139695Y676861D01*
X1138880Y677331D01*
X1137971Y677575D01*
D02*
G37*
%LPD*%
G36*
X1211746Y764875D02*
X1212375Y764246D01*
X1212648Y764088D01*
Y763511D01*
X1212375Y763353D01*
X1211746Y762724D01*
X1211301Y761953D01*
X1211071Y761094D01*
Y760205D01*
X1211123Y760011D01*
X1210674Y759752D01*
X1210224Y760203D01*
X1209453Y760648D01*
X1208594Y760878D01*
X1207705D01*
X1206846Y760648D01*
X1206075Y760203D01*
X1205447Y759574D01*
X1205289Y759301D01*
X1204711D01*
X1204553Y759574D01*
X1203924Y760203D01*
X1203651Y760361D01*
Y760938D01*
X1203924Y761096D01*
X1204553Y761725D01*
X1204998Y762495D01*
X1205228Y763354D01*
Y764244D01*
X1205176Y764438D01*
X1205625Y764697D01*
X1206075Y764246D01*
X1206846Y763801D01*
X1207705Y763571D01*
X1208594D01*
X1209453Y763801D01*
X1210224Y764246D01*
X1210853Y764875D01*
X1211010Y765148D01*
X1211588D01*
X1211746Y764875D01*
D02*
G37*
D94*
X1068500Y729000D02*
D03*
X1095000Y882500D02*
D03*
X1182000Y840500D02*
D03*
D95*
X1255500Y764000D02*
D03*
D98*
X932000Y800561D02*
D03*
Y866500D02*
D03*
Y886500D02*
D03*
X1272500Y889000D02*
D03*
Y869000D02*
D03*
D101*
X1246000Y840000D02*
D03*
X1015500Y760500D02*
D03*
X1234500Y761500D02*
D03*
X995500Y829500D02*
D03*
Y844000D02*
D03*
X1005500Y843500D02*
D03*
Y829500D02*
D03*
X1113000Y846500D02*
D03*
X1113500Y835000D02*
D03*
X1097500Y836500D02*
D03*
X1098500Y845500D02*
D03*
X1148000Y844500D02*
D03*
X1148500Y832000D02*
D03*
X1212500Y823000D02*
D03*
X1222500Y837000D02*
D03*
X1194500Y836500D02*
D03*
X1207000Y846000D02*
D03*
X1233000Y839500D02*
D03*
X1273500Y843000D02*
D03*
X1271500Y831000D02*
D03*
X1275000Y817500D02*
D03*
X1274000Y804000D02*
D03*
X1275500Y789000D02*
D03*
X1276500Y773500D02*
D03*
X1275500Y733500D02*
D03*
X1276500Y755500D02*
D03*
X1245000Y731500D02*
D03*
X1254500Y723000D02*
D03*
X1242500Y719000D02*
D03*
X1245500Y686500D02*
D03*
X1240000Y701000D02*
D03*
X1211500Y697000D02*
D03*
X1190500Y713500D02*
D03*
X1156000Y714500D02*
D03*
X1174000Y713000D02*
D03*
X1180000Y697000D02*
D03*
X1163500Y696500D02*
D03*
X1147000Y697500D02*
D03*
X1124000Y697000D02*
D03*
X1138000Y714500D02*
D03*
X1119000Y715500D02*
D03*
X1105500Y714000D02*
D03*
X1078000Y730000D02*
D03*
X1060000Y707000D02*
D03*
X1068000Y717500D02*
D03*
X1046000Y723000D02*
D03*
X1047500Y707500D02*
D03*
X1026500Y705500D02*
D03*
X1027500Y719000D02*
D03*
X1008500Y719500D02*
D03*
X1006000Y706500D02*
D03*
X1099500Y697500D02*
D03*
X1098500Y676000D02*
D03*
X1085000Y688500D02*
D03*
X1081000Y674500D02*
D03*
X1066500Y681000D02*
D03*
X1054500Y675000D02*
D03*
X1044000Y681500D02*
D03*
X1029000Y676000D02*
D03*
X1016000Y681000D02*
D03*
X1004000Y677500D02*
D03*
X990500Y680000D02*
D03*
X992000Y702000D02*
D03*
Y711000D02*
D03*
X993000Y721500D02*
D03*
X974500D02*
D03*
X963000Y720000D02*
D03*
X951000Y706000D02*
D03*
X947000Y715000D02*
D03*
X953000Y723500D02*
D03*
X946000Y727500D02*
D03*
X1025000Y763500D02*
D03*
X1002500Y763000D02*
D03*
X994000Y759500D02*
D03*
X981000Y760500D02*
D03*
X969500D02*
D03*
X958000D02*
D03*
X948000Y763500D02*
D03*
X986500Y771000D02*
D03*
X978000Y770500D02*
D03*
X967000D02*
D03*
X956000D02*
D03*
X948500Y775000D02*
D03*
X944000Y782000D02*
D03*
X971500Y810500D02*
D03*
X1194500Y793500D02*
D03*
X1175000Y769500D02*
D03*
X1187500Y803000D02*
D03*
X1239500Y812327D02*
D03*
X1205500Y802000D02*
D03*
X1199500Y788500D02*
D03*
X1219000D02*
D03*
X1207903Y724219D02*
D03*
X1195893Y724208D02*
D03*
X978071Y779501D02*
D03*
X1023415Y737443D02*
D03*
X963000Y751000D02*
D03*
Y728500D02*
D03*
X1284900Y754823D02*
D03*
X1277000Y711000D02*
D03*
X1181291Y678972D02*
D03*
X1146507Y678972D02*
D03*
X1111722D02*
D03*
X949579Y686579D02*
D03*
X1011000Y841500D02*
D03*
X1025578Y847923D02*
D03*
X1034500Y810000D02*
D03*
X1049000Y750000D02*
D03*
X1071500D02*
D03*
X1093180Y750180D02*
D03*
X1123158Y777572D02*
D03*
X1121000Y750500D02*
D03*
X1025578Y779500D02*
D03*
X1014017D02*
D03*
X1002000Y804000D02*
D03*
X958708Y739943D02*
D03*
X1173660Y803573D02*
D03*
Y818972D02*
D03*
X1099150Y803573D02*
D03*
Y818972D02*
D03*
X1158510Y812000D02*
D03*
X1084000Y812000D02*
D03*
X1130978Y823534D02*
D03*
X1056468Y823231D02*
D03*
X1152000Y854500D02*
D03*
X1134000Y855000D02*
D03*
X1162000Y854500D02*
D03*
Y858500D02*
D03*
X1144500Y854500D02*
D03*
X1056500Y857000D02*
D03*
X1051500Y861000D02*
D03*
Y868000D02*
D03*
X1045500Y867500D02*
D03*
X1038500Y861000D02*
D03*
X1058500Y909000D02*
D03*
X1058000Y902500D02*
D03*
Y895500D02*
D03*
Y889000D02*
D03*
X1057500Y882000D02*
D03*
Y875000D02*
D03*
X1058000Y868000D02*
D03*
X1040500Y908500D02*
D03*
Y903000D02*
D03*
Y895500D02*
D03*
Y889000D02*
D03*
Y882000D02*
D03*
Y875000D02*
D03*
X1113000Y856500D02*
D03*
X1117000Y860000D02*
D03*
X1168216Y895216D02*
D03*
X1164439Y891439D02*
D03*
X1160662Y887662D02*
D03*
X1149331Y876331D02*
D03*
X1134223Y861223D02*
D03*
X1153108Y880108D02*
D03*
X1141777Y868777D02*
D03*
X1138000Y865000D02*
D03*
X1156885Y883885D02*
D03*
X1145554Y872554D02*
D03*
X1157000Y898500D02*
D03*
X1149500Y892000D02*
D03*
X1143000Y884500D02*
D03*
X1136000Y877000D02*
D03*
X1129000Y870000D02*
D03*
X1121000Y862500D02*
D03*
X1167000Y902500D02*
D03*
Y910000D02*
D03*
X1123500Y868000D02*
D03*
Y875000D02*
D03*
X1130500Y882000D02*
D03*
X1144500Y889000D02*
D03*
X1137500D02*
D03*
X1144500Y896000D02*
D03*
X1151500Y903000D02*
D03*
X1158500Y910000D02*
D03*
Y903000D02*
D03*
X1122500Y918000D02*
D03*
X1071000Y1002000D02*
D03*
X1140161Y934305D02*
D03*
Y939805D02*
D03*
Y928805D02*
D03*
Y956305D02*
D03*
Y945305D02*
D03*
Y950805D02*
D03*
Y967305D02*
D03*
Y972805D02*
D03*
Y923305D02*
D03*
Y961805D02*
D03*
X1129831Y956479D02*
D03*
Y967979D02*
D03*
Y945479D02*
D03*
Y950979D02*
D03*
Y961979D02*
D03*
Y939979D02*
D03*
Y934479D02*
D03*
Y972979D02*
D03*
X1129794Y929010D02*
D03*
X1206437Y903020D02*
D03*
X1213937Y910520D02*
D03*
X1183775Y880358D02*
D03*
X1187552Y884135D02*
D03*
X1176221Y872804D02*
D03*
X1179998Y876581D02*
D03*
X1210214Y906797D02*
D03*
X1191329Y887912D02*
D03*
X1168667Y865250D02*
D03*
X1164890Y861473D02*
D03*
X1202660Y899243D02*
D03*
X1195106Y891689D02*
D03*
X1172444Y869027D02*
D03*
X1198883Y895466D02*
D03*
X1184961Y910324D02*
D03*
X1177407Y902770D02*
D03*
X1173630Y898993D02*
D03*
X1181184Y906547D02*
D03*
X1208500Y924000D02*
D03*
X1208156Y938348D02*
D03*
Y931347D02*
D03*
X1201089Y966307D02*
D03*
Y960807D02*
D03*
Y950807D02*
D03*
Y971307D02*
D03*
Y955807D02*
D03*
X1201089Y977139D02*
D03*
X1200091Y982341D02*
D03*
X1196517Y985888D02*
D03*
X1189500Y993000D02*
D03*
X1193000Y989000D02*
D03*
X1190500Y980000D02*
D03*
X1186000Y984500D02*
D03*
X1181000Y989000D02*
D03*
X1071147Y919869D02*
D03*
X1059000Y1008500D02*
D03*
X1062751Y1004843D02*
D03*
X1062837Y998378D02*
D03*
Y932878D02*
D03*
Y926379D02*
D03*
Y991378D02*
D03*
Y965378D02*
D03*
Y958879D02*
D03*
Y945879D02*
D03*
Y939379D02*
D03*
Y919878D02*
D03*
Y984879D02*
D03*
Y913379D02*
D03*
Y971879D02*
D03*
Y978378D02*
D03*
Y952378D02*
D03*
X1071000Y925500D02*
D03*
Y939000D02*
D03*
Y945500D02*
D03*
Y932500D02*
D03*
X1070948Y952554D02*
D03*
X1071000Y959000D02*
D03*
Y965500D02*
D03*
Y972000D02*
D03*
Y978500D02*
D03*
Y985000D02*
D03*
Y991500D02*
D03*
Y997000D02*
D03*
Y1008000D02*
D03*
X1055500Y1012000D02*
D03*
X1052000Y1015500D02*
D03*
X1048500Y1018500D02*
D03*
X1045000Y1022000D02*
D03*
X1068500Y1011500D02*
D03*
X1065000Y1015000D02*
D03*
X1062000Y1018000D02*
D03*
X1058500Y1021500D02*
D03*
X1055000Y1024500D02*
D03*
X1051500Y1028000D02*
D03*
X1048500Y1031000D02*
D03*
X1232500Y854500D02*
D03*
Y882000D02*
D03*
Y889000D02*
D03*
Y917000D02*
D03*
Y868000D02*
D03*
Y861000D02*
D03*
Y875000D02*
D03*
Y896000D02*
D03*
Y903000D02*
D03*
Y924000D02*
D03*
Y931000D02*
D03*
Y910000D02*
D03*
X1232000Y938500D02*
D03*
X1267500Y966000D02*
D03*
X1243500D02*
D03*
X1249500D02*
D03*
X1256000D02*
D03*
X1262500D02*
D03*
X1243000Y976500D02*
D03*
X1250000D02*
D03*
X1256000D02*
D03*
X1262000D02*
D03*
X1267000D02*
D03*
X1220500Y917000D02*
D03*
Y910000D02*
D03*
Y938000D02*
D03*
Y924000D02*
D03*
Y882000D02*
D03*
Y889000D02*
D03*
Y896000D02*
D03*
Y903000D02*
D03*
Y875000D02*
D03*
Y931000D02*
D03*
Y854000D02*
D03*
Y861000D02*
D03*
Y868000D02*
D03*
X1200000Y910500D02*
D03*
X1147122Y858122D02*
D03*
X1181115Y892115D02*
D03*
X1173561Y884561D02*
D03*
X1169784Y880784D02*
D03*
X1196223Y907223D02*
D03*
X1184892Y895892D02*
D03*
X1166007Y877007D02*
D03*
X1158453Y869453D02*
D03*
X1192446Y903446D02*
D03*
X1162230Y873230D02*
D03*
X1150899Y861899D02*
D03*
X1154676Y865676D02*
D03*
X1177338Y888338D02*
D03*
X1188669Y899669D02*
D03*
X1071726Y867627D02*
D03*
Y893627D02*
D03*
Y861127D02*
D03*
Y854627D02*
D03*
Y900127D02*
D03*
Y887127D02*
D03*
Y880627D02*
D03*
Y874127D02*
D03*
X1072000Y905000D02*
D03*
Y910500D02*
D03*
X1199000Y926000D02*
D03*
Y931000D02*
D03*
Y937000D02*
D03*
X1195500Y941000D02*
D03*
X1192000Y944500D02*
D03*
Y949500D02*
D03*
Y954000D02*
D03*
Y959000D02*
D03*
Y964500D02*
D03*
Y969500D02*
D03*
Y975000D02*
D03*
X1138000Y989500D02*
D03*
X1131000D02*
D03*
X1135000Y985500D02*
D03*
X967500Y882000D02*
D03*
Y889000D02*
D03*
Y861000D02*
D03*
Y875000D02*
D03*
Y868000D02*
D03*
X955500Y966000D02*
D03*
X937000D02*
D03*
X942500D02*
D03*
X949000D02*
D03*
X962000D02*
D03*
X973000Y854000D02*
D03*
Y896000D02*
D03*
Y924000D02*
D03*
Y882000D02*
D03*
Y889000D02*
D03*
Y910000D02*
D03*
Y917000D02*
D03*
Y875000D02*
D03*
Y938000D02*
D03*
Y931000D02*
D03*
Y861000D02*
D03*
Y868000D02*
D03*
Y903000D02*
D03*
X985000Y938000D02*
D03*
Y931000D02*
D03*
Y861500D02*
D03*
Y854500D02*
D03*
Y868000D02*
D03*
Y896000D02*
D03*
Y917000D02*
D03*
Y875000D02*
D03*
Y924000D02*
D03*
Y910000D02*
D03*
Y889000D02*
D03*
Y882000D02*
D03*
Y903000D02*
D03*
X1085784Y867875D02*
D03*
X1090284Y895875D02*
D03*
Y867875D02*
D03*
Y888875D02*
D03*
X1085784Y874875D02*
D03*
X1090284Y909875D02*
D03*
Y881875D02*
D03*
Y860875D02*
D03*
X1085784Y888875D02*
D03*
Y854375D02*
D03*
Y860875D02*
D03*
Y881875D02*
D03*
Y895875D02*
D03*
X1090284Y874875D02*
D03*
X1085784Y902875D02*
D03*
X1090284D02*
D03*
X1085784Y909875D02*
D03*
X1076000Y875000D02*
D03*
Y889000D02*
D03*
Y903000D02*
D03*
Y910000D02*
D03*
Y896000D02*
D03*
Y861000D02*
D03*
Y882000D02*
D03*
Y854500D02*
D03*
Y868000D02*
D03*
X1062000Y855000D02*
D03*
Y874500D02*
D03*
Y900500D02*
D03*
Y881000D02*
D03*
Y861500D02*
D03*
Y907000D02*
D03*
Y887500D02*
D03*
Y868000D02*
D03*
Y894000D02*
D03*
X1112500Y867000D02*
D03*
Y877500D02*
D03*
Y887500D02*
D03*
Y872500D02*
D03*
Y882500D02*
D03*
X1112564Y862678D02*
D03*
X1125500Y905000D02*
D03*
X1134500Y914000D02*
D03*
X1116500Y896000D02*
D03*
X1113000Y892500D02*
D03*
X1139000Y918500D02*
D03*
X1130000Y909500D02*
D03*
X1121000Y900500D02*
D03*
X1100500Y861000D02*
D03*
Y886000D02*
D03*
Y891000D02*
D03*
Y896000D02*
D03*
Y871000D02*
D03*
Y866000D02*
D03*
Y856000D02*
D03*
Y881000D02*
D03*
Y876000D02*
D03*
X1107500Y910000D02*
D03*
X1100500Y903000D02*
D03*
X1119000Y915000D02*
D03*
X1110000Y906000D02*
D03*
X1105500Y901500D02*
D03*
X1114500Y910500D02*
D03*
X1284500Y968000D02*
D03*
Y974000D02*
D03*
X1280500Y971000D02*
D03*
X920000Y969000D02*
D03*
Y974500D02*
D03*
X925500Y972000D02*
D03*
X1214500Y903000D02*
D03*
Y896000D02*
D03*
X1207500D02*
D03*
X1053500Y909500D02*
D03*
X1046500D02*
D03*
X1032500D02*
D03*
X1025500D02*
D03*
X1018500D02*
D03*
X1011500D02*
D03*
X1217000Y921500D02*
D03*
X1214500Y889000D02*
D03*
X1277500Y966000D02*
D03*
Y976500D02*
D03*
X1275500Y971000D02*
D03*
X931000Y972000D02*
D03*
X928500Y967000D02*
D03*
Y977000D02*
D03*
X962000D02*
D03*
X955500D02*
D03*
X949000D02*
D03*
X942500D02*
D03*
X936000D02*
D03*
X986235Y951405D02*
D03*
Y961246D02*
D03*
Y971088D02*
D03*
Y990771D02*
D03*
Y980929D02*
D03*
X1009401Y951272D02*
D03*
Y961147D02*
D03*
Y971021D02*
D03*
Y980896D02*
D03*
Y990771D02*
D03*
X1218507Y951272D02*
D03*
Y961147D02*
D03*
Y971021D02*
D03*
Y980896D02*
D03*
Y990771D02*
D03*
X1214500Y938000D02*
D03*
Y931000D02*
D03*
X1172500Y910000D02*
D03*
X1151500D02*
D03*
X1144500D02*
D03*
X1137500D02*
D03*
X1102500D02*
D03*
X1144500Y903000D02*
D03*
X1137500D02*
D03*
X1130500D02*
D03*
X1151500Y896000D02*
D03*
X1137500D02*
D03*
X1130500D02*
D03*
X1123500D02*
D03*
X1095500Y910000D02*
D03*
Y903000D02*
D03*
Y896000D02*
D03*
X1053500Y903000D02*
D03*
X1046500D02*
D03*
X1053500Y896000D02*
D03*
X1046500D02*
D03*
X1032500Y903000D02*
D03*
X1025500D02*
D03*
X1018500D02*
D03*
X1011500D02*
D03*
X1032500Y896000D02*
D03*
X1025500D02*
D03*
X1018500D02*
D03*
X1011500D02*
D03*
X1004500Y938000D02*
D03*
X997500D02*
D03*
X990500D02*
D03*
X1004500Y931000D02*
D03*
X997500D02*
D03*
X990500D02*
D03*
X1004500Y924000D02*
D03*
X997500D02*
D03*
X990500D02*
D03*
X1004500Y917000D02*
D03*
X997500D02*
D03*
X990500D02*
D03*
X1004500Y910000D02*
D03*
X997500D02*
D03*
X990500D02*
D03*
X1004500Y903000D02*
D03*
X997500D02*
D03*
X990500D02*
D03*
X1004500Y896000D02*
D03*
X997500D02*
D03*
X990500D02*
D03*
X1214500Y861000D02*
D03*
Y868000D02*
D03*
Y875000D02*
D03*
Y882000D02*
D03*
X1207500Y861000D02*
D03*
Y868000D02*
D03*
Y875000D02*
D03*
Y882000D02*
D03*
Y889000D02*
D03*
X1200500Y861000D02*
D03*
Y868000D02*
D03*
Y875000D02*
D03*
Y882000D02*
D03*
Y889000D02*
D03*
X1193500Y861000D02*
D03*
Y868000D02*
D03*
Y875000D02*
D03*
Y882000D02*
D03*
X1186500Y861000D02*
D03*
Y868000D02*
D03*
Y875000D02*
D03*
X1179500Y861000D02*
D03*
Y868000D02*
D03*
X1172500Y861000D02*
D03*
X1137500Y882000D02*
D03*
X1130500Y875000D02*
D03*
Y889000D02*
D03*
X1123500Y882000D02*
D03*
Y889000D02*
D03*
X1116500Y868000D02*
D03*
Y875000D02*
D03*
Y882000D02*
D03*
Y889000D02*
D03*
X1095500Y861000D02*
D03*
Y868000D02*
D03*
Y875000D02*
D03*
Y889000D02*
D03*
X1053500Y875000D02*
D03*
Y882000D02*
D03*
Y889000D02*
D03*
X1046500Y875000D02*
D03*
Y882000D02*
D03*
Y889000D02*
D03*
X1032500Y861000D02*
D03*
Y868000D02*
D03*
Y875000D02*
D03*
Y882000D02*
D03*
Y889000D02*
D03*
X1025500Y861000D02*
D03*
Y868000D02*
D03*
Y875000D02*
D03*
Y882000D02*
D03*
Y889000D02*
D03*
X1018500Y861000D02*
D03*
Y868000D02*
D03*
Y875000D02*
D03*
Y882000D02*
D03*
Y889000D02*
D03*
X1011500Y861000D02*
D03*
Y868000D02*
D03*
Y875000D02*
D03*
Y882000D02*
D03*
Y889000D02*
D03*
X1004500Y861000D02*
D03*
Y868000D02*
D03*
Y875000D02*
D03*
Y882000D02*
D03*
Y889000D02*
D03*
X997500Y861000D02*
D03*
Y868000D02*
D03*
Y875000D02*
D03*
Y882000D02*
D03*
Y889000D02*
D03*
X990500Y861000D02*
D03*
Y868000D02*
D03*
Y875000D02*
D03*
Y882000D02*
D03*
Y889000D02*
D03*
X1236000Y859000D02*
D03*
X1243000D02*
D03*
X1250000D02*
D03*
X1236000Y866000D02*
D03*
X1243000D02*
D03*
X1250000D02*
D03*
X1236000Y873000D02*
D03*
X1243000D02*
D03*
X1250000D02*
D03*
X1236000Y880000D02*
D03*
X1243000D02*
D03*
X1250000D02*
D03*
X1236000Y887000D02*
D03*
X1243000D02*
D03*
X1250000D02*
D03*
X1257000Y859000D02*
D03*
Y866000D02*
D03*
Y873000D02*
D03*
Y880000D02*
D03*
Y887000D02*
D03*
X1264000D02*
D03*
Y873000D02*
D03*
Y866000D02*
D03*
Y859000D02*
D03*
X1271000D02*
D03*
X1278000D02*
D03*
X1264000Y880000D02*
D03*
X1271000D02*
D03*
X1278000D02*
D03*
X1285000Y859000D02*
D03*
Y873000D02*
D03*
Y866000D02*
D03*
Y887000D02*
D03*
Y880000D02*
D03*
X962500Y861000D02*
D03*
Y868000D02*
D03*
Y875000D02*
D03*
Y882000D02*
D03*
Y889000D02*
D03*
X955500Y861000D02*
D03*
Y868000D02*
D03*
Y875000D02*
D03*
Y882000D02*
D03*
Y889000D02*
D03*
X948500D02*
D03*
Y882000D02*
D03*
Y861000D02*
D03*
Y868000D02*
D03*
X941500Y861000D02*
D03*
Y868000D02*
D03*
Y889000D02*
D03*
Y882000D02*
D03*
X948500Y875000D02*
D03*
X941500D02*
D03*
X934500D02*
D03*
X927500D02*
D03*
X920500Y861000D02*
D03*
Y868000D02*
D03*
Y875000D02*
D03*
Y889000D02*
D03*
Y882000D02*
D03*
D102*
X1205000Y760650D02*
D03*
M02*
