G04*
G04 #@! TF.GenerationSoftware,Altium Limited,Altium Designer,22.0.2 (36)*
G04*
G04 Layer_Physical_Order=1*
G04 Layer_Color=255*
%FSLAX25Y25*%
%MOIN*%
G70*
G04*
G04 #@! TF.SameCoordinates,8DF314AF-FFA0-4F09-AA67-4057F65CF364*
G04*
G04*
G04 #@! TF.FilePolarity,Positive*
G04*
G01*
G75*
%ADD14C,0.01000*%
%ADD18R,0.07874X0.03937*%
%ADD19O,0.08051X0.02315*%
%ADD20O,0.02315X0.08051*%
%ADD21R,0.02126X0.02227*%
%ADD22R,0.02126X0.03111*%
%ADD23R,0.04085X0.02095*%
%ADD24R,0.03111X0.02126*%
%ADD25C,0.01575*%
%ADD26R,0.05512X0.04724*%
%ADD27R,0.05118X0.01181*%
%ADD28R,0.08661X0.07087*%
%ADD29R,0.02227X0.02126*%
%ADD30R,0.03543X0.05906*%
%ADD31R,0.04724X0.05118*%
%ADD32R,0.05000X0.03500*%
%ADD33R,0.03175X0.03402*%
%ADD34O,0.03937X0.10630*%
%ADD35R,0.03937X0.10630*%
%ADD36R,0.03937X0.01772*%
%ADD37R,0.11024X0.03937*%
%ADD38R,0.06693X0.02362*%
G04:AMPARAMS|DCode=39|XSize=55mil|YSize=50mil|CornerRadius=0mil|HoleSize=0mil|Usage=FLASHONLY|Rotation=270.000|XOffset=0mil|YOffset=0mil|HoleType=Round|Shape=Octagon|*
%AMOCTAGOND39*
4,1,8,-0.01250,-0.02750,0.01250,-0.02750,0.02500,-0.01500,0.02500,0.01500,0.01250,0.02750,-0.01250,0.02750,-0.02500,0.01500,-0.02500,-0.01500,-0.01250,-0.02750,0.0*
%
%ADD39OCTAGOND39*%

%ADD40R,0.05000X0.05500*%
%ADD41R,0.03402X0.03175*%
%ADD42R,0.06272X0.08602*%
%ADD43R,0.08559X0.02292*%
G04:AMPARAMS|DCode=44|XSize=85.59mil|YSize=22.92mil|CornerRadius=11.46mil|HoleSize=0mil|Usage=FLASHONLY|Rotation=180.000|XOffset=0mil|YOffset=0mil|HoleType=Round|Shape=RoundedRectangle|*
%AMROUNDEDRECTD44*
21,1,0.08559,0.00000,0,0,180.0*
21,1,0.06267,0.02292,0,0,180.0*
1,1,0.02292,-0.03134,0.00000*
1,1,0.02292,0.03134,0.00000*
1,1,0.02292,0.03134,0.00000*
1,1,0.02292,-0.03134,0.00000*
%
%ADD44ROUNDEDRECTD44*%
%ADD45R,0.05500X0.05000*%
G04:AMPARAMS|DCode=46|XSize=55mil|YSize=50mil|CornerRadius=0mil|HoleSize=0mil|Usage=FLASHONLY|Rotation=0.000|XOffset=0mil|YOffset=0mil|HoleType=Round|Shape=Octagon|*
%AMOCTAGOND46*
4,1,8,0.02750,-0.01250,0.02750,0.01250,0.01500,0.02500,-0.01500,0.02500,-0.02750,0.01250,-0.02750,-0.01250,-0.01500,-0.02500,0.01500,-0.02500,0.02750,-0.01250,0.0*
%
%ADD46OCTAGOND46*%

%ADD47R,0.08465X0.12795*%
%ADD48R,0.08465X0.03740*%
%ADD49R,0.02559X0.04724*%
%ADD50R,0.04724X0.02559*%
%ADD51R,0.05847X0.06803*%
%ADD52R,0.05049X0.13606*%
%ADD53R,0.13606X0.05049*%
%ADD91C,0.00700*%
%ADD92C,0.02000*%
%ADD93C,0.02003*%
%ADD94C,0.05118*%
%ADD95C,0.06693*%
%ADD96R,0.06693X0.06693*%
%ADD97R,0.06693X0.06693*%
%ADD98C,0.08661*%
%ADD99C,0.11811*%
%ADD100C,0.20000*%
%ADD101C,0.02165*%
%ADD102C,0.01772*%
G36*
X1258500Y1026000D02*
X1258535Y1024921D01*
X1258817Y1022781D01*
X1259376Y1020696D01*
X1260202Y1018702D01*
X1261281Y1016833D01*
X1262595Y1015121D01*
X1264121Y1013595D01*
X1265833Y1012281D01*
X1267702Y1011202D01*
X1269696Y1010376D01*
X1271781Y1009817D01*
X1273921Y1009535D01*
X1275000Y1009500D01*
X1288000D01*
Y980500D01*
X1235000D01*
Y946500D01*
X1227500D01*
Y997500D01*
X1211000D01*
Y946500D01*
X1205500D01*
Y997500D01*
X1185000D01*
Y1039000D01*
X1258500D01*
Y1026000D01*
D02*
G37*
G36*
X1019937Y1029634D02*
Y1011130D01*
Y997500D01*
X1000500D01*
Y946500D01*
X993500D01*
Y997500D01*
X977000D01*
Y946500D01*
X969500D01*
Y980500D01*
X916500D01*
Y1009500D01*
X929500D01*
X930579Y1009535D01*
X932719Y1009817D01*
X934804Y1010376D01*
X936798Y1011202D01*
X938667Y1012281D01*
X940379Y1013595D01*
X941905Y1015121D01*
X943219Y1016833D01*
X944298Y1018702D01*
X945124Y1020696D01*
X945683Y1022781D01*
X945965Y1024921D01*
X946000Y1026000D01*
X946000Y1039000D01*
X1019937D01*
Y1029634D01*
D02*
G37*
G36*
X1221500Y943000D02*
X1235000D01*
Y894500D01*
X1288000D01*
Y853000D01*
X916500D01*
Y894500D01*
X969500D01*
Y943000D01*
X983500D01*
Y994000D01*
X989000D01*
Y943000D01*
X1006500D01*
Y994000D01*
X1012000D01*
Y919366D01*
X1034846D01*
Y912000D01*
X1091500D01*
Y919266D01*
X1177721D01*
X1177721Y919265D01*
Y912000D01*
X1218000D01*
Y923500D01*
X1192500D01*
Y994000D01*
X1198500D01*
Y943000D01*
X1215500D01*
Y994000D01*
X1221500D01*
Y943000D01*
D02*
G37*
G36*
X1126000Y922000D02*
X1075000D01*
Y1013000D01*
X1049000Y1039000D01*
X1126000D01*
Y922000D01*
D02*
G37*
G36*
X1182500Y1016500D02*
X1175500D01*
X1175500Y989000D01*
X1187018Y977481D01*
X1186987Y922000D01*
X1183252D01*
Y921921D01*
X1164748D01*
Y922000D01*
X1145000D01*
Y987500D01*
X1130500Y1002000D01*
Y1016500D01*
Y1039000D01*
X1182500D01*
Y1016500D01*
D02*
G37*
G36*
X1058985Y1002015D02*
X1059013Y922000D01*
X1040252D01*
Y921921D01*
X1021748D01*
Y922000D01*
X1015500D01*
Y995000D01*
X1022500D01*
Y1024203D01*
X1036797D01*
X1058985Y1002015D01*
D02*
G37*
G36*
X1288000Y901000D02*
X1238500D01*
Y962000D01*
X1288000D01*
Y901000D01*
D02*
G37*
G36*
X966000Y898500D02*
X916500D01*
Y962000D01*
X966000D01*
Y898500D01*
D02*
G37*
G36*
X981500Y817500D02*
X958500D01*
X957500Y818500D01*
Y821500D01*
X981500D01*
Y817500D01*
D02*
G37*
G36*
Y786472D02*
X958500D01*
X957500Y787472D01*
Y790472D01*
X981500D01*
Y786472D01*
D02*
G37*
D14*
X1102563Y758085D02*
G03*
X1102209Y757731I0J-354D01*
G01*
X1058146Y750180D02*
G03*
X1058500Y750534I0J354D01*
G01*
X1080532Y758085D02*
G03*
X1080177Y757731I0J-354D01*
G01*
X1025107Y798465D02*
X1025561D01*
X1031358Y792618D02*
Y792668D01*
X1025561Y798465D02*
X1031358Y792668D01*
X1024500Y799073D02*
X1025107Y798465D01*
X1024500Y799073D02*
Y801585D01*
X1032750D02*
X1036000D01*
X1029500D02*
X1032750D01*
X1036000D02*
X1036000Y801585D01*
X1031357Y828184D02*
Y832689D01*
X1029500Y826326D02*
X1031357Y828184D01*
X1029500Y823415D02*
Y826326D01*
X1029459Y835483D02*
X1030795D01*
X1026140Y833302D02*
X1027278D01*
X1029459Y835483D01*
X1025578Y832638D02*
Y832739D01*
X1026140Y833302D01*
X1030795Y835483D02*
X1031357Y836046D01*
Y836097D01*
X1024500Y831561D02*
X1025578Y832638D01*
X1024500Y823415D02*
Y831561D01*
X1019649Y823564D02*
Y832540D01*
X1019797Y832689D01*
X1019500Y823415D02*
X1019649Y823564D01*
X1014017Y832689D02*
X1019797D01*
X1028495Y790005D02*
X1029290Y789210D01*
X1025679Y792567D02*
X1027909D01*
X1028495Y791982D01*
Y790005D02*
Y791982D01*
X1029290Y789210D02*
X1031358D01*
X1019500Y798746D02*
X1025679Y792567D01*
X1019500Y798746D02*
Y801585D01*
X1014017Y792618D02*
X1019797D01*
X1014259Y792859D02*
Y801344D01*
X1014017Y792618D02*
X1014259Y792859D01*
Y801344D02*
X1014500Y801585D01*
X1234500Y758766D02*
Y761500D01*
X978071Y810500D02*
Y810529D01*
X980433Y828639D02*
X982500Y826573D01*
X1178708Y790500D02*
Y794208D01*
X1187500Y803000D01*
X1183000Y793997D02*
X1188365Y799363D01*
X1183000Y790500D02*
Y793997D01*
X1188365Y799363D02*
X1188548D01*
X1190185Y801000D02*
X1190500D01*
X1188548Y799363D02*
X1190185Y801000D01*
X978071Y788556D02*
X983803D01*
X1211500Y801500D02*
Y806322D01*
Y795787D02*
Y801500D01*
X1211347Y795634D02*
X1211500Y795787D01*
Y806322D02*
X1212040Y806862D01*
X1204653Y787169D02*
X1207208Y784615D01*
X1204653Y787169D02*
Y787366D01*
X1207208Y780000D02*
Y784615D01*
X1238064Y825436D02*
X1239500Y824000D01*
X1235408Y825436D02*
X1238064D01*
X1234500Y761500D02*
Y767000D01*
X1201792Y724208D02*
X1220658D01*
X1195893D02*
X1201792D01*
X1189995D02*
X1195893D01*
X1173660Y818972D02*
Y821767D01*
Y816178D02*
Y818972D01*
Y803573D02*
Y806387D01*
Y800759D02*
Y803573D01*
X1099150Y818972D02*
Y821767D01*
Y816178D02*
Y818972D01*
Y803573D02*
Y806387D01*
Y800759D02*
Y803573D01*
X1097917Y779915D02*
Y787608D01*
X1097563Y750180D02*
Y758085D01*
X1075886Y779915D02*
Y787608D01*
X1075532Y750180D02*
Y758085D01*
X1053854Y779915D02*
Y787608D01*
Y750180D02*
Y758085D01*
X994137Y804000D02*
Y813543D01*
X958708Y739943D02*
X962716D01*
X954701D02*
X958708D01*
X1235408Y812327D02*
X1239500D01*
X1205500Y802000D02*
X1207748Y804248D01*
Y806862D01*
X1200634Y787366D02*
X1204653D01*
X1199500Y788500D02*
X1200634Y787366D01*
X1220871Y778000D02*
X1221500D01*
X1218871Y780000D02*
Y780492D01*
Y780000D02*
X1220871Y778000D01*
X1218871Y788371D02*
X1219000Y788500D01*
X1218871Y784784D02*
Y788371D01*
X1249013Y704487D02*
X1249026Y704474D01*
X1249000Y704500D02*
X1249013Y704487D01*
X1225000Y767500D02*
Y770000D01*
Y767500D02*
X1228000Y764500D01*
Y757050D02*
Y764500D01*
X1232784Y757050D02*
X1234500Y758766D01*
X1232292Y757050D02*
X1232784D01*
X1232292Y751000D02*
Y757050D01*
X1232292Y757050D01*
X1211000Y728500D02*
X1214500D01*
X1220658D01*
X1187000Y728500D02*
X1189995D01*
X1187000Y728500D02*
X1187000Y728500D01*
X1220658Y724208D02*
X1220658Y724208D01*
X1167000Y744000D02*
X1170092D01*
X967180Y751000D02*
X967500Y751320D01*
X963000Y751000D02*
X967180D01*
X963000Y728500D02*
X967437D01*
X967500Y728563D01*
X1259900Y731600D02*
Y735796D01*
Y731600D02*
X1260000Y731500D01*
X1277000Y711000D02*
X1277252Y710747D01*
Y704500D02*
Y710747D01*
X1256668Y704474D02*
X1270227D01*
X1270252Y704500D01*
X1249026Y704474D02*
X1253261D01*
X1226000Y674500D02*
Y678029D01*
X1232300D01*
X1219700D02*
X1226000D01*
X1207424Y674076D02*
X1207500Y674000D01*
X1207348Y678029D02*
X1207424Y677953D01*
Y674076D02*
Y677953D01*
X1137500Y674000D02*
X1137624Y674124D01*
Y677905D02*
X1137748Y678029D01*
X1137624Y674124D02*
Y677905D01*
X1172987Y674013D02*
X1173000Y674000D01*
X1172975Y678029D02*
X1172987Y678017D01*
Y674013D02*
Y678017D01*
X949500Y686500D02*
X949579Y686579D01*
X957669D01*
X950079Y696421D02*
X957669D01*
X950000Y696500D02*
X950079Y696421D01*
X967967Y839676D02*
X968217D01*
X1011000Y841500D02*
X1014017Y838483D01*
Y836097D02*
Y838483D01*
X1025500Y848000D02*
X1025578Y847923D01*
Y836097D02*
Y847923D01*
X1010500Y835500D02*
X1011097Y836097D01*
X1014017D01*
X1010500Y830000D02*
Y835500D01*
X1014500Y823415D02*
Y826000D01*
X1010500Y830000D02*
X1014500Y826000D01*
X1034500Y810000D02*
X1036000Y808500D01*
Y805877D02*
Y808500D01*
X1102563Y779915D02*
Y787254D01*
X1102209Y787608D02*
X1102563Y787254D01*
X1080177Y787608D02*
X1080532Y787254D01*
Y779915D02*
Y787254D01*
X1058146Y787608D02*
X1058500Y787254D01*
Y779915D02*
Y787254D01*
X1049180Y750180D02*
X1053854D01*
X1049000Y750000D02*
X1049180Y750180D01*
X1071500Y750000D02*
X1071590Y750090D01*
X1075796D02*
X1075886Y750180D01*
X1071590Y750090D02*
X1075796D01*
X1070000Y746500D02*
X1080000D01*
X1058146Y750180D02*
X1058500D01*
X1066320D02*
X1070000Y746500D01*
X1058500Y750180D02*
X1066320D01*
X1097563D02*
X1097917D01*
X1093180D02*
X1097563D01*
X1093000Y750000D02*
X1093180Y750180D01*
X1123158Y769000D02*
Y777572D01*
X1121460Y779270D02*
X1123158Y777572D01*
X1120967Y779270D02*
X1121460D01*
X1120967Y750533D02*
Y758721D01*
Y750533D02*
X1121000Y750500D01*
X1102209Y750180D02*
Y757731D01*
X1102563Y758085D02*
Y760953D01*
X1106870Y765260D01*
X1114485D01*
X1080177Y750180D02*
Y757731D01*
X1080000Y746500D02*
X1101500D01*
X1080000D02*
X1080177Y746677D01*
Y750180D01*
X1101500Y746500D02*
X1102209Y747209D01*
Y750180D01*
X1058500Y750534D02*
Y758085D01*
X1053500D02*
Y779915D01*
X1053854D01*
X1053500Y758085D02*
X1053854D01*
X1097563Y758085D02*
Y779915D01*
X1097917D01*
X1075532Y779915D02*
X1075886D01*
X1075532Y758085D02*
Y779915D01*
X1025578Y779500D02*
Y789210D01*
X1014017Y779500D02*
X1025578D01*
X1014017D02*
Y789210D01*
X994137Y804000D02*
X1002000D01*
X994137Y800611D02*
Y804000D01*
Y794145D02*
Y800611D01*
X1116183Y779270D02*
X1116676D01*
X934000Y983093D02*
Y991000D01*
X935500Y952500D02*
Y958949D01*
X1217650Y748000D02*
X1222500D01*
X1217598Y748051D02*
X1217650Y748000D01*
X1198701Y770098D02*
Y774701D01*
X1200000Y776000D01*
X1194318Y789182D02*
X1200000Y783500D01*
Y776000D02*
Y783500D01*
X1194318Y789182D02*
Y793612D01*
X1186500Y783646D02*
X1187014Y784160D01*
Y786701D01*
X1193924Y793612D01*
X1194318D01*
Y780226D02*
X1195551Y778993D01*
Y770098D02*
Y778993D01*
X1186500Y779354D02*
X1193446D01*
X1194318Y780226D01*
X1114485Y760419D02*
Y765260D01*
Y760419D02*
X1116183Y758721D01*
X1116676D01*
X1198701Y770098D02*
X1198811Y770208D01*
X1090564Y810780D02*
Y811000D01*
X1086784Y807000D02*
X1090564Y810780D01*
X1095691Y816178D02*
X1095742D01*
X1090564Y811000D02*
X1095128Y815564D01*
Y815615D01*
X1095691Y816178D01*
X1084000Y807000D02*
X1086784D01*
X1095300Y816178D02*
Y822209D01*
X1162205Y807911D02*
Y808181D01*
X1161294Y807000D02*
X1162205Y807911D01*
X1158510Y807000D02*
X1161294D01*
X1162205Y808181D02*
X1170202Y816178D01*
X1267183Y751476D02*
Y754823D01*
X1259900Y739204D02*
Y744193D01*
X1267183Y751476D01*
Y754823D02*
Y774817D01*
X1262000Y780000D02*
X1267183Y774817D01*
X1246000Y780000D02*
X1262000D01*
X1232000Y805718D02*
Y812327D01*
Y818935D02*
Y825436D01*
X1244935Y818935D02*
X1246000Y820000D01*
X1235408Y818935D02*
X1244935D01*
X1239749Y805718D02*
X1244032Y810000D01*
X1246000D01*
X1235408Y805718D02*
X1239749D01*
X1245109Y799109D02*
X1246000Y800000D01*
X1235408Y799109D02*
X1245109D01*
X1241531Y792500D02*
X1244032Y790000D01*
X1246000D01*
X1235408Y792500D02*
X1241531D01*
X931000Y747500D02*
Y756500D01*
X934095Y759594D02*
Y764039D01*
X931000Y756500D02*
X934095Y759594D01*
X928000Y734500D02*
Y741000D01*
Y734500D02*
X930500Y732000D01*
X928000Y741000D02*
X929404Y742404D01*
X934095D01*
X930500Y726000D02*
Y732000D01*
X934095Y715848D02*
Y722405D01*
X930500Y726000D02*
X934095Y722405D01*
X938539Y768961D02*
X940500Y767000D01*
X934095Y753094D02*
X940500Y759500D01*
Y767000D01*
X934095Y768961D02*
X938539D01*
X938426Y710926D02*
X940500Y713000D01*
X934095Y727906D02*
X940500Y721500D01*
Y713000D02*
Y721500D01*
X934095Y710926D02*
X938426D01*
X934095Y727906D02*
Y737482D01*
Y742404D02*
Y753094D01*
Y742404D02*
X940176D01*
X941455Y743683D02*
X945772D01*
X940176Y742404D02*
X941455Y743683D01*
X934095Y737482D02*
X940176D01*
X941455Y736203D02*
X945772D01*
X940176Y737482D02*
X941455Y736203D01*
X1031176Y737443D02*
X1031530Y737797D01*
X1023415Y737443D02*
X1031176D01*
X1023415Y742443D02*
X1031176D01*
X1031530Y742089D01*
X991193Y750075D02*
Y750188D01*
Y749962D02*
Y750075D01*
X987438Y753943D02*
X991193Y750188D01*
X975085Y747029D02*
X982000Y753943D01*
X987438D01*
X967500Y747029D02*
X975085D01*
X991193Y729823D02*
Y729936D01*
Y729710D02*
Y729823D01*
X987427Y725943D02*
X991193Y729710D01*
X981500Y725943D02*
X987427D01*
X974588Y732855D02*
X981500Y725943D01*
X967500Y732855D02*
X974588D01*
X967500Y746536D02*
Y747029D01*
X945772Y743683D02*
X964647D01*
X967500Y746536D01*
X964644Y736203D02*
X967500Y733347D01*
Y732855D02*
Y733347D01*
X945772Y736203D02*
X964644D01*
X967008Y739943D02*
X978587D01*
X985262Y736618D02*
X988587Y739943D01*
X985262Y729823D02*
Y736618D01*
X981433Y746133D02*
X985262Y749962D01*
X981433Y742790D02*
Y746133D01*
X978587Y739943D02*
X981433Y742790D01*
X985262Y749962D02*
Y750075D01*
X998700Y737443D02*
X1001585D01*
X991193Y729936D02*
X998700Y737443D01*
X998711Y742443D02*
X1001585D01*
X991193Y749962D02*
X998711Y742443D01*
X1173660Y806387D02*
X1174102Y806829D01*
X1173660Y821767D02*
X1174102Y822209D01*
X1099150Y806387D02*
X1099592Y806829D01*
X1099150Y821767D02*
X1099592Y822209D01*
X1170252Y816178D02*
Y821767D01*
X1169810Y822209D02*
X1170252Y821767D01*
X1170202Y816178D02*
X1170252D01*
X1095300Y816178D02*
X1095691D01*
X1170252Y800759D02*
Y806387D01*
X1169810Y806829D02*
X1170252Y806387D01*
X1158510Y802000D02*
X1165500D01*
X1166741Y800759D02*
X1170252D01*
X1165500Y802000D02*
X1166741Y800759D01*
X1095300Y806829D02*
X1095742Y806387D01*
Y800759D02*
Y806387D01*
X1091115Y802000D02*
X1092356Y800759D01*
X1095742D01*
X1084000Y802000D02*
X1091115D01*
X1139880Y807000D02*
X1145500D01*
X1149000Y810500D01*
Y821569D01*
X1141201Y829368D02*
X1149000Y821569D01*
X1140000Y830569D02*
X1140113D01*
X1141201Y829482D01*
Y829368D02*
Y829482D01*
X1157656Y817000D02*
X1158510D01*
X1157059Y817597D02*
Y830569D01*
Y817597D02*
X1157656Y817000D01*
X1081000Y830569D02*
X1081046Y830615D01*
X1083615D01*
X1085732Y832732D01*
X1089802D01*
X1058345D02*
X1061769D01*
X1063931Y830569D02*
X1067113D01*
X1061769Y832732D02*
X1063931Y830569D01*
X1139954Y830615D02*
X1140000Y830569D01*
X1135269Y832731D02*
X1137385Y830615D01*
X1139954D01*
X1130978Y832731D02*
X1135269D01*
X1161961Y831732D02*
X1165205D01*
X1166205Y832732D01*
X1160798Y830569D02*
X1161961Y831732D01*
X1157059Y830569D02*
X1160798D01*
X1067000Y836500D02*
Y846000D01*
X1058576D02*
X1067000D01*
X1058345Y846231D02*
X1058576Y846000D01*
X1081000Y836500D02*
Y846000D01*
X1089570D02*
X1089802Y846231D01*
X1081000Y846000D02*
X1089570D01*
X1130978Y846231D02*
X1131246Y846500D01*
X1140000D01*
X1165937D02*
X1166205Y846231D01*
X1157000Y846500D02*
X1165937D01*
X1157000Y836559D02*
Y846500D01*
Y836559D02*
X1157059Y836500D01*
X1140000Y836500D02*
Y846500D01*
X1130917Y802000D02*
X1130978Y802060D01*
X1121599Y802356D02*
X1121955Y802000D01*
X1121599Y821589D02*
X1123945Y819243D01*
X1130978Y818750D02*
Y819243D01*
X1131332Y812000D02*
X1139880D01*
X1130978Y811646D02*
X1131332Y812000D01*
X1071500Y807000D02*
X1074500Y810000D01*
X1065370Y807000D02*
X1071500D01*
X1074500Y810000D02*
Y823069D01*
X1068201Y829368D02*
X1074500Y823069D01*
X1081000Y817597D02*
X1081597Y817000D01*
X1081000Y817597D02*
Y830569D01*
X1081597Y817000D02*
X1084000D01*
X1068201Y829368D02*
Y829482D01*
X1067113Y830569D02*
X1068201Y829482D01*
X1038500Y916500D02*
X1045500D01*
X1031740Y1028955D02*
X1037998D01*
X1030625Y1028879D02*
X1031243Y1028325D01*
X1024858Y1027882D02*
X1031740D01*
X1047089Y821285D02*
X1049435Y818939D01*
X1062236Y817000D02*
X1065370D01*
X1056822Y812000D02*
X1065370D01*
X1056468Y811646D02*
X1056822Y812000D01*
X1056256Y802000D02*
X1056468Y802212D01*
X1047089Y802053D02*
X1047142Y802000D01*
X1163000Y996000D02*
X1163030Y996030D01*
X1180147D02*
X1180177Y996061D01*
X1163030Y996030D02*
X1180147D01*
X988790Y793542D02*
Y793582D01*
X989353Y794145D02*
X989845D01*
X983803Y788556D02*
X988790Y793542D01*
Y793582D02*
X989353Y794145D01*
X983433Y800611D02*
X989845D01*
X980433Y797611D02*
X983433Y800611D01*
X989845Y800611D02*
X989845Y800611D01*
X989845Y800611D02*
Y807077D01*
X954717Y820104D02*
X955236Y819584D01*
X1087911Y910904D02*
X1088940D01*
X1089969Y909875D01*
X1087204Y911611D02*
X1087911Y910904D01*
X1089969Y909875D02*
X1090284D01*
X1087204Y911611D02*
Y916500D01*
X1041405Y1024905D02*
Y1028955D01*
X1035500Y1019000D02*
X1041405Y1024905D01*
X1180147Y1022882D02*
Y1027882D01*
Y1017882D02*
Y1022882D01*
X1195000Y917000D02*
X1212500D01*
X1188500D02*
X1195000D01*
X1078000Y916500D02*
X1083796D01*
X1045500D02*
X1078000D01*
X996861Y980896D02*
Y990771D01*
Y971021D02*
Y980896D01*
Y961147D02*
Y971021D01*
Y951272D02*
Y961147D01*
X973695Y980929D02*
Y990771D01*
Y971088D02*
Y980929D01*
Y961246D02*
Y971088D01*
Y951405D02*
Y961246D01*
X932000Y983093D02*
X934000D01*
X932000Y958949D02*
X935500D01*
X1195000Y920408D02*
Y925000D01*
X1180177Y999469D02*
Y1005800D01*
X1031740Y1028879D02*
Y1028955D01*
Y1027882D02*
Y1028879D01*
X1038500Y916500D02*
Y917000D01*
X1024858Y1027882D02*
X1025638Y1028661D01*
X1181500Y917000D02*
X1188500D01*
X1180147Y1012882D02*
X1180177Y1012852D01*
Y1005800D02*
Y1012852D01*
X1180147Y1012882D02*
X1180147D01*
D18*
X1246000Y780000D02*
D03*
Y790000D02*
D03*
Y800000D02*
D03*
Y810000D02*
D03*
Y820000D02*
D03*
Y830000D02*
D03*
Y840000D02*
D03*
D19*
X1001585Y747443D02*
D03*
Y742443D02*
D03*
Y737443D02*
D03*
Y732443D02*
D03*
X1023415Y747443D02*
D03*
Y742443D02*
D03*
Y737443D02*
D03*
Y732443D02*
D03*
D20*
X1014500Y801585D02*
D03*
X1019500D02*
D03*
X1024500D02*
D03*
X1029500D02*
D03*
X1014500Y823415D02*
D03*
X1019500D02*
D03*
X1024500D02*
D03*
X1029500D02*
D03*
X1107563Y779915D02*
D03*
X1102563D02*
D03*
X1097563D02*
D03*
X1092563D02*
D03*
X1107563Y758085D02*
D03*
X1102563D02*
D03*
X1097563D02*
D03*
X1092563D02*
D03*
X1085500Y779500D02*
D03*
X1080500D02*
D03*
X1075500D02*
D03*
X1070500D02*
D03*
X1085500Y757670D02*
D03*
X1080500D02*
D03*
X1075500D02*
D03*
X1070500D02*
D03*
X1063500Y780000D02*
D03*
X1058500D02*
D03*
X1053500D02*
D03*
X1048500D02*
D03*
X1063500Y758170D02*
D03*
X1058500D02*
D03*
X1053500D02*
D03*
X1048500D02*
D03*
D21*
X1014017Y792618D02*
D03*
Y789210D02*
D03*
X1014017Y832689D02*
D03*
Y836097D02*
D03*
X1019797Y792618D02*
D03*
Y789210D02*
D03*
X1019797Y836097D02*
D03*
Y832689D02*
D03*
X1025578Y792618D02*
D03*
Y789210D02*
D03*
X1025578Y836097D02*
D03*
Y832689D02*
D03*
X1031358Y792618D02*
D03*
Y789210D02*
D03*
X1031357Y832689D02*
D03*
Y836097D02*
D03*
X1259900Y735796D02*
D03*
Y739204D02*
D03*
X1207348Y681437D02*
D03*
Y678029D02*
D03*
X1172975Y681437D02*
D03*
Y678029D02*
D03*
X1137748Y681437D02*
D03*
Y678029D02*
D03*
X1232300D02*
D03*
Y681437D02*
D03*
X1226000D02*
D03*
Y678029D02*
D03*
X1219700Y681437D02*
D03*
Y678029D02*
D03*
X1195000Y920408D02*
D03*
Y917000D02*
D03*
X1180177Y999469D02*
D03*
Y996061D02*
D03*
D22*
X1036000Y805877D02*
D03*
Y801585D02*
D03*
X1186500Y783646D02*
D03*
Y779354D02*
D03*
X1218871Y780492D02*
D03*
Y784784D02*
D03*
X1189995Y728500D02*
D03*
Y724208D02*
D03*
X1220658Y728500D02*
D03*
Y724208D02*
D03*
X1214500D02*
D03*
Y728500D02*
D03*
X1201792Y724208D02*
D03*
Y728500D02*
D03*
X1031530Y737797D02*
D03*
Y742089D02*
D03*
X967500Y747029D02*
D03*
Y751320D02*
D03*
Y732855D02*
D03*
Y728563D02*
D03*
X1130978Y819243D02*
D03*
Y823534D02*
D03*
Y811646D02*
D03*
Y807354D02*
D03*
X1056468Y818939D02*
D03*
Y823231D02*
D03*
Y811646D02*
D03*
Y807354D02*
D03*
D23*
X1114485Y772740D02*
D03*
Y765260D02*
D03*
X1123158Y769000D02*
D03*
D24*
X1097917Y787608D02*
D03*
X1102209D02*
D03*
X1075886D02*
D03*
X1080177D02*
D03*
X1120967Y758721D02*
D03*
X1116676D02*
D03*
X1097917Y750180D02*
D03*
X1102209D02*
D03*
X1075886D02*
D03*
X1080177D02*
D03*
X1053854D02*
D03*
X1058146D02*
D03*
X1053854Y787608D02*
D03*
X1058146D02*
D03*
X1116676Y779270D02*
D03*
X1120967D02*
D03*
X1228000Y757050D02*
D03*
X1232292D02*
D03*
X1178708Y790500D02*
D03*
X1183000D02*
D03*
X1174938Y767340D02*
D03*
X1179230D02*
D03*
X1232292Y751000D02*
D03*
X1228000D02*
D03*
X1207748Y806862D02*
D03*
X1212040D02*
D03*
X1207208Y780000D02*
D03*
X1211500D02*
D03*
X967008Y739943D02*
D03*
X962716D02*
D03*
X1169810Y822209D02*
D03*
X1174102D02*
D03*
X1169810Y806829D02*
D03*
X1174102D02*
D03*
X1095300Y822209D02*
D03*
X1099592D02*
D03*
X1095300Y806829D02*
D03*
X1099592D02*
D03*
X994137Y794145D02*
D03*
X989845D02*
D03*
X994137Y800611D02*
D03*
X989845D02*
D03*
X994137Y813543D02*
D03*
X989845D02*
D03*
X994137Y807077D02*
D03*
X989845D02*
D03*
D25*
X1217598Y770098D02*
D03*
Y766949D02*
D03*
Y763799D02*
D03*
Y760650D02*
D03*
Y757500D02*
D03*
Y754350D02*
D03*
Y751201D02*
D03*
Y748051D02*
D03*
Y744902D02*
D03*
Y741752D02*
D03*
X1214449Y770098D02*
D03*
Y766949D02*
D03*
Y763799D02*
D03*
Y760650D02*
D03*
Y757500D02*
D03*
Y754350D02*
D03*
Y751201D02*
D03*
Y748051D02*
D03*
Y744902D02*
D03*
Y741752D02*
D03*
X1211299Y770098D02*
D03*
Y766949D02*
D03*
Y763799D02*
D03*
Y760650D02*
D03*
Y757500D02*
D03*
Y754350D02*
D03*
Y751201D02*
D03*
Y748051D02*
D03*
Y744902D02*
D03*
Y741752D02*
D03*
X1208150Y770098D02*
D03*
Y766949D02*
D03*
Y763799D02*
D03*
Y760650D02*
D03*
Y757500D02*
D03*
Y754350D02*
D03*
Y751201D02*
D03*
Y748051D02*
D03*
Y744902D02*
D03*
Y741752D02*
D03*
X1205000Y770098D02*
D03*
Y766949D02*
D03*
Y763799D02*
D03*
Y760650D02*
D03*
Y757500D02*
D03*
Y754350D02*
D03*
Y751201D02*
D03*
Y748051D02*
D03*
Y744902D02*
D03*
Y741752D02*
D03*
X1201850Y770098D02*
D03*
Y766949D02*
D03*
Y763799D02*
D03*
Y760650D02*
D03*
Y757500D02*
D03*
Y754350D02*
D03*
Y751201D02*
D03*
Y748051D02*
D03*
Y744902D02*
D03*
Y741752D02*
D03*
X1198701Y770098D02*
D03*
Y766949D02*
D03*
Y763799D02*
D03*
Y760650D02*
D03*
Y757500D02*
D03*
Y754350D02*
D03*
Y751201D02*
D03*
Y748051D02*
D03*
Y744902D02*
D03*
Y741752D02*
D03*
X1195551Y770098D02*
D03*
Y766949D02*
D03*
Y763799D02*
D03*
Y760650D02*
D03*
Y757500D02*
D03*
Y754350D02*
D03*
Y751201D02*
D03*
Y748051D02*
D03*
Y744902D02*
D03*
Y741752D02*
D03*
X1192402Y770098D02*
D03*
Y766949D02*
D03*
Y763799D02*
D03*
Y760650D02*
D03*
Y757500D02*
D03*
Y754350D02*
D03*
Y751201D02*
D03*
Y748051D02*
D03*
Y744902D02*
D03*
Y741752D02*
D03*
X1189252Y770098D02*
D03*
Y766949D02*
D03*
Y763799D02*
D03*
Y760650D02*
D03*
Y757500D02*
D03*
Y754350D02*
D03*
Y751201D02*
D03*
Y748051D02*
D03*
Y744902D02*
D03*
Y741752D02*
D03*
D26*
X1194318Y780226D02*
D03*
Y793612D02*
D03*
D27*
X957669Y698390D02*
D03*
Y684610D02*
D03*
Y686579D02*
D03*
Y688547D02*
D03*
Y690516D02*
D03*
Y692484D02*
D03*
Y694453D02*
D03*
Y696421D02*
D03*
D28*
X967500Y678114D02*
D03*
X967500Y704886D02*
D03*
D29*
X1170092Y744000D02*
D03*
X1173500D02*
D03*
X1234500Y767000D02*
D03*
X1231092D02*
D03*
X1151204Y744000D02*
D03*
X1147796D02*
D03*
X1037500Y749175D02*
D03*
X1034092D02*
D03*
X1253261Y704474D02*
D03*
X1256668D02*
D03*
X1235408Y812327D02*
D03*
X1232000D02*
D03*
X1235408Y825436D02*
D03*
X1232000D02*
D03*
X1235408Y818935D02*
D03*
X1232000D02*
D03*
X1235408Y805718D02*
D03*
X1232000D02*
D03*
X1235408Y799109D02*
D03*
X1232000D02*
D03*
X1235408Y792500D02*
D03*
X1232000D02*
D03*
X1173660Y816178D02*
D03*
X1170252D02*
D03*
X1173660Y800759D02*
D03*
X1170252D02*
D03*
X1099150Y816178D02*
D03*
X1095742D02*
D03*
X1099150Y800759D02*
D03*
X1095742D02*
D03*
X1087204Y916500D02*
D03*
X1083796D02*
D03*
X1041405Y1028955D02*
D03*
X1037998D02*
D03*
D30*
X1226000Y690700D02*
D03*
X1219700D02*
D03*
X1232300D02*
D03*
Y712000D02*
D03*
X1219700D02*
D03*
X1226000D02*
D03*
D31*
X1211347Y795634D02*
D03*
Y787366D02*
D03*
X1204653D02*
D03*
Y795634D02*
D03*
D32*
X1270252Y704500D02*
D03*
X1277252D02*
D03*
D33*
X1174119Y775449D02*
D03*
X1180050D02*
D03*
X1174119Y783412D02*
D03*
X1180050D02*
D03*
X1174119Y759563D02*
D03*
X1180050D02*
D03*
X1174119Y751166D02*
D03*
X1180050D02*
D03*
X985262Y750075D02*
D03*
X991193D02*
D03*
X985262Y729823D02*
D03*
X991193D02*
D03*
D34*
X1111722Y713617D02*
D03*
X1129439D02*
D03*
Y678972D02*
D03*
X1199007Y678972D02*
D03*
Y713617D02*
D03*
X1181291D02*
D03*
X1164223Y678972D02*
D03*
Y713617D02*
D03*
X1146507D02*
D03*
X1284900Y720177D02*
D03*
X1267183D02*
D03*
Y754823D02*
D03*
D35*
X1111722Y678972D02*
D03*
X1181291Y678972D02*
D03*
X1146507Y678972D02*
D03*
X1284900Y754823D02*
D03*
D36*
X945772Y743683D02*
D03*
Y736203D02*
D03*
X954701Y739943D02*
D03*
D37*
X920905Y723525D02*
D03*
Y703249D02*
D03*
Y750081D02*
D03*
Y729805D02*
D03*
X920905Y776638D02*
D03*
Y756362D02*
D03*
D38*
X934095Y715848D02*
D03*
Y710926D02*
D03*
Y742404D02*
D03*
Y737482D02*
D03*
X934095Y768961D02*
D03*
Y764039D02*
D03*
D39*
X1166205Y832732D02*
D03*
X1130978Y832731D02*
D03*
X1089802Y832732D02*
D03*
X1058345D02*
D03*
D40*
X1166205Y846231D02*
D03*
X1130978Y846231D02*
D03*
X1089802Y846231D02*
D03*
X1058345D02*
D03*
D41*
X1157059Y836500D02*
D03*
Y830569D02*
D03*
X1140000Y836500D02*
D03*
Y830569D02*
D03*
X1081000Y836500D02*
D03*
Y830569D02*
D03*
X1067000Y836500D02*
D03*
Y830569D02*
D03*
D42*
X1121599Y802356D02*
D03*
Y821589D02*
D03*
X1047089Y802053D02*
D03*
Y821285D02*
D03*
D43*
X1158510Y802000D02*
D03*
X1084000Y802000D02*
D03*
D44*
X1158510Y807000D02*
D03*
Y817000D02*
D03*
X1139880D02*
D03*
Y812000D02*
D03*
Y807000D02*
D03*
Y802000D02*
D03*
X1158510Y812000D02*
D03*
X1084000Y807000D02*
D03*
Y817000D02*
D03*
X1065370D02*
D03*
Y812000D02*
D03*
Y807000D02*
D03*
Y802000D02*
D03*
X1084000Y812000D02*
D03*
D45*
X954717Y839676D02*
D03*
D46*
X968217D02*
D03*
D47*
X955236Y819584D02*
D03*
Y788556D02*
D03*
D48*
X978071Y828639D02*
D03*
Y819584D02*
D03*
Y810529D02*
D03*
Y797611D02*
D03*
Y788556D02*
D03*
Y779501D02*
D03*
D49*
X1166100Y939122D02*
D03*
X1171400D02*
D03*
X1176600D02*
D03*
X1181900D02*
D03*
X1181500Y917000D02*
D03*
X1176500D02*
D03*
X1171500D02*
D03*
X1166500D02*
D03*
X1023100Y939122D02*
D03*
X1028400D02*
D03*
X1033600D02*
D03*
X1038900D02*
D03*
X1038500Y917000D02*
D03*
X1033500D02*
D03*
X1028500D02*
D03*
X1023500D02*
D03*
D50*
X1202269Y1028282D02*
D03*
Y1022982D02*
D03*
Y1017782D02*
D03*
Y1012482D02*
D03*
X1180147Y1012882D02*
D03*
Y1017882D02*
D03*
Y1022882D02*
D03*
Y1027882D02*
D03*
X1002736Y1012482D02*
D03*
Y1017782D02*
D03*
Y1022982D02*
D03*
Y1028282D02*
D03*
X1024858Y1027882D02*
D03*
Y1022882D02*
D03*
Y1017882D02*
D03*
Y1012882D02*
D03*
D51*
X1208014Y961147D02*
D03*
X1195475D02*
D03*
Y951272D02*
D03*
X1208014D02*
D03*
Y980896D02*
D03*
X1195475D02*
D03*
Y971021D02*
D03*
X1208014D02*
D03*
Y990771D02*
D03*
X1195475D02*
D03*
X1218507D02*
D03*
X1231047D02*
D03*
Y951272D02*
D03*
X1218507D02*
D03*
Y980896D02*
D03*
X1231047D02*
D03*
Y971021D02*
D03*
X1218507D02*
D03*
Y961147D02*
D03*
X1231047D02*
D03*
X986235Y990771D02*
D03*
X973695D02*
D03*
X986235Y980929D02*
D03*
X973695D02*
D03*
X986235Y971088D02*
D03*
X973695D02*
D03*
X986235Y961246D02*
D03*
X973695D02*
D03*
X1009401Y961147D02*
D03*
X996861D02*
D03*
X986235Y951405D02*
D03*
X973695D02*
D03*
X1009401Y951272D02*
D03*
X996861D02*
D03*
X1009401Y971021D02*
D03*
X996861D02*
D03*
X1009401Y980896D02*
D03*
X996861D02*
D03*
X1009401Y990771D02*
D03*
X996861D02*
D03*
D52*
X1147572Y979000D02*
D03*
X1123428D02*
D03*
D53*
X1272500Y958949D02*
D03*
Y983093D02*
D03*
X932000D02*
D03*
Y958949D02*
D03*
D91*
X1228000Y786000D02*
X1245035Y768964D01*
X1238350Y749805D02*
Y769150D01*
X1237000Y739000D02*
X1245035Y747036D01*
X1233447Y744902D02*
X1238350Y749805D01*
X1245035Y747036D02*
Y768964D01*
X1234752Y741752D02*
X1241500Y748500D01*
X1223500Y784000D02*
X1238350Y769150D01*
X1241500Y748500D02*
Y769000D01*
X1226000Y784500D02*
X1241500Y769000D01*
X1179722Y767340D02*
X1181382Y769000D01*
X1182995Y770098D02*
X1189252D01*
X1179230Y767340D02*
X1179722D01*
X1181896Y769000D02*
X1182995Y770098D01*
X1181382Y769000D02*
X1181896D01*
X1176798Y771798D02*
X1186298D01*
X1187000Y772500D01*
X1174938Y769938D02*
X1176798Y771798D01*
X1174119Y793619D02*
X1180000Y799500D01*
Y808500D01*
X1043725Y743000D02*
X1141000D01*
X1114000Y792500D02*
X1155500Y751000D01*
X1100000Y792500D02*
X1114000D01*
X1042500Y795000D02*
X1086899D01*
X1165000Y768500D02*
X1167103Y766397D01*
Y765898D02*
X1169000Y764000D01*
X1167103Y765898D02*
Y766397D01*
X1169000Y764000D02*
X1183000D01*
X1185949Y766949D02*
X1189252D01*
X1183000Y764000D02*
X1185949Y766949D01*
X1032310Y747443D02*
X1034041Y749175D01*
X1023415Y747443D02*
X1032310D01*
X1034041Y749175D02*
X1034092D01*
X1043500Y740000D02*
X1143796D01*
X1035943Y732443D02*
X1043500Y740000D01*
X1143796D02*
X1147796Y744000D01*
X1037550Y749175D02*
X1043725Y743000D01*
X1037525Y749175D02*
X1037550D01*
X1023415Y732443D02*
X1035943D01*
X1037500Y749175D02*
X1037525D01*
X1187000Y772500D02*
X1190000D01*
X1192402Y770098D01*
X1174938Y767340D02*
Y769938D01*
X1201850Y770098D02*
Y773850D01*
X1203500Y775500D01*
X1085532Y779915D02*
Y785968D01*
X1085500Y786000D02*
X1085532Y785968D01*
X1031358Y792618D02*
X1083000D01*
X1040500Y797000D02*
Y809547D01*
Y797000D02*
X1042500Y795000D01*
X1029500Y820547D02*
X1040500Y809547D01*
X1029500Y820547D02*
Y823415D01*
X1019780Y836114D02*
X1019797Y836097D01*
X1019780Y836114D02*
Y841469D01*
X1046500Y780000D02*
X1048500D01*
X1019679Y784727D02*
Y789092D01*
X1019797Y789210D01*
X1033500Y767000D02*
X1046500Y780000D01*
X1232300Y681437D02*
Y690700D01*
X1226000Y681437D02*
Y690700D01*
X1219700Y681437D02*
Y690700D01*
X1199007Y679457D02*
Y679942D01*
Y678972D02*
Y679457D01*
Y679942D02*
X1200502Y681437D01*
X1207348D01*
X1165718D02*
X1172975D01*
X1164223Y679942D02*
X1165718Y681437D01*
X1164223Y678972D02*
Y679942D01*
X1129439D02*
X1130934Y681437D01*
X1137748D01*
X1129439Y678972D02*
Y679942D01*
X1223500Y784000D02*
Y802500D01*
X1226000Y784500D02*
Y813000D01*
X1228000Y786000D02*
Y795109D01*
X1221650Y760650D02*
X1223000Y762000D01*
X1217598Y760650D02*
X1221650D01*
X1217598Y754350D02*
X1217684Y754436D01*
X1219436D01*
X1223000Y758000D01*
X1217598Y751201D02*
X1220701D01*
X1223000Y753500D01*
X1217598Y744902D02*
X1233447D01*
X1226000Y813000D02*
X1231968Y818968D01*
X1174119Y783412D02*
Y793619D01*
X973300Y696200D02*
X1058750D01*
X1095050Y732500D01*
X957669Y698390D02*
X971110D01*
X973300Y696200D01*
X960807Y694500D02*
X1059454D01*
X960276Y694481D02*
X960787D01*
X960807Y694500D01*
X1059454D02*
X1095754Y730800D01*
X957669Y684610D02*
X971610D01*
X973800Y686800D01*
X1060884Y688575D02*
X1097908Y725600D01*
X960164Y688575D02*
X1060884D01*
X973800Y686800D02*
X1061512Y686800D01*
X1098612Y723900D01*
X957669Y690516D02*
X1060420D01*
X1097204Y727300D01*
X957669Y692484D02*
X969516D01*
X969500Y692500D02*
X969516Y692484D01*
X1060000Y692500D02*
X1096500Y729000D01*
X969500Y692500D02*
X1060000Y692500D01*
X1095050Y732500D02*
X1163050Y732500D01*
X1097204Y727300D02*
X1165204Y727300D01*
X1095754Y730800D02*
X1163754Y730800D01*
X1097908Y725600D02*
X1165908Y725600D01*
X1098612Y723900D02*
X1166613Y723900D01*
X1096500Y729000D02*
X1164500Y729000D01*
X1163050Y732500D02*
X1171550Y741000D01*
X1165204Y727300D02*
X1173704Y735800D01*
X1163754Y730800D02*
X1172254Y739300D01*
X1165908Y725600D02*
X1174408Y734100D01*
X1166613Y723900D02*
X1175113Y732400D01*
X1164500Y729000D02*
X1173000Y737500D01*
X1151204Y744000D02*
X1151254D01*
X1171550Y741000D02*
X1178000D01*
X1183767Y746767D01*
X1184818D02*
X1189252Y751201D01*
X1183767Y746767D02*
X1184818D01*
X1182000Y742500D02*
X1184000D01*
X1178800Y739300D02*
X1182000Y742500D01*
X1186600Y734100D02*
X1192402Y739902D01*
X1174408Y734100D02*
X1186600D01*
X1172254Y739300D02*
X1178800D01*
X1181210Y737500D02*
X1182210Y738500D01*
X1194900Y732400D02*
X1201850Y739350D01*
X1175113Y732400D02*
X1194900D01*
X1183300Y735800D02*
X1189252Y741752D01*
X1173704Y735800D02*
X1183300D01*
X1173000Y737500D02*
X1181210D01*
X1182210Y738500D02*
X1182500D01*
X1192402Y739902D02*
Y741752D01*
X1201850Y739350D02*
Y741752D01*
X1228000Y795109D02*
X1232000Y799109D01*
Y785500D02*
Y792500D01*
Y785500D02*
X1248571Y768929D01*
Y745571D02*
Y768929D01*
X1095742Y796758D02*
X1100000Y792500D01*
X1155500Y751000D02*
X1173953D01*
X1107500Y803000D02*
X1114500Y796000D01*
X1119063D02*
X1155500Y759563D01*
X1114500Y796000D02*
X1119063D01*
X1095742Y796758D02*
Y800759D01*
X1095691Y811809D02*
X1096500Y811000D01*
X1095691Y811809D02*
Y816178D01*
X1096500Y811000D02*
X1103500D01*
X1107500Y807000D01*
Y803000D02*
Y807000D01*
X1173953Y751000D02*
X1174119Y751166D01*
X1155500Y759563D02*
X1174119D01*
X1155500Y775449D02*
X1174119D01*
Y775562D01*
X1170252Y779428D02*
X1174119Y775562D01*
X1170252Y779428D02*
Y800759D01*
Y813748D02*
X1172500Y811500D01*
X1170252Y813748D02*
Y816178D01*
X1172500Y811500D02*
X1177000D01*
X1180000Y808500D01*
X1180050Y751166D02*
Y751279D01*
X1186271Y757500D02*
X1189252D01*
X1180050Y751279D02*
X1186271Y757500D01*
X1220500Y735500D02*
X1238500D01*
X1248571Y745571D01*
X1210902Y739000D02*
X1237000D01*
X1217598Y741752D02*
X1234752D01*
X1208150D02*
X1210902Y739000D01*
X1205000Y770098D02*
Y772000D01*
X1208000Y775000D01*
X1206716Y780000D02*
X1207208D01*
X1211347Y780154D02*
X1211500Y780000D01*
X1211347Y780154D02*
Y787366D01*
X1211299Y779799D02*
X1211500Y780000D01*
X1211299Y770098D02*
Y779799D01*
X1205000Y754350D02*
Y757500D01*
Y760650D01*
X1201850Y757500D02*
Y760650D01*
Y754350D02*
Y757500D01*
D92*
X971500Y810500D02*
X978071D01*
X974325Y839676D02*
X978000Y836000D01*
X982464Y826536D02*
X985500Y823500D01*
X978000Y829510D02*
X978907Y828603D01*
X982500Y826573D02*
X985536Y823536D01*
X980433Y828639D02*
X982500Y826573D01*
X978907Y828603D02*
X980397D01*
X978000Y829510D02*
Y836000D01*
X985536Y823536D02*
X989845Y819228D01*
X942000Y847500D02*
X960142D01*
X967967Y839676D01*
X932000Y837500D02*
X942000Y847500D01*
X932000Y820561D02*
Y837500D01*
X1114485Y777572D02*
X1116183Y779270D01*
X1114485Y772740D02*
Y777572D01*
X966000Y801500D02*
Y819500D01*
X1114485Y765260D02*
X1127760D01*
X1132000Y769500D01*
X1130917Y802000D02*
X1139880D01*
X1121955D02*
X1130917D01*
X1130978Y802060D02*
Y807354D01*
X1123945Y819243D02*
X1130978D01*
Y818750D02*
X1132728Y817000D01*
X1139880D01*
X1056256Y802000D02*
X1065370D01*
X1047142D02*
X1056256D01*
X1056468Y802212D02*
Y807354D01*
X969889Y797611D02*
X980433D01*
X966000Y801500D02*
X969889Y797611D01*
X954717Y820104D02*
Y839676D01*
X968217D02*
X974325D01*
X989845Y813543D02*
Y819228D01*
D93*
X1049435Y818939D02*
X1056468D01*
X1060297D01*
X1062236Y817000D01*
D94*
X972500Y1029500D02*
D03*
X1239000Y1030000D02*
D03*
X953000Y942500D02*
D03*
X1068500Y729000D02*
D03*
X1095000Y882500D02*
D03*
X1182000Y840500D02*
D03*
X1155500Y751000D02*
D03*
Y759563D02*
D03*
Y775449D02*
D03*
Y783412D02*
D03*
X1120861Y839482D02*
D03*
X1046316Y839574D02*
D03*
X1045500Y916500D02*
D03*
X1188500Y917000D02*
D03*
X1253000Y950000D02*
D03*
X1180177Y1005800D02*
D03*
X1031740Y1028879D02*
D03*
D95*
X1255500Y764000D02*
D03*
X988587Y739943D02*
D03*
D96*
X1255500Y754000D02*
D03*
D97*
X978587Y739943D02*
D03*
D98*
X932000Y800561D02*
D03*
Y820561D02*
D03*
Y906500D02*
D03*
Y926500D02*
D03*
X1272500Y929000D02*
D03*
Y909000D02*
D03*
X932000Y866500D02*
D03*
Y886500D02*
D03*
X1272500Y889000D02*
D03*
Y869000D02*
D03*
D99*
X1094000Y985500D02*
D03*
X1035000D02*
D03*
Y973500D02*
D03*
X1094000D02*
D03*
D100*
X1275500Y1026000D02*
D03*
X929500D02*
D03*
Y681000D02*
D03*
X1275500D02*
D03*
D101*
X1246000Y840000D02*
D03*
X1015500Y760500D02*
D03*
X1234500Y761500D02*
D03*
X995500Y829500D02*
D03*
Y844000D02*
D03*
X1005500Y843500D02*
D03*
Y829500D02*
D03*
X1113000Y846500D02*
D03*
X1113500Y835000D02*
D03*
X1097500Y836500D02*
D03*
X1098500Y845500D02*
D03*
X1148000Y844500D02*
D03*
X1148500Y832000D02*
D03*
X1212500Y823000D02*
D03*
X1222500Y837000D02*
D03*
X1194500Y836500D02*
D03*
X1207000Y846000D02*
D03*
X1233000Y839500D02*
D03*
X1273500Y843000D02*
D03*
X1271500Y831000D02*
D03*
X1275000Y817500D02*
D03*
X1274000Y804000D02*
D03*
X1275500Y789000D02*
D03*
X1276500Y773500D02*
D03*
X1275500Y733500D02*
D03*
X1276500Y755500D02*
D03*
X1245000Y731500D02*
D03*
X1254500Y723000D02*
D03*
X1242500Y719000D02*
D03*
X1245500Y686500D02*
D03*
X1240000Y701000D02*
D03*
X1211500Y697000D02*
D03*
X1190500Y713500D02*
D03*
X1156000Y714500D02*
D03*
X1174000Y713000D02*
D03*
X1180000Y697000D02*
D03*
X1163500Y696500D02*
D03*
X1147000Y697500D02*
D03*
X1124000Y697000D02*
D03*
X1138000Y714500D02*
D03*
X1119000Y715500D02*
D03*
X1105500Y714000D02*
D03*
X1078000Y730000D02*
D03*
X1060000Y707000D02*
D03*
X1068000Y717500D02*
D03*
X1046000Y723000D02*
D03*
X1047500Y707500D02*
D03*
X1026500Y705500D02*
D03*
X1027500Y719000D02*
D03*
X1008500Y719500D02*
D03*
X1006000Y706500D02*
D03*
X1099500Y697500D02*
D03*
X1098500Y676000D02*
D03*
X1085000Y688500D02*
D03*
X1081000Y674500D02*
D03*
X1066500Y681000D02*
D03*
X1054500Y675000D02*
D03*
X1044000Y681500D02*
D03*
X1029000Y676000D02*
D03*
X1016000Y681000D02*
D03*
X1004000Y677500D02*
D03*
X990500Y680000D02*
D03*
X992000Y702000D02*
D03*
Y711000D02*
D03*
X993000Y721500D02*
D03*
X974500D02*
D03*
X963000Y720000D02*
D03*
X951000Y706000D02*
D03*
X947000Y715000D02*
D03*
X953000Y723500D02*
D03*
X946000Y727500D02*
D03*
X1025000Y763500D02*
D03*
X1002500Y763000D02*
D03*
X994000Y759500D02*
D03*
X981000Y760500D02*
D03*
X969500D02*
D03*
X958000D02*
D03*
X948000Y763500D02*
D03*
X986500Y771000D02*
D03*
X978000Y770500D02*
D03*
X967000D02*
D03*
X956000D02*
D03*
X948500Y775000D02*
D03*
X944000Y782000D02*
D03*
X971500Y810500D02*
D03*
X985500Y823500D02*
D03*
X1194500Y793500D02*
D03*
X1175000Y769500D02*
D03*
X1181500Y769000D02*
D03*
X1190500Y801000D02*
D03*
X1187500Y803000D02*
D03*
X1211500Y801500D02*
D03*
X1239500Y824000D02*
D03*
Y812327D02*
D03*
X1205500Y802000D02*
D03*
X1199500Y788500D02*
D03*
X1221500Y778000D02*
D03*
X1219000Y788500D02*
D03*
X1225000Y770000D02*
D03*
X1211000Y728500D02*
D03*
X1187000D02*
D03*
X1207903Y724219D02*
D03*
X1195893Y724208D02*
D03*
X1167000Y744000D02*
D03*
X1151254D02*
D03*
X978071Y779501D02*
D03*
X1065500Y817000D02*
D03*
X1121599Y821589D02*
D03*
X1047089Y821285D02*
D03*
X1023415Y737443D02*
D03*
Y742443D02*
D03*
X963000Y751000D02*
D03*
Y728500D02*
D03*
X1246000Y780000D02*
D03*
X1284900Y754823D02*
D03*
X1260000Y731500D02*
D03*
X1277000Y711000D02*
D03*
X1249013Y704487D02*
D03*
X1226000Y674500D02*
D03*
X1207500Y674000D02*
D03*
X1137500D02*
D03*
X1173000D02*
D03*
X1181291Y678972D02*
D03*
X1146507Y678972D02*
D03*
X1111722D02*
D03*
X949579Y686579D02*
D03*
X950000Y696500D02*
D03*
X1011000Y841500D02*
D03*
X1025578Y847923D02*
D03*
X1034500Y810000D02*
D03*
X1032750Y801585D02*
D03*
X1049000Y750000D02*
D03*
X1071500D02*
D03*
X1093180Y750180D02*
D03*
X1123158Y777572D02*
D03*
X1121000Y750500D02*
D03*
X1102563Y779915D02*
D03*
X1080532Y779915D02*
D03*
X1058500D02*
D03*
X1025578Y779500D02*
D03*
X1014017D02*
D03*
X1002000Y804000D02*
D03*
X955000Y784500D02*
D03*
Y792500D02*
D03*
X978500Y788500D02*
D03*
X970500D02*
D03*
X962500D02*
D03*
X955000D02*
D03*
X1246000Y830000D02*
D03*
X1114517Y777540D02*
D03*
X970032Y819468D02*
D03*
X966032D02*
D03*
X1132000Y769500D02*
D03*
X1107563Y779915D02*
D03*
X1085532Y785968D02*
D03*
X1063500Y779915D02*
D03*
X1019780Y841469D02*
D03*
X1019679Y784727D02*
D03*
X1092500Y759500D02*
D03*
Y778000D02*
D03*
X1070500Y758000D02*
D03*
Y779500D02*
D03*
X1033500Y767000D02*
D03*
X1048500Y758000D02*
D03*
Y780000D02*
D03*
X1199007Y679457D02*
D03*
X1164223Y678972D02*
D03*
X1129439D02*
D03*
X1194500Y780500D02*
D03*
X934095Y737482D02*
D03*
X931000Y747500D02*
D03*
X958708Y739943D02*
D03*
X1173660Y803573D02*
D03*
Y818972D02*
D03*
X1099150Y803573D02*
D03*
Y818972D02*
D03*
X1158510Y812000D02*
D03*
X1084000Y812000D02*
D03*
X1130978Y823534D02*
D03*
X1056468Y823231D02*
D03*
X1067000Y846000D02*
D03*
X1081000D02*
D03*
X1157000Y846500D02*
D03*
X1140000D02*
D03*
X1130978Y811646D02*
D03*
X1152000Y854500D02*
D03*
X1134000Y855000D02*
D03*
X1162000Y854500D02*
D03*
Y858500D02*
D03*
X1144500Y854500D02*
D03*
X1056468Y811646D02*
D03*
X1056500Y857000D02*
D03*
X1051500Y861000D02*
D03*
Y868000D02*
D03*
X1045500Y867500D02*
D03*
X1038500Y861000D02*
D03*
X1058500Y909000D02*
D03*
X1058000Y902500D02*
D03*
Y895500D02*
D03*
Y889000D02*
D03*
X1057500Y882000D02*
D03*
Y875000D02*
D03*
X1058000Y868000D02*
D03*
X1040500Y908500D02*
D03*
Y903000D02*
D03*
Y895500D02*
D03*
Y889000D02*
D03*
Y882000D02*
D03*
Y875000D02*
D03*
X1113000Y856500D02*
D03*
X1117000Y860000D02*
D03*
X1168216Y895216D02*
D03*
X1164439Y891439D02*
D03*
X1160662Y887662D02*
D03*
X1149331Y876331D02*
D03*
X1134223Y861223D02*
D03*
X1153108Y880108D02*
D03*
X1141777Y868777D02*
D03*
X1138000Y865000D02*
D03*
X1156885Y883885D02*
D03*
X1145554Y872554D02*
D03*
X1157000Y898500D02*
D03*
X1149500Y892000D02*
D03*
X1143000Y884500D02*
D03*
X1136000Y877000D02*
D03*
X1129000Y870000D02*
D03*
X1121000Y862500D02*
D03*
X1167000Y902500D02*
D03*
Y910000D02*
D03*
X1123500Y868000D02*
D03*
Y875000D02*
D03*
X1130500Y882000D02*
D03*
X1144500Y889000D02*
D03*
X1137500D02*
D03*
X1144500Y896000D02*
D03*
X1151500Y903000D02*
D03*
X1158500Y910000D02*
D03*
Y903000D02*
D03*
X1122500Y918000D02*
D03*
X1071000Y1002000D02*
D03*
X1140161Y934305D02*
D03*
Y939805D02*
D03*
Y928805D02*
D03*
Y956305D02*
D03*
Y945305D02*
D03*
Y950805D02*
D03*
Y967305D02*
D03*
Y972805D02*
D03*
Y923305D02*
D03*
Y961805D02*
D03*
X1129831Y956479D02*
D03*
Y967979D02*
D03*
Y945479D02*
D03*
Y950979D02*
D03*
Y961979D02*
D03*
Y939979D02*
D03*
Y934479D02*
D03*
Y972979D02*
D03*
X1129794Y929010D02*
D03*
X1206437Y903020D02*
D03*
X1213937Y910520D02*
D03*
X1183775Y880358D02*
D03*
X1187552Y884135D02*
D03*
X1176221Y872804D02*
D03*
X1179998Y876581D02*
D03*
X1210214Y906797D02*
D03*
X1191329Y887912D02*
D03*
X1168667Y865250D02*
D03*
X1164890Y861473D02*
D03*
X1202660Y899243D02*
D03*
X1195106Y891689D02*
D03*
X1172444Y869027D02*
D03*
X1198883Y895466D02*
D03*
X1184961Y910324D02*
D03*
X1177407Y902770D02*
D03*
X1173630Y898993D02*
D03*
X1181184Y906547D02*
D03*
X1208500Y924000D02*
D03*
X1208156Y938348D02*
D03*
Y931347D02*
D03*
X1201089Y966307D02*
D03*
Y960807D02*
D03*
Y950807D02*
D03*
Y971307D02*
D03*
Y955807D02*
D03*
X1201089Y977139D02*
D03*
X1200091Y982341D02*
D03*
X1196517Y985888D02*
D03*
X1189500Y993000D02*
D03*
X1193000Y989000D02*
D03*
X1190500Y980000D02*
D03*
X1186000Y984500D02*
D03*
X1181000Y989000D02*
D03*
X1071147Y919869D02*
D03*
X1059000Y1008500D02*
D03*
X1062751Y1004843D02*
D03*
X1062837Y998378D02*
D03*
Y932878D02*
D03*
Y926379D02*
D03*
Y991378D02*
D03*
Y965378D02*
D03*
Y958879D02*
D03*
Y945879D02*
D03*
Y939379D02*
D03*
Y919878D02*
D03*
Y984879D02*
D03*
Y913379D02*
D03*
Y971879D02*
D03*
Y978378D02*
D03*
Y952378D02*
D03*
X1071000Y925500D02*
D03*
Y939000D02*
D03*
Y945500D02*
D03*
Y932500D02*
D03*
X1070948Y952554D02*
D03*
X1071000Y959000D02*
D03*
Y965500D02*
D03*
Y972000D02*
D03*
Y978500D02*
D03*
Y985000D02*
D03*
Y991500D02*
D03*
Y997000D02*
D03*
Y1008000D02*
D03*
X1055500Y1012000D02*
D03*
X1052000Y1015500D02*
D03*
X1048500Y1018500D02*
D03*
X1045000Y1022000D02*
D03*
X1068500Y1011500D02*
D03*
X1065000Y1015000D02*
D03*
X1062000Y1018000D02*
D03*
X1058500Y1021500D02*
D03*
X1055000Y1024500D02*
D03*
X1051500Y1028000D02*
D03*
X1048500Y1031000D02*
D03*
X1232500Y854500D02*
D03*
Y882000D02*
D03*
Y889000D02*
D03*
Y917000D02*
D03*
Y868000D02*
D03*
Y861000D02*
D03*
Y875000D02*
D03*
Y896000D02*
D03*
Y903000D02*
D03*
Y924000D02*
D03*
Y931000D02*
D03*
Y910000D02*
D03*
X1232000Y938500D02*
D03*
X1267500Y966000D02*
D03*
X1243500D02*
D03*
X1249500D02*
D03*
X1256000D02*
D03*
X1262500D02*
D03*
X1243000Y976500D02*
D03*
X1250000D02*
D03*
X1256000D02*
D03*
X1262000D02*
D03*
X1267000D02*
D03*
X1220500Y917000D02*
D03*
Y910000D02*
D03*
Y938000D02*
D03*
Y924000D02*
D03*
Y882000D02*
D03*
Y889000D02*
D03*
Y896000D02*
D03*
Y903000D02*
D03*
Y875000D02*
D03*
Y931000D02*
D03*
Y854000D02*
D03*
Y861000D02*
D03*
Y868000D02*
D03*
X1200000Y910500D02*
D03*
X1147122Y858122D02*
D03*
X1181115Y892115D02*
D03*
X1173561Y884561D02*
D03*
X1169784Y880784D02*
D03*
X1196223Y907223D02*
D03*
X1184892Y895892D02*
D03*
X1166007Y877007D02*
D03*
X1158453Y869453D02*
D03*
X1192446Y903446D02*
D03*
X1162230Y873230D02*
D03*
X1150899Y861899D02*
D03*
X1154676Y865676D02*
D03*
X1177338Y888338D02*
D03*
X1188669Y899669D02*
D03*
X1071726Y867627D02*
D03*
Y893627D02*
D03*
Y861127D02*
D03*
Y854627D02*
D03*
Y900127D02*
D03*
Y887127D02*
D03*
Y880627D02*
D03*
Y874127D02*
D03*
X1072000Y905000D02*
D03*
Y910500D02*
D03*
X1155000Y981000D02*
D03*
X1116000Y976500D02*
D03*
X1199000Y926000D02*
D03*
Y931000D02*
D03*
Y937000D02*
D03*
X1195500Y941000D02*
D03*
X1192000Y944500D02*
D03*
Y949500D02*
D03*
Y954000D02*
D03*
Y959000D02*
D03*
Y964500D02*
D03*
Y969500D02*
D03*
Y975000D02*
D03*
X1138000Y989500D02*
D03*
X1131000D02*
D03*
X1135000Y985500D02*
D03*
X967500Y882000D02*
D03*
Y889000D02*
D03*
Y861000D02*
D03*
Y875000D02*
D03*
Y868000D02*
D03*
X955500Y966000D02*
D03*
X937000D02*
D03*
X942500D02*
D03*
X949000D02*
D03*
X962000D02*
D03*
X973000Y854000D02*
D03*
Y896000D02*
D03*
Y924000D02*
D03*
Y882000D02*
D03*
Y889000D02*
D03*
Y910000D02*
D03*
Y917000D02*
D03*
Y875000D02*
D03*
Y938000D02*
D03*
Y931000D02*
D03*
Y861000D02*
D03*
Y868000D02*
D03*
Y903000D02*
D03*
X985000Y938000D02*
D03*
Y931000D02*
D03*
Y861500D02*
D03*
Y854500D02*
D03*
Y868000D02*
D03*
Y896000D02*
D03*
Y917000D02*
D03*
Y875000D02*
D03*
Y924000D02*
D03*
Y910000D02*
D03*
Y889000D02*
D03*
Y882000D02*
D03*
Y903000D02*
D03*
X1083000Y982500D02*
D03*
Y954500D02*
D03*
Y940500D02*
D03*
Y1010500D02*
D03*
Y947500D02*
D03*
Y1003500D02*
D03*
Y1017500D02*
D03*
Y975500D02*
D03*
Y996500D02*
D03*
Y1024500D02*
D03*
Y968500D02*
D03*
Y989500D02*
D03*
Y961500D02*
D03*
X1085784Y867875D02*
D03*
X1090284Y895875D02*
D03*
Y867875D02*
D03*
Y888875D02*
D03*
X1085784Y874875D02*
D03*
X1090284Y909875D02*
D03*
Y881875D02*
D03*
Y860875D02*
D03*
X1085784Y888875D02*
D03*
Y854375D02*
D03*
Y860875D02*
D03*
Y881875D02*
D03*
Y895875D02*
D03*
X1090284Y874875D02*
D03*
X1085784Y902875D02*
D03*
X1090284D02*
D03*
X1085784Y909875D02*
D03*
X1076000Y875000D02*
D03*
Y889000D02*
D03*
Y903000D02*
D03*
Y910000D02*
D03*
Y896000D02*
D03*
Y861000D02*
D03*
Y882000D02*
D03*
Y854500D02*
D03*
Y868000D02*
D03*
X1062000Y855000D02*
D03*
Y874500D02*
D03*
Y900500D02*
D03*
Y881000D02*
D03*
Y861500D02*
D03*
Y907000D02*
D03*
Y887500D02*
D03*
Y868000D02*
D03*
Y894000D02*
D03*
X1112500Y867000D02*
D03*
Y877500D02*
D03*
Y887500D02*
D03*
Y872500D02*
D03*
Y882500D02*
D03*
X1112564Y862678D02*
D03*
X1125500Y905000D02*
D03*
X1134500Y914000D02*
D03*
X1116500Y896000D02*
D03*
X1113000Y892500D02*
D03*
X1139000Y918500D02*
D03*
X1130000Y909500D02*
D03*
X1121000Y900500D02*
D03*
X1100500Y861000D02*
D03*
Y886000D02*
D03*
Y891000D02*
D03*
Y896000D02*
D03*
Y871000D02*
D03*
Y866000D02*
D03*
Y856000D02*
D03*
Y881000D02*
D03*
Y876000D02*
D03*
X1107500Y910000D02*
D03*
X1100500Y903000D02*
D03*
X1119000Y915000D02*
D03*
X1110000Y906000D02*
D03*
X1105500Y901500D02*
D03*
X1114500Y910500D02*
D03*
X1284500Y968000D02*
D03*
Y974000D02*
D03*
X1280500Y971000D02*
D03*
X920000Y969000D02*
D03*
Y974500D02*
D03*
X925500Y972000D02*
D03*
X1214500Y903000D02*
D03*
Y896000D02*
D03*
X1207500D02*
D03*
X1053500Y909500D02*
D03*
X1046500D02*
D03*
X1032500D02*
D03*
X1025500D02*
D03*
X1018500D02*
D03*
X1011500D02*
D03*
X1217000Y921500D02*
D03*
X1214500Y889000D02*
D03*
X1212500Y917000D02*
D03*
X1078000Y916500D02*
D03*
X1277500Y966000D02*
D03*
Y976500D02*
D03*
X1275500Y971000D02*
D03*
X931000Y972000D02*
D03*
X928500Y967000D02*
D03*
Y977000D02*
D03*
X962000D02*
D03*
X955500D02*
D03*
X949000D02*
D03*
X942500D02*
D03*
X936000D02*
D03*
X986235Y951405D02*
D03*
Y961246D02*
D03*
Y971088D02*
D03*
X1147572Y979000D02*
D03*
X1123428D02*
D03*
X1272500Y958949D02*
D03*
Y983093D02*
D03*
X932000Y958949D02*
D03*
Y983093D02*
D03*
X986235Y990771D02*
D03*
Y980929D02*
D03*
X1009401Y951272D02*
D03*
Y961147D02*
D03*
Y971021D02*
D03*
Y980896D02*
D03*
Y990771D02*
D03*
X1218507Y951272D02*
D03*
Y961147D02*
D03*
Y971021D02*
D03*
Y980896D02*
D03*
Y990771D02*
D03*
X1214500Y938000D02*
D03*
Y931000D02*
D03*
X1172500Y910000D02*
D03*
X1151500D02*
D03*
X1144500D02*
D03*
X1137500D02*
D03*
X1102500D02*
D03*
X1144500Y903000D02*
D03*
X1137500D02*
D03*
X1130500D02*
D03*
X1151500Y896000D02*
D03*
X1137500D02*
D03*
X1130500D02*
D03*
X1123500D02*
D03*
X1095500Y910000D02*
D03*
Y903000D02*
D03*
Y896000D02*
D03*
X1053500Y903000D02*
D03*
X1046500D02*
D03*
X1053500Y896000D02*
D03*
X1046500D02*
D03*
X1032500Y903000D02*
D03*
X1025500D02*
D03*
X1018500D02*
D03*
X1011500D02*
D03*
X1032500Y896000D02*
D03*
X1025500D02*
D03*
X1018500D02*
D03*
X1011500D02*
D03*
X1004500Y938000D02*
D03*
X997500D02*
D03*
X990500D02*
D03*
X1004500Y931000D02*
D03*
X997500D02*
D03*
X990500D02*
D03*
X1004500Y924000D02*
D03*
X997500D02*
D03*
X990500D02*
D03*
X1004500Y917000D02*
D03*
X997500D02*
D03*
X990500D02*
D03*
X1004500Y910000D02*
D03*
X997500D02*
D03*
X990500D02*
D03*
X1004500Y903000D02*
D03*
X997500D02*
D03*
X990500D02*
D03*
X1004500Y896000D02*
D03*
X997500D02*
D03*
X990500D02*
D03*
X1214500Y861000D02*
D03*
Y868000D02*
D03*
Y875000D02*
D03*
Y882000D02*
D03*
X1207500Y861000D02*
D03*
Y868000D02*
D03*
Y875000D02*
D03*
Y882000D02*
D03*
Y889000D02*
D03*
X1200500Y861000D02*
D03*
Y868000D02*
D03*
Y875000D02*
D03*
Y882000D02*
D03*
Y889000D02*
D03*
X1193500Y861000D02*
D03*
Y868000D02*
D03*
Y875000D02*
D03*
Y882000D02*
D03*
X1186500Y861000D02*
D03*
Y868000D02*
D03*
Y875000D02*
D03*
X1179500Y861000D02*
D03*
Y868000D02*
D03*
X1172500Y861000D02*
D03*
X1137500Y882000D02*
D03*
X1130500Y875000D02*
D03*
Y889000D02*
D03*
X1123500Y882000D02*
D03*
Y889000D02*
D03*
X1116500Y868000D02*
D03*
Y875000D02*
D03*
Y882000D02*
D03*
Y889000D02*
D03*
X1095500Y861000D02*
D03*
Y868000D02*
D03*
Y875000D02*
D03*
Y889000D02*
D03*
X1053500Y875000D02*
D03*
Y882000D02*
D03*
Y889000D02*
D03*
X1046500Y875000D02*
D03*
Y882000D02*
D03*
Y889000D02*
D03*
X1032500Y861000D02*
D03*
Y868000D02*
D03*
Y875000D02*
D03*
Y882000D02*
D03*
Y889000D02*
D03*
X1025500Y861000D02*
D03*
Y868000D02*
D03*
Y875000D02*
D03*
Y882000D02*
D03*
Y889000D02*
D03*
X1018500Y861000D02*
D03*
Y868000D02*
D03*
Y875000D02*
D03*
Y882000D02*
D03*
Y889000D02*
D03*
X1011500Y861000D02*
D03*
Y868000D02*
D03*
Y875000D02*
D03*
Y882000D02*
D03*
Y889000D02*
D03*
X1004500Y861000D02*
D03*
Y868000D02*
D03*
Y875000D02*
D03*
Y882000D02*
D03*
Y889000D02*
D03*
X997500Y861000D02*
D03*
Y868000D02*
D03*
Y875000D02*
D03*
Y882000D02*
D03*
Y889000D02*
D03*
X990500Y861000D02*
D03*
Y868000D02*
D03*
Y875000D02*
D03*
Y882000D02*
D03*
Y889000D02*
D03*
X1236000Y859000D02*
D03*
X1243000D02*
D03*
X1250000D02*
D03*
X1236000Y866000D02*
D03*
X1243000D02*
D03*
X1250000D02*
D03*
X1236000Y873000D02*
D03*
X1243000D02*
D03*
X1250000D02*
D03*
X1236000Y880000D02*
D03*
X1243000D02*
D03*
X1250000D02*
D03*
X1236000Y887000D02*
D03*
X1243000D02*
D03*
X1250000D02*
D03*
X1257000Y859000D02*
D03*
Y866000D02*
D03*
Y873000D02*
D03*
Y880000D02*
D03*
Y887000D02*
D03*
X1264000D02*
D03*
Y873000D02*
D03*
Y866000D02*
D03*
Y859000D02*
D03*
X1271000D02*
D03*
X1278000D02*
D03*
X1264000Y880000D02*
D03*
X1271000D02*
D03*
X1278000D02*
D03*
X1285000Y859000D02*
D03*
Y873000D02*
D03*
Y866000D02*
D03*
Y887000D02*
D03*
Y880000D02*
D03*
X962500Y861000D02*
D03*
Y868000D02*
D03*
Y875000D02*
D03*
Y882000D02*
D03*
Y889000D02*
D03*
X955500Y861000D02*
D03*
Y868000D02*
D03*
Y875000D02*
D03*
Y882000D02*
D03*
Y889000D02*
D03*
X948500D02*
D03*
Y882000D02*
D03*
Y861000D02*
D03*
Y868000D02*
D03*
X941500Y861000D02*
D03*
Y868000D02*
D03*
Y889000D02*
D03*
Y882000D02*
D03*
X948500Y875000D02*
D03*
X941500D02*
D03*
X934500D02*
D03*
X927500D02*
D03*
X920500Y861000D02*
D03*
Y868000D02*
D03*
Y875000D02*
D03*
Y889000D02*
D03*
Y882000D02*
D03*
X1122000Y1024500D02*
D03*
X1115000D02*
D03*
X1108000D02*
D03*
X1101000D02*
D03*
X1094000D02*
D03*
X1087000D02*
D03*
Y1017500D02*
D03*
X1094000D02*
D03*
X1101000D02*
D03*
X1108000D02*
D03*
X1115000D02*
D03*
X1122000D02*
D03*
Y1010500D02*
D03*
X1115000D02*
D03*
X1108000D02*
D03*
X1101000D02*
D03*
X1094000D02*
D03*
X1087000D02*
D03*
X1101000Y996500D02*
D03*
X1094000D02*
D03*
X1101000Y1003500D02*
D03*
X1094000D02*
D03*
X1087000D02*
D03*
Y996500D02*
D03*
X1108000Y1003500D02*
D03*
Y996500D02*
D03*
X1122000Y1003500D02*
D03*
Y996500D02*
D03*
X1115000Y1003500D02*
D03*
Y996500D02*
D03*
X1108000Y989500D02*
D03*
X1115000D02*
D03*
X1108000Y982500D02*
D03*
Y975500D02*
D03*
X1115000Y982500D02*
D03*
X1108000Y968500D02*
D03*
X1115000D02*
D03*
Y961500D02*
D03*
X1108000D02*
D03*
X1101000D02*
D03*
X1094000D02*
D03*
X1087000D02*
D03*
Y954500D02*
D03*
X1094000D02*
D03*
X1101000D02*
D03*
X1108000D02*
D03*
X1115000D02*
D03*
Y947500D02*
D03*
X1108000D02*
D03*
X1101000D02*
D03*
X1094000D02*
D03*
X1087000D02*
D03*
Y940500D02*
D03*
X1094000D02*
D03*
X1101000D02*
D03*
X1108000D02*
D03*
X1115000D02*
D03*
Y933500D02*
D03*
X1108000D02*
D03*
X1101000D02*
D03*
X1094000D02*
D03*
X1087000D02*
D03*
X1108000Y926500D02*
D03*
X1101000D02*
D03*
X1094000D02*
D03*
X1177000Y1024000D02*
D03*
Y1031000D02*
D03*
X1163000D02*
D03*
X1170000D02*
D03*
Y1024000D02*
D03*
X1163000D02*
D03*
X1156000Y1031000D02*
D03*
Y1024000D02*
D03*
Y1017000D02*
D03*
X1163000D02*
D03*
Y1010000D02*
D03*
X1156000D02*
D03*
X1163000Y1003000D02*
D03*
X1156000D02*
D03*
X1149000Y1031000D02*
D03*
Y1024000D02*
D03*
Y1017000D02*
D03*
Y1010000D02*
D03*
Y1003000D02*
D03*
X1135000D02*
D03*
Y1010000D02*
D03*
Y1017000D02*
D03*
Y1024000D02*
D03*
Y1031000D02*
D03*
X1142000D02*
D03*
Y1024000D02*
D03*
Y1017000D02*
D03*
Y1010000D02*
D03*
Y1003000D02*
D03*
Y996000D02*
D03*
X1149000Y989000D02*
D03*
Y996000D02*
D03*
X1156000D02*
D03*
X1163000D02*
D03*
X1156000Y989000D02*
D03*
X1163000D02*
D03*
X1170000Y982000D02*
D03*
X1163000D02*
D03*
X1156000Y975000D02*
D03*
X1163000D02*
D03*
X1170000D02*
D03*
Y968000D02*
D03*
X1163000D02*
D03*
X1156000D02*
D03*
Y961000D02*
D03*
X1163000D02*
D03*
X1170000D02*
D03*
Y954000D02*
D03*
X1163000D02*
D03*
X1156000D02*
D03*
Y947000D02*
D03*
X1163000D02*
D03*
X1170000D02*
D03*
X1177000Y940000D02*
D03*
X1170000D02*
D03*
X1163000D02*
D03*
X1156000D02*
D03*
Y933000D02*
D03*
X1163000D02*
D03*
X1170000D02*
D03*
X1177000D02*
D03*
Y926000D02*
D03*
X1170000D02*
D03*
X1163000D02*
D03*
X1156000D02*
D03*
X1027500Y990000D02*
D03*
X1020500D02*
D03*
X1041500Y997000D02*
D03*
X1034500D02*
D03*
X1027500D02*
D03*
Y1004000D02*
D03*
X1034500D02*
D03*
X1041500D02*
D03*
X1034500Y1011000D02*
D03*
X1027500D02*
D03*
X1048500Y997000D02*
D03*
Y990000D02*
D03*
Y983000D02*
D03*
Y976000D02*
D03*
X1027500Y983000D02*
D03*
Y976000D02*
D03*
Y969000D02*
D03*
X1020500Y983000D02*
D03*
Y976000D02*
D03*
Y969000D02*
D03*
X1048500D02*
D03*
Y962000D02*
D03*
X1041500D02*
D03*
X1034500D02*
D03*
X1027500D02*
D03*
X1020500D02*
D03*
Y955000D02*
D03*
X1027500D02*
D03*
X1034500D02*
D03*
X1041500D02*
D03*
X1048500D02*
D03*
X1020500Y948000D02*
D03*
X1027500D02*
D03*
X1034500D02*
D03*
X1041500D02*
D03*
X1048500D02*
D03*
Y941000D02*
D03*
X1041500D02*
D03*
X1034500D02*
D03*
X1027500D02*
D03*
X1020500D02*
D03*
Y934000D02*
D03*
X1027500D02*
D03*
X1034500D02*
D03*
X1041500D02*
D03*
X1048500D02*
D03*
Y927000D02*
D03*
X1041500D02*
D03*
X1034500D02*
D03*
X1027500D02*
D03*
X1020500D02*
D03*
X921500Y917500D02*
D03*
X928500D02*
D03*
X935500D02*
D03*
X942500D02*
D03*
X949500D02*
D03*
X990000Y1026000D02*
D03*
X983000D02*
D03*
X976000D02*
D03*
X983000Y1019000D02*
D03*
X990000D02*
D03*
X997000Y1026000D02*
D03*
X1004000D02*
D03*
X997000Y1019000D02*
D03*
X1004000D02*
D03*
Y1012000D02*
D03*
X997000D02*
D03*
X990000D02*
D03*
X983000D02*
D03*
X976000Y1019000D02*
D03*
Y1012000D02*
D03*
Y1005000D02*
D03*
X983000D02*
D03*
X990000D02*
D03*
X997000D02*
D03*
X1004000D02*
D03*
X1011000D02*
D03*
Y1012000D02*
D03*
Y1019000D02*
D03*
Y1026000D02*
D03*
Y1033000D02*
D03*
X1004000D02*
D03*
X997000D02*
D03*
X990000D02*
D03*
X983000D02*
D03*
X976000D02*
D03*
X969000D02*
D03*
Y1026000D02*
D03*
Y1019000D02*
D03*
Y1012000D02*
D03*
Y1005000D02*
D03*
Y998000D02*
D03*
X962000Y1012000D02*
D03*
Y1019000D02*
D03*
Y1026000D02*
D03*
Y1033000D02*
D03*
X955000D02*
D03*
Y1026000D02*
D03*
Y1019000D02*
D03*
Y1012000D02*
D03*
X948000D02*
D03*
X962000Y1005000D02*
D03*
X955000D02*
D03*
X962000Y998000D02*
D03*
Y991000D02*
D03*
Y984000D02*
D03*
X955000Y998000D02*
D03*
Y991000D02*
D03*
Y984000D02*
D03*
X948000D02*
D03*
Y1005000D02*
D03*
X941000D02*
D03*
X934000D02*
D03*
X948000Y998000D02*
D03*
X941000D02*
D03*
X934000D02*
D03*
X948000Y991000D02*
D03*
X941000D02*
D03*
X934000D02*
D03*
X927000D02*
D03*
Y998000D02*
D03*
Y1005000D02*
D03*
X920000D02*
D03*
Y998000D02*
D03*
Y991000D02*
D03*
Y984000D02*
D03*
X1228000Y1026000D02*
D03*
X1235000D02*
D03*
Y1019000D02*
D03*
X1228000D02*
D03*
X1221000Y1026000D02*
D03*
Y1019000D02*
D03*
X1214000Y1026000D02*
D03*
Y1019000D02*
D03*
X1207000Y1026000D02*
D03*
Y1019000D02*
D03*
X1200000Y1026000D02*
D03*
Y1019000D02*
D03*
Y1012000D02*
D03*
X1207000D02*
D03*
X1214000D02*
D03*
X1221000D02*
D03*
X1228000D02*
D03*
X1235000D02*
D03*
Y1005000D02*
D03*
X1228000D02*
D03*
X1221000D02*
D03*
X1214000D02*
D03*
X1207000D02*
D03*
X1200000D02*
D03*
X1193000Y1026000D02*
D03*
Y1033000D02*
D03*
X1200000D02*
D03*
X1207000D02*
D03*
X1214000D02*
D03*
X1221000D02*
D03*
X1228000D02*
D03*
X1235000D02*
D03*
X1242000D02*
D03*
Y1026000D02*
D03*
Y1019000D02*
D03*
Y1012000D02*
D03*
Y1005000D02*
D03*
Y998000D02*
D03*
X1249000D02*
D03*
X1256000D02*
D03*
X1263000D02*
D03*
Y984000D02*
D03*
X1256000D02*
D03*
X1249000D02*
D03*
X1242000D02*
D03*
Y991000D02*
D03*
X1249000D02*
D03*
X1256000D02*
D03*
X1263000D02*
D03*
X1270000D02*
D03*
Y998000D02*
D03*
X1277000Y991000D02*
D03*
Y998000D02*
D03*
X1263000Y1012000D02*
D03*
X1256000D02*
D03*
Y1019000D02*
D03*
Y1026000D02*
D03*
Y1033000D02*
D03*
X1249000D02*
D03*
Y1026000D02*
D03*
Y1019000D02*
D03*
Y1012000D02*
D03*
Y1005000D02*
D03*
X1256000D02*
D03*
X1263000D02*
D03*
X1270000D02*
D03*
X1277000D02*
D03*
X1284000D02*
D03*
Y998000D02*
D03*
Y991000D02*
D03*
Y984000D02*
D03*
X1277500Y904500D02*
D03*
X1270500Y918500D02*
D03*
X1277500D02*
D03*
X1284500Y904500D02*
D03*
Y911500D02*
D03*
Y918500D02*
D03*
Y925500D02*
D03*
Y932500D02*
D03*
Y939500D02*
D03*
X1277500D02*
D03*
X1284500Y946500D02*
D03*
X1277500D02*
D03*
X1284500Y953500D02*
D03*
X1277500D02*
D03*
X1270500D02*
D03*
Y946500D02*
D03*
Y939500D02*
D03*
X1263500D02*
D03*
Y946500D02*
D03*
Y953500D02*
D03*
X1256500D02*
D03*
Y946500D02*
D03*
Y939500D02*
D03*
X1249500D02*
D03*
Y946500D02*
D03*
Y953500D02*
D03*
X1242500D02*
D03*
Y946500D02*
D03*
Y939500D02*
D03*
X1263500Y932500D02*
D03*
X1256500D02*
D03*
X1249500D02*
D03*
X1242500D02*
D03*
Y925500D02*
D03*
X1249500D02*
D03*
X1256500D02*
D03*
X1263500D02*
D03*
Y918500D02*
D03*
X1256500D02*
D03*
X1249500D02*
D03*
X1242500D02*
D03*
Y911500D02*
D03*
X1249500D02*
D03*
X1256500D02*
D03*
X1263500D02*
D03*
Y904500D02*
D03*
X1256500D02*
D03*
X1242500D02*
D03*
X1249500D02*
D03*
X1231047Y990771D02*
D03*
X1208014Y971021D02*
D03*
Y980896D02*
D03*
Y990771D02*
D03*
X996861D02*
D03*
X973695D02*
D03*
X921500Y959500D02*
D03*
X942500D02*
D03*
X963500D02*
D03*
X956500D02*
D03*
X949500D02*
D03*
X921500Y952500D02*
D03*
X928500D02*
D03*
X935500D02*
D03*
X942500D02*
D03*
X949500D02*
D03*
X956500D02*
D03*
X963500D02*
D03*
Y945500D02*
D03*
X956500D02*
D03*
X949500D02*
D03*
X942500D02*
D03*
X935500D02*
D03*
X928500D02*
D03*
X921500D02*
D03*
Y938500D02*
D03*
X928500D02*
D03*
X935500D02*
D03*
X963500D02*
D03*
X956500D02*
D03*
X949500D02*
D03*
X942500D02*
D03*
Y931500D02*
D03*
X949500D02*
D03*
X956500D02*
D03*
X963500D02*
D03*
Y924500D02*
D03*
X956500D02*
D03*
X949500D02*
D03*
X942500D02*
D03*
X963500Y903500D02*
D03*
X956500D02*
D03*
X949500D02*
D03*
X963500Y910500D02*
D03*
X956500D02*
D03*
X949500D02*
D03*
X942500Y903500D02*
D03*
Y910500D02*
D03*
X963500Y917500D02*
D03*
X956500D02*
D03*
X921500Y931500D02*
D03*
Y924500D02*
D03*
Y910500D02*
D03*
Y903500D02*
D03*
D102*
X1083000Y792618D02*
D03*
X1086899Y795000D02*
D03*
X1165000Y768500D02*
D03*
X1141000Y743000D02*
D03*
X1211299Y766949D02*
D03*
X1203500Y775500D02*
D03*
X1232300Y712000D02*
D03*
X1226000D02*
D03*
X1219700D02*
D03*
X1231150Y766911D02*
D03*
X1223000Y762000D02*
D03*
X1217598Y757500D02*
D03*
X1223000Y758000D02*
D03*
Y753500D02*
D03*
X1222500Y748000D02*
D03*
X1223500Y802500D02*
D03*
X1173500Y744000D02*
D03*
X1184000Y742500D02*
D03*
X1182500Y738500D02*
D03*
X1201792Y728500D02*
D03*
X1198701Y741752D02*
D03*
X1037525Y749175D02*
D03*
X1023415Y732443D02*
D03*
X1174119Y783412D02*
D03*
X1180050Y759563D02*
D03*
X1180050Y775449D02*
D03*
Y783412D02*
D03*
X1232000Y805718D02*
D03*
X1220500Y735500D02*
D03*
X1228000Y751000D02*
D03*
X1208000Y775000D02*
D03*
X1201850Y766949D02*
D03*
X1214449Y760650D02*
D03*
Y754350D02*
D03*
X1208150Y757500D02*
D03*
X1205000Y760650D02*
D03*
X1192402Y748051D02*
D03*
Y757500D02*
D03*
X1195551Y754350D02*
D03*
X1198701D02*
D03*
X1201850Y763799D02*
D03*
X1192402Y766949D02*
D03*
X1201850Y757500D02*
D03*
X1214449Y766949D02*
D03*
X1208150D02*
D03*
X1201850Y751201D02*
D03*
X1205000D02*
D03*
X1201850Y748051D02*
D03*
X1205000D02*
D03*
X1208150D02*
D03*
X1211299Y744902D02*
D03*
M02*
