G04*
G04 #@! TF.GenerationSoftware,Altium Limited,Altium Designer,22.0.2 (36)*
G04*
G04 Layer_Physical_Order=6*
G04 Layer_Color=16711680*
%FSLAX25Y25*%
%MOIN*%
G70*
G04*
G04 #@! TF.SameCoordinates,8DF314AF-FFA0-4F09-AA67-4057F65CF364*
G04*
G04*
G04 #@! TF.FilePolarity,Positive*
G04*
G01*
G75*
%ADD14C,0.01000*%
%ADD91C,0.00700*%
%ADD92C,0.02000*%
%ADD94C,0.05118*%
%ADD95C,0.06693*%
%ADD96R,0.06693X0.06693*%
%ADD97R,0.06693X0.06693*%
%ADD98C,0.08661*%
%ADD99C,0.11811*%
%ADD100C,0.20000*%
%ADD101C,0.02165*%
%ADD102C,0.01772*%
G36*
X1258500Y1026000D02*
X1258535Y1024921D01*
X1258817Y1022781D01*
X1259376Y1020696D01*
X1260202Y1018702D01*
X1261281Y1016833D01*
X1262595Y1015121D01*
X1264121Y1013595D01*
X1265833Y1012281D01*
X1267702Y1011202D01*
X1269696Y1010376D01*
X1271781Y1009817D01*
X1273921Y1009535D01*
X1275000Y1009500D01*
X1288000D01*
Y980500D01*
X1235000D01*
Y946500D01*
X1227500D01*
Y997500D01*
X1211000D01*
Y946500D01*
X1205000D01*
Y997500D01*
X1185000D01*
Y1039000D01*
X1258500D01*
Y1026000D01*
D02*
G37*
G36*
X1019937Y997500D02*
X1000500D01*
Y946500D01*
X993500D01*
Y997500D01*
X977000D01*
Y946500D01*
X969500D01*
Y980500D01*
X916500D01*
Y1009500D01*
X929500D01*
X930579Y1009535D01*
X932719Y1009817D01*
X934804Y1010376D01*
X936798Y1011202D01*
X938667Y1012281D01*
X940379Y1013595D01*
X941905Y1015121D01*
X943219Y1016833D01*
X944298Y1018702D01*
X945124Y1020696D01*
X945683Y1022781D01*
X945965Y1024921D01*
X946000Y1026000D01*
X946000Y1039000D01*
X1019937D01*
Y997500D01*
D02*
G37*
G36*
X1221500Y943000D02*
X1235000D01*
Y894500D01*
X1288000D01*
Y853000D01*
Y697500D01*
X1259000D01*
Y667500D01*
X946000D01*
Y697500D01*
X916500D01*
Y853000D01*
Y894500D01*
X969500D01*
Y943000D01*
X983500D01*
Y994000D01*
X989000D01*
Y943000D01*
X1006500D01*
Y994000D01*
X1012000D01*
Y919366D01*
X1034846D01*
Y912000D01*
X1091500D01*
Y919266D01*
X1177721D01*
X1177721Y919265D01*
Y912000D01*
X1218000D01*
Y923500D01*
X1192500D01*
Y994000D01*
X1198500D01*
Y943000D01*
X1215500D01*
Y994000D01*
X1221500D01*
Y943000D01*
D02*
G37*
G36*
X1182500Y1016500D02*
X1175500D01*
X1175500Y989000D01*
X1187012Y977488D01*
X1186980Y922000D01*
X1145000D01*
Y987500D01*
X1130500Y1002000D01*
Y1016500D01*
Y1039000D01*
X1182500D01*
Y1016500D01*
D02*
G37*
G36*
X1126000Y922000D02*
X1075000D01*
Y1013000D01*
X1049000Y1039000D01*
X1126000D01*
Y922000D01*
D02*
G37*
G36*
X1058983Y1002017D02*
X1059010Y922000D01*
X1015500D01*
Y995000D01*
X1022500D01*
Y1024203D01*
X1036797D01*
X1058983Y1002017D01*
D02*
G37*
G36*
X1288000Y901000D02*
X1238500D01*
Y962000D01*
X1288000D01*
Y901000D01*
D02*
G37*
G36*
X966000Y898500D02*
X916500D01*
Y962000D01*
X966000D01*
Y898500D01*
D02*
G37*
%LPC*%
G36*
X1157457Y848795D02*
X1156543D01*
X1155700Y848446D01*
X1155054Y847800D01*
X1154705Y846957D01*
Y846043D01*
X1155054Y845200D01*
X1155700Y844554D01*
X1156543Y844205D01*
X1157457D01*
X1158300Y844554D01*
X1158946Y845200D01*
X1159295Y846043D01*
Y846957D01*
X1158946Y847800D01*
X1158300Y848446D01*
X1157457Y848795D01*
D02*
G37*
G36*
X1140457D02*
X1139543D01*
X1138700Y848446D01*
X1138054Y847800D01*
X1137705Y846957D01*
Y846043D01*
X1138054Y845200D01*
X1138700Y844554D01*
X1139543Y844205D01*
X1140457D01*
X1141300Y844554D01*
X1141946Y845200D01*
X1142295Y846043D01*
Y846957D01*
X1141946Y847800D01*
X1141300Y848446D01*
X1140457Y848795D01*
D02*
G37*
G36*
X1081457Y848295D02*
X1080543D01*
X1079700Y847946D01*
X1079054Y847300D01*
X1078705Y846457D01*
Y845543D01*
X1079054Y844700D01*
X1079700Y844054D01*
X1080543Y843705D01*
X1081457D01*
X1082300Y844054D01*
X1082946Y844700D01*
X1083295Y845543D01*
Y846457D01*
X1082946Y847300D01*
X1082300Y847946D01*
X1081457Y848295D01*
D02*
G37*
G36*
X1067457D02*
X1066543D01*
X1065700Y847946D01*
X1065054Y847300D01*
X1064705Y846457D01*
Y845543D01*
X1065054Y844700D01*
X1065700Y844054D01*
X1066543Y843705D01*
X1067457D01*
X1068300Y844054D01*
X1068946Y844700D01*
X1069295Y845543D01*
Y846457D01*
X1068946Y847300D01*
X1068300Y847946D01*
X1067457Y848295D01*
D02*
G37*
G36*
X1022780Y844469D02*
X1016780D01*
Y838469D01*
X1022780D01*
Y844469D01*
D02*
G37*
G36*
X1046813Y843346D02*
X1045819D01*
X1044860Y843089D01*
X1044000Y842593D01*
X1043298Y841890D01*
X1042801Y841030D01*
X1042544Y840071D01*
Y839078D01*
X1042801Y838119D01*
X1043298Y837259D01*
X1044000Y836556D01*
X1044860Y836060D01*
X1045819Y835803D01*
X1046813D01*
X1047772Y836060D01*
X1048632Y836556D01*
X1049334Y837259D01*
X1049831Y838119D01*
X1050088Y839078D01*
Y840071D01*
X1049831Y841030D01*
X1049334Y841890D01*
X1048632Y842593D01*
X1047772Y843089D01*
X1046813Y843346D01*
D02*
G37*
G36*
X1121357Y843253D02*
X1120364D01*
X1119405Y842996D01*
X1118545Y842500D01*
X1117843Y841797D01*
X1117346Y840937D01*
X1117089Y839978D01*
Y838985D01*
X1117346Y838026D01*
X1117843Y837166D01*
X1118545Y836464D01*
X1119405Y835967D01*
X1120364Y835710D01*
X1121357D01*
X1122317Y835967D01*
X1123177Y836464D01*
X1123879Y837166D01*
X1124376Y838026D01*
X1124632Y838985D01*
Y839978D01*
X1124376Y840937D01*
X1123879Y841797D01*
X1123177Y842500D01*
X1122317Y842996D01*
X1121357Y843253D01*
D02*
G37*
G36*
X1246457Y832295D02*
X1245543D01*
X1244700Y831946D01*
X1244054Y831300D01*
X1243705Y830457D01*
Y829543D01*
X1244054Y828700D01*
X1244700Y828054D01*
X1245543Y827705D01*
X1246457D01*
X1247300Y828054D01*
X1247946Y828700D01*
X1248295Y829543D01*
Y830457D01*
X1247946Y831300D01*
X1247300Y831946D01*
X1246457Y832295D01*
D02*
G37*
G36*
X1239957Y826295D02*
X1239043D01*
X1238200Y825946D01*
X1237554Y825300D01*
X1237205Y824457D01*
Y823543D01*
X1237554Y822700D01*
X1238200Y822054D01*
X1239043Y821705D01*
X1239957D01*
X1240800Y822054D01*
X1241446Y822700D01*
X1241795Y823543D01*
Y824457D01*
X1241446Y825300D01*
X1240800Y825946D01*
X1239957Y826295D01*
D02*
G37*
G36*
X970488Y821764D02*
X969575D01*
X968731Y821414D01*
X968358Y821041D01*
X968032Y820807D01*
X967705Y821041D01*
X967332Y821414D01*
X966488Y821764D01*
X965575D01*
X964731Y821414D01*
X964086Y820769D01*
X963736Y819925D01*
Y819012D01*
X964086Y818168D01*
X964731Y817523D01*
X965575Y817173D01*
X966488D01*
X967332Y817523D01*
X967705Y817896D01*
X968032Y818130D01*
X968358Y817896D01*
X968731Y817523D01*
X969575Y817173D01*
X970488D01*
X971332Y817523D01*
X971977Y818168D01*
X972327Y819012D01*
Y819925D01*
X971977Y820769D01*
X971332Y821414D01*
X970488Y821764D01*
D02*
G37*
G36*
X1117188Y828256D02*
X1091000D01*
X1090137Y828084D01*
X1089405Y827595D01*
X1081066Y819256D01*
X1066051D01*
X1065957Y819295D01*
X1065043D01*
X1064200Y818946D01*
X1063554Y818300D01*
X1063205Y817457D01*
Y816543D01*
X1063554Y815700D01*
X1064200Y815054D01*
X1065043Y814705D01*
X1065957D01*
X1066051Y814744D01*
X1082000D01*
X1082863Y814916D01*
X1083595Y815405D01*
X1091934Y823744D01*
X1116253D01*
X1119614Y820383D01*
X1119653Y820288D01*
X1120299Y819643D01*
X1121142Y819293D01*
X1122056D01*
X1122899Y819643D01*
X1123545Y820288D01*
X1123894Y821132D01*
Y822045D01*
X1123545Y822889D01*
X1122899Y823534D01*
X1122804Y823574D01*
X1118783Y827595D01*
X1118051Y828084D01*
X1117188Y828256D01*
D02*
G37*
G36*
X985957Y825795D02*
X985043D01*
X984200Y825446D01*
X983554Y824800D01*
X983205Y823957D01*
Y823043D01*
X983554Y822200D01*
X984200Y821554D01*
X985043Y821205D01*
X985957D01*
X986051Y821244D01*
X1043895D01*
X1045135Y820004D01*
X1045143Y819985D01*
X1045789Y819339D01*
X1046632Y818990D01*
X1047545D01*
X1048389Y819339D01*
X1049035Y819985D01*
X1049384Y820829D01*
Y821742D01*
X1049035Y822585D01*
X1048389Y823231D01*
X1048218Y823302D01*
X1046424Y825095D01*
X1045693Y825584D01*
X1044829Y825756D01*
X986051D01*
X985957Y825795D01*
D02*
G37*
G36*
X932730Y826104D02*
X931270D01*
X929860Y825726D01*
X928596Y824996D01*
X927564Y823964D01*
X926834Y822700D01*
X926457Y821290D01*
Y819831D01*
X926834Y818421D01*
X927564Y817157D01*
X928596Y816125D01*
X929860Y815395D01*
X931270Y815017D01*
X932730D01*
X934140Y815395D01*
X935404Y816125D01*
X936436Y817157D01*
X937166Y818421D01*
X937543Y819831D01*
Y821290D01*
X937166Y822700D01*
X936436Y823964D01*
X935404Y824996D01*
X934140Y825726D01*
X932730Y826104D01*
D02*
G37*
G36*
X1131434Y813941D02*
X1130521D01*
X1129677Y813592D01*
X1129032Y812946D01*
X1128682Y812103D01*
Y811189D01*
X1129032Y810346D01*
X1129677Y809700D01*
X1130521Y809351D01*
X1131434D01*
X1132278Y809700D01*
X1132924Y810346D01*
X1133273Y811189D01*
Y812103D01*
X1132924Y812946D01*
X1132278Y813592D01*
X1131434Y813941D01*
D02*
G37*
G36*
X1056924Y813941D02*
X1056011D01*
X1055167Y813592D01*
X1054522Y812946D01*
X1054172Y812102D01*
Y811189D01*
X1054522Y810346D01*
X1055167Y809700D01*
X1056011Y809351D01*
X1056924D01*
X1057768Y809700D01*
X1058413Y810346D01*
X1058763Y811189D01*
Y812102D01*
X1058413Y812946D01*
X1057768Y813592D01*
X1056924Y813941D01*
D02*
G37*
G36*
X1232417Y807816D02*
X1231583D01*
X1230811Y807497D01*
X1230221Y806906D01*
X1229902Y806135D01*
Y805300D01*
X1230221Y804529D01*
X1230811Y803939D01*
X1231583Y803619D01*
X1232417D01*
X1233189Y803939D01*
X1233779Y804529D01*
X1234098Y805300D01*
Y806135D01*
X1233779Y806906D01*
X1233189Y807497D01*
X1232417Y807816D01*
D02*
G37*
G36*
X1223917Y804598D02*
X1223083D01*
X1222311Y804279D01*
X1221721Y803689D01*
X1221402Y802917D01*
Y802083D01*
X1221721Y801311D01*
X1222311Y800721D01*
X1223083Y800402D01*
X1223917D01*
X1224689Y800721D01*
X1225279Y801311D01*
X1225598Y802083D01*
Y802917D01*
X1225279Y803689D01*
X1224689Y804279D01*
X1223917Y804598D01*
D02*
G37*
G36*
X1033206Y803880D02*
X1032293D01*
X1031450Y803531D01*
X1030804Y802885D01*
X1030455Y802042D01*
Y801128D01*
X1030804Y800285D01*
X1031450Y799639D01*
X1032293Y799290D01*
X1033206D01*
X1034050Y799639D01*
X1034696Y800285D01*
X1035045Y801128D01*
Y802042D01*
X1034696Y802885D01*
X1034050Y803531D01*
X1033206Y803880D01*
D02*
G37*
G36*
X1211957Y803795D02*
X1211043D01*
X1210200Y803446D01*
X1209554Y802800D01*
X1209205Y801957D01*
Y801043D01*
X1209554Y800200D01*
X1210200Y799554D01*
X1211043Y799205D01*
X1211957D01*
X1212800Y799554D01*
X1213446Y800200D01*
X1213795Y801043D01*
Y801957D01*
X1213446Y802800D01*
X1212800Y803446D01*
X1211957Y803795D01*
D02*
G37*
G36*
X1190957Y803295D02*
X1190043D01*
X1189200Y802946D01*
X1188554Y802300D01*
X1188205Y801457D01*
Y800543D01*
X1188554Y799700D01*
X1189200Y799054D01*
X1190043Y798705D01*
X1190957D01*
X1191800Y799054D01*
X1192446Y799700D01*
X1192795Y800543D01*
Y801457D01*
X1192446Y802300D01*
X1191800Y802946D01*
X1190957Y803295D01*
D02*
G37*
G36*
X1087316Y797098D02*
X1086482D01*
X1085710Y796779D01*
X1085120Y796189D01*
X1084801Y795417D01*
Y794583D01*
X1084751Y794509D01*
X1084189Y794397D01*
X1083417Y794716D01*
X1082583D01*
X1081811Y794397D01*
X1081221Y793807D01*
X1080902Y793035D01*
Y792201D01*
X1081221Y791429D01*
X1081811Y790839D01*
X1082583Y790520D01*
X1083417D01*
X1084189Y790839D01*
X1084374Y791025D01*
X1103222D01*
X1113949Y780298D01*
X1113809Y779731D01*
X1113217Y779486D01*
X1112571Y778841D01*
X1112286Y778152D01*
X1111760Y777971D01*
X1109859Y779873D01*
Y780372D01*
X1109509Y781215D01*
X1108863Y781861D01*
X1108020Y782210D01*
X1107107D01*
X1106263Y781861D01*
X1105617Y781215D01*
X1105320Y780498D01*
X1104806D01*
X1104509Y781215D01*
X1103863Y781861D01*
X1103020Y782210D01*
X1102107D01*
X1101263Y781861D01*
X1100617Y781215D01*
X1100268Y780372D01*
Y780138D01*
X1099806Y779947D01*
X1092658Y787095D01*
X1092141Y787440D01*
X1091532Y787562D01*
X1087184D01*
X1086832Y787914D01*
X1085988Y788264D01*
X1085075D01*
X1084231Y787914D01*
X1083586Y787269D01*
X1083236Y786425D01*
Y785512D01*
X1083586Y784668D01*
X1084231Y784023D01*
X1085075Y783673D01*
X1085988D01*
X1086832Y784023D01*
X1087184Y784375D01*
X1090872D01*
X1093785Y781462D01*
X1093594Y781000D01*
X1089500D01*
Y775000D01*
X1095500D01*
Y779094D01*
X1095962Y779285D01*
X1117692Y757555D01*
X1117500Y757093D01*
X1095500D01*
Y762500D01*
X1089500D01*
Y757093D01*
X1088575D01*
X1069630Y776038D01*
X1069821Y776500D01*
X1073500D01*
Y782500D01*
X1067500D01*
Y778821D01*
X1067038Y778630D01*
X1065795Y779873D01*
Y780372D01*
X1065446Y781215D01*
X1064800Y781861D01*
X1063957Y782210D01*
X1063043D01*
X1062200Y781861D01*
X1061554Y781215D01*
X1061257Y780498D01*
X1060743D01*
X1060446Y781215D01*
X1059800Y781861D01*
X1058957Y782210D01*
X1058043D01*
X1057200Y781861D01*
X1056554Y781215D01*
X1056205Y780372D01*
Y779458D01*
X1056554Y778615D01*
X1057200Y777969D01*
X1058043Y777620D01*
X1058957D01*
X1059800Y777969D01*
X1060446Y778615D01*
X1060743Y779332D01*
X1061257D01*
X1061554Y778615D01*
X1062200Y777969D01*
X1063043Y777620D01*
X1063542D01*
X1086788Y754373D01*
X1087305Y754028D01*
X1087915Y753907D01*
X1136000D01*
X1136610Y754028D01*
X1137127Y754373D01*
X1145160Y762407D01*
X1152357D01*
X1152548Y761945D01*
X1152482Y761879D01*
X1151985Y761019D01*
X1151728Y760059D01*
Y759066D01*
X1151985Y758107D01*
X1152482Y757247D01*
X1153184Y756545D01*
X1154044Y756048D01*
X1155003Y755791D01*
X1155997D01*
X1156956Y756048D01*
X1157816Y756545D01*
X1158518Y757247D01*
X1159015Y758107D01*
X1159272Y759066D01*
Y760059D01*
X1159015Y761019D01*
X1158518Y761879D01*
X1158452Y761945D01*
X1158643Y762407D01*
X1189453D01*
X1190063Y762528D01*
X1190579Y762873D01*
X1192556Y764850D01*
X1192819D01*
X1193590Y765170D01*
X1194180Y765760D01*
X1194356Y766184D01*
X1194946Y766301D01*
X1198574Y762673D01*
X1199091Y762327D01*
X1199701Y762206D01*
X1200476D01*
X1200662Y762020D01*
X1201433Y761701D01*
X1202268D01*
X1203039Y762020D01*
X1203629Y762611D01*
X1203949Y763382D01*
Y764217D01*
X1203629Y764988D01*
X1203243Y765374D01*
X1203629Y765760D01*
X1203949Y766531D01*
Y767366D01*
X1203629Y768138D01*
X1203039Y768728D01*
X1202268Y769047D01*
X1201937D01*
X1197857Y773127D01*
X1197340Y773472D01*
X1196731Y773593D01*
X1181869D01*
X1181662Y774093D01*
X1181829Y774260D01*
X1182148Y775031D01*
Y775866D01*
X1181829Y776637D01*
X1181238Y777227D01*
X1180467Y777547D01*
X1179632D01*
X1178861Y777227D01*
X1178271Y776637D01*
X1177951Y775866D01*
Y775031D01*
X1178271Y774260D01*
X1178437Y774093D01*
X1178230Y773593D01*
X1162500D01*
X1161890Y773472D01*
X1161373Y773127D01*
X1160840Y772593D01*
X1158632D01*
X1158441Y773055D01*
X1158518Y773133D01*
X1159015Y773993D01*
X1159272Y774952D01*
Y775945D01*
X1159015Y776904D01*
X1158518Y777764D01*
X1157816Y778467D01*
X1156956Y778963D01*
X1156178Y779172D01*
Y779689D01*
X1156956Y779898D01*
X1157816Y780394D01*
X1158518Y781096D01*
X1159015Y781956D01*
X1159272Y782916D01*
Y783909D01*
X1159015Y784868D01*
X1158518Y785728D01*
X1157816Y786430D01*
X1156956Y786927D01*
X1155997Y787184D01*
X1155003D01*
X1154044Y786927D01*
X1153184Y786430D01*
X1152482Y785728D01*
X1151985Y784868D01*
X1151728Y783909D01*
Y782916D01*
X1151985Y781956D01*
X1152482Y781096D01*
X1153184Y780394D01*
X1154044Y779898D01*
X1154822Y779689D01*
Y779172D01*
X1154044Y778963D01*
X1153184Y778467D01*
X1152482Y777764D01*
X1151985Y776904D01*
X1151728Y775945D01*
Y774952D01*
X1151985Y773993D01*
X1152482Y773133D01*
X1152559Y773055D01*
X1152368Y772593D01*
X1138991D01*
X1138784Y773093D01*
X1154934Y789244D01*
X1182566D01*
X1192515Y779295D01*
X1192554Y779200D01*
X1193200Y778554D01*
X1194043Y778205D01*
X1194957D01*
X1195800Y778554D01*
X1196446Y779200D01*
X1196795Y780043D01*
Y780957D01*
X1196592Y781448D01*
X1197016Y781731D01*
X1201890Y776857D01*
X1201721Y776689D01*
X1201402Y775917D01*
Y775083D01*
X1201721Y774311D01*
X1202311Y773721D01*
X1203083Y773402D01*
X1203917D01*
X1204689Y773721D01*
X1205279Y774311D01*
X1205402Y774607D01*
X1205783Y774588D01*
X1205917Y774545D01*
X1206221Y773811D01*
X1206811Y773221D01*
X1207583Y772902D01*
X1208417D01*
X1209189Y773221D01*
X1209779Y773811D01*
X1210098Y774583D01*
Y775417D01*
X1209779Y776189D01*
X1209189Y776779D01*
X1208417Y777098D01*
X1207583D01*
X1206811Y776779D01*
X1206221Y776189D01*
X1206098Y775893D01*
X1205717Y775912D01*
X1205583Y775955D01*
X1205279Y776689D01*
X1205093Y776874D01*
Y777500D01*
X1204972Y778110D01*
X1204627Y778627D01*
X1187127Y796127D01*
X1186610Y796472D01*
X1186000Y796593D01*
X1088273D01*
X1088088Y796779D01*
X1087316Y797098D01*
D02*
G37*
G36*
X978957Y790795D02*
X978043D01*
X977200Y790446D01*
X976554Y789800D01*
X976205Y788957D01*
Y788043D01*
X976554Y787200D01*
X977200Y786554D01*
X978043Y786205D01*
X978957D01*
X979800Y786554D01*
X980446Y787200D01*
X980795Y788043D01*
Y788957D01*
X980446Y789800D01*
X979800Y790446D01*
X978957Y790795D01*
D02*
G37*
G36*
X970957D02*
X970043D01*
X969200Y790446D01*
X968554Y789800D01*
X968205Y788957D01*
Y788043D01*
X968554Y787200D01*
X969200Y786554D01*
X970043Y786205D01*
X970957D01*
X971800Y786554D01*
X972446Y787200D01*
X972795Y788043D01*
Y788957D01*
X972446Y789800D01*
X971800Y790446D01*
X970957Y790795D01*
D02*
G37*
G36*
X962957D02*
X962043D01*
X961200Y790446D01*
X960554Y789800D01*
X960205Y788957D01*
Y788043D01*
X960554Y787200D01*
X961200Y786554D01*
X962043Y786205D01*
X962957D01*
X963800Y786554D01*
X964446Y787200D01*
X964795Y788043D01*
Y788957D01*
X964446Y789800D01*
X963800Y790446D01*
X962957Y790795D01*
D02*
G37*
G36*
X955457Y794795D02*
X954543D01*
X953700Y794446D01*
X953054Y793800D01*
X952705Y792957D01*
Y792043D01*
X953054Y791200D01*
X953427Y790827D01*
X953661Y790500D01*
X953427Y790173D01*
X953054Y789800D01*
X952705Y788957D01*
Y788043D01*
X953054Y787200D01*
X953427Y786827D01*
X953661Y786500D01*
X953427Y786173D01*
X953054Y785800D01*
X952705Y784957D01*
Y784043D01*
X953054Y783200D01*
X953700Y782554D01*
X954543Y782205D01*
X955457D01*
X956300Y782554D01*
X956946Y783200D01*
X957295Y784043D01*
Y784957D01*
X956946Y785800D01*
X956573Y786173D01*
X956339Y786500D01*
X956573Y786827D01*
X956946Y787200D01*
X957295Y788043D01*
Y788957D01*
X956946Y789800D01*
X956573Y790173D01*
X956339Y790500D01*
X956573Y790827D01*
X956946Y791200D01*
X957295Y792043D01*
Y792957D01*
X956946Y793800D01*
X956300Y794446D01*
X955457Y794795D01*
D02*
G37*
G36*
X1022679Y787727D02*
X1016679D01*
Y781727D01*
X1022679D01*
Y787727D01*
D02*
G37*
G36*
X1180467Y785511D02*
X1179632D01*
X1178861Y785191D01*
X1178271Y784601D01*
X1177951Y783830D01*
Y782995D01*
X1178271Y782224D01*
X1178861Y781633D01*
X1179632Y781314D01*
X1180467D01*
X1181238Y781633D01*
X1181829Y782224D01*
X1182148Y782995D01*
Y783830D01*
X1181829Y784601D01*
X1181238Y785191D01*
X1180467Y785511D01*
D02*
G37*
G36*
X1174536D02*
X1173701D01*
X1172930Y785191D01*
X1172340Y784601D01*
X1172020Y783830D01*
Y782995D01*
X1172340Y782224D01*
X1172930Y781633D01*
X1173701Y781314D01*
X1174536D01*
X1175307Y781633D01*
X1175898Y782224D01*
X1176217Y782995D01*
Y783830D01*
X1175898Y784601D01*
X1175307Y785191D01*
X1174536Y785511D01*
D02*
G37*
G36*
X1246457Y782295D02*
X1245543D01*
X1244700Y781946D01*
X1244054Y781300D01*
X1243705Y780457D01*
Y779543D01*
X1244054Y778700D01*
X1244700Y778054D01*
X1245543Y777705D01*
X1246457D01*
X1247300Y778054D01*
X1247946Y778700D01*
X1248295Y779543D01*
Y780457D01*
X1247946Y781300D01*
X1247300Y781946D01*
X1246457Y782295D01*
D02*
G37*
G36*
X1080988Y782210D02*
X1080075D01*
X1079231Y781861D01*
X1078586Y781215D01*
X1078236Y780372D01*
Y779458D01*
X1078586Y778615D01*
X1079231Y777969D01*
X1080075Y777620D01*
X1080988D01*
X1081832Y777969D01*
X1082477Y778615D01*
X1082827Y779458D01*
Y780372D01*
X1082477Y781215D01*
X1081832Y781861D01*
X1080988Y782210D01*
D02*
G37*
G36*
X1051500Y783000D02*
X1045500D01*
Y777000D01*
X1051500D01*
Y783000D01*
D02*
G37*
G36*
X1221957Y780295D02*
X1221043D01*
X1220200Y779946D01*
X1219554Y779300D01*
X1219205Y778457D01*
Y777543D01*
X1219554Y776700D01*
X1220200Y776054D01*
X1221043Y775705D01*
X1221957D01*
X1222800Y776054D01*
X1223446Y776700D01*
X1223795Y777543D01*
Y778457D01*
X1223446Y779300D01*
X1222800Y779946D01*
X1221957Y780295D01*
D02*
G37*
G36*
X1225457Y772295D02*
X1224543D01*
X1223700Y771946D01*
X1223054Y771300D01*
X1222705Y770457D01*
Y769543D01*
X1223054Y768700D01*
X1223700Y768054D01*
X1224543Y767705D01*
X1225457D01*
X1226300Y768054D01*
X1226946Y768700D01*
X1227295Y769543D01*
Y770457D01*
X1226946Y771300D01*
X1226300Y771946D01*
X1225457Y772295D01*
D02*
G37*
G36*
X1208567Y769047D02*
X1207732D01*
X1206961Y768728D01*
X1206371Y768138D01*
X1206051Y767366D01*
Y766531D01*
X1206371Y765760D01*
X1206961Y765170D01*
X1207732Y764850D01*
X1208567D01*
X1209338Y765170D01*
X1209929Y765760D01*
X1210248Y766531D01*
Y767366D01*
X1209929Y768138D01*
X1209338Y768728D01*
X1208567Y769047D01*
D02*
G37*
G36*
X1036500Y770000D02*
X1030500D01*
Y764000D01*
X1036500D01*
Y770000D01*
D02*
G37*
G36*
X1180467Y761661D02*
X1179632D01*
X1178861Y761342D01*
X1178271Y760751D01*
X1177951Y759980D01*
Y759145D01*
X1178271Y758374D01*
X1178861Y757784D01*
X1179632Y757465D01*
X1180467D01*
X1181238Y757784D01*
X1181829Y758374D01*
X1182148Y759145D01*
Y759980D01*
X1181829Y760751D01*
X1181238Y761342D01*
X1180467Y761661D01*
D02*
G37*
G36*
X1214866Y769047D02*
X1214031D01*
X1213260Y768728D01*
X1212670Y768138D01*
X1212350Y767366D01*
Y766531D01*
X1212029Y766000D01*
X1211890Y765972D01*
X1211373Y765627D01*
X1207023Y761276D01*
X1206678Y760759D01*
X1206556Y760150D01*
Y758874D01*
X1206371Y758689D01*
X1206051Y757917D01*
Y757083D01*
X1206371Y756311D01*
X1206961Y755721D01*
X1207732Y755402D01*
X1208567D01*
X1209338Y755721D01*
X1209929Y756311D01*
X1210248Y757083D01*
Y757917D01*
X1209929Y758689D01*
X1209743Y758874D01*
Y759490D01*
X1212155Y761902D01*
X1212579Y761619D01*
X1212350Y761067D01*
Y760232D01*
X1212670Y759461D01*
X1213260Y758871D01*
X1214031Y758551D01*
X1214866D01*
X1215295Y758729D01*
X1215678Y758346D01*
X1215500Y757917D01*
Y757083D01*
X1215678Y756654D01*
X1215295Y756271D01*
X1214866Y756449D01*
X1214031D01*
X1213260Y756129D01*
X1212670Y755539D01*
X1212350Y754768D01*
Y753933D01*
X1212670Y753162D01*
X1212676Y753156D01*
X1212485Y752694D01*
X1206475D01*
X1206189Y752980D01*
X1205417Y753299D01*
X1204583D01*
X1203811Y752980D01*
X1203425Y752594D01*
X1203039Y752980D01*
X1202268Y753299D01*
X1201433D01*
X1201004Y753122D01*
X1200622Y753504D01*
X1200799Y753933D01*
Y754768D01*
X1200622Y755197D01*
X1201004Y755579D01*
X1201433Y755402D01*
X1202268D01*
X1203039Y755721D01*
X1203629Y756311D01*
X1203949Y757083D01*
Y757917D01*
X1203629Y758689D01*
X1203039Y759279D01*
X1202268Y759598D01*
X1201433D01*
X1200662Y759279D01*
X1200072Y758689D01*
X1199752Y757917D01*
Y757083D01*
X1199930Y756654D01*
X1199547Y756271D01*
X1199118Y756449D01*
X1198283D01*
X1197512Y756129D01*
X1197126Y755743D01*
X1196740Y756129D01*
X1195969Y756449D01*
X1195134D01*
X1194705Y756271D01*
X1194322Y756654D01*
X1194500Y757083D01*
Y757917D01*
X1194180Y758689D01*
X1193590Y759279D01*
X1192819Y759598D01*
X1191984D01*
X1191213Y759279D01*
X1190623Y758689D01*
X1190303Y757917D01*
Y757083D01*
X1190623Y756311D01*
X1191213Y755721D01*
X1191984Y755402D01*
X1192819D01*
X1193248Y755579D01*
X1193630Y755197D01*
X1193453Y754768D01*
Y753933D01*
X1193717Y753294D01*
X1193487Y752794D01*
X1180701D01*
X1180091Y752673D01*
X1179574Y752327D01*
X1173345Y746098D01*
X1173083D01*
X1172311Y745779D01*
X1171721Y745189D01*
X1171402Y744417D01*
Y743583D01*
X1171721Y742811D01*
X1172311Y742221D01*
X1173083Y741902D01*
X1173917D01*
X1174689Y742221D01*
X1175279Y742811D01*
X1175598Y743583D01*
Y743845D01*
X1181361Y749608D01*
X1190337D01*
X1190568Y749108D01*
X1190303Y748469D01*
Y747634D01*
X1190623Y746863D01*
X1191213Y746272D01*
X1191984Y745953D01*
X1192819D01*
X1193590Y746272D01*
X1194180Y746863D01*
X1194500Y747634D01*
Y748469D01*
X1194235Y749108D01*
X1194466Y749608D01*
X1199786D01*
X1200017Y749108D01*
X1199752Y748469D01*
Y747634D01*
X1200072Y746863D01*
X1200257Y746677D01*
Y743817D01*
X1199757Y743586D01*
X1199118Y743850D01*
X1198283D01*
X1197512Y743531D01*
X1196922Y742941D01*
X1196602Y742169D01*
Y741335D01*
X1196922Y740563D01*
X1197512Y739973D01*
X1198283Y739653D01*
X1199118D01*
X1199757Y739918D01*
X1200257Y739687D01*
Y729933D01*
X1200013Y729689D01*
X1199693Y728917D01*
Y728083D01*
X1200013Y727311D01*
X1200603Y726721D01*
X1201375Y726402D01*
X1202209D01*
X1202981Y726721D01*
X1203571Y727311D01*
X1203890Y728083D01*
Y728917D01*
X1203571Y729689D01*
X1203444Y729816D01*
Y745987D01*
X1203944Y746217D01*
X1204583Y745953D01*
X1205417D01*
X1206189Y746272D01*
X1206575Y746658D01*
X1206961Y746272D01*
X1207732Y745953D01*
X1208567D01*
X1208996Y746130D01*
X1209378Y745748D01*
X1209201Y745319D01*
Y744484D01*
X1209520Y743713D01*
X1210111Y743123D01*
X1210882Y742803D01*
X1211044D01*
X1218402Y735446D01*
Y735083D01*
X1218721Y734311D01*
X1219311Y733721D01*
X1220083Y733402D01*
X1220917D01*
X1221689Y733721D01*
X1222279Y734311D01*
X1222598Y735083D01*
Y735917D01*
X1222279Y736689D01*
X1221689Y737279D01*
X1220917Y737598D01*
X1220755D01*
X1213398Y744956D01*
Y745319D01*
X1213078Y746090D01*
X1212488Y746680D01*
X1211717Y747000D01*
X1210882D01*
X1210453Y746822D01*
X1210071Y747205D01*
X1210248Y747634D01*
Y748469D01*
X1210025Y749007D01*
X1210314Y749507D01*
X1220386D01*
X1220646Y749007D01*
X1220402Y748417D01*
Y747583D01*
X1220721Y746811D01*
X1221311Y746221D01*
X1222083Y745902D01*
X1222917D01*
X1223689Y746221D01*
X1223722Y746254D01*
X1249500D01*
X1250168Y746387D01*
X1250735Y746765D01*
X1253410Y749441D01*
X1260059D01*
Y758559D01*
X1250941D01*
Y751910D01*
X1248777Y749746D01*
X1230293D01*
X1229959Y750246D01*
X1230098Y750583D01*
Y751417D01*
X1229779Y752189D01*
X1229189Y752779D01*
X1228417Y753098D01*
X1227583D01*
X1226811Y752779D01*
X1226726Y752694D01*
X1225358D01*
X1225098Y753083D01*
Y753917D01*
X1224779Y754689D01*
X1224189Y755279D01*
X1223705Y755479D01*
Y756021D01*
X1224189Y756221D01*
X1224779Y756811D01*
X1225098Y757583D01*
Y758417D01*
X1224779Y759189D01*
X1224259Y759709D01*
X1224219Y760000D01*
X1224259Y760291D01*
X1224779Y760811D01*
X1225098Y761583D01*
Y762417D01*
X1225068Y762491D01*
X1225346Y762907D01*
X1228739D01*
X1229349Y763028D01*
X1229866Y763373D01*
X1231305Y764812D01*
X1231567D01*
X1232339Y765132D01*
X1232929Y765722D01*
X1233249Y766493D01*
Y767328D01*
X1232929Y768099D01*
X1232339Y768690D01*
X1231567Y769009D01*
X1230733D01*
X1229961Y768690D01*
X1229371Y768099D01*
X1229052Y767328D01*
Y767065D01*
X1228079Y766093D01*
X1216816D01*
X1216538Y766509D01*
X1216547Y766531D01*
Y767366D01*
X1216228Y768138D01*
X1215637Y768728D01*
X1214866Y769047D01*
D02*
G37*
G36*
X1073500Y761000D02*
X1067500D01*
Y755000D01*
X1073500D01*
Y761000D01*
D02*
G37*
G36*
X1051500D02*
X1045500D01*
Y755000D01*
X1051500D01*
Y761000D01*
D02*
G37*
G36*
X1155997Y754772D02*
X1155003D01*
X1154044Y754515D01*
X1153184Y754018D01*
X1152482Y753316D01*
X1151985Y752456D01*
X1151728Y751497D01*
Y750503D01*
X1151985Y749544D01*
X1152482Y748684D01*
X1153184Y747982D01*
X1154044Y747485D01*
X1155003Y747228D01*
X1155997D01*
X1156956Y747485D01*
X1157816Y747982D01*
X1158518Y748684D01*
X1159015Y749544D01*
X1159272Y750503D01*
Y751497D01*
X1159015Y752456D01*
X1158518Y753316D01*
X1157816Y754018D01*
X1156956Y754515D01*
X1155997Y754772D01*
D02*
G37*
G36*
X1037942Y751273D02*
X1037107D01*
X1036336Y750953D01*
X1035746Y750363D01*
X1035427Y749592D01*
Y748757D01*
X1035746Y747986D01*
X1036336Y747396D01*
X1037107Y747076D01*
X1037942D01*
X1038714Y747396D01*
X1039304Y747986D01*
X1039623Y748757D01*
Y749592D01*
X1039304Y750363D01*
X1038714Y750953D01*
X1037942Y751273D01*
D02*
G37*
G36*
X931457Y749795D02*
X930543D01*
X929700Y749446D01*
X929054Y748800D01*
X928705Y747957D01*
Y747043D01*
X929054Y746200D01*
X929700Y745554D01*
X930543Y745205D01*
X931457D01*
X932300Y745554D01*
X932946Y746200D01*
X933295Y747043D01*
Y747957D01*
X932946Y748800D01*
X932300Y749446D01*
X931457Y749795D01*
D02*
G37*
G36*
X1167457Y746295D02*
X1166543D01*
X1165700Y745946D01*
X1165054Y745300D01*
X1164705Y744457D01*
Y743543D01*
X1165054Y742700D01*
X1165700Y742054D01*
X1166543Y741705D01*
X1167457D01*
X1168300Y742054D01*
X1168946Y742700D01*
X1169295Y743543D01*
Y744457D01*
X1168946Y745300D01*
X1168300Y745946D01*
X1167457Y746295D01*
D02*
G37*
G36*
X1151711D02*
X1150798D01*
X1149954Y745946D01*
X1149309Y745300D01*
X1148959Y744457D01*
Y743543D01*
X1149309Y742700D01*
X1149954Y742054D01*
X1150798Y741705D01*
X1151711D01*
X1152555Y742054D01*
X1153200Y742700D01*
X1153550Y743543D01*
Y744457D01*
X1153200Y745300D01*
X1152555Y745946D01*
X1151711Y746295D01*
D02*
G37*
G36*
X1141417Y745098D02*
X1140583D01*
X1139811Y744779D01*
X1139221Y744189D01*
X1138902Y743417D01*
Y742583D01*
X1139221Y741811D01*
X1139811Y741221D01*
X1140583Y740902D01*
X1141417D01*
X1142189Y741221D01*
X1142779Y741811D01*
X1143098Y742583D01*
Y743417D01*
X1142779Y744189D01*
X1142189Y744779D01*
X1141417Y745098D01*
D02*
G37*
G36*
X1023872Y744739D02*
X1022958D01*
X1022115Y744389D01*
X1021469Y743744D01*
X1021120Y742900D01*
Y741987D01*
X1021469Y741143D01*
X1022115Y740497D01*
X1022958Y740148D01*
X1023872D01*
X1024715Y740497D01*
X1025361Y741143D01*
X1025710Y741987D01*
Y742900D01*
X1025361Y743744D01*
X1024715Y744389D01*
X1023872Y744739D01*
D02*
G37*
G36*
X1184417Y744598D02*
X1183583D01*
X1182811Y744279D01*
X1182221Y743689D01*
X1181902Y742917D01*
Y742083D01*
X1182221Y741311D01*
X1182434Y741098D01*
X1182227Y740598D01*
X1182083D01*
X1181311Y740279D01*
X1180721Y739689D01*
X1180402Y738917D01*
Y738083D01*
X1180721Y737311D01*
X1181311Y736721D01*
X1182083Y736402D01*
X1182917D01*
X1183689Y736721D01*
X1184279Y737311D01*
X1184598Y738083D01*
Y738917D01*
X1184279Y739689D01*
X1184066Y739902D01*
X1184273Y740402D01*
X1184417D01*
X1185189Y740721D01*
X1185779Y741311D01*
X1186098Y742083D01*
Y742917D01*
X1185779Y743689D01*
X1185189Y744279D01*
X1184417Y744598D01*
D02*
G37*
G36*
X989187Y744502D02*
X987987D01*
X986827Y744192D01*
X985787Y743591D01*
X984939Y742743D01*
X984338Y741703D01*
X984028Y740544D01*
Y739343D01*
X984338Y738184D01*
X984939Y737144D01*
X985787Y736295D01*
X986827Y735695D01*
X987987Y735384D01*
X989187D01*
X990347Y735695D01*
X991386Y736295D01*
X992235Y737144D01*
X992835Y738184D01*
X993146Y739343D01*
Y740544D01*
X992835Y741703D01*
X992235Y742743D01*
X991386Y743591D01*
X990347Y744192D01*
X989187Y744502D01*
D02*
G37*
G36*
X983146D02*
X974028D01*
Y735384D01*
X983146D01*
Y744502D01*
D02*
G37*
G36*
X934551Y739778D02*
X933638D01*
X932794Y739428D01*
X932149Y738783D01*
X931799Y737939D01*
Y737026D01*
X932149Y736182D01*
X932794Y735537D01*
X933638Y735187D01*
X934551D01*
X935395Y735537D01*
X936040Y736182D01*
X936390Y737026D01*
Y737939D01*
X936040Y738783D01*
X935395Y739428D01*
X934551Y739778D01*
D02*
G37*
G36*
X1023832Y734542D02*
X1022998D01*
X1022226Y734222D01*
X1021636Y733632D01*
X1021317Y732861D01*
Y732026D01*
X1021636Y731255D01*
X1022226Y730664D01*
X1022998Y730345D01*
X1023832D01*
X1024604Y730664D01*
X1025194Y731255D01*
X1025513Y732026D01*
Y732861D01*
X1025194Y733632D01*
X1024604Y734222D01*
X1023832Y734542D01*
D02*
G37*
G36*
X1260457Y733795D02*
X1259543D01*
X1258700Y733446D01*
X1258054Y732800D01*
X1257705Y731957D01*
Y731043D01*
X1258054Y730200D01*
X1258700Y729554D01*
X1259543Y729205D01*
X1260457D01*
X1261300Y729554D01*
X1261946Y730200D01*
X1262295Y731043D01*
Y731957D01*
X1261946Y732800D01*
X1261300Y733446D01*
X1260457Y733795D01*
D02*
G37*
G36*
X1211457Y730795D02*
X1210543D01*
X1209700Y730446D01*
X1209054Y729800D01*
X1208705Y728957D01*
Y728043D01*
X1209054Y727200D01*
X1209700Y726554D01*
X1210543Y726205D01*
X1211457D01*
X1212300Y726554D01*
X1212946Y727200D01*
X1213295Y728043D01*
Y728957D01*
X1212946Y729800D01*
X1212300Y730446D01*
X1211457Y730795D01*
D02*
G37*
G36*
X1187457D02*
X1186543D01*
X1185700Y730446D01*
X1185054Y729800D01*
X1184705Y728957D01*
Y728043D01*
X1185054Y727200D01*
X1185700Y726554D01*
X1186543Y726205D01*
X1187457D01*
X1188300Y726554D01*
X1188946Y727200D01*
X1189295Y728043D01*
Y728957D01*
X1188946Y729800D01*
X1188300Y730446D01*
X1187457Y730795D01*
D02*
G37*
G36*
X1232717Y714098D02*
X1231883D01*
X1231111Y713779D01*
X1230521Y713189D01*
X1230202Y712417D01*
Y711583D01*
X1230521Y710811D01*
X1231111Y710221D01*
X1231883Y709902D01*
X1232717D01*
X1233489Y710221D01*
X1234079Y710811D01*
X1234398Y711583D01*
Y712417D01*
X1234079Y713189D01*
X1233489Y713779D01*
X1232717Y714098D01*
D02*
G37*
G36*
X1226417D02*
X1225583D01*
X1224811Y713779D01*
X1224221Y713189D01*
X1223902Y712417D01*
Y711583D01*
X1224221Y710811D01*
X1224811Y710221D01*
X1225583Y709902D01*
X1226417D01*
X1227189Y710221D01*
X1227779Y710811D01*
X1228098Y711583D01*
Y712417D01*
X1227779Y713189D01*
X1227189Y713779D01*
X1226417Y714098D01*
D02*
G37*
G36*
X1220117D02*
X1219283D01*
X1218511Y713779D01*
X1217921Y713189D01*
X1217602Y712417D01*
Y711583D01*
X1217921Y710811D01*
X1218511Y710221D01*
X1219283Y709902D01*
X1220117D01*
X1220889Y710221D01*
X1221479Y710811D01*
X1221798Y711583D01*
Y712417D01*
X1221479Y713189D01*
X1220889Y713779D01*
X1220117Y714098D01*
D02*
G37*
G36*
X1249469Y706782D02*
X1248556D01*
X1247713Y706433D01*
X1247067Y705787D01*
X1246717Y704944D01*
Y704031D01*
X1247067Y703187D01*
X1247713Y702541D01*
X1248556Y702192D01*
X1249469D01*
X1250313Y702541D01*
X1250959Y703187D01*
X1251308Y704031D01*
Y704944D01*
X1250959Y705787D01*
X1250313Y706433D01*
X1249469Y706782D01*
D02*
G37*
G36*
X950457Y698795D02*
X949543D01*
X948700Y698446D01*
X948054Y697800D01*
X947705Y696957D01*
Y696043D01*
X948054Y695200D01*
X948700Y694554D01*
X949543Y694205D01*
X950457D01*
X951300Y694554D01*
X951946Y695200D01*
X952295Y696043D01*
Y696957D01*
X951946Y697800D01*
X951300Y698446D01*
X950457Y698795D01*
D02*
G37*
G36*
X1199464Y681752D02*
X1198551D01*
X1197707Y681402D01*
X1197061Y680757D01*
X1196712Y679913D01*
Y679000D01*
X1197061Y678157D01*
X1197707Y677511D01*
X1198551Y677161D01*
X1199464D01*
X1200307Y677511D01*
X1200953Y678157D01*
X1201302Y679000D01*
Y679913D01*
X1200953Y680757D01*
X1200307Y681402D01*
X1199464Y681752D01*
D02*
G37*
G36*
X1164680Y681267D02*
X1163766D01*
X1162923Y680918D01*
X1162277Y680272D01*
X1161928Y679428D01*
Y678515D01*
X1162277Y677671D01*
X1162923Y677026D01*
X1163766Y676676D01*
X1164680D01*
X1165523Y677026D01*
X1166169Y677671D01*
X1166518Y678515D01*
Y679428D01*
X1166169Y680272D01*
X1165523Y680918D01*
X1164680Y681267D01*
D02*
G37*
G36*
X1129895D02*
X1128982D01*
X1128139Y680918D01*
X1127493Y680272D01*
X1127144Y679428D01*
Y678515D01*
X1127493Y677671D01*
X1128139Y677026D01*
X1128982Y676676D01*
X1129895D01*
X1130739Y677026D01*
X1131385Y677671D01*
X1131734Y678515D01*
Y679428D01*
X1131385Y680272D01*
X1130739Y680918D01*
X1129895Y681267D01*
D02*
G37*
G36*
X1226457Y676795D02*
X1225543D01*
X1224700Y676446D01*
X1224054Y675800D01*
X1223705Y674957D01*
Y674043D01*
X1224054Y673200D01*
X1224700Y672554D01*
X1225543Y672205D01*
X1226457D01*
X1227300Y672554D01*
X1227946Y673200D01*
X1228295Y674043D01*
Y674957D01*
X1227946Y675800D01*
X1227300Y676446D01*
X1226457Y676795D01*
D02*
G37*
G36*
X1207957Y676295D02*
X1207043D01*
X1206200Y675946D01*
X1205554Y675300D01*
X1205205Y674457D01*
Y673543D01*
X1205554Y672700D01*
X1206200Y672054D01*
X1207043Y671705D01*
X1207957D01*
X1208800Y672054D01*
X1209446Y672700D01*
X1209795Y673543D01*
Y674457D01*
X1209446Y675300D01*
X1208800Y675946D01*
X1207957Y676295D01*
D02*
G37*
G36*
X1173457D02*
X1172543D01*
X1171700Y675946D01*
X1171054Y675300D01*
X1170705Y674457D01*
Y673543D01*
X1171054Y672700D01*
X1171700Y672054D01*
X1172543Y671705D01*
X1173457D01*
X1174300Y672054D01*
X1174946Y672700D01*
X1175295Y673543D01*
Y674457D01*
X1174946Y675300D01*
X1174300Y675946D01*
X1173457Y676295D01*
D02*
G37*
G36*
X1137957D02*
X1137043D01*
X1136200Y675946D01*
X1135554Y675300D01*
X1135205Y674457D01*
Y673543D01*
X1135554Y672700D01*
X1136200Y672054D01*
X1137043Y671705D01*
X1137957D01*
X1138800Y672054D01*
X1139446Y672700D01*
X1139795Y673543D01*
Y674457D01*
X1139446Y675300D01*
X1138800Y675946D01*
X1137957Y676295D01*
D02*
G37*
%LPD*%
G36*
X1152216Y792907D02*
X1130795Y771485D01*
X1130700Y771446D01*
X1130054Y770800D01*
X1129705Y769957D01*
Y769702D01*
X1129243Y769510D01*
X1105808Y792945D01*
X1106000Y793407D01*
X1152009D01*
X1152216Y792907D01*
D02*
G37*
G36*
X1179391Y769907D02*
X1179205Y769457D01*
Y768543D01*
X1179391Y768093D01*
X1179057Y767593D01*
X1167346D01*
X1167068Y768009D01*
X1167098Y768083D01*
Y768917D01*
X1166779Y769689D01*
X1166561Y769907D01*
X1166768Y770407D01*
X1179057D01*
X1179391Y769907D01*
D02*
G37*
D14*
X1249500Y748000D02*
X1255500Y754000D01*
X1222500Y748000D02*
X1249500D01*
D91*
X1085532Y785968D02*
X1091532D01*
X1119500Y758000D02*
X1134000D01*
X1091532Y785968D02*
X1119500Y758000D01*
X1103882Y792618D02*
X1130000Y766500D01*
X1134000D02*
X1138500Y771000D01*
X1130000Y766500D02*
X1134000D01*
X1083000Y792618D02*
X1103882D01*
X1107563Y779915D02*
X1126978Y760500D01*
X1132500D01*
X1203500Y775500D02*
Y777500D01*
X1086899Y795000D02*
X1186000D01*
X1203500Y777500D01*
X1196731Y772000D02*
X1201816Y766915D01*
X1162500Y772000D02*
X1196731D01*
X1161500Y771000D02*
X1162500Y772000D01*
X1138500Y771000D02*
X1161500D01*
X1136000Y755500D02*
X1144500Y764000D01*
X1189453D02*
X1192402Y766949D01*
X1144500Y764000D02*
X1189453D01*
X1142000Y766000D02*
X1186500D01*
X1134000Y758000D02*
X1142000Y766000D01*
X1186500D02*
X1190500Y770000D01*
X1132500Y760500D02*
X1140500Y768500D01*
X1165000D01*
X1193500Y770000D02*
X1199701Y763799D01*
X1201850D01*
X1190500Y770000D02*
X1193500D01*
X1201816Y766915D02*
X1201850Y766949D01*
X1063500Y779915D02*
X1087915Y755500D01*
X1136000D01*
X1228739Y764500D02*
X1231150Y766911D01*
X1208150Y760150D02*
X1212500Y764500D01*
X1228739D01*
X1173443Y743943D02*
X1180701Y751201D01*
X1201850D01*
Y728155D02*
Y748051D01*
X1208150Y757500D02*
Y760150D01*
X1211299Y744801D02*
X1220500Y735600D01*
X1211299Y744801D02*
Y744902D01*
X1220500Y735500D02*
Y735600D01*
X1227900Y751100D02*
X1228000Y751000D01*
X1205100Y751100D02*
X1227900D01*
X1205000Y751201D02*
X1205100Y751100D01*
D92*
X1047044Y821285D02*
X1047089D01*
X1044829Y823500D02*
X1047044Y821285D01*
X985500Y823500D02*
X1044829D01*
X1091000Y826000D02*
X1117188D01*
X1082000Y817000D02*
X1091000Y826000D01*
X1117188D02*
X1121599Y821589D01*
X1065500Y817000D02*
X1082000D01*
X1132000Y769500D02*
X1154000Y791500D01*
X1183500D01*
X1194500Y780500D01*
D94*
X972500Y1029500D02*
D03*
X1239000Y1030000D02*
D03*
X953000Y942500D02*
D03*
X1068500Y729000D02*
D03*
X1095000Y882500D02*
D03*
X1182000Y840500D02*
D03*
X1155500Y751000D02*
D03*
Y759563D02*
D03*
Y775449D02*
D03*
Y783412D02*
D03*
X1120861Y839482D02*
D03*
X1046316Y839574D02*
D03*
X1045500Y916500D02*
D03*
X1188500Y917000D02*
D03*
X1253000Y950000D02*
D03*
X1180177Y1005800D02*
D03*
X1031740Y1028879D02*
D03*
D95*
X1255500Y764000D02*
D03*
X988587Y739943D02*
D03*
D96*
X1255500Y754000D02*
D03*
D97*
X978587Y739943D02*
D03*
D98*
X932000Y800561D02*
D03*
Y820561D02*
D03*
Y906500D02*
D03*
Y926500D02*
D03*
X1272500Y929000D02*
D03*
Y909000D02*
D03*
X932000Y866500D02*
D03*
Y886500D02*
D03*
X1272500Y889000D02*
D03*
Y869000D02*
D03*
D99*
X1094000Y985500D02*
D03*
X1035000D02*
D03*
Y973500D02*
D03*
X1094000D02*
D03*
D100*
X1275500Y1026000D02*
D03*
X929500D02*
D03*
Y681000D02*
D03*
X1275500D02*
D03*
D101*
X1246000Y840000D02*
D03*
X1015500Y760500D02*
D03*
X1234500Y761500D02*
D03*
X995500Y829500D02*
D03*
Y844000D02*
D03*
X1005500Y843500D02*
D03*
Y829500D02*
D03*
X1113000Y846500D02*
D03*
X1113500Y835000D02*
D03*
X1097500Y836500D02*
D03*
X1098500Y845500D02*
D03*
X1148000Y844500D02*
D03*
X1148500Y832000D02*
D03*
X1212500Y823000D02*
D03*
X1222500Y837000D02*
D03*
X1194500Y836500D02*
D03*
X1207000Y846000D02*
D03*
X1233000Y839500D02*
D03*
X1273500Y843000D02*
D03*
X1271500Y831000D02*
D03*
X1275000Y817500D02*
D03*
X1274000Y804000D02*
D03*
X1275500Y789000D02*
D03*
X1276500Y773500D02*
D03*
X1275500Y733500D02*
D03*
X1276500Y755500D02*
D03*
X1245000Y731500D02*
D03*
X1254500Y723000D02*
D03*
X1242500Y719000D02*
D03*
X1245500Y686500D02*
D03*
X1240000Y701000D02*
D03*
X1211500Y697000D02*
D03*
X1190500Y713500D02*
D03*
X1156000Y714500D02*
D03*
X1174000Y713000D02*
D03*
X1180000Y697000D02*
D03*
X1163500Y696500D02*
D03*
X1147000Y697500D02*
D03*
X1124000Y697000D02*
D03*
X1138000Y714500D02*
D03*
X1119000Y715500D02*
D03*
X1105500Y714000D02*
D03*
X1078000Y730000D02*
D03*
X1060000Y707000D02*
D03*
X1068000Y717500D02*
D03*
X1046000Y723000D02*
D03*
X1047500Y707500D02*
D03*
X1026500Y705500D02*
D03*
X1027500Y719000D02*
D03*
X1008500Y719500D02*
D03*
X1006000Y706500D02*
D03*
X1099500Y697500D02*
D03*
X1098500Y676000D02*
D03*
X1085000Y688500D02*
D03*
X1081000Y674500D02*
D03*
X1066500Y681000D02*
D03*
X1054500Y675000D02*
D03*
X1044000Y681500D02*
D03*
X1029000Y676000D02*
D03*
X1016000Y681000D02*
D03*
X1004000Y677500D02*
D03*
X990500Y680000D02*
D03*
X992000Y702000D02*
D03*
Y711000D02*
D03*
X993000Y721500D02*
D03*
X974500D02*
D03*
X963000Y720000D02*
D03*
X951000Y706000D02*
D03*
X947000Y715000D02*
D03*
X953000Y723500D02*
D03*
X946000Y727500D02*
D03*
X1025000Y763500D02*
D03*
X1002500Y763000D02*
D03*
X994000Y759500D02*
D03*
X981000Y760500D02*
D03*
X969500D02*
D03*
X958000D02*
D03*
X948000Y763500D02*
D03*
X986500Y771000D02*
D03*
X978000Y770500D02*
D03*
X967000D02*
D03*
X956000D02*
D03*
X948500Y775000D02*
D03*
X944000Y782000D02*
D03*
X971500Y810500D02*
D03*
X985500Y823500D02*
D03*
X1194500Y793500D02*
D03*
X1175000Y769500D02*
D03*
X1181500Y769000D02*
D03*
X1190500Y801000D02*
D03*
X1187500Y803000D02*
D03*
X1211500Y801500D02*
D03*
X1239500Y824000D02*
D03*
Y812327D02*
D03*
X1205500Y802000D02*
D03*
X1199500Y788500D02*
D03*
X1221500Y778000D02*
D03*
X1219000Y788500D02*
D03*
X1225000Y770000D02*
D03*
X1211000Y728500D02*
D03*
X1187000D02*
D03*
X1207903Y724219D02*
D03*
X1195893Y724208D02*
D03*
X1167000Y744000D02*
D03*
X1151254D02*
D03*
X978071Y779501D02*
D03*
X1065500Y817000D02*
D03*
X1121599Y821589D02*
D03*
X1047089Y821285D02*
D03*
X1023415Y737443D02*
D03*
Y742443D02*
D03*
X963000Y751000D02*
D03*
Y728500D02*
D03*
X1246000Y780000D02*
D03*
X1284900Y754823D02*
D03*
X1260000Y731500D02*
D03*
X1277000Y711000D02*
D03*
X1249013Y704487D02*
D03*
X1226000Y674500D02*
D03*
X1207500Y674000D02*
D03*
X1137500D02*
D03*
X1173000D02*
D03*
X1181291Y678972D02*
D03*
X1146507Y678972D02*
D03*
X1111722D02*
D03*
X949579Y686579D02*
D03*
X950000Y696500D02*
D03*
X1011000Y841500D02*
D03*
X1025578Y847923D02*
D03*
X1034500Y810000D02*
D03*
X1032750Y801585D02*
D03*
X1049000Y750000D02*
D03*
X1071500D02*
D03*
X1093180Y750180D02*
D03*
X1123158Y777572D02*
D03*
X1121000Y750500D02*
D03*
X1102563Y779915D02*
D03*
X1080532Y779915D02*
D03*
X1058500D02*
D03*
X1025578Y779500D02*
D03*
X1014017D02*
D03*
X1002000Y804000D02*
D03*
X955000Y784500D02*
D03*
Y792500D02*
D03*
X978500Y788500D02*
D03*
X970500D02*
D03*
X962500D02*
D03*
X955000D02*
D03*
X1246000Y830000D02*
D03*
X1114517Y777540D02*
D03*
X970032Y819468D02*
D03*
X966032D02*
D03*
X1132000Y769500D02*
D03*
X1107563Y779915D02*
D03*
X1085532Y785968D02*
D03*
X1063500Y779915D02*
D03*
X1019780Y841469D02*
D03*
X1019679Y784727D02*
D03*
X1092500Y759500D02*
D03*
Y778000D02*
D03*
X1070500Y758000D02*
D03*
Y779500D02*
D03*
X1033500Y767000D02*
D03*
X1048500Y758000D02*
D03*
Y780000D02*
D03*
X1199007Y679457D02*
D03*
X1164223Y678972D02*
D03*
X1129439D02*
D03*
X1194500Y780500D02*
D03*
X934095Y737482D02*
D03*
X931000Y747500D02*
D03*
X958708Y739943D02*
D03*
X1173660Y803573D02*
D03*
Y818972D02*
D03*
X1099150Y803573D02*
D03*
Y818972D02*
D03*
X1158510Y812000D02*
D03*
X1084000Y812000D02*
D03*
X1130978Y823534D02*
D03*
X1056468Y823231D02*
D03*
X1067000Y846000D02*
D03*
X1081000D02*
D03*
X1157000Y846500D02*
D03*
X1140000D02*
D03*
X1130978Y811646D02*
D03*
X1152000Y854500D02*
D03*
X1134000Y855000D02*
D03*
X1162000Y854500D02*
D03*
Y858500D02*
D03*
X1144500Y854500D02*
D03*
X1056468Y811646D02*
D03*
X1056500Y857000D02*
D03*
X1051500Y861000D02*
D03*
Y868000D02*
D03*
X1045500Y867500D02*
D03*
X1038500Y861000D02*
D03*
X1058500Y909000D02*
D03*
X1058000Y902500D02*
D03*
Y895500D02*
D03*
Y889000D02*
D03*
X1057500Y882000D02*
D03*
Y875000D02*
D03*
X1058000Y868000D02*
D03*
X1040500Y908500D02*
D03*
Y903000D02*
D03*
Y895500D02*
D03*
Y889000D02*
D03*
Y882000D02*
D03*
Y875000D02*
D03*
X1113000Y856500D02*
D03*
X1117000Y860000D02*
D03*
X1168216Y895216D02*
D03*
X1164439Y891439D02*
D03*
X1160662Y887662D02*
D03*
X1149331Y876331D02*
D03*
X1134223Y861223D02*
D03*
X1153108Y880108D02*
D03*
X1141777Y868777D02*
D03*
X1138000Y865000D02*
D03*
X1156885Y883885D02*
D03*
X1145554Y872554D02*
D03*
X1157000Y898500D02*
D03*
X1149500Y892000D02*
D03*
X1143000Y884500D02*
D03*
X1136000Y877000D02*
D03*
X1129000Y870000D02*
D03*
X1121000Y862500D02*
D03*
X1167000Y902500D02*
D03*
Y910000D02*
D03*
X1123500Y868000D02*
D03*
Y875000D02*
D03*
X1130500Y882000D02*
D03*
X1144500Y889000D02*
D03*
X1137500D02*
D03*
X1144500Y896000D02*
D03*
X1151500Y903000D02*
D03*
X1158500Y910000D02*
D03*
Y903000D02*
D03*
X1122500Y918000D02*
D03*
X1071000Y1002000D02*
D03*
X1140161Y934305D02*
D03*
Y939805D02*
D03*
Y928805D02*
D03*
Y956305D02*
D03*
Y945305D02*
D03*
Y950805D02*
D03*
Y967305D02*
D03*
Y972805D02*
D03*
Y923305D02*
D03*
Y961805D02*
D03*
X1129831Y956479D02*
D03*
Y967979D02*
D03*
Y945479D02*
D03*
Y950979D02*
D03*
Y961979D02*
D03*
Y939979D02*
D03*
Y934479D02*
D03*
Y972979D02*
D03*
X1129794Y929010D02*
D03*
X1206437Y903020D02*
D03*
X1213937Y910520D02*
D03*
X1183775Y880358D02*
D03*
X1187552Y884135D02*
D03*
X1176221Y872804D02*
D03*
X1179998Y876581D02*
D03*
X1210214Y906797D02*
D03*
X1191329Y887912D02*
D03*
X1168667Y865250D02*
D03*
X1164890Y861473D02*
D03*
X1202660Y899243D02*
D03*
X1195106Y891689D02*
D03*
X1172444Y869027D02*
D03*
X1198883Y895466D02*
D03*
X1184961Y910324D02*
D03*
X1177407Y902770D02*
D03*
X1173630Y898993D02*
D03*
X1181184Y906547D02*
D03*
X1208500Y924000D02*
D03*
X1208156Y938348D02*
D03*
Y931347D02*
D03*
X1201089Y966307D02*
D03*
Y960807D02*
D03*
Y950807D02*
D03*
Y971307D02*
D03*
Y955807D02*
D03*
X1201089Y977139D02*
D03*
X1200091Y982341D02*
D03*
X1196517Y985888D02*
D03*
X1189500Y993000D02*
D03*
X1193000Y989000D02*
D03*
X1190500Y980000D02*
D03*
X1186000Y984500D02*
D03*
X1181000Y989000D02*
D03*
X1071147Y919869D02*
D03*
X1059000Y1008500D02*
D03*
X1062751Y1004843D02*
D03*
X1062837Y998378D02*
D03*
Y932878D02*
D03*
Y926379D02*
D03*
Y991378D02*
D03*
Y965378D02*
D03*
Y958879D02*
D03*
Y945879D02*
D03*
Y939379D02*
D03*
Y919878D02*
D03*
Y984879D02*
D03*
Y913379D02*
D03*
Y971879D02*
D03*
Y978378D02*
D03*
Y952378D02*
D03*
X1071000Y925500D02*
D03*
Y939000D02*
D03*
Y945500D02*
D03*
Y932500D02*
D03*
X1070948Y952554D02*
D03*
X1071000Y959000D02*
D03*
Y965500D02*
D03*
Y972000D02*
D03*
Y978500D02*
D03*
Y985000D02*
D03*
Y991500D02*
D03*
Y997000D02*
D03*
Y1008000D02*
D03*
X1055500Y1012000D02*
D03*
X1052000Y1015500D02*
D03*
X1048500Y1018500D02*
D03*
X1045000Y1022000D02*
D03*
X1068500Y1011500D02*
D03*
X1065000Y1015000D02*
D03*
X1062000Y1018000D02*
D03*
X1058500Y1021500D02*
D03*
X1055000Y1024500D02*
D03*
X1051500Y1028000D02*
D03*
X1048500Y1031000D02*
D03*
X1232500Y854500D02*
D03*
Y882000D02*
D03*
Y889000D02*
D03*
Y917000D02*
D03*
Y868000D02*
D03*
Y861000D02*
D03*
Y875000D02*
D03*
Y896000D02*
D03*
Y903000D02*
D03*
Y924000D02*
D03*
Y931000D02*
D03*
Y910000D02*
D03*
X1232000Y938500D02*
D03*
X1267500Y966000D02*
D03*
X1243500D02*
D03*
X1249500D02*
D03*
X1256000D02*
D03*
X1262500D02*
D03*
X1243000Y976500D02*
D03*
X1250000D02*
D03*
X1256000D02*
D03*
X1262000D02*
D03*
X1267000D02*
D03*
X1220500Y917000D02*
D03*
Y910000D02*
D03*
Y938000D02*
D03*
Y924000D02*
D03*
Y882000D02*
D03*
Y889000D02*
D03*
Y896000D02*
D03*
Y903000D02*
D03*
Y875000D02*
D03*
Y931000D02*
D03*
Y854000D02*
D03*
Y861000D02*
D03*
Y868000D02*
D03*
X1200000Y910500D02*
D03*
X1147122Y858122D02*
D03*
X1181115Y892115D02*
D03*
X1173561Y884561D02*
D03*
X1169784Y880784D02*
D03*
X1196223Y907223D02*
D03*
X1184892Y895892D02*
D03*
X1166007Y877007D02*
D03*
X1158453Y869453D02*
D03*
X1192446Y903446D02*
D03*
X1162230Y873230D02*
D03*
X1150899Y861899D02*
D03*
X1154676Y865676D02*
D03*
X1177338Y888338D02*
D03*
X1188669Y899669D02*
D03*
X1071726Y867627D02*
D03*
Y893627D02*
D03*
Y861127D02*
D03*
Y854627D02*
D03*
Y900127D02*
D03*
Y887127D02*
D03*
Y880627D02*
D03*
Y874127D02*
D03*
X1072000Y905000D02*
D03*
Y910500D02*
D03*
X1155000Y981000D02*
D03*
X1116000Y976500D02*
D03*
X1199000Y926000D02*
D03*
Y931000D02*
D03*
Y937000D02*
D03*
X1195500Y941000D02*
D03*
X1192000Y944500D02*
D03*
Y949500D02*
D03*
Y954000D02*
D03*
Y959000D02*
D03*
Y964500D02*
D03*
Y969500D02*
D03*
Y975000D02*
D03*
X1138000Y989500D02*
D03*
X1131000D02*
D03*
X1135000Y985500D02*
D03*
X967500Y882000D02*
D03*
Y889000D02*
D03*
Y861000D02*
D03*
Y875000D02*
D03*
Y868000D02*
D03*
X955500Y966000D02*
D03*
X937000D02*
D03*
X942500D02*
D03*
X949000D02*
D03*
X962000D02*
D03*
X973000Y854000D02*
D03*
Y896000D02*
D03*
Y924000D02*
D03*
Y882000D02*
D03*
Y889000D02*
D03*
Y910000D02*
D03*
Y917000D02*
D03*
Y875000D02*
D03*
Y938000D02*
D03*
Y931000D02*
D03*
Y861000D02*
D03*
Y868000D02*
D03*
Y903000D02*
D03*
X985000Y938000D02*
D03*
Y931000D02*
D03*
Y861500D02*
D03*
Y854500D02*
D03*
Y868000D02*
D03*
Y896000D02*
D03*
Y917000D02*
D03*
Y875000D02*
D03*
Y924000D02*
D03*
Y910000D02*
D03*
Y889000D02*
D03*
Y882000D02*
D03*
Y903000D02*
D03*
X1083000Y982500D02*
D03*
Y954500D02*
D03*
Y940500D02*
D03*
Y1010500D02*
D03*
Y947500D02*
D03*
Y1003500D02*
D03*
Y1017500D02*
D03*
Y975500D02*
D03*
Y996500D02*
D03*
Y1024500D02*
D03*
Y968500D02*
D03*
Y989500D02*
D03*
Y961500D02*
D03*
X1085784Y867875D02*
D03*
X1090284Y895875D02*
D03*
Y867875D02*
D03*
Y888875D02*
D03*
X1085784Y874875D02*
D03*
X1090284Y909875D02*
D03*
Y881875D02*
D03*
Y860875D02*
D03*
X1085784Y888875D02*
D03*
Y854375D02*
D03*
Y860875D02*
D03*
Y881875D02*
D03*
Y895875D02*
D03*
X1090284Y874875D02*
D03*
X1085784Y902875D02*
D03*
X1090284D02*
D03*
X1085784Y909875D02*
D03*
X1076000Y875000D02*
D03*
Y889000D02*
D03*
Y903000D02*
D03*
Y910000D02*
D03*
Y896000D02*
D03*
Y861000D02*
D03*
Y882000D02*
D03*
Y854500D02*
D03*
Y868000D02*
D03*
X1062000Y855000D02*
D03*
Y874500D02*
D03*
Y900500D02*
D03*
Y881000D02*
D03*
Y861500D02*
D03*
Y907000D02*
D03*
Y887500D02*
D03*
Y868000D02*
D03*
Y894000D02*
D03*
X1112500Y867000D02*
D03*
Y877500D02*
D03*
Y887500D02*
D03*
Y872500D02*
D03*
Y882500D02*
D03*
X1112564Y862678D02*
D03*
X1125500Y905000D02*
D03*
X1134500Y914000D02*
D03*
X1116500Y896000D02*
D03*
X1113000Y892500D02*
D03*
X1139000Y918500D02*
D03*
X1130000Y909500D02*
D03*
X1121000Y900500D02*
D03*
X1100500Y861000D02*
D03*
Y886000D02*
D03*
Y891000D02*
D03*
Y896000D02*
D03*
Y871000D02*
D03*
Y866000D02*
D03*
Y856000D02*
D03*
Y881000D02*
D03*
Y876000D02*
D03*
X1107500Y910000D02*
D03*
X1100500Y903000D02*
D03*
X1119000Y915000D02*
D03*
X1110000Y906000D02*
D03*
X1105500Y901500D02*
D03*
X1114500Y910500D02*
D03*
X1284500Y968000D02*
D03*
Y974000D02*
D03*
X1280500Y971000D02*
D03*
X920000Y969000D02*
D03*
Y974500D02*
D03*
X925500Y972000D02*
D03*
X1214500Y903000D02*
D03*
Y896000D02*
D03*
X1207500D02*
D03*
X1053500Y909500D02*
D03*
X1046500D02*
D03*
X1032500D02*
D03*
X1025500D02*
D03*
X1018500D02*
D03*
X1011500D02*
D03*
X1217000Y921500D02*
D03*
X1214500Y889000D02*
D03*
X1212500Y917000D02*
D03*
X1078000Y916500D02*
D03*
X1277500Y966000D02*
D03*
Y976500D02*
D03*
X1275500Y971000D02*
D03*
X931000Y972000D02*
D03*
X928500Y967000D02*
D03*
Y977000D02*
D03*
X962000D02*
D03*
X955500D02*
D03*
X949000D02*
D03*
X942500D02*
D03*
X936000D02*
D03*
X986235Y951405D02*
D03*
Y961246D02*
D03*
Y971088D02*
D03*
X1147572Y979000D02*
D03*
X1123428D02*
D03*
X1272500Y958949D02*
D03*
Y983093D02*
D03*
X932000Y958949D02*
D03*
Y983093D02*
D03*
X986235Y990771D02*
D03*
Y980929D02*
D03*
X1009401Y951272D02*
D03*
Y961147D02*
D03*
Y971021D02*
D03*
Y980896D02*
D03*
Y990771D02*
D03*
X1218507Y951272D02*
D03*
Y961147D02*
D03*
Y971021D02*
D03*
Y980896D02*
D03*
Y990771D02*
D03*
X1214500Y938000D02*
D03*
Y931000D02*
D03*
X1172500Y910000D02*
D03*
X1151500D02*
D03*
X1144500D02*
D03*
X1137500D02*
D03*
X1102500D02*
D03*
X1144500Y903000D02*
D03*
X1137500D02*
D03*
X1130500D02*
D03*
X1151500Y896000D02*
D03*
X1137500D02*
D03*
X1130500D02*
D03*
X1123500D02*
D03*
X1095500Y910000D02*
D03*
Y903000D02*
D03*
Y896000D02*
D03*
X1053500Y903000D02*
D03*
X1046500D02*
D03*
X1053500Y896000D02*
D03*
X1046500D02*
D03*
X1032500Y903000D02*
D03*
X1025500D02*
D03*
X1018500D02*
D03*
X1011500D02*
D03*
X1032500Y896000D02*
D03*
X1025500D02*
D03*
X1018500D02*
D03*
X1011500D02*
D03*
X1004500Y938000D02*
D03*
X997500D02*
D03*
X990500D02*
D03*
X1004500Y931000D02*
D03*
X997500D02*
D03*
X990500D02*
D03*
X1004500Y924000D02*
D03*
X997500D02*
D03*
X990500D02*
D03*
X1004500Y917000D02*
D03*
X997500D02*
D03*
X990500D02*
D03*
X1004500Y910000D02*
D03*
X997500D02*
D03*
X990500D02*
D03*
X1004500Y903000D02*
D03*
X997500D02*
D03*
X990500D02*
D03*
X1004500Y896000D02*
D03*
X997500D02*
D03*
X990500D02*
D03*
X1214500Y861000D02*
D03*
Y868000D02*
D03*
Y875000D02*
D03*
Y882000D02*
D03*
X1207500Y861000D02*
D03*
Y868000D02*
D03*
Y875000D02*
D03*
Y882000D02*
D03*
Y889000D02*
D03*
X1200500Y861000D02*
D03*
Y868000D02*
D03*
Y875000D02*
D03*
Y882000D02*
D03*
Y889000D02*
D03*
X1193500Y861000D02*
D03*
Y868000D02*
D03*
Y875000D02*
D03*
Y882000D02*
D03*
X1186500Y861000D02*
D03*
Y868000D02*
D03*
Y875000D02*
D03*
X1179500Y861000D02*
D03*
Y868000D02*
D03*
X1172500Y861000D02*
D03*
X1137500Y882000D02*
D03*
X1130500Y875000D02*
D03*
Y889000D02*
D03*
X1123500Y882000D02*
D03*
Y889000D02*
D03*
X1116500Y868000D02*
D03*
Y875000D02*
D03*
Y882000D02*
D03*
Y889000D02*
D03*
X1095500Y861000D02*
D03*
Y868000D02*
D03*
Y875000D02*
D03*
Y889000D02*
D03*
X1053500Y875000D02*
D03*
Y882000D02*
D03*
Y889000D02*
D03*
X1046500Y875000D02*
D03*
Y882000D02*
D03*
Y889000D02*
D03*
X1032500Y861000D02*
D03*
Y868000D02*
D03*
Y875000D02*
D03*
Y882000D02*
D03*
Y889000D02*
D03*
X1025500Y861000D02*
D03*
Y868000D02*
D03*
Y875000D02*
D03*
Y882000D02*
D03*
Y889000D02*
D03*
X1018500Y861000D02*
D03*
Y868000D02*
D03*
Y875000D02*
D03*
Y882000D02*
D03*
Y889000D02*
D03*
X1011500Y861000D02*
D03*
Y868000D02*
D03*
Y875000D02*
D03*
Y882000D02*
D03*
Y889000D02*
D03*
X1004500Y861000D02*
D03*
Y868000D02*
D03*
Y875000D02*
D03*
Y882000D02*
D03*
Y889000D02*
D03*
X997500Y861000D02*
D03*
Y868000D02*
D03*
Y875000D02*
D03*
Y882000D02*
D03*
Y889000D02*
D03*
X990500Y861000D02*
D03*
Y868000D02*
D03*
Y875000D02*
D03*
Y882000D02*
D03*
Y889000D02*
D03*
X1236000Y859000D02*
D03*
X1243000D02*
D03*
X1250000D02*
D03*
X1236000Y866000D02*
D03*
X1243000D02*
D03*
X1250000D02*
D03*
X1236000Y873000D02*
D03*
X1243000D02*
D03*
X1250000D02*
D03*
X1236000Y880000D02*
D03*
X1243000D02*
D03*
X1250000D02*
D03*
X1236000Y887000D02*
D03*
X1243000D02*
D03*
X1250000D02*
D03*
X1257000Y859000D02*
D03*
Y866000D02*
D03*
Y873000D02*
D03*
Y880000D02*
D03*
Y887000D02*
D03*
X1264000D02*
D03*
Y873000D02*
D03*
Y866000D02*
D03*
Y859000D02*
D03*
X1271000D02*
D03*
X1278000D02*
D03*
X1264000Y880000D02*
D03*
X1271000D02*
D03*
X1278000D02*
D03*
X1285000Y859000D02*
D03*
Y873000D02*
D03*
Y866000D02*
D03*
Y887000D02*
D03*
Y880000D02*
D03*
X962500Y861000D02*
D03*
Y868000D02*
D03*
Y875000D02*
D03*
Y882000D02*
D03*
Y889000D02*
D03*
X955500Y861000D02*
D03*
Y868000D02*
D03*
Y875000D02*
D03*
Y882000D02*
D03*
Y889000D02*
D03*
X948500D02*
D03*
Y882000D02*
D03*
Y861000D02*
D03*
Y868000D02*
D03*
X941500Y861000D02*
D03*
Y868000D02*
D03*
Y889000D02*
D03*
Y882000D02*
D03*
X948500Y875000D02*
D03*
X941500D02*
D03*
X934500D02*
D03*
X927500D02*
D03*
X920500Y861000D02*
D03*
Y868000D02*
D03*
Y875000D02*
D03*
Y889000D02*
D03*
Y882000D02*
D03*
X1122000Y1024500D02*
D03*
X1115000D02*
D03*
X1108000D02*
D03*
X1101000D02*
D03*
X1094000D02*
D03*
X1087000D02*
D03*
Y1017500D02*
D03*
X1094000D02*
D03*
X1101000D02*
D03*
X1108000D02*
D03*
X1115000D02*
D03*
X1122000D02*
D03*
Y1010500D02*
D03*
X1115000D02*
D03*
X1108000D02*
D03*
X1101000D02*
D03*
X1094000D02*
D03*
X1087000D02*
D03*
X1101000Y996500D02*
D03*
X1094000D02*
D03*
X1101000Y1003500D02*
D03*
X1094000D02*
D03*
X1087000D02*
D03*
Y996500D02*
D03*
X1108000Y1003500D02*
D03*
Y996500D02*
D03*
X1122000Y1003500D02*
D03*
Y996500D02*
D03*
X1115000Y1003500D02*
D03*
Y996500D02*
D03*
X1108000Y989500D02*
D03*
X1115000D02*
D03*
X1108000Y982500D02*
D03*
Y975500D02*
D03*
X1115000Y982500D02*
D03*
X1108000Y968500D02*
D03*
X1115000D02*
D03*
Y961500D02*
D03*
X1108000D02*
D03*
X1101000D02*
D03*
X1094000D02*
D03*
X1087000D02*
D03*
Y954500D02*
D03*
X1094000D02*
D03*
X1101000D02*
D03*
X1108000D02*
D03*
X1115000D02*
D03*
Y947500D02*
D03*
X1108000D02*
D03*
X1101000D02*
D03*
X1094000D02*
D03*
X1087000D02*
D03*
Y940500D02*
D03*
X1094000D02*
D03*
X1101000D02*
D03*
X1108000D02*
D03*
X1115000D02*
D03*
Y933500D02*
D03*
X1108000D02*
D03*
X1101000D02*
D03*
X1094000D02*
D03*
X1087000D02*
D03*
X1108000Y926500D02*
D03*
X1101000D02*
D03*
X1094000D02*
D03*
X1177000Y1024000D02*
D03*
Y1031000D02*
D03*
X1163000D02*
D03*
X1170000D02*
D03*
Y1024000D02*
D03*
X1163000D02*
D03*
X1156000Y1031000D02*
D03*
Y1024000D02*
D03*
Y1017000D02*
D03*
X1163000D02*
D03*
Y1010000D02*
D03*
X1156000D02*
D03*
X1163000Y1003000D02*
D03*
X1156000D02*
D03*
X1149000Y1031000D02*
D03*
Y1024000D02*
D03*
Y1017000D02*
D03*
Y1010000D02*
D03*
Y1003000D02*
D03*
X1135000D02*
D03*
Y1010000D02*
D03*
Y1017000D02*
D03*
Y1024000D02*
D03*
Y1031000D02*
D03*
X1142000D02*
D03*
Y1024000D02*
D03*
Y1017000D02*
D03*
Y1010000D02*
D03*
Y1003000D02*
D03*
Y996000D02*
D03*
X1149000Y989000D02*
D03*
Y996000D02*
D03*
X1156000D02*
D03*
X1163000D02*
D03*
X1156000Y989000D02*
D03*
X1163000D02*
D03*
X1170000Y982000D02*
D03*
X1163000D02*
D03*
X1156000Y975000D02*
D03*
X1163000D02*
D03*
X1170000D02*
D03*
Y968000D02*
D03*
X1163000D02*
D03*
X1156000D02*
D03*
Y961000D02*
D03*
X1163000D02*
D03*
X1170000D02*
D03*
Y954000D02*
D03*
X1163000D02*
D03*
X1156000D02*
D03*
Y947000D02*
D03*
X1163000D02*
D03*
X1170000D02*
D03*
X1177000Y940000D02*
D03*
X1170000D02*
D03*
X1163000D02*
D03*
X1156000D02*
D03*
Y933000D02*
D03*
X1163000D02*
D03*
X1170000D02*
D03*
X1177000D02*
D03*
Y926000D02*
D03*
X1170000D02*
D03*
X1163000D02*
D03*
X1156000D02*
D03*
X1027500Y990000D02*
D03*
X1020500D02*
D03*
X1041500Y997000D02*
D03*
X1034500D02*
D03*
X1027500D02*
D03*
Y1004000D02*
D03*
X1034500D02*
D03*
X1041500D02*
D03*
X1034500Y1011000D02*
D03*
X1027500D02*
D03*
X1048500Y997000D02*
D03*
Y990000D02*
D03*
Y983000D02*
D03*
Y976000D02*
D03*
X1027500Y983000D02*
D03*
Y976000D02*
D03*
Y969000D02*
D03*
X1020500Y983000D02*
D03*
Y976000D02*
D03*
Y969000D02*
D03*
X1048500D02*
D03*
Y962000D02*
D03*
X1041500D02*
D03*
X1034500D02*
D03*
X1027500D02*
D03*
X1020500D02*
D03*
Y955000D02*
D03*
X1027500D02*
D03*
X1034500D02*
D03*
X1041500D02*
D03*
X1048500D02*
D03*
X1020500Y948000D02*
D03*
X1027500D02*
D03*
X1034500D02*
D03*
X1041500D02*
D03*
X1048500D02*
D03*
Y941000D02*
D03*
X1041500D02*
D03*
X1034500D02*
D03*
X1027500D02*
D03*
X1020500D02*
D03*
Y934000D02*
D03*
X1027500D02*
D03*
X1034500D02*
D03*
X1041500D02*
D03*
X1048500D02*
D03*
Y927000D02*
D03*
X1041500D02*
D03*
X1034500D02*
D03*
X1027500D02*
D03*
X1020500D02*
D03*
X921500Y917500D02*
D03*
X928500D02*
D03*
X935500D02*
D03*
X942500D02*
D03*
X949500D02*
D03*
X990000Y1026000D02*
D03*
X983000D02*
D03*
X976000D02*
D03*
X983000Y1019000D02*
D03*
X990000D02*
D03*
X997000Y1026000D02*
D03*
X1004000D02*
D03*
X997000Y1019000D02*
D03*
X1004000D02*
D03*
Y1012000D02*
D03*
X997000D02*
D03*
X990000D02*
D03*
X983000D02*
D03*
X976000Y1019000D02*
D03*
Y1012000D02*
D03*
Y1005000D02*
D03*
X983000D02*
D03*
X990000D02*
D03*
X997000D02*
D03*
X1004000D02*
D03*
X1011000D02*
D03*
Y1012000D02*
D03*
Y1019000D02*
D03*
Y1026000D02*
D03*
Y1033000D02*
D03*
X1004000D02*
D03*
X997000D02*
D03*
X990000D02*
D03*
X983000D02*
D03*
X976000D02*
D03*
X969000D02*
D03*
Y1026000D02*
D03*
Y1019000D02*
D03*
Y1012000D02*
D03*
Y1005000D02*
D03*
Y998000D02*
D03*
X962000Y1012000D02*
D03*
Y1019000D02*
D03*
Y1026000D02*
D03*
Y1033000D02*
D03*
X955000D02*
D03*
Y1026000D02*
D03*
Y1019000D02*
D03*
Y1012000D02*
D03*
X948000D02*
D03*
X962000Y1005000D02*
D03*
X955000D02*
D03*
X962000Y998000D02*
D03*
Y991000D02*
D03*
Y984000D02*
D03*
X955000Y998000D02*
D03*
Y991000D02*
D03*
Y984000D02*
D03*
X948000D02*
D03*
Y1005000D02*
D03*
X941000D02*
D03*
X934000D02*
D03*
X948000Y998000D02*
D03*
X941000D02*
D03*
X934000D02*
D03*
X948000Y991000D02*
D03*
X941000D02*
D03*
X934000D02*
D03*
X927000D02*
D03*
Y998000D02*
D03*
Y1005000D02*
D03*
X920000D02*
D03*
Y998000D02*
D03*
Y991000D02*
D03*
Y984000D02*
D03*
X1228000Y1026000D02*
D03*
X1235000D02*
D03*
Y1019000D02*
D03*
X1228000D02*
D03*
X1221000Y1026000D02*
D03*
Y1019000D02*
D03*
X1214000Y1026000D02*
D03*
Y1019000D02*
D03*
X1207000Y1026000D02*
D03*
Y1019000D02*
D03*
X1200000Y1026000D02*
D03*
Y1019000D02*
D03*
Y1012000D02*
D03*
X1207000D02*
D03*
X1214000D02*
D03*
X1221000D02*
D03*
X1228000D02*
D03*
X1235000D02*
D03*
Y1005000D02*
D03*
X1228000D02*
D03*
X1221000D02*
D03*
X1214000D02*
D03*
X1207000D02*
D03*
X1200000D02*
D03*
X1193000Y1026000D02*
D03*
Y1033000D02*
D03*
X1200000D02*
D03*
X1207000D02*
D03*
X1214000D02*
D03*
X1221000D02*
D03*
X1228000D02*
D03*
X1235000D02*
D03*
X1242000D02*
D03*
Y1026000D02*
D03*
Y1019000D02*
D03*
Y1012000D02*
D03*
Y1005000D02*
D03*
Y998000D02*
D03*
X1249000D02*
D03*
X1256000D02*
D03*
X1263000D02*
D03*
Y984000D02*
D03*
X1256000D02*
D03*
X1249000D02*
D03*
X1242000D02*
D03*
Y991000D02*
D03*
X1249000D02*
D03*
X1256000D02*
D03*
X1263000D02*
D03*
X1270000D02*
D03*
Y998000D02*
D03*
X1277000Y991000D02*
D03*
Y998000D02*
D03*
X1263000Y1012000D02*
D03*
X1256000D02*
D03*
Y1019000D02*
D03*
Y1026000D02*
D03*
Y1033000D02*
D03*
X1249000D02*
D03*
Y1026000D02*
D03*
Y1019000D02*
D03*
Y1012000D02*
D03*
Y1005000D02*
D03*
X1256000D02*
D03*
X1263000D02*
D03*
X1270000D02*
D03*
X1277000D02*
D03*
X1284000D02*
D03*
Y998000D02*
D03*
Y991000D02*
D03*
Y984000D02*
D03*
X1277500Y904500D02*
D03*
X1270500Y918500D02*
D03*
X1277500D02*
D03*
X1284500Y904500D02*
D03*
Y911500D02*
D03*
Y918500D02*
D03*
Y925500D02*
D03*
Y932500D02*
D03*
Y939500D02*
D03*
X1277500D02*
D03*
X1284500Y946500D02*
D03*
X1277500D02*
D03*
X1284500Y953500D02*
D03*
X1277500D02*
D03*
X1270500D02*
D03*
Y946500D02*
D03*
Y939500D02*
D03*
X1263500D02*
D03*
Y946500D02*
D03*
Y953500D02*
D03*
X1256500D02*
D03*
Y946500D02*
D03*
Y939500D02*
D03*
X1249500D02*
D03*
Y946500D02*
D03*
Y953500D02*
D03*
X1242500D02*
D03*
Y946500D02*
D03*
Y939500D02*
D03*
X1263500Y932500D02*
D03*
X1256500D02*
D03*
X1249500D02*
D03*
X1242500D02*
D03*
Y925500D02*
D03*
X1249500D02*
D03*
X1256500D02*
D03*
X1263500D02*
D03*
Y918500D02*
D03*
X1256500D02*
D03*
X1249500D02*
D03*
X1242500D02*
D03*
Y911500D02*
D03*
X1249500D02*
D03*
X1256500D02*
D03*
X1263500D02*
D03*
Y904500D02*
D03*
X1256500D02*
D03*
X1242500D02*
D03*
X1249500D02*
D03*
X1231047Y990771D02*
D03*
X1208014Y971021D02*
D03*
Y980896D02*
D03*
Y990771D02*
D03*
X996861D02*
D03*
X973695D02*
D03*
X921500Y959500D02*
D03*
X942500D02*
D03*
X963500D02*
D03*
X956500D02*
D03*
X949500D02*
D03*
X921500Y952500D02*
D03*
X928500D02*
D03*
X935500D02*
D03*
X942500D02*
D03*
X949500D02*
D03*
X956500D02*
D03*
X963500D02*
D03*
Y945500D02*
D03*
X956500D02*
D03*
X949500D02*
D03*
X942500D02*
D03*
X935500D02*
D03*
X928500D02*
D03*
X921500D02*
D03*
Y938500D02*
D03*
X928500D02*
D03*
X935500D02*
D03*
X963500D02*
D03*
X956500D02*
D03*
X949500D02*
D03*
X942500D02*
D03*
Y931500D02*
D03*
X949500D02*
D03*
X956500D02*
D03*
X963500D02*
D03*
Y924500D02*
D03*
X956500D02*
D03*
X949500D02*
D03*
X942500D02*
D03*
X963500Y903500D02*
D03*
X956500D02*
D03*
X949500D02*
D03*
X963500Y910500D02*
D03*
X956500D02*
D03*
X949500D02*
D03*
X942500Y903500D02*
D03*
Y910500D02*
D03*
X963500Y917500D02*
D03*
X956500D02*
D03*
X921500Y931500D02*
D03*
Y924500D02*
D03*
Y910500D02*
D03*
Y903500D02*
D03*
D102*
X1083000Y792618D02*
D03*
X1086899Y795000D02*
D03*
X1165000Y768500D02*
D03*
X1141000Y743000D02*
D03*
X1211299Y766949D02*
D03*
X1203500Y775500D02*
D03*
X1232300Y712000D02*
D03*
X1226000D02*
D03*
X1219700D02*
D03*
X1231150Y766911D02*
D03*
X1223000Y762000D02*
D03*
X1217598Y757500D02*
D03*
X1223000Y758000D02*
D03*
Y753500D02*
D03*
X1222500Y748000D02*
D03*
X1223500Y802500D02*
D03*
X1173500Y744000D02*
D03*
X1184000Y742500D02*
D03*
X1182500Y738500D02*
D03*
X1201792Y728500D02*
D03*
X1198701Y741752D02*
D03*
X1037525Y749175D02*
D03*
X1023415Y732443D02*
D03*
X1174119Y783412D02*
D03*
X1180050Y759563D02*
D03*
X1180050Y775449D02*
D03*
Y783412D02*
D03*
X1232000Y805718D02*
D03*
X1220500Y735500D02*
D03*
X1228000Y751000D02*
D03*
X1208000Y775000D02*
D03*
X1201850Y766949D02*
D03*
X1214449Y760650D02*
D03*
Y754350D02*
D03*
X1208150Y757500D02*
D03*
X1205000Y760650D02*
D03*
X1192402Y748051D02*
D03*
Y757500D02*
D03*
X1195551Y754350D02*
D03*
X1198701D02*
D03*
X1201850Y763799D02*
D03*
X1192402Y766949D02*
D03*
X1201850Y757500D02*
D03*
X1214449Y766949D02*
D03*
X1208150D02*
D03*
X1201850Y751201D02*
D03*
X1205000D02*
D03*
X1201850Y748051D02*
D03*
X1205000D02*
D03*
X1208150D02*
D03*
X1211299Y744902D02*
D03*
M02*
