G04*
G04 #@! TF.GenerationSoftware,Altium Limited,Altium Designer,22.0.2 (36)*
G04*
G04 Layer_Color=32768*
%FSLAX25Y25*%
%MOIN*%
G70*
G04*
G04 #@! TF.SameCoordinates,8DF314AF-FFA0-4F09-AA67-4057F65CF364*
G04*
G04*
G04 #@! TF.FilePolarity,Positive*
G04*
G01*
G75*
%ADD16C,0.00591*%
%ADD104C,0.00394*%
%ADD105C,0.00197*%
%ADD106C,0.00158*%
%ADD107C,0.00200*%
G36*
X916094Y936598D02*
Y936402D01*
X915956Y936264D01*
X915760D01*
X915622Y936402D01*
Y936598D01*
X915760Y936736D01*
X915956D01*
X916094Y936598D01*
D02*
G37*
G36*
X932984Y924531D02*
X931016D01*
Y928469D01*
X932984D01*
Y924531D01*
D02*
G37*
G36*
Y904531D02*
X931016D01*
Y908469D01*
X932984D01*
Y904531D01*
D02*
G37*
G36*
X916094Y896598D02*
Y896402D01*
X915956Y896264D01*
X915760D01*
X915622Y896402D01*
Y896598D01*
X915760Y896736D01*
X915956D01*
X916094Y896598D01*
D02*
G37*
G36*
X932984Y884531D02*
X931016D01*
Y888468D01*
X932984D01*
Y884531D01*
D02*
G37*
G36*
Y864532D02*
X931016D01*
Y868468D01*
X932984D01*
Y864532D01*
D02*
G37*
G36*
X916094Y830659D02*
Y830463D01*
X915956Y830325D01*
X915760D01*
X915622Y830463D01*
Y830659D01*
X915760Y830797D01*
X915956D01*
X916094Y830659D01*
D02*
G37*
G36*
X1031882Y824409D02*
Y824311D01*
Y824213D01*
X1031744Y824075D01*
X1031548D01*
X1031410Y824213D01*
Y824311D01*
Y824409D01*
X1031548Y824547D01*
X1031744D01*
X1031882Y824409D01*
D02*
G37*
G36*
X1030327Y821024D02*
Y820138D01*
X1028673D01*
Y821024D01*
Y824311D01*
X1030327D01*
Y821024D01*
D02*
G37*
G36*
X1025327D02*
Y820138D01*
X1023673D01*
Y821024D01*
Y824311D01*
X1025327D01*
Y821024D01*
D02*
G37*
G36*
X1020327D02*
Y820138D01*
X1018673D01*
Y821024D01*
Y824311D01*
X1020327D01*
Y821024D01*
D02*
G37*
G36*
X1015327D02*
Y820138D01*
X1013673D01*
Y821024D01*
Y824311D01*
X1015327D01*
Y821024D01*
D02*
G37*
G36*
X932984Y818592D02*
X931016D01*
Y822529D01*
X932984D01*
Y818592D01*
D02*
G37*
G36*
X1047480Y820146D02*
X1049697D01*
Y819363D01*
X1047480D01*
Y818190D01*
X1046698D01*
Y819363D01*
X1044481D01*
Y820146D01*
X1046698D01*
Y821320D01*
X1047480D01*
Y820146D01*
D02*
G37*
G36*
Y802019D02*
X1046698D01*
Y805148D01*
X1047480D01*
Y802019D01*
D02*
G37*
G36*
X1030327Y803937D02*
Y800689D01*
X1028673D01*
Y803937D01*
Y804862D01*
X1030327D01*
Y803937D01*
D02*
G37*
G36*
X1025327D02*
Y800689D01*
X1023673D01*
Y803937D01*
Y804862D01*
X1025327D01*
Y803937D01*
D02*
G37*
G36*
X1020327D02*
Y800689D01*
X1018673D01*
Y803937D01*
Y804862D01*
X1020327D01*
Y803937D01*
D02*
G37*
G36*
X1015327D02*
Y800689D01*
X1013673D01*
Y803937D01*
Y804862D01*
X1015327D01*
Y803937D01*
D02*
G37*
G36*
X932984Y798592D02*
X931016D01*
Y802529D01*
X932984D01*
Y798592D01*
D02*
G37*
G36*
X1064327Y777609D02*
Y776723D01*
X1062673D01*
Y777609D01*
Y780896D01*
X1064327D01*
Y777609D01*
D02*
G37*
G36*
X1059327D02*
Y776723D01*
X1057673D01*
Y777609D01*
Y780896D01*
X1059327D01*
Y777609D01*
D02*
G37*
G36*
X1054327D02*
Y776723D01*
X1052673D01*
Y777609D01*
Y780896D01*
X1054327D01*
Y777609D01*
D02*
G37*
G36*
X1049327D02*
Y776723D01*
X1047673D01*
Y777609D01*
Y780896D01*
X1049327D01*
Y777609D01*
D02*
G37*
G36*
X1064327Y760522D02*
Y757274D01*
X1062673D01*
Y760522D01*
Y761447D01*
X1064327D01*
Y760522D01*
D02*
G37*
G36*
X1059327D02*
Y757274D01*
X1057673D01*
Y760522D01*
Y761447D01*
X1059327D01*
Y760522D01*
D02*
G37*
G36*
X1054327D02*
Y757274D01*
X1052673D01*
Y760522D01*
Y761447D01*
X1054327D01*
Y760522D01*
D02*
G37*
G36*
X1049327D02*
Y757274D01*
X1047673D01*
Y760522D01*
Y761447D01*
X1049327D01*
Y760522D01*
D02*
G37*
G36*
X1046590Y757372D02*
Y757274D01*
Y757176D01*
X1046452Y757038D01*
X1046256D01*
X1046118Y757176D01*
Y757274D01*
Y757372D01*
X1046256Y757510D01*
X1046452D01*
X1046590Y757372D01*
D02*
G37*
G36*
X1068590Y756872D02*
Y756774D01*
Y756676D01*
X1068452Y756538D01*
X1068256D01*
X1068118Y756676D01*
Y756774D01*
Y756872D01*
X1068256Y757010D01*
X1068452D01*
X1068590Y756872D01*
D02*
G37*
G36*
X1024311Y746617D02*
X1020138D01*
Y748270D01*
X1024311D01*
Y746617D01*
D02*
G37*
G36*
X1004862D02*
X1000689D01*
Y748270D01*
X1004862D01*
Y746617D01*
D02*
G37*
G36*
X1024311Y741617D02*
X1020138D01*
Y743270D01*
X1024311D01*
Y741617D01*
D02*
G37*
G36*
X1004862D02*
X1000689D01*
Y743270D01*
X1004862D01*
Y741617D01*
D02*
G37*
G36*
X1024311Y736617D02*
X1020138D01*
Y738270D01*
X1024311D01*
Y736617D01*
D02*
G37*
G36*
X1004862D02*
X1000689D01*
Y738270D01*
X1004862D01*
Y736617D01*
D02*
G37*
G36*
X1024311Y731617D02*
X1020138D01*
Y733270D01*
X1024311D01*
Y731617D01*
D02*
G37*
G36*
X1004862D02*
X1000689D01*
Y733270D01*
X1004862D01*
Y731617D01*
D02*
G37*
G36*
X1024547Y730395D02*
Y730200D01*
X1024409Y730061D01*
X1024213D01*
X1024075Y730200D01*
Y730395D01*
X1024213Y730534D01*
X1024409D01*
X1024547Y730395D01*
D02*
G37*
G36*
X1273484Y927032D02*
X1271516D01*
Y930968D01*
X1273484D01*
Y927032D01*
D02*
G37*
G36*
Y907032D02*
X1271516D01*
Y910968D01*
X1273484D01*
Y907032D01*
D02*
G37*
G36*
X1288878Y899098D02*
Y898902D01*
X1288740Y898764D01*
X1288544D01*
X1288406Y898902D01*
Y899098D01*
X1288544Y899236D01*
X1288740D01*
X1288878Y899098D01*
D02*
G37*
G36*
X1273484Y887031D02*
X1271516D01*
Y890969D01*
X1273484D01*
Y887031D01*
D02*
G37*
G36*
Y867031D02*
X1271516D01*
Y870969D01*
X1273484D01*
Y867031D01*
D02*
G37*
G36*
X1288878Y859098D02*
Y858902D01*
X1288740Y858764D01*
X1288544D01*
X1288406Y858902D01*
Y859098D01*
X1288544Y859236D01*
X1288740D01*
X1288878Y859098D01*
D02*
G37*
G36*
X1257850Y838740D02*
X1248953D01*
Y838740D01*
X1243047D01*
Y841260D01*
X1248913D01*
Y841260D01*
X1257850D01*
Y838740D01*
D02*
G37*
G36*
X1257850Y828740D02*
X1248953Y828740D01*
Y828740D01*
X1243047D01*
Y831260D01*
X1248913D01*
Y831260D01*
X1257850D01*
Y828740D01*
D02*
G37*
G36*
X1257850Y818740D02*
X1248953Y818740D01*
Y818740D01*
X1243047D01*
Y821260D01*
X1248913D01*
Y821260D01*
X1257850D01*
Y818740D01*
D02*
G37*
G36*
X1121990Y820449D02*
X1124207D01*
Y819667D01*
X1121990D01*
Y818493D01*
X1121208D01*
Y819667D01*
X1118991D01*
Y820449D01*
X1121208D01*
Y821623D01*
X1121990D01*
Y820449D01*
D02*
G37*
G36*
X1257850Y808740D02*
X1248953Y808740D01*
Y808740D01*
X1243047D01*
Y811260D01*
X1248913D01*
Y811260D01*
X1257850D01*
Y808740D01*
D02*
G37*
G36*
X1121990Y802322D02*
X1121208D01*
Y805452D01*
X1121990D01*
Y802322D01*
D02*
G37*
G36*
X1257850Y798740D02*
X1248953Y798740D01*
Y798740D01*
X1243047D01*
Y801260D01*
X1248913D01*
Y801260D01*
X1257850D01*
Y798740D01*
D02*
G37*
G36*
Y788740D02*
X1248953D01*
Y788740D01*
X1243047D01*
Y791260D01*
X1248913D01*
Y791260D01*
X1257850D01*
Y788740D01*
D02*
G37*
G36*
Y778740D02*
X1248953Y778740D01*
Y778740D01*
X1243047D01*
Y781260D01*
X1248913D01*
Y781260D01*
X1257850D01*
Y778740D01*
D02*
G37*
G36*
X1108390Y777524D02*
Y776638D01*
X1106736D01*
Y777524D01*
Y780811D01*
X1108390D01*
Y777524D01*
D02*
G37*
G36*
X1103390D02*
Y776638D01*
X1101736D01*
Y777524D01*
Y780811D01*
X1103390D01*
Y777524D01*
D02*
G37*
G36*
X1098390D02*
Y776638D01*
X1096736D01*
Y777524D01*
Y780811D01*
X1098390D01*
Y777524D01*
D02*
G37*
G36*
X1093390D02*
Y776638D01*
X1091736D01*
Y777524D01*
Y780811D01*
X1093390D01*
Y777524D01*
D02*
G37*
G36*
X1086327Y777109D02*
Y776223D01*
X1084673D01*
Y777109D01*
Y780396D01*
X1086327D01*
Y777109D01*
D02*
G37*
G36*
X1081327D02*
Y776223D01*
X1079673D01*
Y777109D01*
Y780396D01*
X1081327D01*
Y777109D01*
D02*
G37*
G36*
X1076327D02*
Y776223D01*
X1074673D01*
Y777109D01*
Y780396D01*
X1076327D01*
Y777109D01*
D02*
G37*
G36*
X1071327D02*
Y776223D01*
X1069673D01*
Y777109D01*
Y780396D01*
X1071327D01*
Y777109D01*
D02*
G37*
G36*
X1113447Y775003D02*
Y774905D01*
Y774808D01*
X1113309Y774669D01*
X1113113D01*
X1112975Y774808D01*
Y774905D01*
Y775003D01*
X1113113Y775141D01*
X1113309D01*
X1113447Y775003D01*
D02*
G37*
G36*
X1291736Y774311D02*
Y774115D01*
X1291598Y773977D01*
X1291402D01*
X1291264Y774115D01*
Y774311D01*
X1291402Y774449D01*
X1291598D01*
X1291736Y774311D01*
D02*
G37*
G36*
X1115613Y772002D02*
X1113211D01*
Y773478D01*
X1115613D01*
Y772002D01*
D02*
G37*
G36*
X1124432Y768262D02*
X1122030D01*
Y769738D01*
X1124432D01*
Y768262D01*
D02*
G37*
G36*
X1115613Y764522D02*
X1113211D01*
Y765998D01*
X1115613D01*
Y764522D01*
D02*
G37*
G36*
X1108390Y760437D02*
Y757189D01*
X1106736D01*
Y760437D01*
Y761362D01*
X1108390D01*
Y760437D01*
D02*
G37*
G36*
X1103390D02*
Y757189D01*
X1101736D01*
Y760437D01*
Y761362D01*
X1103390D01*
Y760437D01*
D02*
G37*
G36*
X1098390D02*
Y757189D01*
X1096736D01*
Y760437D01*
Y761362D01*
X1098390D01*
Y760437D01*
D02*
G37*
G36*
X1093390D02*
Y757189D01*
X1091736D01*
Y760437D01*
Y761362D01*
X1093390D01*
Y760437D01*
D02*
G37*
G36*
X1090653Y757287D02*
Y757189D01*
Y757091D01*
X1090515Y756953D01*
X1090319D01*
X1090181Y757091D01*
Y757189D01*
Y757287D01*
X1090319Y757425D01*
X1090515D01*
X1090653Y757287D01*
D02*
G37*
G36*
X1086327Y760022D02*
Y756774D01*
X1084673D01*
Y760022D01*
Y760947D01*
X1086327D01*
Y760022D01*
D02*
G37*
G36*
X1081327D02*
Y756774D01*
X1079673D01*
Y760022D01*
Y760947D01*
X1081327D01*
Y760022D01*
D02*
G37*
G36*
X1076327D02*
Y756774D01*
X1074673D01*
Y760022D01*
Y760947D01*
X1076327D01*
Y760022D01*
D02*
G37*
G36*
X1071327D02*
Y756774D01*
X1069673D01*
Y760022D01*
Y760947D01*
X1071327D01*
Y760022D01*
D02*
G37*
D16*
X1215000Y686350D02*
Y716350D01*
X1237000D01*
Y686350D02*
Y716350D01*
X1215000Y686350D02*
X1237000D01*
D104*
X943272Y733644D02*
Y746243D01*
X957272Y733644D02*
Y746243D01*
X943272D02*
X957272D01*
X943272Y733644D02*
X957272D01*
X1172031Y928122D02*
X1175968D01*
X1174000Y926153D02*
Y930091D01*
X1029031Y928122D02*
X1032969D01*
X1031000Y926153D02*
Y930091D01*
X1191269Y1018413D02*
Y1022350D01*
X1189301Y1020382D02*
X1193238D01*
X1013736Y1018413D02*
Y1022350D01*
X1011768Y1020382D02*
X1015705D01*
D105*
X1195696Y786919D02*
G03*
X1195696Y786919I-1378J0D01*
G01*
X968878Y691500D02*
G03*
X968878Y691500I-1378J0D01*
G01*
X1227378Y701350D02*
G03*
X1227378Y701350I-1378J0D01*
G01*
X1122000Y696294D02*
G03*
X1122000Y696294I-1378J0D01*
G01*
X1191568Y696294D02*
G03*
X1191568Y696294I-1378J0D01*
G01*
X1156784Y696294D02*
G03*
X1156784Y696294I-1378J0D01*
G01*
X951650Y739943D02*
G03*
X951650Y739943I-1378J0D01*
G01*
X1167583Y839482D02*
G03*
X1167583Y839482I-1378J0D01*
G01*
X1132356Y839481D02*
G03*
X1132356Y839481I-1378J0D01*
G01*
X1091180Y839482D02*
G03*
X1091180Y839482I-1378J0D01*
G01*
X1059723D02*
G03*
X1059723Y839482I-1378J0D01*
G01*
X962845Y839676D02*
G03*
X962845Y839676I-1378J0D01*
G01*
X1277378Y737500D02*
G03*
X1277378Y737500I-1378J0D01*
G01*
X1192350Y786919D02*
X1196287D01*
X1194318Y784950D02*
Y788887D01*
X967500Y689532D02*
Y693469D01*
X965532Y691500D02*
X969468D01*
X1226000Y699381D02*
Y703319D01*
X1224032Y701350D02*
X1227969D01*
X1120622Y694326D02*
Y698263D01*
X1118654Y696294D02*
X1122591D01*
X1188222Y696294D02*
X1192159D01*
X1190191Y694326D02*
Y698263D01*
X1153438Y696294D02*
X1157375D01*
X1155406Y694326D02*
Y698263D01*
X950272Y737975D02*
Y741912D01*
X948304Y739943D02*
X952240D01*
X1166205Y837513D02*
Y841450D01*
X1164237Y839482D02*
X1168174D01*
X1130978Y837513D02*
Y841450D01*
X1129009Y839481D02*
X1132946D01*
X1089802Y837513D02*
Y841450D01*
X1087833Y839482D02*
X1091770D01*
X1058345Y837513D02*
Y841450D01*
X1056376Y839482D02*
X1060313D01*
X961467Y837707D02*
Y841644D01*
X959498Y839676D02*
X963435D01*
X1276000Y735532D02*
Y739468D01*
X1274032Y737500D02*
X1277969D01*
X1163468Y942000D02*
X1184531D01*
Y914244D02*
Y942000D01*
X1163468Y914244D02*
X1184531D01*
X1163468D02*
Y942000D01*
X1020469D02*
X1041531D01*
Y914244D02*
Y942000D01*
X1020469Y914244D02*
X1041531D01*
X1020469D02*
Y942000D01*
X1205147Y1009850D02*
Y1030913D01*
X1177392Y1009850D02*
X1205147D01*
X1177392D02*
Y1030913D01*
X1205147D01*
X999858Y1009850D02*
Y1030913D01*
X1027614D01*
Y1009850D02*
Y1030913D01*
X999858Y1009850D02*
X1027614D01*
D106*
X1208707Y791500D02*
G03*
X1208707Y791500I-707J0D01*
G01*
X1208000Y790500D02*
Y792500D01*
X1207000Y791500D02*
X1209000D01*
D107*
X1257811Y774213D02*
X1291500D01*
Y845787D01*
X1257811D02*
X1291500D01*
X1257811Y845787D02*
X1257811Y845787D01*
X1257811Y774213D02*
Y845787D01*
X1020177Y730298D02*
Y749589D01*
X1004823D02*
X1020177D01*
X1004823Y730298D02*
Y749589D01*
Y730298D02*
X1020177D01*
X1012354Y820177D02*
X1031646D01*
X1012354Y804823D02*
Y820177D01*
Y804823D02*
X1031646D01*
Y820177D01*
X1090417Y761323D02*
X1109709D01*
Y776677D01*
X1090417D02*
X1109709D01*
X1090417Y761323D02*
Y776677D01*
X1068354Y760908D02*
X1087646D01*
Y776262D01*
X1068354D02*
X1087646D01*
X1068354Y760908D02*
Y776262D01*
X1046354Y761408D02*
X1065646D01*
Y776762D01*
X1046354D02*
X1065646D01*
X1046354Y761408D02*
Y776762D01*
X1115475Y774905D02*
X1122168D01*
Y763094D02*
Y774905D01*
X1115475Y763094D02*
X1122168D01*
X1115475D02*
Y774905D01*
X915858Y830561D02*
X948142D01*
X915858Y790561D02*
Y830561D01*
Y790561D02*
X948142D01*
Y830561D01*
X915858Y936500D02*
X948142D01*
X915858Y896500D02*
Y936500D01*
Y896500D02*
X948142D01*
Y936500D01*
X1256358Y899000D02*
X1288642D01*
Y939000D01*
X1256358D02*
X1288642D01*
X1256358Y899000D02*
Y939000D01*
X915858Y896500D02*
X948142D01*
X915858Y856500D02*
Y896500D01*
Y856500D02*
X948142D01*
Y896500D01*
X1256358Y859000D02*
X1288642D01*
Y899000D01*
X1256358D02*
X1288642D01*
X1256358Y859000D02*
Y899000D01*
M02*
