G04*
G04 #@! TF.GenerationSoftware,Altium Limited,Altium Designer,22.0.2 (36)*
G04*
G04 Layer_Physical_Order=3*
G04 Layer_Color=36540*
%FSLAX25Y25*%
%MOIN*%
G70*
G04*
G04 #@! TF.SameCoordinates,8DF314AF-FFA0-4F09-AA67-4057F65CF364*
G04*
G04*
G04 #@! TF.FilePolarity,Positive*
G04*
G01*
G75*
%ADD13C,0.01968*%
%ADD14C,0.01000*%
%ADD91C,0.00700*%
%ADD92C,0.02000*%
%ADD94C,0.05118*%
%ADD98C,0.08661*%
%ADD101C,0.02165*%
%ADD102C,0.01772*%
%ADD103C,0.02165*%
G36*
X1186459Y997500D02*
X1186652Y996528D01*
X1187203Y995703D01*
X1188028Y995152D01*
X1189000Y994959D01*
X1224959D01*
Y980500D01*
X1225152Y979528D01*
X1225703Y978703D01*
X1226528Y978152D01*
X1227500Y977959D01*
X1269482D01*
Y975750D01*
X1268750Y975018D01*
X1235172D01*
X1234391Y974915D01*
X1233663Y974614D01*
X1233038Y974134D01*
X1223366Y964462D01*
X1222886Y963837D01*
X1222585Y963109D01*
X1222482Y962328D01*
Y853000D01*
X1160018D01*
Y858250D01*
X1214634Y912866D01*
X1215114Y913491D01*
X1215415Y914219D01*
X1215518Y915000D01*
Y915078D01*
X1215831Y915620D01*
X1216075Y916529D01*
Y917471D01*
X1215831Y918380D01*
X1215361Y919195D01*
X1214695Y919860D01*
X1213880Y920331D01*
X1212971Y920575D01*
X1212029D01*
X1211120Y920331D01*
X1210305Y919860D01*
X1209639Y919195D01*
X1209169Y918380D01*
X1208925Y917471D01*
Y916529D01*
X1209102Y915870D01*
X1154866Y861634D01*
X1154386Y861009D01*
X1154085Y860281D01*
X1153982Y859500D01*
Y853000D01*
X1143018D01*
Y858250D01*
X1206134Y921366D01*
X1206614Y921991D01*
X1206915Y922719D01*
X1207018Y923500D01*
Y940000D01*
X1206915Y940781D01*
X1206614Y941509D01*
X1206134Y942134D01*
X1200018Y948250D01*
Y979500D01*
X1199915Y980281D01*
X1199614Y981009D01*
X1199134Y981634D01*
X1183195Y997573D01*
Y1001709D01*
X1183279Y1001758D01*
X1184219Y1002698D01*
X1184884Y1003850D01*
X1185229Y1005135D01*
Y1006465D01*
X1184884Y1007749D01*
X1184219Y1008901D01*
X1183279Y1009842D01*
X1182127Y1010507D01*
X1180842Y1010851D01*
X1179512D01*
X1178228Y1010507D01*
X1177076Y1009842D01*
X1176136Y1008901D01*
X1175471Y1007749D01*
X1175126Y1006465D01*
Y1005135D01*
X1175471Y1003850D01*
X1176136Y1002698D01*
X1177076Y1001758D01*
X1177160Y1001709D01*
Y996323D01*
X1177262Y995541D01*
X1177564Y994814D01*
X1178043Y994189D01*
X1193982Y978250D01*
Y947000D01*
X1194085Y946219D01*
X1194386Y945491D01*
X1194866Y944866D01*
X1200982Y938750D01*
Y924750D01*
X1194032Y917801D01*
X1193475Y917950D01*
X1193207Y918950D01*
X1192542Y920102D01*
X1191601Y921042D01*
X1190450Y921707D01*
X1189165Y922051D01*
X1187835D01*
X1186550Y921707D01*
X1185398Y921042D01*
X1184458Y920102D01*
X1183793Y918950D01*
X1183449Y917665D01*
Y916335D01*
X1183793Y915050D01*
X1184458Y913898D01*
X1185398Y912958D01*
X1186550Y912293D01*
X1187550Y912025D01*
X1187700Y911467D01*
X1137866Y861634D01*
X1137386Y861009D01*
X1137085Y860281D01*
X1136982Y859500D01*
Y853000D01*
X1131018D01*
Y861250D01*
X1165134Y895366D01*
X1165614Y895991D01*
X1165915Y896719D01*
X1166018Y897500D01*
Y922425D01*
X1177471D01*
X1178380Y922669D01*
X1179195Y923139D01*
X1179860Y923805D01*
X1180331Y924620D01*
X1180575Y925529D01*
Y926471D01*
X1180331Y927380D01*
Y931620D01*
X1180575Y932529D01*
Y933471D01*
X1180331Y934380D01*
Y938620D01*
X1180575Y939529D01*
Y940471D01*
X1180331Y941380D01*
Y941724D01*
X1178481Y943575D01*
X1176529D01*
X1173575Y946529D01*
Y983481D01*
X1171724Y985331D01*
X1171380D01*
X1170471Y985575D01*
X1169529D01*
X1168620Y985331D01*
X1166575Y987377D01*
Y1018623D01*
X1168620Y1020669D01*
X1169529Y1020425D01*
X1170471D01*
X1171380Y1020669D01*
X1175620D01*
X1176529Y1020425D01*
X1177471D01*
X1178380Y1020669D01*
X1178724D01*
X1180575Y1022519D01*
Y1032481D01*
X1178481Y1034575D01*
X1133519D01*
X1131425Y1032481D01*
Y1031471D01*
Y1024471D01*
Y1017471D01*
Y1010471D01*
Y1003471D01*
Y1001864D01*
X1131669Y1001620D01*
X1132139Y1000805D01*
X1132805Y1000140D01*
X1133620Y999669D01*
X1138669Y994620D01*
X1139139Y993805D01*
X1139805Y993139D01*
X1140620Y992669D01*
X1145669Y987620D01*
X1146140Y986805D01*
X1146805Y986139D01*
X1147620Y985669D01*
X1148042Y985246D01*
Y982575D01*
X1147101D01*
X1146192Y982331D01*
X1145650Y982018D01*
X1138500D01*
X1137719Y981915D01*
X1136991Y981614D01*
X1136366Y981134D01*
X1135000Y979768D01*
X1133634Y981134D01*
X1133009Y981614D01*
X1132281Y981915D01*
X1131500Y982018D01*
X1125350D01*
X1124808Y982331D01*
Y993027D01*
X1124195Y993639D01*
X1125575Y995019D01*
Y1025981D01*
X1123481Y1028075D01*
X1081519D01*
X1079425Y1025981D01*
Y1024971D01*
Y1017971D01*
Y1010971D01*
Y1003971D01*
Y996971D01*
Y989971D01*
Y982971D01*
Y975971D01*
Y968971D01*
Y961971D01*
Y954971D01*
Y947971D01*
Y940971D01*
Y936019D01*
X1084140Y931305D01*
X1084805Y930639D01*
X1091140Y924305D01*
X1092519Y922925D01*
X1109481D01*
X1118331Y931776D01*
Y932120D01*
X1118575Y933029D01*
Y933971D01*
X1118331Y934880D01*
Y939120D01*
X1118575Y940029D01*
Y940971D01*
X1118331Y941880D01*
Y946120D01*
X1118575Y947029D01*
Y947971D01*
X1118331Y948880D01*
Y953120D01*
X1118575Y954029D01*
Y954971D01*
X1118331Y955880D01*
Y960120D01*
X1118575Y961029D01*
Y961971D01*
X1118331Y962880D01*
Y967120D01*
X1118575Y968029D01*
Y968971D01*
X1118331Y969880D01*
X1123877Y975425D01*
X1123899D01*
X1124808Y975669D01*
X1125350Y975982D01*
X1130250D01*
X1130982Y975250D01*
Y924250D01*
X1103366Y896634D01*
X1102886Y896009D01*
X1102585Y895281D01*
X1102482Y894500D01*
Y853000D01*
X1084018D01*
Y913500D01*
X1083915Y914281D01*
X1083614Y915009D01*
X1083134Y915634D01*
X1081493Y917275D01*
X1081331Y917880D01*
X1080861Y918695D01*
X1080195Y919361D01*
X1079380Y919831D01*
X1078471Y920075D01*
X1077529D01*
X1076620Y919831D01*
X1075805Y919361D01*
X1075140Y918695D01*
X1074669Y917880D01*
X1074425Y916971D01*
Y916029D01*
X1074669Y915120D01*
X1075140Y914305D01*
X1075805Y913640D01*
X1076620Y913169D01*
X1077225Y913007D01*
X1077982Y912250D01*
Y853000D01*
X1070018D01*
Y854000D01*
X1070018Y1006500D01*
X1070018Y1006500D01*
X1069915Y1007281D01*
X1069614Y1008009D01*
X1069134Y1008634D01*
X1046755Y1031013D01*
X1046130Y1031492D01*
X1045403Y1031794D01*
X1044621Y1031897D01*
X1035830D01*
X1035782Y1031980D01*
X1034841Y1032921D01*
X1033689Y1033586D01*
X1032405Y1033930D01*
X1031075D01*
X1029790Y1033586D01*
X1028638Y1032921D01*
X1027698Y1031980D01*
X1027033Y1030828D01*
X1026688Y1029544D01*
Y1028214D01*
X1027033Y1026929D01*
X1027698Y1025777D01*
X1028638Y1024837D01*
X1029790Y1024172D01*
X1031075Y1023827D01*
X1032405D01*
X1033689Y1024172D01*
X1034841Y1024837D01*
X1035782Y1025777D01*
X1035830Y1025861D01*
X1043371D01*
X1063982Y1005250D01*
X1063982Y854000D01*
Y853000D01*
X1054518D01*
Y854500D01*
X1054415Y855281D01*
X1054114Y856009D01*
X1053634Y856634D01*
X1039518Y870750D01*
Y923425D01*
X1049981D01*
X1052075Y925519D01*
Y998481D01*
X1035981Y1014575D01*
X1027029D01*
X1022834Y1014518D01*
X1022478Y1014869D01*
Y1039000D01*
X1186459D01*
Y997500D01*
D02*
G37*
G36*
X1019937D02*
X977000D01*
Y981500D01*
X916500D01*
Y1009500D01*
X929500D01*
X930579Y1009535D01*
X932719Y1009817D01*
X934804Y1010376D01*
X936798Y1011201D01*
X938667Y1012281D01*
X940379Y1013595D01*
X941905Y1015121D01*
X943219Y1016833D01*
X944298Y1018702D01*
X945124Y1020696D01*
X945683Y1022781D01*
X945965Y1024921D01*
X946000Y1026000D01*
X946000Y1039000D01*
X1019937D01*
Y997500D01*
D02*
G37*
G36*
X1258500Y1026000D02*
X1258535Y1024921D01*
X1258817Y1022781D01*
X1259376Y1020696D01*
X1260202Y1018702D01*
X1261281Y1016833D01*
X1262595Y1015121D01*
X1264121Y1013595D01*
X1265833Y1012281D01*
X1267702Y1011202D01*
X1269696Y1010376D01*
X1271781Y1009817D01*
X1273921Y1009535D01*
X1275000Y1009500D01*
X1288000D01*
Y980500D01*
X1227500D01*
Y997500D01*
X1189000D01*
Y1039000D01*
X1258500D01*
Y1026000D01*
D02*
G37*
G36*
X928982Y976000D02*
X929085Y975219D01*
X929386Y974491D01*
X929866Y973866D01*
X931732Y972000D01*
X929866Y970134D01*
X929386Y969509D01*
X929085Y968781D01*
X928982Y968000D01*
Y964541D01*
X916500D01*
Y978959D01*
X928982D01*
Y976000D01*
D02*
G37*
G36*
X1288000Y964541D02*
X1275518D01*
Y967500D01*
X1275415Y968281D01*
X1275114Y969009D01*
X1274634Y969634D01*
X1273268Y971000D01*
X1274634Y972366D01*
X1275114Y972991D01*
X1275415Y973719D01*
X1275518Y974500D01*
Y977959D01*
X1288000D01*
Y964541D01*
D02*
G37*
G36*
Y901000D02*
X1238500D01*
Y960000D01*
X1240500Y962000D01*
X1288000Y962000D01*
Y901000D01*
D02*
G37*
G36*
X966000Y898500D02*
X916500D01*
Y962000D01*
X966000D01*
Y898500D01*
D02*
G37*
G36*
X1269482Y966250D02*
Y964541D01*
X1240500Y964541D01*
X1239528Y964347D01*
X1238703Y963797D01*
X1236703Y961797D01*
X1236152Y960972D01*
X1235959Y960000D01*
Y901000D01*
X1236152Y900028D01*
X1236703Y899203D01*
X1237528Y898652D01*
X1238500Y898459D01*
X1288000D01*
Y853000D01*
X1230518D01*
Y960250D01*
X1237250Y966982D01*
X1268750D01*
X1269482Y966250D01*
D02*
G37*
G36*
X1146192Y975669D02*
X1147101Y975425D01*
X1148042D01*
X1152425Y971043D01*
Y968471D01*
Y967529D01*
Y961471D01*
Y960529D01*
Y954471D01*
Y953529D01*
Y947471D01*
Y946529D01*
Y940471D01*
Y939529D01*
Y933471D01*
Y932529D01*
Y926471D01*
Y925529D01*
Y924519D01*
X1153139Y923805D01*
X1153805Y923139D01*
X1154519Y922425D01*
X1159982D01*
Y898750D01*
X1125866Y864634D01*
X1125386Y864009D01*
X1125085Y863281D01*
X1124982Y862500D01*
Y853000D01*
X1110518D01*
Y892422D01*
X1138134Y920038D01*
X1138614Y920663D01*
X1138915Y921391D01*
X1139018Y922172D01*
Y975250D01*
X1139750Y975982D01*
X1145650D01*
X1146192Y975669D01*
D02*
G37*
G36*
X1018997Y994497D02*
X1016925Y992425D01*
Y990471D01*
Y983471D01*
Y976471D01*
Y969471D01*
Y962471D01*
Y955471D01*
Y948471D01*
Y941471D01*
Y934471D01*
Y927471D01*
Y925864D01*
X1017169Y925620D01*
X1017640Y924805D01*
X1018305Y924139D01*
X1019120Y923669D01*
X1019364Y923425D01*
X1033482D01*
Y869500D01*
X1033585Y868719D01*
X1033886Y867991D01*
X1034366Y867366D01*
X1048232Y853500D01*
X1048025Y853000D01*
X983057D01*
Y962461D01*
X982954Y963242D01*
X982652Y963970D01*
X982173Y964595D01*
X971634Y975134D01*
X971009Y975614D01*
X970281Y975915D01*
X969500Y976018D01*
X936250D01*
X935018Y977250D01*
Y978959D01*
X977000D01*
X977972Y979152D01*
X978797Y979703D01*
X979348Y980528D01*
X979541Y981500D01*
Y994959D01*
X1018806D01*
X1018997Y994497D01*
D02*
G37*
G36*
X975021Y960383D02*
Y853000D01*
X916500D01*
Y895959D01*
X966000D01*
X966972Y896152D01*
X967797Y896703D01*
X968347Y897528D01*
X968541Y898500D01*
Y962000D01*
X968347Y962972D01*
X967797Y963797D01*
X966972Y964347D01*
X966000Y964541D01*
X935018D01*
Y966750D01*
X936250Y967982D01*
X967422D01*
X975021Y960383D01*
D02*
G37*
%LPC*%
G36*
X1208484Y994345D02*
X1207543D01*
X1206634Y994102D01*
X1205819Y993631D01*
X1205153Y992966D01*
X1204683Y992150D01*
X1204439Y991241D01*
Y990300D01*
X1204683Y989391D01*
X1205153Y988576D01*
X1205819Y987910D01*
X1206634Y987439D01*
X1207543Y987196D01*
X1208484D01*
X1209394Y987439D01*
X1210209Y987910D01*
X1210874Y988576D01*
X1211345Y989391D01*
X1211589Y990300D01*
Y991241D01*
X1211345Y992150D01*
X1210874Y992966D01*
X1210209Y993631D01*
X1209394Y994102D01*
X1208484Y994345D01*
D02*
G37*
G36*
Y984471D02*
X1207543D01*
X1206634Y984227D01*
X1205819Y983757D01*
X1205153Y983091D01*
X1204683Y982276D01*
X1204439Y981367D01*
Y980425D01*
X1204683Y979516D01*
X1205153Y978701D01*
X1205819Y978035D01*
X1206634Y977565D01*
X1207543Y977321D01*
X1208484D01*
X1209394Y977565D01*
X1210209Y978035D01*
X1210874Y978701D01*
X1211345Y979516D01*
X1211589Y980425D01*
Y981367D01*
X1211345Y982276D01*
X1210874Y983091D01*
X1210209Y983757D01*
X1209394Y984227D01*
X1208484Y984471D01*
D02*
G37*
G36*
Y974596D02*
X1207543D01*
X1206634Y974352D01*
X1205819Y973882D01*
X1205153Y973216D01*
X1204683Y972401D01*
X1204439Y971492D01*
Y970551D01*
X1204683Y969641D01*
X1205153Y968826D01*
X1205819Y968161D01*
X1206634Y967690D01*
X1207543Y967447D01*
X1208484D01*
X1209394Y967690D01*
X1210209Y968161D01*
X1210874Y968826D01*
X1211345Y969641D01*
X1211589Y970551D01*
Y971492D01*
X1211345Y972401D01*
X1210874Y973216D01*
X1210209Y973882D01*
X1209394Y974352D01*
X1208484Y974596D01*
D02*
G37*
G36*
X1046165Y921551D02*
X1044835D01*
X1043550Y921207D01*
X1042398Y920542D01*
X1041458Y919602D01*
X1040793Y918450D01*
X1040449Y917165D01*
Y915835D01*
X1040793Y914550D01*
X1041458Y913398D01*
X1042398Y912458D01*
X1043550Y911793D01*
X1044835Y911449D01*
X1046165D01*
X1047450Y911793D01*
X1048602Y912458D01*
X1049542Y913398D01*
X1050207Y914550D01*
X1050551Y915835D01*
Y917165D01*
X1050207Y918450D01*
X1049542Y919602D01*
X1048602Y920542D01*
X1047450Y921207D01*
X1046165Y921551D01*
D02*
G37*
G36*
X997332Y994345D02*
X996391D01*
X995482Y994102D01*
X994666Y993631D01*
X994001Y992966D01*
X993530Y992150D01*
X993287Y991241D01*
Y990300D01*
X993530Y989391D01*
X994001Y988576D01*
X994666Y987910D01*
X995482Y987439D01*
X996391Y987196D01*
X997332D01*
X998241Y987439D01*
X999056Y987910D01*
X999722Y988576D01*
X1000193Y989391D01*
X1000436Y990300D01*
Y991241D01*
X1000193Y992150D01*
X999722Y992966D01*
X999056Y993631D01*
X998241Y994102D01*
X997332Y994345D01*
D02*
G37*
%LPD*%
D13*
X1076000Y903000D02*
Y910000D01*
Y896000D02*
Y903000D01*
Y889000D02*
Y896000D01*
Y882000D02*
Y889000D01*
Y875000D02*
Y882000D01*
Y868000D02*
Y875000D01*
Y861000D02*
Y868000D01*
Y854500D02*
Y861000D01*
X1085784Y902875D02*
Y909875D01*
Y895875D02*
Y902875D01*
Y888875D02*
Y895875D01*
Y881875D02*
Y888875D01*
Y874875D02*
Y881875D01*
Y867875D02*
Y874875D01*
Y860875D02*
Y867875D01*
Y854375D02*
Y860875D01*
X962000Y977000D02*
X972500D01*
X985000Y964500D01*
X955500Y977000D02*
X962000D01*
X949000D02*
X955500D01*
X942500D02*
X949000D01*
X936000D02*
X942500D01*
D14*
X980039Y795961D02*
X980039Y962461D01*
X935000Y973000D02*
X969500D01*
X978039Y795133D02*
X978039Y961633D01*
X968672Y971000D02*
X978039Y961633D01*
X980039Y795961D02*
X1004500Y771500D01*
X969500Y973000D02*
X980039Y962461D01*
X978039Y795133D02*
X1003672Y769500D01*
X935000Y971000D02*
X968672D01*
X932000Y968000D02*
X935000Y971000D01*
X932000Y958949D02*
Y968000D01*
X1175500Y796000D02*
X1227500Y848000D01*
Y961500D01*
X1151500Y796000D02*
X1175500D01*
X1174475Y798475D02*
X1225500Y849500D01*
X1150475Y798475D02*
X1174475D01*
X1225500Y849500D02*
Y962328D01*
X1129831Y967979D02*
Y972979D01*
Y967881D02*
Y967979D01*
X1140161Y923305D02*
Y928805D01*
Y919668D02*
Y923305D01*
X1129831Y961979D02*
Y967881D01*
Y956479D02*
Y961979D01*
Y950979D02*
Y956479D01*
Y945479D02*
Y950979D01*
Y939979D02*
Y945479D01*
Y934479D02*
Y939979D01*
Y934164D02*
Y934479D01*
X1113000Y892500D02*
X1116500Y896000D01*
X1112917Y892417D02*
X1113000Y892500D01*
X1112500Y872500D02*
Y877500D01*
Y867000D02*
Y872500D01*
X955500Y966000D02*
X962000D01*
X949000D02*
X955500D01*
X942500D02*
X949000D01*
X1100500Y896000D02*
Y896250D01*
Y891000D02*
Y896000D01*
Y886000D02*
Y891000D01*
Y881000D02*
Y886000D01*
Y876000D02*
Y881000D01*
Y871000D02*
Y876000D01*
Y866000D02*
Y871000D01*
Y861000D02*
Y866000D01*
Y856000D02*
Y861000D01*
X1208000Y775000D02*
X1241000D01*
X1246000Y780000D01*
X1092500Y759500D02*
Y764500D01*
X1096000Y768000D01*
X1092500Y774000D02*
Y778000D01*
Y774000D02*
X1096025Y770475D01*
X1122475D01*
X1096000Y768000D02*
X1123500D01*
X1122475Y770475D02*
X1150475Y798475D01*
X1123500Y768000D02*
X1151500Y796000D01*
X1070500Y773000D02*
Y779500D01*
Y773000D02*
X1073500Y770000D01*
X1070500Y758000D02*
Y761500D01*
X1077000Y768000D01*
X1077000D02*
X1077000D01*
X1073500Y770000D02*
X1076171D01*
X1077000Y768000D02*
X1107500Y798500D01*
X1076171Y770000D02*
X1105500Y799328D01*
X1031000Y769500D02*
X1033500Y767000D01*
X1003672Y769500D02*
X1031000D01*
X1035000Y771500D02*
X1048500Y758000D01*
X1004500Y771500D02*
X1035000D01*
X931000Y740577D02*
Y747500D01*
Y740577D02*
X934095Y737482D01*
X1128000Y839500D02*
Y862500D01*
Y814624D02*
Y839500D01*
X1127981Y839482D02*
X1128000Y839500D01*
X1120861Y839482D02*
X1127981D01*
X1051500Y839500D02*
Y854500D01*
Y816500D02*
Y839500D01*
X1051426Y839574D02*
X1051500Y839500D01*
X1046316Y839574D02*
X1051426D01*
X1067000Y846000D02*
Y854000D01*
Y846000D02*
X1067000Y846000D01*
X1081000D02*
Y913500D01*
X1128000Y814624D02*
X1130978Y811646D01*
X1128000Y862500D02*
X1163000Y897500D01*
X1140000Y846500D02*
Y859500D01*
X1204000Y923500D01*
X1157000Y859500D02*
X1212500Y915000D01*
X1157000Y846500D02*
Y859500D01*
X1051500Y816500D02*
X1056500Y811500D01*
X1067000Y854000D02*
X1067000Y1006500D01*
X1044621Y1028879D02*
X1067000Y1006500D01*
X1036500Y869500D02*
X1051500Y854500D01*
X1113000Y856500D02*
Y859259D01*
X1112564Y859696D02*
X1113000Y859259D01*
X1112564Y859696D02*
Y862678D01*
X1163000Y897500D02*
Y926000D01*
X1036500Y869500D02*
Y925000D01*
X1034500Y927000D02*
X1036500Y925000D01*
X1119250Y915000D02*
X1122250Y918000D01*
X1122500D01*
X1129794Y925294D01*
Y929010D01*
X1119000Y915000D02*
X1119250D01*
X1107500Y798500D02*
Y893672D01*
X1105500Y799328D02*
Y894500D01*
X1139000Y918500D02*
Y918508D01*
X1140161Y967305D02*
Y972805D01*
Y939805D02*
Y945305D01*
Y950805D01*
Y956305D01*
Y961805D01*
Y934305D02*
Y939805D01*
Y961805D02*
Y967305D01*
X1139000Y918508D02*
X1140161Y919668D01*
Y928805D02*
Y934305D01*
X1134500Y914000D02*
X1139000Y918500D01*
X1129813Y934461D02*
X1129831Y934479D01*
X1129794Y929010D02*
X1129813Y929029D01*
X1129831Y967881D02*
X1129831Y967881D01*
X1129813Y929029D02*
Y934461D01*
X1114500Y910500D02*
X1119000Y915000D01*
X1216293Y911793D02*
X1217000Y912500D01*
X1214252Y910520D02*
X1215525Y911793D01*
X1216293D01*
X1213937Y910520D02*
X1214252D01*
X1217000Y912500D02*
Y921500D01*
X1208500Y924000D02*
X1208583Y923917D01*
X1214583D01*
X1217000Y921500D01*
X1031740Y1028879D02*
X1044621D01*
X1225500Y962328D02*
X1235172Y972000D01*
X1227500Y961500D02*
X1236000Y970000D01*
X1195003Y987962D02*
Y987997D01*
X1212500Y915000D02*
Y917000D01*
X937000Y966000D02*
X942500D01*
X1112532Y862709D02*
X1112564Y862678D01*
X1112532Y862709D02*
Y866968D01*
X1112500Y877500D02*
Y882500D01*
Y887500D02*
Y891685D01*
Y882500D02*
Y887500D01*
Y867000D02*
X1112532Y866968D01*
X1112500Y891685D02*
X1112917Y892102D01*
Y892417D01*
X1121000Y900500D02*
X1125500Y905000D01*
X1116500Y896000D02*
X1121000Y900500D01*
X1130000Y909500D02*
X1134500Y914000D01*
X1125500Y905000D02*
X1130000Y909500D01*
X1105500Y901250D02*
Y901500D01*
X1100500Y896250D02*
X1105500Y901250D01*
Y901500D02*
X1110000Y906000D01*
X1114500Y910500D01*
X1107500Y893672D02*
X1136000Y922172D01*
X1105500Y894500D02*
X1134000Y923000D01*
Y976500D01*
X1136000Y922172D02*
Y976500D01*
X1138500Y979000D02*
X1147572D01*
X1136000Y976500D02*
X1138500Y979000D01*
X1123428D02*
X1131500D01*
X1134000Y976500D01*
X1204000Y923500D02*
Y940000D01*
X1078000Y916500D02*
X1081000Y913500D01*
X1197000Y947000D02*
X1204000Y940000D01*
X1197000Y947000D02*
Y979500D01*
X1180177Y996323D02*
Y1005800D01*
Y996323D02*
X1197000Y979500D01*
X1236000Y970000D02*
X1270000D01*
X1235172Y972000D02*
X1270000D01*
Y970000D02*
X1272500Y967500D01*
X1270000Y972000D02*
X1272500Y974500D01*
Y958949D02*
Y967500D01*
Y974500D02*
Y983093D01*
X932000Y976000D02*
X935000Y973000D01*
X932000Y976000D02*
Y983093D01*
D91*
X1141000Y743000D02*
X1151500Y732500D01*
X1202500D01*
X1151254Y744000D02*
X1159605Y735650D01*
X1201195D01*
X1205000Y739454D01*
X1202500Y732500D02*
X1208150Y738150D01*
X1205000Y739454D02*
Y748051D01*
X1208150Y738150D02*
Y748051D01*
X1019780Y808720D02*
Y841469D01*
Y808720D02*
X1048500Y780000D01*
X1022406Y782000D02*
X1035500D01*
X1019679Y784727D02*
X1022406Y782000D01*
X1063000Y754500D02*
X1087500D01*
X1035500Y782000D02*
X1063000Y754500D01*
X1087500D02*
X1092500Y759500D01*
X1129439Y678972D02*
X1135967Y685500D01*
X1180096D01*
X1164223Y678972D02*
X1175972D01*
X1199007Y679457D02*
Y699603D01*
X1217849Y718445D01*
X1180096Y685500D02*
X1214449Y719853D01*
X1175972Y678972D02*
X1216149Y719149D01*
X1214449Y719853D02*
Y754350D01*
X1216149Y719149D02*
Y751149D01*
X1217849Y718445D02*
Y748349D01*
X1223000Y753500D01*
X1216149Y751149D02*
X1223000Y758000D01*
X1232300Y712000D02*
Y718800D01*
X1234200Y720700D01*
X1226000Y712000D02*
Y716000D01*
X1232500Y722500D01*
X1219700Y712000D02*
X1219769Y712069D01*
Y713269D01*
X1230800Y724300D01*
X1234200Y720700D02*
Y755204D01*
X1230800Y724300D02*
Y753796D01*
X1232500Y722500D02*
Y754500D01*
X1230400Y759004D02*
X1234200Y755204D01*
X1227000Y757596D02*
X1230800Y753796D01*
X1228700Y758300D02*
X1232500Y754500D01*
X1227000Y757596D02*
Y760500D01*
X1228700Y758300D02*
Y762300D01*
X1226500Y767000D02*
X1230400Y763100D01*
X1225500Y762000D02*
X1227000Y760500D01*
X1230400Y759004D02*
Y763100D01*
X1226000Y765000D02*
X1228700Y762300D01*
X1223000Y762000D02*
X1225500D01*
X1221500Y765000D02*
X1226000D01*
X1220000Y767000D02*
X1226500D01*
X1217000Y764000D02*
X1220000Y767000D01*
X1217150Y760650D02*
X1221500Y765000D01*
X1213000Y764000D02*
X1217000D01*
X1214449Y760650D02*
X1217150D01*
X1211500Y762500D02*
X1213000Y764000D01*
X1211500Y759000D02*
Y762500D01*
Y759000D02*
X1213000Y757500D01*
X1217598D01*
X1223500Y802500D02*
X1228782D01*
X1232000Y805718D01*
X1189551Y748051D02*
X1192402D01*
X1184000Y742500D02*
X1189551Y748051D01*
X1182500Y738500D02*
X1195449D01*
X1198701Y741752D01*
X1155500Y783412D02*
X1174119D01*
X1190339Y759563D02*
X1192402Y757500D01*
X1180050Y759563D02*
X1190339D01*
X1195551Y754350D02*
Y759947D01*
X1180050Y775449D02*
X1195551Y759947D01*
X1180050Y783412D02*
X1182088D01*
X1198701Y754350D02*
Y766799D01*
X1182088Y783412D02*
X1198701Y766799D01*
X1180050Y759563D02*
X1180144Y759469D01*
X1205000Y751201D02*
X1205100Y751100D01*
X1227900D02*
X1228000Y751000D01*
X1201816Y748017D02*
X1201850Y748051D01*
D92*
X985000Y938000D02*
Y964500D01*
Y868000D02*
Y875000D01*
Y861500D02*
Y868000D01*
Y854500D02*
Y861500D01*
Y931000D02*
Y938000D01*
Y917000D02*
Y924000D01*
Y931000D01*
Y896000D02*
Y903000D01*
Y910000D02*
Y917000D01*
Y903000D02*
Y910000D01*
Y882000D02*
Y889000D01*
Y875000D02*
Y882000D01*
Y889000D02*
Y896000D01*
D94*
X972500Y1029500D02*
D03*
X1239000Y1030000D02*
D03*
X953000Y942500D02*
D03*
X1095000Y882500D02*
D03*
X1155500Y783412D02*
D03*
X1120861Y839482D02*
D03*
X1046316Y839574D02*
D03*
X1253000Y950000D02*
D03*
X1180177Y1005800D02*
D03*
X1031740Y1028879D02*
D03*
D98*
X932000Y906500D02*
D03*
Y926500D02*
D03*
X1272500Y929000D02*
D03*
Y909000D02*
D03*
X932000Y866500D02*
D03*
Y886500D02*
D03*
X1272500Y889000D02*
D03*
Y869000D02*
D03*
D101*
X1151254Y744000D02*
D03*
X1246000Y780000D02*
D03*
X1019780Y841469D02*
D03*
X1019679Y784727D02*
D03*
X1092500Y759500D02*
D03*
Y778000D02*
D03*
X1070500Y758000D02*
D03*
Y779500D02*
D03*
X1033500Y767000D02*
D03*
X1048500Y758000D02*
D03*
Y780000D02*
D03*
X1199007Y679457D02*
D03*
X1164223Y678972D02*
D03*
X1129439D02*
D03*
X934095Y737482D02*
D03*
X931000Y747500D02*
D03*
X1067000Y846000D02*
D03*
X1081000D02*
D03*
X1157000Y846500D02*
D03*
X1140000D02*
D03*
X1130978Y811646D02*
D03*
X1152000Y854500D02*
D03*
X1134000Y855000D02*
D03*
X1162000Y854500D02*
D03*
Y858500D02*
D03*
X1144500Y854500D02*
D03*
X1056468Y811646D02*
D03*
X1056500Y857000D02*
D03*
X1051500Y861000D02*
D03*
Y868000D02*
D03*
X1045500Y867500D02*
D03*
X1038500Y861000D02*
D03*
X1058500Y909000D02*
D03*
X1058000Y902500D02*
D03*
Y895500D02*
D03*
Y889000D02*
D03*
X1057500Y882000D02*
D03*
Y875000D02*
D03*
X1058000Y868000D02*
D03*
X1040500Y908500D02*
D03*
Y903000D02*
D03*
Y895500D02*
D03*
Y889000D02*
D03*
Y882000D02*
D03*
Y875000D02*
D03*
X1113000Y856500D02*
D03*
X1117000Y860000D02*
D03*
X1168216Y895216D02*
D03*
X1164439Y891439D02*
D03*
X1160662Y887662D02*
D03*
X1149331Y876331D02*
D03*
X1134223Y861223D02*
D03*
X1153108Y880108D02*
D03*
X1141777Y868777D02*
D03*
X1138000Y865000D02*
D03*
X1156885Y883885D02*
D03*
X1145554Y872554D02*
D03*
X1157000Y898500D02*
D03*
X1149500Y892000D02*
D03*
X1143000Y884500D02*
D03*
X1136000Y877000D02*
D03*
X1129000Y870000D02*
D03*
X1121000Y862500D02*
D03*
X1167000Y902500D02*
D03*
Y910000D02*
D03*
X1123500Y868000D02*
D03*
Y875000D02*
D03*
X1130500Y882000D02*
D03*
X1144500Y889000D02*
D03*
X1137500D02*
D03*
X1144500Y896000D02*
D03*
X1151500Y903000D02*
D03*
X1158500Y910000D02*
D03*
Y903000D02*
D03*
X1122500Y918000D02*
D03*
X1071000Y1002000D02*
D03*
X1140161Y934305D02*
D03*
Y939805D02*
D03*
Y928805D02*
D03*
Y956305D02*
D03*
Y945305D02*
D03*
Y950805D02*
D03*
Y967305D02*
D03*
Y972805D02*
D03*
Y923305D02*
D03*
Y961805D02*
D03*
X1129831Y956479D02*
D03*
Y967979D02*
D03*
Y945479D02*
D03*
Y950979D02*
D03*
Y961979D02*
D03*
Y939979D02*
D03*
Y934479D02*
D03*
Y972979D02*
D03*
X1129794Y929010D02*
D03*
X1206437Y903020D02*
D03*
X1213937Y910520D02*
D03*
X1183775Y880358D02*
D03*
X1187552Y884135D02*
D03*
X1176221Y872804D02*
D03*
X1179998Y876581D02*
D03*
X1210214Y906797D02*
D03*
X1191329Y887912D02*
D03*
X1168667Y865250D02*
D03*
X1164890Y861473D02*
D03*
X1202660Y899243D02*
D03*
X1195106Y891689D02*
D03*
X1172444Y869027D02*
D03*
X1198883Y895466D02*
D03*
X1184961Y910324D02*
D03*
X1177407Y902770D02*
D03*
X1173630Y898993D02*
D03*
X1181184Y906547D02*
D03*
X1208500Y924000D02*
D03*
X1208156Y938348D02*
D03*
Y931347D02*
D03*
X1201089Y966307D02*
D03*
Y960807D02*
D03*
Y950807D02*
D03*
Y971307D02*
D03*
Y955807D02*
D03*
X1201089Y977139D02*
D03*
X1200091Y982341D02*
D03*
X1196517Y985888D02*
D03*
X1189500Y993000D02*
D03*
X1193000Y989000D02*
D03*
X1190500Y980000D02*
D03*
X1186000Y984500D02*
D03*
X1181000Y989000D02*
D03*
X1071147Y919869D02*
D03*
X1059000Y1008500D02*
D03*
X1062751Y1004843D02*
D03*
X1062837Y998378D02*
D03*
Y932878D02*
D03*
Y926379D02*
D03*
Y991378D02*
D03*
Y965378D02*
D03*
Y958879D02*
D03*
Y945879D02*
D03*
Y939379D02*
D03*
Y919878D02*
D03*
Y984879D02*
D03*
Y913379D02*
D03*
Y971879D02*
D03*
Y978378D02*
D03*
Y952378D02*
D03*
X1071000Y925500D02*
D03*
Y939000D02*
D03*
Y945500D02*
D03*
Y932500D02*
D03*
X1070948Y952554D02*
D03*
X1071000Y959000D02*
D03*
Y965500D02*
D03*
Y972000D02*
D03*
Y978500D02*
D03*
Y985000D02*
D03*
Y991500D02*
D03*
Y997000D02*
D03*
Y1008000D02*
D03*
X1055500Y1012000D02*
D03*
X1052000Y1015500D02*
D03*
X1048500Y1018500D02*
D03*
X1045000Y1022000D02*
D03*
X1068500Y1011500D02*
D03*
X1065000Y1015000D02*
D03*
X1062000Y1018000D02*
D03*
X1058500Y1021500D02*
D03*
X1055000Y1024500D02*
D03*
X1051500Y1028000D02*
D03*
X1048500Y1031000D02*
D03*
X1232500Y854500D02*
D03*
Y882000D02*
D03*
Y889000D02*
D03*
Y917000D02*
D03*
Y868000D02*
D03*
Y861000D02*
D03*
Y875000D02*
D03*
Y896000D02*
D03*
Y903000D02*
D03*
Y924000D02*
D03*
Y931000D02*
D03*
Y910000D02*
D03*
X1232000Y938500D02*
D03*
X1267500Y966000D02*
D03*
X1243500D02*
D03*
X1249500D02*
D03*
X1256000D02*
D03*
X1262500D02*
D03*
X1243000Y976500D02*
D03*
X1250000D02*
D03*
X1256000D02*
D03*
X1262000D02*
D03*
X1267000D02*
D03*
X1220500Y917000D02*
D03*
Y910000D02*
D03*
Y938000D02*
D03*
Y924000D02*
D03*
Y882000D02*
D03*
Y889000D02*
D03*
Y896000D02*
D03*
Y903000D02*
D03*
Y875000D02*
D03*
Y931000D02*
D03*
Y854000D02*
D03*
Y861000D02*
D03*
Y868000D02*
D03*
X1200000Y910500D02*
D03*
X1147122Y858122D02*
D03*
X1181115Y892115D02*
D03*
X1173561Y884561D02*
D03*
X1169784Y880784D02*
D03*
X1196223Y907223D02*
D03*
X1184892Y895892D02*
D03*
X1166007Y877007D02*
D03*
X1158453Y869453D02*
D03*
X1192446Y903446D02*
D03*
X1162230Y873230D02*
D03*
X1150899Y861899D02*
D03*
X1154676Y865676D02*
D03*
X1177338Y888338D02*
D03*
X1188669Y899669D02*
D03*
X1071726Y867627D02*
D03*
Y893627D02*
D03*
Y861127D02*
D03*
Y854627D02*
D03*
Y900127D02*
D03*
Y887127D02*
D03*
Y880627D02*
D03*
Y874127D02*
D03*
X1072000Y905000D02*
D03*
Y910500D02*
D03*
X1199000Y926000D02*
D03*
Y931000D02*
D03*
Y937000D02*
D03*
X1195500Y941000D02*
D03*
X1192000Y944500D02*
D03*
Y949500D02*
D03*
Y954000D02*
D03*
Y959000D02*
D03*
Y964500D02*
D03*
Y969500D02*
D03*
Y975000D02*
D03*
X1138000Y989500D02*
D03*
X1131000D02*
D03*
X1135000Y985500D02*
D03*
X967500Y882000D02*
D03*
Y889000D02*
D03*
Y861000D02*
D03*
Y875000D02*
D03*
Y868000D02*
D03*
X955500Y966000D02*
D03*
X937000D02*
D03*
X942500D02*
D03*
X949000D02*
D03*
X962000D02*
D03*
X973000Y854000D02*
D03*
Y896000D02*
D03*
Y924000D02*
D03*
Y882000D02*
D03*
Y889000D02*
D03*
Y910000D02*
D03*
Y917000D02*
D03*
Y875000D02*
D03*
Y938000D02*
D03*
Y931000D02*
D03*
Y861000D02*
D03*
Y868000D02*
D03*
Y903000D02*
D03*
X985000Y938000D02*
D03*
Y931000D02*
D03*
Y861500D02*
D03*
Y854500D02*
D03*
Y868000D02*
D03*
Y896000D02*
D03*
Y917000D02*
D03*
Y875000D02*
D03*
Y924000D02*
D03*
Y910000D02*
D03*
Y889000D02*
D03*
Y882000D02*
D03*
Y903000D02*
D03*
X1085784Y867875D02*
D03*
X1090284Y895875D02*
D03*
Y867875D02*
D03*
Y888875D02*
D03*
X1085784Y874875D02*
D03*
X1090284Y909875D02*
D03*
Y881875D02*
D03*
Y860875D02*
D03*
X1085784Y888875D02*
D03*
Y854375D02*
D03*
Y860875D02*
D03*
Y881875D02*
D03*
Y895875D02*
D03*
X1090284Y874875D02*
D03*
X1085784Y902875D02*
D03*
X1090284D02*
D03*
X1085784Y909875D02*
D03*
X1076000Y875000D02*
D03*
Y889000D02*
D03*
Y903000D02*
D03*
Y910000D02*
D03*
Y896000D02*
D03*
Y861000D02*
D03*
Y882000D02*
D03*
Y854500D02*
D03*
Y868000D02*
D03*
X1062000Y855000D02*
D03*
Y874500D02*
D03*
Y900500D02*
D03*
Y881000D02*
D03*
Y861500D02*
D03*
Y907000D02*
D03*
Y887500D02*
D03*
Y868000D02*
D03*
Y894000D02*
D03*
X1112500Y867000D02*
D03*
Y877500D02*
D03*
Y887500D02*
D03*
Y872500D02*
D03*
Y882500D02*
D03*
X1112564Y862678D02*
D03*
X1125500Y905000D02*
D03*
X1134500Y914000D02*
D03*
X1116500Y896000D02*
D03*
X1113000Y892500D02*
D03*
X1139000Y918500D02*
D03*
X1130000Y909500D02*
D03*
X1121000Y900500D02*
D03*
X1100500Y861000D02*
D03*
Y886000D02*
D03*
Y891000D02*
D03*
Y896000D02*
D03*
Y871000D02*
D03*
Y866000D02*
D03*
Y856000D02*
D03*
Y881000D02*
D03*
Y876000D02*
D03*
X1107500Y910000D02*
D03*
X1100500Y903000D02*
D03*
X1119000Y915000D02*
D03*
X1110000Y906000D02*
D03*
X1105500Y901500D02*
D03*
X1114500Y910500D02*
D03*
X1284500Y968000D02*
D03*
Y974000D02*
D03*
X1280500Y971000D02*
D03*
X920000Y969000D02*
D03*
Y974500D02*
D03*
X925500Y972000D02*
D03*
X1214500Y903000D02*
D03*
Y896000D02*
D03*
X1207500D02*
D03*
X1053500Y909500D02*
D03*
X1046500D02*
D03*
X1032500D02*
D03*
X1025500D02*
D03*
X1018500D02*
D03*
X1011500D02*
D03*
X1217000Y921500D02*
D03*
X1214500Y889000D02*
D03*
X1212500Y917000D02*
D03*
X1078000Y916500D02*
D03*
X1277500Y966000D02*
D03*
Y976500D02*
D03*
X1275500Y971000D02*
D03*
X931000Y972000D02*
D03*
X928500Y967000D02*
D03*
Y977000D02*
D03*
X962000D02*
D03*
X955500D02*
D03*
X949000D02*
D03*
X942500D02*
D03*
X936000D02*
D03*
X986235Y951405D02*
D03*
Y961246D02*
D03*
Y971088D02*
D03*
X1147572Y979000D02*
D03*
X1123428D02*
D03*
X1272500Y958949D02*
D03*
Y983093D02*
D03*
X932000Y958949D02*
D03*
Y983093D02*
D03*
X986235Y990771D02*
D03*
Y980929D02*
D03*
X1009401Y951272D02*
D03*
Y961147D02*
D03*
Y971021D02*
D03*
Y980896D02*
D03*
Y990771D02*
D03*
X1218507Y951272D02*
D03*
Y961147D02*
D03*
Y971021D02*
D03*
Y980896D02*
D03*
Y990771D02*
D03*
X1214500Y938000D02*
D03*
Y931000D02*
D03*
X1172500Y910000D02*
D03*
X1151500D02*
D03*
X1144500D02*
D03*
X1137500D02*
D03*
X1102500D02*
D03*
X1144500Y903000D02*
D03*
X1137500D02*
D03*
X1130500D02*
D03*
X1151500Y896000D02*
D03*
X1137500D02*
D03*
X1130500D02*
D03*
X1123500D02*
D03*
X1095500Y910000D02*
D03*
Y903000D02*
D03*
Y896000D02*
D03*
X1053500Y903000D02*
D03*
X1046500D02*
D03*
X1053500Y896000D02*
D03*
X1046500D02*
D03*
X1032500Y903000D02*
D03*
X1025500D02*
D03*
X1018500D02*
D03*
X1011500D02*
D03*
X1032500Y896000D02*
D03*
X1025500D02*
D03*
X1018500D02*
D03*
X1011500D02*
D03*
X1004500Y938000D02*
D03*
X997500D02*
D03*
X990500D02*
D03*
X1004500Y931000D02*
D03*
X997500D02*
D03*
X990500D02*
D03*
X1004500Y924000D02*
D03*
X997500D02*
D03*
X990500D02*
D03*
X1004500Y917000D02*
D03*
X997500D02*
D03*
X990500D02*
D03*
X1004500Y910000D02*
D03*
X997500D02*
D03*
X990500D02*
D03*
X1004500Y903000D02*
D03*
X997500D02*
D03*
X990500D02*
D03*
X1004500Y896000D02*
D03*
X997500D02*
D03*
X990500D02*
D03*
X1214500Y861000D02*
D03*
Y868000D02*
D03*
Y875000D02*
D03*
Y882000D02*
D03*
X1207500Y861000D02*
D03*
Y868000D02*
D03*
Y875000D02*
D03*
Y882000D02*
D03*
Y889000D02*
D03*
X1200500Y861000D02*
D03*
Y868000D02*
D03*
Y875000D02*
D03*
Y882000D02*
D03*
Y889000D02*
D03*
X1193500Y861000D02*
D03*
Y868000D02*
D03*
Y875000D02*
D03*
Y882000D02*
D03*
X1186500Y861000D02*
D03*
Y868000D02*
D03*
Y875000D02*
D03*
X1179500Y861000D02*
D03*
Y868000D02*
D03*
X1172500Y861000D02*
D03*
X1137500Y882000D02*
D03*
X1130500Y875000D02*
D03*
Y889000D02*
D03*
X1123500Y882000D02*
D03*
Y889000D02*
D03*
X1116500Y868000D02*
D03*
Y875000D02*
D03*
Y882000D02*
D03*
Y889000D02*
D03*
X1095500Y861000D02*
D03*
Y868000D02*
D03*
Y875000D02*
D03*
Y889000D02*
D03*
X1053500Y875000D02*
D03*
Y882000D02*
D03*
Y889000D02*
D03*
X1046500Y875000D02*
D03*
Y882000D02*
D03*
Y889000D02*
D03*
X1032500Y861000D02*
D03*
Y868000D02*
D03*
Y875000D02*
D03*
Y882000D02*
D03*
Y889000D02*
D03*
X1025500Y861000D02*
D03*
Y868000D02*
D03*
Y875000D02*
D03*
Y882000D02*
D03*
Y889000D02*
D03*
X1018500Y861000D02*
D03*
Y868000D02*
D03*
Y875000D02*
D03*
Y882000D02*
D03*
Y889000D02*
D03*
X1011500Y861000D02*
D03*
Y868000D02*
D03*
Y875000D02*
D03*
Y882000D02*
D03*
Y889000D02*
D03*
X1004500Y861000D02*
D03*
Y868000D02*
D03*
Y875000D02*
D03*
Y882000D02*
D03*
Y889000D02*
D03*
X997500Y861000D02*
D03*
Y868000D02*
D03*
Y875000D02*
D03*
Y882000D02*
D03*
Y889000D02*
D03*
X990500Y861000D02*
D03*
Y868000D02*
D03*
Y875000D02*
D03*
Y882000D02*
D03*
Y889000D02*
D03*
X1236000Y859000D02*
D03*
X1243000D02*
D03*
X1250000D02*
D03*
X1236000Y866000D02*
D03*
X1243000D02*
D03*
X1250000D02*
D03*
X1236000Y873000D02*
D03*
X1243000D02*
D03*
X1250000D02*
D03*
X1236000Y880000D02*
D03*
X1243000D02*
D03*
X1250000D02*
D03*
X1236000Y887000D02*
D03*
X1243000D02*
D03*
X1250000D02*
D03*
X1257000Y859000D02*
D03*
Y866000D02*
D03*
Y873000D02*
D03*
Y880000D02*
D03*
Y887000D02*
D03*
X1264000D02*
D03*
Y873000D02*
D03*
Y866000D02*
D03*
Y859000D02*
D03*
X1271000D02*
D03*
X1278000D02*
D03*
X1264000Y880000D02*
D03*
X1271000D02*
D03*
X1278000D02*
D03*
X1285000Y859000D02*
D03*
Y873000D02*
D03*
Y866000D02*
D03*
Y887000D02*
D03*
Y880000D02*
D03*
X962500Y861000D02*
D03*
Y868000D02*
D03*
Y875000D02*
D03*
Y882000D02*
D03*
Y889000D02*
D03*
X955500Y861000D02*
D03*
Y868000D02*
D03*
Y875000D02*
D03*
Y882000D02*
D03*
Y889000D02*
D03*
X948500D02*
D03*
Y882000D02*
D03*
Y861000D02*
D03*
Y868000D02*
D03*
X941500Y861000D02*
D03*
Y868000D02*
D03*
Y889000D02*
D03*
Y882000D02*
D03*
X948500Y875000D02*
D03*
X941500D02*
D03*
X934500D02*
D03*
X927500D02*
D03*
X920500Y861000D02*
D03*
Y868000D02*
D03*
Y875000D02*
D03*
Y889000D02*
D03*
Y882000D02*
D03*
X1163000Y926000D02*
D03*
X1034500Y927000D02*
D03*
X921500Y917500D02*
D03*
X928500D02*
D03*
X935500D02*
D03*
X942500D02*
D03*
X949500D02*
D03*
X990000Y1026000D02*
D03*
X983000D02*
D03*
X976000D02*
D03*
X983000Y1019000D02*
D03*
X990000D02*
D03*
X997000Y1026000D02*
D03*
X1004000D02*
D03*
X997000Y1019000D02*
D03*
X1004000D02*
D03*
Y1012000D02*
D03*
X997000D02*
D03*
X990000D02*
D03*
X983000D02*
D03*
X976000Y1019000D02*
D03*
Y1012000D02*
D03*
Y1005000D02*
D03*
X983000D02*
D03*
X990000D02*
D03*
X997000D02*
D03*
X1004000D02*
D03*
X1011000D02*
D03*
Y1012000D02*
D03*
Y1019000D02*
D03*
Y1026000D02*
D03*
Y1033000D02*
D03*
X1004000D02*
D03*
X997000D02*
D03*
X990000D02*
D03*
X983000D02*
D03*
X976000D02*
D03*
X969000D02*
D03*
Y1026000D02*
D03*
Y1019000D02*
D03*
Y1012000D02*
D03*
Y1005000D02*
D03*
Y998000D02*
D03*
X962000Y1012000D02*
D03*
Y1019000D02*
D03*
Y1026000D02*
D03*
Y1033000D02*
D03*
X955000D02*
D03*
Y1026000D02*
D03*
Y1019000D02*
D03*
Y1012000D02*
D03*
X948000D02*
D03*
X962000Y1005000D02*
D03*
X955000D02*
D03*
X962000Y998000D02*
D03*
Y991000D02*
D03*
Y984000D02*
D03*
X955000Y998000D02*
D03*
Y991000D02*
D03*
Y984000D02*
D03*
X948000D02*
D03*
Y1005000D02*
D03*
X941000D02*
D03*
X934000D02*
D03*
X948000Y998000D02*
D03*
X941000D02*
D03*
X934000D02*
D03*
X948000Y991000D02*
D03*
X941000D02*
D03*
X934000D02*
D03*
X927000D02*
D03*
Y998000D02*
D03*
Y1005000D02*
D03*
X920000D02*
D03*
Y998000D02*
D03*
Y991000D02*
D03*
Y984000D02*
D03*
X1228000Y1026000D02*
D03*
X1235000D02*
D03*
Y1019000D02*
D03*
X1228000D02*
D03*
X1221000Y1026000D02*
D03*
Y1019000D02*
D03*
X1214000Y1026000D02*
D03*
Y1019000D02*
D03*
X1207000Y1026000D02*
D03*
Y1019000D02*
D03*
X1200000Y1026000D02*
D03*
Y1019000D02*
D03*
Y1012000D02*
D03*
X1207000D02*
D03*
X1214000D02*
D03*
X1221000D02*
D03*
X1228000D02*
D03*
X1235000D02*
D03*
Y1005000D02*
D03*
X1228000D02*
D03*
X1221000D02*
D03*
X1214000D02*
D03*
X1207000D02*
D03*
X1200000D02*
D03*
X1193000Y1026000D02*
D03*
Y1033000D02*
D03*
X1200000D02*
D03*
X1207000D02*
D03*
X1214000D02*
D03*
X1221000D02*
D03*
X1228000D02*
D03*
X1235000D02*
D03*
X1242000D02*
D03*
Y1026000D02*
D03*
Y1019000D02*
D03*
Y1012000D02*
D03*
Y1005000D02*
D03*
Y998000D02*
D03*
X1249000D02*
D03*
X1256000D02*
D03*
X1263000D02*
D03*
Y984000D02*
D03*
X1256000D02*
D03*
X1249000D02*
D03*
X1242000D02*
D03*
Y991000D02*
D03*
X1249000D02*
D03*
X1256000D02*
D03*
X1263000D02*
D03*
X1270000D02*
D03*
Y998000D02*
D03*
X1277000Y991000D02*
D03*
Y998000D02*
D03*
X1263000Y1012000D02*
D03*
X1256000D02*
D03*
Y1019000D02*
D03*
Y1026000D02*
D03*
Y1033000D02*
D03*
X1249000D02*
D03*
Y1026000D02*
D03*
Y1019000D02*
D03*
Y1012000D02*
D03*
Y1005000D02*
D03*
X1256000D02*
D03*
X1263000D02*
D03*
X1270000D02*
D03*
X1277000D02*
D03*
X1284000D02*
D03*
Y998000D02*
D03*
Y991000D02*
D03*
Y984000D02*
D03*
X1277500Y904500D02*
D03*
X1270500Y918500D02*
D03*
X1277500D02*
D03*
X1284500Y904500D02*
D03*
Y911500D02*
D03*
Y918500D02*
D03*
Y925500D02*
D03*
Y932500D02*
D03*
Y939500D02*
D03*
X1277500D02*
D03*
X1284500Y946500D02*
D03*
X1277500D02*
D03*
X1284500Y953500D02*
D03*
X1277500D02*
D03*
X1270500D02*
D03*
Y946500D02*
D03*
Y939500D02*
D03*
X1263500D02*
D03*
Y946500D02*
D03*
Y953500D02*
D03*
X1256500D02*
D03*
Y946500D02*
D03*
Y939500D02*
D03*
X1249500D02*
D03*
Y946500D02*
D03*
Y953500D02*
D03*
X1242500D02*
D03*
Y946500D02*
D03*
Y939500D02*
D03*
X1263500Y932500D02*
D03*
X1256500D02*
D03*
X1249500D02*
D03*
X1242500D02*
D03*
Y925500D02*
D03*
X1249500D02*
D03*
X1256500D02*
D03*
X1263500D02*
D03*
Y918500D02*
D03*
X1256500D02*
D03*
X1249500D02*
D03*
X1242500D02*
D03*
Y911500D02*
D03*
X1249500D02*
D03*
X1256500D02*
D03*
X1263500D02*
D03*
Y904500D02*
D03*
X1256500D02*
D03*
X1242500D02*
D03*
X1249500D02*
D03*
X1231047Y990771D02*
D03*
X973695D02*
D03*
X921500Y959500D02*
D03*
X942500D02*
D03*
X963500D02*
D03*
X956500D02*
D03*
X949500D02*
D03*
X921500Y952500D02*
D03*
X928500D02*
D03*
X935500D02*
D03*
X942500D02*
D03*
X949500D02*
D03*
X956500D02*
D03*
X963500D02*
D03*
Y945500D02*
D03*
X956500D02*
D03*
X949500D02*
D03*
X942500D02*
D03*
X935500D02*
D03*
X928500D02*
D03*
X921500D02*
D03*
Y938500D02*
D03*
X928500D02*
D03*
X935500D02*
D03*
X963500D02*
D03*
X956500D02*
D03*
X949500D02*
D03*
X942500D02*
D03*
Y931500D02*
D03*
X949500D02*
D03*
X956500D02*
D03*
X963500D02*
D03*
Y924500D02*
D03*
X956500D02*
D03*
X949500D02*
D03*
X942500D02*
D03*
X963500Y903500D02*
D03*
X956500D02*
D03*
X949500D02*
D03*
X963500Y910500D02*
D03*
X956500D02*
D03*
X949500D02*
D03*
X942500Y903500D02*
D03*
Y910500D02*
D03*
X963500Y917500D02*
D03*
X956500D02*
D03*
X921500Y931500D02*
D03*
Y924500D02*
D03*
Y910500D02*
D03*
Y903500D02*
D03*
D102*
X1141000Y743000D02*
D03*
X1232300Y712000D02*
D03*
X1226000D02*
D03*
X1219700D02*
D03*
X1223000Y762000D02*
D03*
X1217598Y757500D02*
D03*
X1223000Y758000D02*
D03*
Y753500D02*
D03*
X1223500Y802500D02*
D03*
X1184000Y742500D02*
D03*
X1182500Y738500D02*
D03*
X1198701Y741752D02*
D03*
X1174119Y783412D02*
D03*
X1180050Y759563D02*
D03*
X1180050Y775449D02*
D03*
Y783412D02*
D03*
X1232000Y805718D02*
D03*
X1228000Y751000D02*
D03*
X1208000Y775000D02*
D03*
X1214449Y760650D02*
D03*
Y754350D02*
D03*
X1192402Y748051D02*
D03*
Y757500D02*
D03*
X1195551Y754350D02*
D03*
X1198701D02*
D03*
X1205000Y751201D02*
D03*
X1201850Y748051D02*
D03*
X1205000D02*
D03*
X1208150D02*
D03*
D103*
X1243000Y976500D02*
X1250000D01*
X1231500D02*
X1243000D01*
X1220500Y938000D02*
Y965500D01*
X1232000Y938500D02*
Y960500D01*
Y931500D02*
Y938500D01*
X1201089Y977139D02*
Y981343D01*
Y971307D02*
Y977139D01*
X1201089Y950807D02*
Y955807D01*
Y948713D02*
Y950807D01*
X1199000Y937000D02*
Y937500D01*
Y931000D02*
Y937000D01*
Y926000D02*
Y931000D01*
X1192000Y975000D02*
Y978500D01*
Y969500D02*
Y975000D01*
X1190500Y980000D02*
X1192000Y978500D01*
X1186000Y984500D02*
X1190500Y980000D01*
X1232500Y861000D02*
Y868000D01*
Y854500D02*
Y861000D01*
X1071000Y997000D02*
Y1002000D01*
Y991500D02*
Y997000D01*
Y939000D02*
Y945500D01*
Y932500D02*
Y939000D01*
Y925500D02*
Y932500D01*
Y959000D02*
Y965500D01*
Y952606D02*
Y959000D01*
X1062837Y998378D02*
Y998717D01*
Y991378D02*
Y998378D01*
Y984879D02*
Y991378D01*
Y978378D02*
Y984879D01*
Y971879D02*
Y978378D01*
Y965378D02*
Y971879D01*
Y958879D02*
Y965378D01*
Y952378D02*
Y958879D01*
Y945879D02*
Y952378D01*
Y939379D02*
Y945879D01*
Y932878D02*
Y939379D01*
Y926379D02*
Y932878D01*
Y919878D02*
Y926379D01*
Y913379D02*
Y919878D01*
Y907837D02*
Y913379D01*
X1071500Y911000D02*
Y925000D01*
X1071726Y893627D02*
Y900127D01*
Y887127D02*
Y893627D01*
Y880627D02*
Y887127D01*
Y874127D02*
Y880627D01*
Y867627D02*
Y874127D01*
Y861127D02*
Y867627D01*
Y854627D02*
Y861127D01*
X1071000Y1002000D02*
X1071897Y1002897D01*
Y1007103D01*
X1208156Y938348D02*
Y941646D01*
X1201089Y948713D02*
X1208156Y941646D01*
X1201089Y966307D02*
Y971307D01*
Y955807D02*
Y960807D01*
Y966307D01*
Y971307D02*
X1201089Y971307D01*
X1200091Y982341D02*
X1201089Y981343D01*
X1196517Y985888D02*
X1200064Y982341D01*
X1200091D01*
X1196517Y985888D02*
Y986447D01*
X1195003Y987962D02*
X1196517Y986447D01*
X1189500Y993000D02*
X1193000Y989500D01*
Y989000D02*
Y989500D01*
X1194000Y989000D02*
X1195003Y987997D01*
X1193000Y989000D02*
X1194000D01*
X1185500Y984500D02*
X1186000D01*
X1181000Y989000D02*
X1185500Y984500D01*
X1058500Y1008500D02*
X1059000D01*
X1056000Y1006000D02*
X1058500Y1008500D01*
X1060163Y1003885D02*
X1061794D01*
X1062751Y1004843D01*
X1058777Y1002777D02*
X1062837Y998717D01*
X1062000Y907000D02*
X1062837Y907837D01*
X1070948Y952554D02*
X1071000Y952606D01*
X1071500Y911000D02*
X1072000Y910500D01*
X1070948Y945552D02*
Y952554D01*
Y945552D02*
X1071000Y945500D01*
Y925500D02*
X1071500Y925000D01*
X1071000Y965500D02*
Y972000D01*
X1072000Y905000D02*
Y910500D01*
X1071000Y972000D02*
Y978500D01*
Y985000D01*
Y991500D01*
Y1008000D02*
X1071897Y1007103D01*
X1068500Y1011500D02*
X1071000Y1009000D01*
X1065000Y1015000D02*
X1068500Y1011500D01*
X1071000Y1008000D02*
Y1009000D01*
X1058555Y1003000D02*
X1059277D01*
X1060163Y1003885D01*
X1052715Y1008840D02*
X1055555Y1006000D01*
X1052715Y1009215D02*
X1055500Y1012000D01*
X1052715Y1008840D02*
Y1009215D01*
X1055555Y1006000D02*
X1056000D01*
X1050669Y1014169D02*
X1052000Y1015500D01*
X1046777Y1014777D02*
X1047385Y1014169D01*
X1050669D01*
X1045000Y1022000D02*
X1048500Y1018500D01*
X1062000Y1018000D02*
X1065000Y1015000D01*
X1058500Y1021500D02*
X1062000Y1018000D01*
X1055000Y1024500D02*
X1058000Y1021500D01*
X1051500Y1028000D02*
X1055000Y1024500D01*
X1058000Y1021500D02*
X1058500D01*
X1048500Y1031000D02*
X1051500Y1028000D01*
X1232500Y917000D02*
Y924000D01*
Y931000D01*
Y868000D02*
Y875000D01*
Y896000D02*
Y903000D01*
Y882000D02*
Y889000D01*
Y903000D02*
Y910000D01*
Y889000D02*
Y896000D01*
Y910000D02*
Y917000D01*
Y875000D02*
Y882000D01*
X1232000Y931500D02*
X1232500Y931000D01*
X1232000Y960500D02*
X1237500Y966000D01*
X1243500D01*
X1249500D01*
X1262500D02*
X1267500D01*
X1256000D02*
X1262500D01*
X1249500D02*
X1256000D01*
X1250000Y976500D02*
X1256000D01*
X1220500Y965500D02*
X1231500Y976500D01*
X1256000D02*
X1262000D01*
X1267000D01*
X1220500Y931000D02*
Y938000D01*
Y903000D02*
Y910000D01*
Y917000D01*
Y924000D02*
Y931000D01*
Y861000D02*
Y868000D01*
Y917000D02*
Y924000D01*
Y896000D02*
Y903000D01*
Y868000D02*
Y875000D01*
Y882000D02*
Y889000D01*
Y896000D01*
Y875000D02*
Y882000D01*
Y854000D02*
Y861000D01*
X1203000Y914000D02*
X1205500Y916500D01*
X1207000D01*
X1071669Y900183D02*
Y904669D01*
Y900183D02*
X1071726Y900127D01*
X1071669Y904669D02*
X1072000Y905000D01*
X1192000Y944500D02*
X1195500Y941000D01*
X1199000Y937500D01*
X1192000Y949500D02*
Y954000D01*
Y944500D02*
Y949500D01*
Y954000D02*
Y959000D01*
Y964500D01*
Y969500D01*
X1055777Y1005777D02*
X1058555Y1003000D01*
X1062000Y874500D02*
Y881000D01*
Y887500D01*
Y868000D02*
Y874500D01*
Y855000D02*
Y861500D01*
Y868000D01*
Y900500D02*
Y907000D01*
Y894000D02*
Y900500D01*
Y887500D02*
Y894000D01*
M02*
