G04*
G04 #@! TF.GenerationSoftware,Altium Limited,Altium Designer,22.0.2 (36)*
G04*
G04 Layer_Color=8421504*
%FSLAX25Y25*%
%MOIN*%
G70*
G04*
G04 #@! TF.SameCoordinates,8DF314AF-FFA0-4F09-AA67-4057F65CF364*
G04*
G04*
G04 #@! TF.FilePolarity,Positive*
G04*
G01*
G75*
%ADD18R,0.07874X0.03937*%
%ADD19O,0.08051X0.02315*%
%ADD20O,0.02315X0.08051*%
%ADD21R,0.02126X0.02227*%
%ADD22R,0.02126X0.03111*%
%ADD23R,0.04085X0.02095*%
%ADD24R,0.03111X0.02126*%
%ADD25C,0.01575*%
%ADD26R,0.05512X0.04724*%
%ADD27R,0.05118X0.01181*%
%ADD28R,0.08661X0.07087*%
%ADD29R,0.02227X0.02126*%
%ADD30R,0.03543X0.05906*%
%ADD31R,0.04724X0.05118*%
%ADD32R,0.05000X0.03500*%
%ADD33R,0.03175X0.03402*%
%ADD34O,0.03937X0.10630*%
%ADD35R,0.03937X0.10630*%
%ADD36R,0.03937X0.01772*%
%ADD37R,0.11024X0.03937*%
%ADD38R,0.06693X0.02362*%
G04:AMPARAMS|DCode=39|XSize=55mil|YSize=50mil|CornerRadius=0mil|HoleSize=0mil|Usage=FLASHONLY|Rotation=270.000|XOffset=0mil|YOffset=0mil|HoleType=Round|Shape=Octagon|*
%AMOCTAGOND39*
4,1,8,-0.01250,-0.02750,0.01250,-0.02750,0.02500,-0.01500,0.02500,0.01500,0.01250,0.02750,-0.01250,0.02750,-0.02500,0.01500,-0.02500,-0.01500,-0.01250,-0.02750,0.0*
%
%ADD39OCTAGOND39*%

%ADD40R,0.05000X0.05500*%
%ADD41R,0.03402X0.03175*%
%ADD42R,0.06272X0.08602*%
%ADD43R,0.08559X0.02292*%
G04:AMPARAMS|DCode=44|XSize=85.59mil|YSize=22.92mil|CornerRadius=11.46mil|HoleSize=0mil|Usage=FLASHONLY|Rotation=180.000|XOffset=0mil|YOffset=0mil|HoleType=Round|Shape=RoundedRectangle|*
%AMROUNDEDRECTD44*
21,1,0.08559,0.00000,0,0,180.0*
21,1,0.06267,0.02292,0,0,180.0*
1,1,0.02292,-0.03134,0.00000*
1,1,0.02292,0.03134,0.00000*
1,1,0.02292,0.03134,0.00000*
1,1,0.02292,-0.03134,0.00000*
%
%ADD44ROUNDEDRECTD44*%
%ADD45R,0.05500X0.05000*%
G04:AMPARAMS|DCode=46|XSize=55mil|YSize=50mil|CornerRadius=0mil|HoleSize=0mil|Usage=FLASHONLY|Rotation=0.000|XOffset=0mil|YOffset=0mil|HoleType=Round|Shape=Octagon|*
%AMOCTAGOND46*
4,1,8,0.02750,-0.01250,0.02750,0.01250,0.01500,0.02500,-0.01500,0.02500,-0.02750,0.01250,-0.02750,-0.01250,-0.01500,-0.02500,0.01500,-0.02500,0.02750,-0.01250,0.0*
%
%ADD46OCTAGOND46*%

%ADD47R,0.08465X0.12795*%
%ADD48R,0.08465X0.03740*%
%ADD49R,0.02559X0.04724*%
%ADD50R,0.04724X0.02559*%
%ADD51R,0.05847X0.06803*%
%ADD52R,0.05049X0.13606*%
%ADD53R,0.13606X0.05049*%
G36*
X1042519Y1029861D02*
Y1028050D01*
X1042362Y1027892D01*
X1040390D01*
X1040233Y1028050D01*
Y1029861D01*
X1040390Y1030018D01*
X1042362D01*
X1042519Y1029861D01*
D02*
G37*
G36*
X1039170D02*
Y1028050D01*
X1039013Y1027892D01*
X1037041D01*
X1036884Y1028050D01*
Y1029861D01*
X1037041Y1030018D01*
X1039013D01*
X1039170Y1029861D01*
D02*
G37*
G36*
X1181240Y1000425D02*
Y998454D01*
X1181083Y998296D01*
X1179272D01*
X1179114Y998454D01*
Y1000425D01*
X1179272Y1000582D01*
X1181083D01*
X1181240Y1000425D01*
D02*
G37*
G36*
Y997076D02*
Y995105D01*
X1181083Y994947D01*
X1179272D01*
X1179114Y995105D01*
Y997076D01*
X1179272Y997233D01*
X1181083D01*
X1181240Y997076D01*
D02*
G37*
G36*
X1233970Y993779D02*
Y987763D01*
X1233576Y987369D01*
X1228517D01*
X1228124Y987763D01*
Y989220D01*
X1228517Y989614D01*
X1229718D01*
X1230112Y990008D01*
Y991533D01*
X1229718Y991927D01*
X1228517D01*
X1228124Y992321D01*
Y993779D01*
X1228517Y994172D01*
X1233576D01*
X1233970Y993779D01*
D02*
G37*
G36*
X1221431D02*
Y992321D01*
X1221037Y991927D01*
X1219837D01*
X1219443Y991533D01*
Y990008D01*
X1219837Y989614D01*
X1221037D01*
X1221431Y989220D01*
Y987763D01*
X1221037Y987369D01*
X1215978D01*
X1215584Y987763D01*
Y993779D01*
X1215978Y994172D01*
X1221037D01*
X1221431Y993779D01*
D02*
G37*
G36*
X1210937D02*
Y987763D01*
X1210543Y987369D01*
X1205484D01*
X1205091Y987763D01*
Y989220D01*
X1205484Y989614D01*
X1206685D01*
X1207078Y990008D01*
Y991533D01*
X1206685Y991927D01*
X1205484D01*
X1205091Y992321D01*
Y993779D01*
X1205484Y994172D01*
X1210543D01*
X1210937Y993779D01*
D02*
G37*
G36*
X1198398D02*
Y992321D01*
X1198004Y991927D01*
X1196804D01*
X1196410Y991533D01*
Y990008D01*
X1196804Y989614D01*
X1198004D01*
X1198398Y989220D01*
Y987763D01*
X1198004Y987369D01*
X1192945D01*
X1192551Y987763D01*
Y993779D01*
X1192945Y994172D01*
X1198004D01*
X1198398Y993779D01*
D02*
G37*
G36*
X1012324D02*
Y987763D01*
X1011930Y987369D01*
X1006871D01*
X1006478Y987763D01*
Y989220D01*
X1006871Y989614D01*
X1008072D01*
X1008465Y990008D01*
Y991533D01*
X1008072Y991927D01*
X1006871D01*
X1006478Y992321D01*
Y993779D01*
X1006871Y994172D01*
X1011930D01*
X1012324Y993779D01*
D02*
G37*
G36*
X999785D02*
Y992321D01*
X999391Y991927D01*
X998190D01*
X997797Y991533D01*
Y990008D01*
X998190Y989614D01*
X999391D01*
X999785Y989220D01*
Y987763D01*
X999391Y987369D01*
X994332D01*
X993938Y987763D01*
Y993779D01*
X994332Y994172D01*
X999391D01*
X999785Y993779D01*
D02*
G37*
G36*
X989158D02*
Y987763D01*
X988764Y987369D01*
X983705D01*
X983312Y987763D01*
Y989220D01*
X983705Y989614D01*
X984906D01*
X985299Y990008D01*
Y991533D01*
X984906Y991927D01*
X983705D01*
X983312Y992321D01*
Y993779D01*
X983705Y994172D01*
X988764D01*
X989158Y993779D01*
D02*
G37*
G36*
X976619D02*
Y992321D01*
X976225Y991927D01*
X975025D01*
X974631Y991533D01*
Y990008D01*
X975025Y989614D01*
X976225D01*
X976619Y989220D01*
Y987763D01*
X976225Y987369D01*
X971166D01*
X970772Y987763D01*
Y993779D01*
X971166Y994172D01*
X976225D01*
X976619Y993779D01*
D02*
G37*
G36*
X1279303Y985224D02*
Y980962D01*
X1278909Y980569D01*
X1275207D01*
X1274813Y980962D01*
Y981892D01*
X1274419Y982285D01*
X1270581D01*
X1270187Y981892D01*
Y980962D01*
X1269793Y980569D01*
X1266091D01*
X1265697Y980962D01*
Y985224D01*
X1266091Y985618D01*
X1278909D01*
X1279303Y985224D01*
D02*
G37*
G36*
X938803D02*
Y980962D01*
X938409Y980569D01*
X934707D01*
X934313Y980962D01*
Y981892D01*
X933919Y982285D01*
X930081D01*
X929687Y981892D01*
Y980962D01*
X929293Y980569D01*
X925591D01*
X925197Y980962D01*
Y985224D01*
X925591Y985618D01*
X938409D01*
X938803Y985224D01*
D02*
G37*
G36*
X989158Y983937D02*
Y977921D01*
X988764Y977528D01*
X983705D01*
X983312Y977921D01*
Y979379D01*
X983705Y979773D01*
X984906D01*
X985299Y980166D01*
Y981692D01*
X984906Y982086D01*
X983705D01*
X983312Y982479D01*
Y983937D01*
X983705Y984331D01*
X988764D01*
X989158Y983937D01*
D02*
G37*
G36*
X976619D02*
Y982479D01*
X976225Y982086D01*
X975025D01*
X974631Y981692D01*
Y980166D01*
X975025Y979773D01*
X976225D01*
X976619Y979379D01*
Y977921D01*
X976225Y977528D01*
X971166D01*
X970772Y977921D01*
Y983937D01*
X971166Y984331D01*
X976225D01*
X976619Y983937D01*
D02*
G37*
G36*
X1233970Y983904D02*
Y977888D01*
X1233576Y977494D01*
X1228517D01*
X1228124Y977888D01*
Y979346D01*
X1228517Y979739D01*
X1229718D01*
X1230112Y980133D01*
Y981659D01*
X1229718Y982052D01*
X1228517D01*
X1228124Y982446D01*
Y983904D01*
X1228517Y984297D01*
X1233576D01*
X1233970Y983904D01*
D02*
G37*
G36*
X1221431D02*
Y982446D01*
X1221037Y982052D01*
X1219837D01*
X1219443Y981659D01*
Y980133D01*
X1219837Y979739D01*
X1221037D01*
X1221431Y979346D01*
Y977888D01*
X1221037Y977494D01*
X1215978D01*
X1215584Y977888D01*
Y983904D01*
X1215978Y984297D01*
X1221037D01*
X1221431Y983904D01*
D02*
G37*
G36*
X1210937D02*
Y977888D01*
X1210543Y977494D01*
X1205484D01*
X1205091Y977888D01*
Y979346D01*
X1205484Y979739D01*
X1206685D01*
X1207078Y980133D01*
Y981659D01*
X1206685Y982052D01*
X1205484D01*
X1205091Y982446D01*
Y983904D01*
X1205484Y984297D01*
X1210543D01*
X1210937Y983904D01*
D02*
G37*
G36*
X1198398D02*
Y982446D01*
X1198004Y982052D01*
X1196804D01*
X1196410Y981659D01*
Y980133D01*
X1196804Y979739D01*
X1198004D01*
X1198398Y979346D01*
Y977888D01*
X1198004Y977494D01*
X1192945D01*
X1192551Y977888D01*
Y983904D01*
X1192945Y984297D01*
X1198004D01*
X1198398Y983904D01*
D02*
G37*
G36*
X1012324D02*
Y977888D01*
X1011930Y977494D01*
X1006871D01*
X1006478Y977888D01*
Y979346D01*
X1006871Y979739D01*
X1008072D01*
X1008465Y980133D01*
Y981659D01*
X1008072Y982052D01*
X1006871D01*
X1006478Y982446D01*
Y983904D01*
X1006871Y984297D01*
X1011930D01*
X1012324Y983904D01*
D02*
G37*
G36*
X999785D02*
Y982446D01*
X999391Y982052D01*
X998190D01*
X997797Y981659D01*
Y980133D01*
X998190Y979739D01*
X999391D01*
X999785Y979346D01*
Y977888D01*
X999391Y977494D01*
X994332D01*
X993938Y977888D01*
Y983904D01*
X994332Y984297D01*
X999391D01*
X999785Y983904D01*
D02*
G37*
G36*
X1150097Y985409D02*
Y972591D01*
X1149703Y972197D01*
X1145441D01*
X1145047Y972591D01*
Y976293D01*
X1145441Y976687D01*
X1146370D01*
X1146764Y977081D01*
Y980919D01*
X1146370Y981313D01*
X1145441D01*
X1145047Y981707D01*
Y985409D01*
X1145441Y985803D01*
X1149703D01*
X1150097Y985409D01*
D02*
G37*
G36*
X1125953D02*
Y981707D01*
X1125559Y981313D01*
X1124630D01*
X1124236Y980919D01*
Y977081D01*
X1124630Y976687D01*
X1125559D01*
X1125953Y976293D01*
Y972591D01*
X1125559Y972197D01*
X1121297D01*
X1120903Y972591D01*
Y985409D01*
X1121297Y985803D01*
X1125559D01*
X1125953Y985409D01*
D02*
G37*
G36*
X989158Y974096D02*
Y968080D01*
X988764Y967686D01*
X983705D01*
X983312Y968080D01*
Y969538D01*
X983705Y969931D01*
X984906D01*
X985299Y970325D01*
Y971851D01*
X984906Y972244D01*
X983705D01*
X983312Y972638D01*
Y974096D01*
X983705Y974489D01*
X988764D01*
X989158Y974096D01*
D02*
G37*
G36*
X976619D02*
Y972638D01*
X976225Y972244D01*
X975025D01*
X974631Y971851D01*
Y970325D01*
X975025Y969931D01*
X976225D01*
X976619Y969538D01*
Y968080D01*
X976225Y967686D01*
X971166D01*
X970772Y968080D01*
Y974096D01*
X971166Y974489D01*
X976225D01*
X976619Y974096D01*
D02*
G37*
G36*
X1233970Y974029D02*
Y968013D01*
X1233576Y967620D01*
X1228517D01*
X1228124Y968013D01*
Y969471D01*
X1228517Y969865D01*
X1229718D01*
X1230112Y970259D01*
Y971784D01*
X1229718Y972178D01*
X1228517D01*
X1228124Y972571D01*
Y974029D01*
X1228517Y974423D01*
X1233576D01*
X1233970Y974029D01*
D02*
G37*
G36*
X1221431D02*
Y972571D01*
X1221037Y972178D01*
X1219837D01*
X1219443Y971784D01*
Y970259D01*
X1219837Y969865D01*
X1221037D01*
X1221431Y969471D01*
Y968013D01*
X1221037Y967620D01*
X1215978D01*
X1215584Y968013D01*
Y974029D01*
X1215978Y974423D01*
X1221037D01*
X1221431Y974029D01*
D02*
G37*
G36*
X1210937D02*
Y968013D01*
X1210543Y967620D01*
X1205484D01*
X1205091Y968013D01*
Y969471D01*
X1205484Y969865D01*
X1206685D01*
X1207078Y970259D01*
Y971784D01*
X1206685Y972178D01*
X1205484D01*
X1205091Y972571D01*
Y974029D01*
X1205484Y974423D01*
X1210543D01*
X1210937Y974029D01*
D02*
G37*
G36*
X1198398D02*
Y972571D01*
X1198004Y972178D01*
X1196804D01*
X1196410Y971784D01*
Y970259D01*
X1196804Y969865D01*
X1198004D01*
X1198398Y969471D01*
Y968013D01*
X1198004Y967620D01*
X1192945D01*
X1192551Y968013D01*
Y974029D01*
X1192945Y974423D01*
X1198004D01*
X1198398Y974029D01*
D02*
G37*
G36*
X1012324D02*
Y968013D01*
X1011930Y967620D01*
X1006871D01*
X1006478Y968013D01*
Y969471D01*
X1006871Y969865D01*
X1008072D01*
X1008465Y970259D01*
Y971784D01*
X1008072Y972178D01*
X1006871D01*
X1006478Y972571D01*
Y974029D01*
X1006871Y974423D01*
X1011930D01*
X1012324Y974029D01*
D02*
G37*
G36*
X999785D02*
Y972571D01*
X999391Y972178D01*
X998190D01*
X997797Y971784D01*
Y970259D01*
X998190Y969865D01*
X999391D01*
X999785Y969471D01*
Y968013D01*
X999391Y967620D01*
X994332D01*
X993938Y968013D01*
Y974029D01*
X994332Y974423D01*
X999391D01*
X999785Y974029D01*
D02*
G37*
G36*
X1279303Y961080D02*
Y956818D01*
X1278909Y956425D01*
X1266091D01*
X1265697Y956818D01*
Y961080D01*
X1266091Y961474D01*
X1269793D01*
X1270187Y961080D01*
Y960151D01*
X1270581Y959757D01*
X1274419D01*
X1274813Y960151D01*
Y961080D01*
X1275207Y961474D01*
X1278909D01*
X1279303Y961080D01*
D02*
G37*
G36*
X938803D02*
Y956818D01*
X938409Y956425D01*
X925591D01*
X925197Y956818D01*
Y961080D01*
X925591Y961474D01*
X929293D01*
X929687Y961080D01*
Y960151D01*
X930081Y959757D01*
X933919D01*
X934313Y960151D01*
Y961080D01*
X934707Y961474D01*
X938409D01*
X938803Y961080D01*
D02*
G37*
G36*
X989158Y964254D02*
Y958239D01*
X988764Y957845D01*
X983705D01*
X983312Y958239D01*
Y959696D01*
X983705Y960090D01*
X984906D01*
X985299Y960484D01*
Y962009D01*
X984906Y962403D01*
X983705D01*
X983312Y962797D01*
Y964254D01*
X983705Y964648D01*
X988764D01*
X989158Y964254D01*
D02*
G37*
G36*
X976619D02*
Y962797D01*
X976225Y962403D01*
X975025D01*
X974631Y962009D01*
Y960484D01*
X975025Y960090D01*
X976225D01*
X976619Y959696D01*
Y958239D01*
X976225Y957845D01*
X971166D01*
X970772Y958239D01*
Y964254D01*
X971166Y964648D01*
X976225D01*
X976619Y964254D01*
D02*
G37*
G36*
X1233970Y964155D02*
Y958139D01*
X1233576Y957745D01*
X1228517D01*
X1228124Y958139D01*
Y959597D01*
X1228517Y959990D01*
X1229718D01*
X1230112Y960384D01*
Y961909D01*
X1229718Y962303D01*
X1228517D01*
X1228124Y962697D01*
Y964155D01*
X1228517Y964548D01*
X1233576D01*
X1233970Y964155D01*
D02*
G37*
G36*
X1221431D02*
Y962697D01*
X1221037Y962303D01*
X1219837D01*
X1219443Y961909D01*
Y960384D01*
X1219837Y959990D01*
X1221037D01*
X1221431Y959597D01*
Y958139D01*
X1221037Y957745D01*
X1215978D01*
X1215584Y958139D01*
Y964155D01*
X1215978Y964548D01*
X1221037D01*
X1221431Y964155D01*
D02*
G37*
G36*
X1210937D02*
Y958139D01*
X1210543Y957745D01*
X1205484D01*
X1205091Y958139D01*
Y959597D01*
X1205484Y959990D01*
X1206685D01*
X1207078Y960384D01*
Y961909D01*
X1206685Y962303D01*
X1205484D01*
X1205091Y962697D01*
Y964155D01*
X1205484Y964548D01*
X1210543D01*
X1210937Y964155D01*
D02*
G37*
G36*
X1198398D02*
Y962697D01*
X1198004Y962303D01*
X1196804D01*
X1196410Y961909D01*
Y960384D01*
X1196804Y959990D01*
X1198004D01*
X1198398Y959597D01*
Y958139D01*
X1198004Y957745D01*
X1192945D01*
X1192551Y958139D01*
Y964155D01*
X1192945Y964548D01*
X1198004D01*
X1198398Y964155D01*
D02*
G37*
G36*
X1012324D02*
Y958139D01*
X1011930Y957745D01*
X1006871D01*
X1006478Y958139D01*
Y959597D01*
X1006871Y959990D01*
X1008072D01*
X1008465Y960384D01*
Y961909D01*
X1008072Y962303D01*
X1006871D01*
X1006478Y962697D01*
Y964155D01*
X1006871Y964548D01*
X1011930D01*
X1012324Y964155D01*
D02*
G37*
G36*
X999785D02*
Y962697D01*
X999391Y962303D01*
X998190D01*
X997797Y961909D01*
Y960384D01*
X998190Y959990D01*
X999391D01*
X999785Y959597D01*
Y958139D01*
X999391Y957745D01*
X994332D01*
X993938Y958139D01*
Y964155D01*
X994332Y964548D01*
X999391D01*
X999785Y964155D01*
D02*
G37*
G36*
X989158Y954413D02*
Y948397D01*
X988764Y948003D01*
X983705D01*
X983312Y948397D01*
Y949855D01*
X983705Y950249D01*
X984906D01*
X985299Y950642D01*
Y952168D01*
X984906Y952561D01*
X983705D01*
X983312Y952955D01*
Y954413D01*
X983705Y954807D01*
X988764D01*
X989158Y954413D01*
D02*
G37*
G36*
X976619D02*
Y952955D01*
X976225Y952561D01*
X975025D01*
X974631Y952168D01*
Y950642D01*
X975025Y950249D01*
X976225D01*
X976619Y949855D01*
Y948397D01*
X976225Y948003D01*
X971166D01*
X970772Y948397D01*
Y954413D01*
X971166Y954807D01*
X976225D01*
X976619Y954413D01*
D02*
G37*
G36*
X1233970Y954280D02*
Y948264D01*
X1233576Y947871D01*
X1228517D01*
X1228124Y948264D01*
Y949722D01*
X1228517Y950116D01*
X1229718D01*
X1230112Y950509D01*
Y952035D01*
X1229718Y952429D01*
X1228517D01*
X1228124Y952822D01*
Y954280D01*
X1228517Y954674D01*
X1233576D01*
X1233970Y954280D01*
D02*
G37*
G36*
X1221431D02*
Y952822D01*
X1221037Y952429D01*
X1219837D01*
X1219443Y952035D01*
Y950509D01*
X1219837Y950116D01*
X1221037D01*
X1221431Y949722D01*
Y948264D01*
X1221037Y947871D01*
X1215978D01*
X1215584Y948264D01*
Y954280D01*
X1215978Y954674D01*
X1221037D01*
X1221431Y954280D01*
D02*
G37*
G36*
X1210937D02*
Y948264D01*
X1210543Y947871D01*
X1205484D01*
X1205091Y948264D01*
Y949722D01*
X1205484Y950116D01*
X1206685D01*
X1207078Y950509D01*
Y952035D01*
X1206685Y952429D01*
X1205484D01*
X1205091Y952822D01*
Y954280D01*
X1205484Y954674D01*
X1210543D01*
X1210937Y954280D01*
D02*
G37*
G36*
X1198398D02*
Y952822D01*
X1198004Y952429D01*
X1196804D01*
X1196410Y952035D01*
Y950509D01*
X1196804Y950116D01*
X1198004D01*
X1198398Y949722D01*
Y948264D01*
X1198004Y947871D01*
X1192945D01*
X1192551Y948264D01*
Y954280D01*
X1192945Y954674D01*
X1198004D01*
X1198398Y954280D01*
D02*
G37*
G36*
X1012324D02*
Y948264D01*
X1011930Y947871D01*
X1006871D01*
X1006478Y948264D01*
Y949722D01*
X1006871Y950116D01*
X1008072D01*
X1008465Y950509D01*
Y952035D01*
X1008072Y952429D01*
X1006871D01*
X1006478Y952822D01*
Y954280D01*
X1006871Y954674D01*
X1011930D01*
X1012324Y954280D01*
D02*
G37*
G36*
X999785D02*
Y952822D01*
X999391Y952429D01*
X998190D01*
X997797Y952035D01*
Y950509D01*
X998190Y950116D01*
X999391D01*
X999785Y949722D01*
Y948264D01*
X999391Y947871D01*
X994332D01*
X993938Y948264D01*
Y954280D01*
X994332Y954674D01*
X999391D01*
X999785Y954280D01*
D02*
G37*
G36*
X1196063Y921364D02*
Y919393D01*
X1195905Y919236D01*
X1194094D01*
X1193937Y919393D01*
Y921364D01*
X1194094Y921521D01*
X1195905D01*
X1196063Y921364D01*
D02*
G37*
G36*
Y918015D02*
Y916044D01*
X1195905Y915886D01*
X1194094D01*
X1193937Y916044D01*
Y918015D01*
X1194094Y918172D01*
X1195905D01*
X1196063Y918015D01*
D02*
G37*
G36*
X1088317Y917406D02*
Y915594D01*
X1088160Y915437D01*
X1086189D01*
X1086032Y915594D01*
Y917406D01*
X1086189Y917563D01*
X1088160D01*
X1088317Y917406D01*
D02*
G37*
G36*
X1084968D02*
Y915594D01*
X1084811Y915437D01*
X1082840D01*
X1082683Y915594D01*
Y917406D01*
X1082840Y917563D01*
X1084811D01*
X1084968Y917406D01*
D02*
G37*
G36*
X1032421Y837053D02*
Y835082D01*
X1032263Y834924D01*
X1030452D01*
X1030295Y835082D01*
Y837053D01*
X1030452Y837210D01*
X1032263D01*
X1032421Y837053D01*
D02*
G37*
G36*
X1026641D02*
Y835082D01*
X1026483Y834924D01*
X1024672D01*
X1024514Y835082D01*
Y837053D01*
X1024672Y837210D01*
X1026483D01*
X1026641Y837053D01*
D02*
G37*
G36*
X1020860D02*
Y835082D01*
X1020703Y834924D01*
X1018892D01*
X1018734Y835082D01*
Y837053D01*
X1018892Y837210D01*
X1020703D01*
X1020860Y837053D01*
D02*
G37*
G36*
X1015080D02*
Y835082D01*
X1014923Y834924D01*
X1013112D01*
X1012954Y835082D01*
Y837053D01*
X1013112Y837210D01*
X1014923D01*
X1015080Y837053D01*
D02*
G37*
G36*
X1158831Y838239D02*
Y835090D01*
X1158634Y834893D01*
X1157681D01*
Y836350D01*
X1156382D01*
Y834893D01*
X1155485D01*
X1155288Y835090D01*
Y838239D01*
X1155485Y838436D01*
X1158634D01*
X1158831Y838239D01*
D02*
G37*
G36*
X1141772Y838239D02*
Y835090D01*
X1141575Y834893D01*
X1140622D01*
Y836349D01*
X1139323D01*
Y834893D01*
X1138425D01*
X1138228Y835090D01*
Y838239D01*
X1138425Y838436D01*
X1141575D01*
X1141772Y838239D01*
D02*
G37*
G36*
X1082772D02*
Y835090D01*
X1082575Y834893D01*
X1081622D01*
Y836349D01*
X1080323D01*
Y834893D01*
X1079425D01*
X1079228Y835090D01*
Y838239D01*
X1079425Y838436D01*
X1082575D01*
X1082772Y838239D01*
D02*
G37*
G36*
X1068772D02*
Y835090D01*
X1068575Y834893D01*
X1067622D01*
Y836349D01*
X1066323D01*
Y834893D01*
X1065425D01*
X1065228Y835090D01*
Y838239D01*
X1065425Y838436D01*
X1068575D01*
X1068772Y838239D01*
D02*
G37*
G36*
X1032421Y833704D02*
Y831733D01*
X1032263Y831575D01*
X1030452D01*
X1030295Y831733D01*
Y833704D01*
X1030452Y833861D01*
X1032263D01*
X1032421Y833704D01*
D02*
G37*
G36*
X1026641D02*
Y831733D01*
X1026483Y831575D01*
X1024672D01*
X1024514Y831733D01*
Y833704D01*
X1024672Y833861D01*
X1026483D01*
X1026641Y833704D01*
D02*
G37*
G36*
X1020860D02*
Y831733D01*
X1020703Y831575D01*
X1018892D01*
X1018734Y831733D01*
Y833704D01*
X1018892Y833861D01*
X1020703D01*
X1020860Y833704D01*
D02*
G37*
G36*
X1015080D02*
Y831733D01*
X1014923Y831575D01*
X1013112D01*
X1012954Y831733D01*
Y833704D01*
X1013112Y833861D01*
X1014923D01*
X1015080Y833704D01*
D02*
G37*
G36*
X1158831Y831940D02*
Y828830D01*
X1158634Y828633D01*
X1155485D01*
X1155288Y828830D01*
Y831940D01*
X1155485Y832137D01*
X1156382D01*
Y830641D01*
X1157681D01*
Y832137D01*
X1158634D01*
X1158831Y831940D01*
D02*
G37*
G36*
X1141772Y831940D02*
Y828830D01*
X1141575Y828633D01*
X1138425D01*
X1138228Y828830D01*
Y831940D01*
X1138425Y832137D01*
X1139323D01*
Y830641D01*
X1140622D01*
Y832137D01*
X1141575D01*
X1141772Y831940D01*
D02*
G37*
G36*
X1082772D02*
Y828830D01*
X1082575Y828633D01*
X1079425D01*
X1079228Y828830D01*
Y831940D01*
X1079425Y832137D01*
X1080323D01*
Y830641D01*
X1081622D01*
Y832137D01*
X1082575D01*
X1082772Y831940D01*
D02*
G37*
G36*
X1068772D02*
Y828830D01*
X1068575Y828633D01*
X1065425D01*
X1065228Y828830D01*
Y831940D01*
X1065425Y832137D01*
X1066323D01*
Y830641D01*
X1067622D01*
Y832137D01*
X1068575D01*
X1068772Y831940D01*
D02*
G37*
G36*
X1236522Y826342D02*
Y824531D01*
X1236364Y824373D01*
X1234393D01*
X1234235Y824531D01*
Y826342D01*
X1234393Y826499D01*
X1236364D01*
X1236522Y826342D01*
D02*
G37*
G36*
X1233173D02*
Y824531D01*
X1233015Y824373D01*
X1231044D01*
X1230886Y824531D01*
Y826342D01*
X1231044Y826499D01*
X1233015D01*
X1233173Y826342D01*
D02*
G37*
G36*
X1132060Y824263D02*
Y822373D01*
X1131864Y822097D01*
X1130092D01*
X1129895Y822373D01*
Y824263D01*
X1130092Y824459D01*
X1131864D01*
X1132060Y824263D01*
D02*
G37*
G36*
X1057550Y823959D02*
Y822069D01*
X1057353Y821794D01*
X1055582D01*
X1055385Y822069D01*
Y823959D01*
X1055582Y824156D01*
X1057353D01*
X1057550Y823959D01*
D02*
G37*
G36*
X1175027Y823095D02*
Y821323D01*
X1174830Y821126D01*
X1172940D01*
X1172665Y821323D01*
Y823095D01*
X1172940Y823291D01*
X1174830D01*
X1175027Y823095D01*
D02*
G37*
G36*
X1171247D02*
Y821323D01*
X1170972Y821126D01*
X1169082D01*
X1168885Y821323D01*
Y823095D01*
X1169082Y823291D01*
X1170972D01*
X1171247Y823095D01*
D02*
G37*
G36*
X1100517Y823095D02*
Y821323D01*
X1100320Y821126D01*
X1098430D01*
X1098155Y821323D01*
Y823095D01*
X1098430Y823291D01*
X1100320D01*
X1100517Y823095D01*
D02*
G37*
G36*
X1096737D02*
Y821323D01*
X1096462Y821126D01*
X1094572D01*
X1094375Y821323D01*
Y823095D01*
X1094572Y823291D01*
X1096462D01*
X1096737Y823095D01*
D02*
G37*
G36*
X1132060Y820404D02*
Y818515D01*
X1131864Y818318D01*
X1130092D01*
X1129895Y818515D01*
Y820404D01*
X1130092Y820680D01*
X1131864D01*
X1132060Y820404D01*
D02*
G37*
G36*
X1057550Y820101D02*
Y818211D01*
X1057353Y818014D01*
X1055582D01*
X1055385Y818211D01*
Y820101D01*
X1055582Y820377D01*
X1057353D01*
X1057550Y820101D01*
D02*
G37*
G36*
X1236522Y819841D02*
Y818030D01*
X1236364Y817872D01*
X1234393D01*
X1234235Y818030D01*
Y819841D01*
X1234393Y819998D01*
X1236364D01*
X1236522Y819841D01*
D02*
G37*
G36*
X1233173D02*
Y818030D01*
X1233015Y817872D01*
X1231044D01*
X1230886Y818030D01*
Y819841D01*
X1231044Y819998D01*
X1233015D01*
X1233173Y819841D01*
D02*
G37*
G36*
X1174774Y817083D02*
Y815272D01*
X1174616Y815115D01*
X1172645D01*
X1172488Y815272D01*
Y817083D01*
X1172645Y817241D01*
X1174616D01*
X1174774Y817083D01*
D02*
G37*
G36*
X1171425D02*
Y815272D01*
X1171267Y815115D01*
X1169296D01*
X1169139Y815272D01*
Y817083D01*
X1169296Y817241D01*
X1171267D01*
X1171425Y817083D01*
D02*
G37*
G36*
X1100263Y817083D02*
Y815272D01*
X1100106Y815115D01*
X1098135D01*
X1097977Y815272D01*
Y817083D01*
X1098135Y817241D01*
X1100106D01*
X1100263Y817083D01*
D02*
G37*
G36*
X1096914D02*
Y815272D01*
X1096757Y815115D01*
X1094786D01*
X1094628Y815272D01*
Y817083D01*
X1094786Y817241D01*
X1096757D01*
X1096914Y817083D01*
D02*
G37*
G36*
X995062Y814429D02*
Y812657D01*
X994865Y812460D01*
X992975D01*
X992700Y812657D01*
Y814429D01*
X992975Y814625D01*
X994865D01*
X995062Y814429D01*
D02*
G37*
G36*
X991282D02*
Y812657D01*
X991007Y812460D01*
X989117D01*
X988920Y812657D01*
Y814429D01*
X989117Y814625D01*
X991007D01*
X991282Y814429D01*
D02*
G37*
G36*
X1236522Y813232D02*
Y811421D01*
X1236364Y811263D01*
X1234393D01*
X1234235Y811421D01*
Y813232D01*
X1234393Y813389D01*
X1236364D01*
X1236522Y813232D01*
D02*
G37*
G36*
X1233173D02*
Y811421D01*
X1233015Y811263D01*
X1231044D01*
X1230886Y811421D01*
Y813232D01*
X1231044Y813389D01*
X1233015D01*
X1233173Y813232D01*
D02*
G37*
G36*
X1132060Y812374D02*
Y810484D01*
X1131863Y810209D01*
X1130092D01*
X1129895Y810484D01*
Y812374D01*
X1130092Y812571D01*
X1131863D01*
X1132060Y812374D01*
D02*
G37*
G36*
X1057550Y812374D02*
Y810484D01*
X1057353Y810209D01*
X1055582D01*
X1055385Y810484D01*
Y812374D01*
X1055582Y812571D01*
X1057353D01*
X1057550Y812374D01*
D02*
G37*
G36*
X1132060Y808516D02*
Y806626D01*
X1131863Y806429D01*
X1130092D01*
X1129895Y806626D01*
Y808516D01*
X1130092Y808791D01*
X1131863D01*
X1132060Y808516D01*
D02*
G37*
G36*
X1057550Y808516D02*
Y806626D01*
X1057353Y806429D01*
X1055582D01*
X1055385Y806626D01*
Y808516D01*
X1055582Y808791D01*
X1057353D01*
X1057550Y808516D01*
D02*
G37*
G36*
X995062Y807963D02*
Y806191D01*
X994865Y805994D01*
X992975D01*
X992700Y806191D01*
Y807963D01*
X992975Y808159D01*
X994865D01*
X995062Y807963D01*
D02*
G37*
G36*
X991282D02*
Y806191D01*
X991007Y805994D01*
X989117D01*
X988920Y806191D01*
Y807963D01*
X989117Y808159D01*
X991007D01*
X991282Y807963D01*
D02*
G37*
G36*
X1212965Y807748D02*
Y805976D01*
X1212768Y805779D01*
X1210878D01*
X1210603Y805976D01*
Y807748D01*
X1210878Y807944D01*
X1212768D01*
X1212965Y807748D01*
D02*
G37*
G36*
X1209186D02*
Y805976D01*
X1208910Y805779D01*
X1207020D01*
X1206823Y805976D01*
Y807748D01*
X1207020Y807944D01*
X1208910D01*
X1209186Y807748D01*
D02*
G37*
G36*
X1175027Y807715D02*
Y805943D01*
X1174830Y805746D01*
X1172940D01*
X1172665Y805943D01*
Y807715D01*
X1172940Y807912D01*
X1174830D01*
X1175027Y807715D01*
D02*
G37*
G36*
X1171247D02*
Y805943D01*
X1170972Y805746D01*
X1169082D01*
X1168885Y805943D01*
Y807715D01*
X1169082Y807912D01*
X1170972D01*
X1171247Y807715D01*
D02*
G37*
G36*
X1100517Y807715D02*
Y805943D01*
X1100320Y805746D01*
X1098430D01*
X1098155Y805943D01*
Y807715D01*
X1098430Y807911D01*
X1100320D01*
X1100517Y807715D01*
D02*
G37*
G36*
X1096737D02*
Y805943D01*
X1096462Y805746D01*
X1094572D01*
X1094375Y805943D01*
Y807715D01*
X1094572Y807911D01*
X1096462D01*
X1096737Y807715D01*
D02*
G37*
G36*
X1236522Y806623D02*
Y804812D01*
X1236364Y804655D01*
X1234393D01*
X1234235Y804812D01*
Y806623D01*
X1234393Y806781D01*
X1236364D01*
X1236522Y806623D01*
D02*
G37*
G36*
X1233173D02*
Y804812D01*
X1233015Y804655D01*
X1231044D01*
X1230886Y804812D01*
Y806623D01*
X1231044Y806781D01*
X1233015D01*
X1233173Y806623D01*
D02*
G37*
G36*
X1037083Y806605D02*
Y804715D01*
X1036886Y804440D01*
X1035114D01*
X1034917Y804715D01*
Y806605D01*
X1035114Y806802D01*
X1036886D01*
X1037083Y806605D01*
D02*
G37*
G36*
Y802747D02*
Y800857D01*
X1036886Y800660D01*
X1035114D01*
X1034917Y800857D01*
Y802747D01*
X1035114Y803022D01*
X1036886D01*
X1037083Y802747D01*
D02*
G37*
G36*
X1174774Y801665D02*
Y799854D01*
X1174616Y799696D01*
X1172645D01*
X1172488Y799854D01*
Y801665D01*
X1172645Y801822D01*
X1174616D01*
X1174774Y801665D01*
D02*
G37*
G36*
X1171425D02*
Y799854D01*
X1171267Y799696D01*
X1169296D01*
X1169139Y799854D01*
Y801665D01*
X1169296Y801822D01*
X1171267D01*
X1171425Y801665D01*
D02*
G37*
G36*
X1100263Y801665D02*
Y799854D01*
X1100106Y799696D01*
X1098135D01*
X1097977Y799854D01*
Y801665D01*
X1098135Y801822D01*
X1100106D01*
X1100263Y801665D01*
D02*
G37*
G36*
X1096914D02*
Y799854D01*
X1096757Y799696D01*
X1094786D01*
X1094628Y799854D01*
Y801665D01*
X1094786Y801822D01*
X1096757D01*
X1096914Y801665D01*
D02*
G37*
G36*
X995062Y801497D02*
Y799725D01*
X994865Y799528D01*
X992975D01*
X992700Y799725D01*
Y801497D01*
X992975Y801693D01*
X994865D01*
X995062Y801497D01*
D02*
G37*
G36*
X991282D02*
Y799725D01*
X991007Y799528D01*
X989117D01*
X988920Y799725D01*
Y801497D01*
X989117Y801693D01*
X991007D01*
X991282Y801497D01*
D02*
G37*
G36*
X1236522Y800014D02*
Y798203D01*
X1236364Y798046D01*
X1234393D01*
X1234235Y798203D01*
Y800014D01*
X1234393Y800172D01*
X1236364D01*
X1236522Y800014D01*
D02*
G37*
G36*
X1233173D02*
Y798203D01*
X1233015Y798046D01*
X1231044D01*
X1230886Y798203D01*
Y800014D01*
X1231044Y800172D01*
X1233015D01*
X1233173Y800014D01*
D02*
G37*
G36*
X995062Y795030D02*
Y793259D01*
X994865Y793062D01*
X992975D01*
X992700Y793259D01*
Y795030D01*
X992975Y795227D01*
X994865D01*
X995062Y795030D01*
D02*
G37*
G36*
X991282D02*
Y793259D01*
X991007Y793062D01*
X989117D01*
X988920Y793259D01*
Y795030D01*
X989117Y795227D01*
X991007D01*
X991282Y795030D01*
D02*
G37*
G36*
X1032421Y793574D02*
Y791603D01*
X1032263Y791445D01*
X1030452D01*
X1030295Y791603D01*
Y793574D01*
X1030452Y793731D01*
X1032263D01*
X1032421Y793574D01*
D02*
G37*
G36*
X1026641D02*
Y791603D01*
X1026483Y791445D01*
X1024672D01*
X1024514Y791603D01*
Y793574D01*
X1024672Y793731D01*
X1026483D01*
X1026641Y793574D01*
D02*
G37*
G36*
X1020860D02*
Y791603D01*
X1020703Y791445D01*
X1018892D01*
X1018734Y791603D01*
Y793574D01*
X1018892Y793731D01*
X1020703D01*
X1020860Y793574D01*
D02*
G37*
G36*
X1015080D02*
Y791603D01*
X1014923Y791445D01*
X1013112D01*
X1012954Y791603D01*
Y793574D01*
X1013112Y793731D01*
X1014923D01*
X1015080Y793574D01*
D02*
G37*
G36*
X1236522Y793405D02*
Y791595D01*
X1236364Y791437D01*
X1234393D01*
X1234235Y791595D01*
Y793405D01*
X1234393Y793563D01*
X1236364D01*
X1236522Y793405D01*
D02*
G37*
G36*
X1233173D02*
Y791595D01*
X1233015Y791437D01*
X1231044D01*
X1230886Y791595D01*
Y793405D01*
X1231044Y793563D01*
X1233015D01*
X1233173Y793405D01*
D02*
G37*
G36*
X1183925Y791386D02*
Y789614D01*
X1183728Y789417D01*
X1181838D01*
X1181563Y789614D01*
Y791386D01*
X1181838Y791583D01*
X1183728D01*
X1183925Y791386D01*
D02*
G37*
G36*
X1180145D02*
Y789614D01*
X1179870Y789417D01*
X1177980D01*
X1177783Y789614D01*
Y791386D01*
X1177980Y791583D01*
X1179870D01*
X1180145Y791386D01*
D02*
G37*
G36*
X1032421Y790225D02*
Y788254D01*
X1032263Y788097D01*
X1030452D01*
X1030295Y788254D01*
Y790225D01*
X1030452Y790382D01*
X1032263D01*
X1032421Y790225D01*
D02*
G37*
G36*
X1026641D02*
Y788254D01*
X1026483Y788097D01*
X1024672D01*
X1024514Y788254D01*
Y790225D01*
X1024672Y790382D01*
X1026483D01*
X1026641Y790225D01*
D02*
G37*
G36*
X1020860D02*
Y788254D01*
X1020703Y788097D01*
X1018892D01*
X1018734Y788254D01*
Y790225D01*
X1018892Y790382D01*
X1020703D01*
X1020860Y790225D01*
D02*
G37*
G36*
X1015080D02*
Y788254D01*
X1014923Y788097D01*
X1013112D01*
X1012954Y788254D01*
Y790225D01*
X1013112Y790382D01*
X1014923D01*
X1015080Y790225D01*
D02*
G37*
G36*
X1103134Y788494D02*
Y786722D01*
X1102937Y786526D01*
X1101047D01*
X1100772Y786722D01*
Y788494D01*
X1101047Y788691D01*
X1102937D01*
X1103134Y788494D01*
D02*
G37*
G36*
X1099354D02*
Y786722D01*
X1099079Y786526D01*
X1097189D01*
X1096992Y786722D01*
Y788494D01*
X1097189Y788691D01*
X1099079D01*
X1099354Y788494D01*
D02*
G37*
G36*
X1081102D02*
Y786722D01*
X1080906Y786526D01*
X1079016D01*
X1078740Y786722D01*
Y788494D01*
X1079016Y788691D01*
X1080906D01*
X1081102Y788494D01*
D02*
G37*
G36*
X1077323D02*
Y786722D01*
X1077047Y786526D01*
X1075158D01*
X1074961Y786722D01*
Y788494D01*
X1075158Y788691D01*
X1077047D01*
X1077323Y788494D01*
D02*
G37*
G36*
X1059071D02*
Y786722D01*
X1058874Y786526D01*
X1056984D01*
X1056709Y786722D01*
Y788494D01*
X1056984Y788691D01*
X1058874D01*
X1059071Y788494D01*
D02*
G37*
G36*
X1055291D02*
Y786722D01*
X1055016Y786526D01*
X1053126D01*
X1052929Y786722D01*
Y788494D01*
X1053126Y788691D01*
X1055016D01*
X1055291Y788494D01*
D02*
G37*
G36*
X1219954Y785512D02*
Y783622D01*
X1219757Y783347D01*
X1217986D01*
X1217789Y783622D01*
Y785512D01*
X1217986Y785709D01*
X1219757D01*
X1219954Y785512D01*
D02*
G37*
G36*
X1187583Y784374D02*
Y782484D01*
X1187386Y782209D01*
X1185614D01*
X1185417Y782484D01*
Y784374D01*
X1185614Y784571D01*
X1187386D01*
X1187583Y784374D01*
D02*
G37*
G36*
X1181986Y784987D02*
Y781838D01*
X1181789Y781641D01*
X1178679D01*
X1178482Y781838D01*
Y782735D01*
X1179978D01*
Y784034D01*
X1178482D01*
Y784987D01*
X1178679Y785184D01*
X1181789D01*
X1181986Y784987D01*
D02*
G37*
G36*
X1175726D02*
Y784034D01*
X1174269D01*
Y782735D01*
X1175726D01*
Y781838D01*
X1175529Y781641D01*
X1172379D01*
X1172183Y781838D01*
Y784987D01*
X1172379Y785184D01*
X1175529D01*
X1175726Y784987D01*
D02*
G37*
G36*
X1219954Y781654D02*
Y779764D01*
X1219757Y779567D01*
X1217986D01*
X1217789Y779764D01*
Y781654D01*
X1217986Y781929D01*
X1219757D01*
X1219954Y781654D01*
D02*
G37*
G36*
X1212425Y780886D02*
Y779114D01*
X1212228Y778917D01*
X1210338D01*
X1210063Y779114D01*
Y780886D01*
X1210338Y781083D01*
X1212228D01*
X1212425Y780886D01*
D02*
G37*
G36*
X1208646D02*
Y779114D01*
X1208370Y778917D01*
X1206480D01*
X1206283Y779114D01*
Y780886D01*
X1206480Y781083D01*
X1208370D01*
X1208646Y780886D01*
D02*
G37*
G36*
X1187583Y780516D02*
Y778626D01*
X1187386Y778429D01*
X1185614D01*
X1185417Y778626D01*
Y780516D01*
X1185614Y780791D01*
X1187386D01*
X1187583Y780516D01*
D02*
G37*
G36*
X1121892Y780156D02*
Y778384D01*
X1121695Y778187D01*
X1119806D01*
X1119530Y778384D01*
Y780156D01*
X1119806Y780352D01*
X1121695D01*
X1121892Y780156D01*
D02*
G37*
G36*
X1118113D02*
Y778384D01*
X1117837Y778187D01*
X1115947D01*
X1115751Y778384D01*
Y780156D01*
X1115947Y780352D01*
X1117837D01*
X1118113Y780156D01*
D02*
G37*
G36*
X1181986Y777023D02*
Y773874D01*
X1181789Y773677D01*
X1178679D01*
X1178482Y773874D01*
Y774771D01*
X1179978D01*
Y776070D01*
X1178482D01*
Y777023D01*
X1178679Y777220D01*
X1181789D01*
X1181986Y777023D01*
D02*
G37*
G36*
X1175726D02*
Y776070D01*
X1174269D01*
Y774771D01*
X1175726D01*
Y773874D01*
X1175529Y773677D01*
X1172379D01*
X1172183Y773874D01*
Y777023D01*
X1172379Y777220D01*
X1175529D01*
X1175726Y777023D01*
D02*
G37*
G36*
X1180155Y768226D02*
Y766455D01*
X1179958Y766258D01*
X1178069D01*
X1177793Y766455D01*
Y768226D01*
X1178069Y768423D01*
X1179958D01*
X1180155Y768226D01*
D02*
G37*
G36*
X1176376D02*
Y766455D01*
X1176100Y766258D01*
X1174210D01*
X1174013Y766455D01*
Y768226D01*
X1174210Y768423D01*
X1176100D01*
X1176376Y768226D01*
D02*
G37*
G36*
X1235614Y767906D02*
Y766094D01*
X1235456Y765937D01*
X1233485D01*
X1233327Y766094D01*
Y767906D01*
X1233485Y768063D01*
X1235456D01*
X1235614Y767906D01*
D02*
G37*
G36*
X1232265D02*
Y766094D01*
X1232107Y765937D01*
X1230136D01*
X1229978Y766094D01*
Y767906D01*
X1230136Y768063D01*
X1232107D01*
X1232265Y767906D01*
D02*
G37*
G36*
X1181986Y761138D02*
Y757988D01*
X1181789Y757791D01*
X1178679D01*
X1178482Y757988D01*
Y758886D01*
X1179978D01*
Y760185D01*
X1178482D01*
Y761138D01*
X1178679Y761335D01*
X1181789D01*
X1181986Y761138D01*
D02*
G37*
G36*
X1175726D02*
Y760185D01*
X1174269D01*
Y758886D01*
X1175726D01*
Y757988D01*
X1175529Y757791D01*
X1172379D01*
X1172183Y757988D01*
Y761138D01*
X1172379Y761335D01*
X1175529D01*
X1175726Y761138D01*
D02*
G37*
G36*
X1121893Y759607D02*
Y757835D01*
X1121696Y757639D01*
X1119806D01*
X1119530Y757835D01*
Y759607D01*
X1119806Y759804D01*
X1121696D01*
X1121893Y759607D01*
D02*
G37*
G36*
X1118113D02*
Y757835D01*
X1117837Y757639D01*
X1115948D01*
X1115751Y757835D01*
Y759607D01*
X1115948Y759804D01*
X1117837D01*
X1118113Y759607D01*
D02*
G37*
G36*
X1233217Y757936D02*
Y756164D01*
X1233020Y755967D01*
X1231130D01*
X1230855Y756164D01*
Y757936D01*
X1231130Y758133D01*
X1233020D01*
X1233217Y757936D01*
D02*
G37*
G36*
X1229437D02*
Y756164D01*
X1229162Y755967D01*
X1227272D01*
X1227075Y756164D01*
Y757936D01*
X1227272Y758133D01*
X1229162D01*
X1229437Y757936D01*
D02*
G37*
G36*
X1233217Y751886D02*
Y750114D01*
X1233020Y749917D01*
X1231130D01*
X1230855Y750114D01*
Y751886D01*
X1231130Y752083D01*
X1233020D01*
X1233217Y751886D01*
D02*
G37*
G36*
X1229437D02*
Y750114D01*
X1229162Y749917D01*
X1227272D01*
X1227075Y750114D01*
Y751886D01*
X1227272Y752083D01*
X1229162D01*
X1229437Y751886D01*
D02*
G37*
G36*
X968583Y752049D02*
Y750159D01*
X968386Y749883D01*
X966614D01*
X966417Y750159D01*
Y752049D01*
X966614Y752246D01*
X968386D01*
X968583Y752049D01*
D02*
G37*
G36*
X1181986Y752740D02*
Y749591D01*
X1181789Y749394D01*
X1178679D01*
X1178482Y749591D01*
Y750488D01*
X1179978D01*
Y751788D01*
X1178482D01*
Y752740D01*
X1178679Y752937D01*
X1181789D01*
X1181986Y752740D01*
D02*
G37*
G36*
X1175726D02*
Y751788D01*
X1174269D01*
Y750488D01*
X1175726D01*
Y749591D01*
X1175529Y749394D01*
X1172379D01*
X1172183Y749591D01*
Y752740D01*
X1172379Y752937D01*
X1175529D01*
X1175726Y752740D01*
D02*
G37*
G36*
X1103134Y751066D02*
Y749294D01*
X1102937Y749097D01*
X1101047D01*
X1100772Y749294D01*
Y751066D01*
X1101047Y751263D01*
X1102937D01*
X1103134Y751066D01*
D02*
G37*
G36*
X1099354D02*
Y749294D01*
X1099079Y749097D01*
X1097189D01*
X1096992Y749294D01*
Y751066D01*
X1097189Y751263D01*
X1099079D01*
X1099354Y751066D01*
D02*
G37*
G36*
X1081102D02*
Y749294D01*
X1080906Y749097D01*
X1079016D01*
X1078740Y749294D01*
Y751066D01*
X1079016Y751263D01*
X1080906D01*
X1081102Y751066D01*
D02*
G37*
G36*
X1077323D02*
Y749294D01*
X1077047Y749097D01*
X1075158D01*
X1074961Y749294D01*
Y751066D01*
X1075158Y751263D01*
X1077047D01*
X1077323Y751066D01*
D02*
G37*
G36*
X1059071D02*
Y749294D01*
X1058874Y749097D01*
X1056984D01*
X1056709Y749294D01*
Y751066D01*
X1056984Y751263D01*
X1058874D01*
X1059071Y751066D01*
D02*
G37*
G36*
X1055291D02*
Y749294D01*
X1055016Y749097D01*
X1053126D01*
X1052929Y749294D01*
Y751066D01*
X1053126Y751263D01*
X1055016D01*
X1055291Y751066D01*
D02*
G37*
G36*
X993129Y751650D02*
Y748500D01*
X992932Y748303D01*
X989783D01*
X989586Y748500D01*
Y749453D01*
X991042D01*
Y750752D01*
X989586D01*
Y751650D01*
X989783Y751847D01*
X992932D01*
X993129Y751650D01*
D02*
G37*
G36*
X986830D02*
Y750752D01*
X985334D01*
Y749453D01*
X986830D01*
Y748500D01*
X986633Y748303D01*
X983523D01*
X983326Y748500D01*
Y751650D01*
X983523Y751847D01*
X986633D01*
X986830Y751650D01*
D02*
G37*
G36*
X1038613Y750080D02*
Y748269D01*
X1038456Y748112D01*
X1036485D01*
X1036327Y748269D01*
Y750080D01*
X1036485Y750238D01*
X1038456D01*
X1038613Y750080D01*
D02*
G37*
G36*
X1035264D02*
Y748269D01*
X1035107Y748112D01*
X1033136D01*
X1032978Y748269D01*
Y750080D01*
X1033136Y750238D01*
X1035107D01*
X1035264Y750080D01*
D02*
G37*
G36*
X968583Y748190D02*
Y746301D01*
X968386Y746104D01*
X966614D01*
X966417Y746301D01*
Y748190D01*
X966614Y748466D01*
X968386D01*
X968583Y748190D01*
D02*
G37*
G36*
X1174613Y744906D02*
Y743094D01*
X1174456Y742937D01*
X1172485D01*
X1172328Y743094D01*
Y744906D01*
X1172485Y745063D01*
X1174456D01*
X1174613Y744906D01*
D02*
G37*
G36*
X1171264D02*
Y743094D01*
X1171107Y742937D01*
X1169136D01*
X1168979Y743094D01*
Y744906D01*
X1169136Y745063D01*
X1171107D01*
X1171264Y744906D01*
D02*
G37*
G36*
X1152318D02*
Y743094D01*
X1152160Y742937D01*
X1150189D01*
X1150031Y743094D01*
Y744906D01*
X1150189Y745063D01*
X1152160D01*
X1152318Y744906D01*
D02*
G37*
G36*
X1148969D02*
Y743094D01*
X1148811Y742937D01*
X1146840D01*
X1146682Y743094D01*
Y744906D01*
X1146840Y745063D01*
X1148811D01*
X1148969Y744906D01*
D02*
G37*
G36*
X1032613Y742817D02*
Y740928D01*
X1032416Y740652D01*
X1030644D01*
X1030448Y740928D01*
Y742817D01*
X1030644Y743014D01*
X1032416D01*
X1032613Y742817D01*
D02*
G37*
G36*
X967933Y740829D02*
Y739058D01*
X967736Y738861D01*
X965846D01*
X965571Y739058D01*
Y740829D01*
X965846Y741026D01*
X967736D01*
X967933Y740829D01*
D02*
G37*
G36*
X964153D02*
Y739058D01*
X963878Y738861D01*
X961988D01*
X961791Y739058D01*
Y740829D01*
X961988Y741026D01*
X963878D01*
X964153Y740829D01*
D02*
G37*
G36*
X1260963Y740160D02*
Y738189D01*
X1260805Y738031D01*
X1258994D01*
X1258837Y738189D01*
Y740160D01*
X1258994Y740317D01*
X1260805D01*
X1260963Y740160D01*
D02*
G37*
G36*
X1032613Y738959D02*
Y737070D01*
X1032416Y736873D01*
X1030644D01*
X1030448Y737070D01*
Y738959D01*
X1030644Y739235D01*
X1032416D01*
X1032613Y738959D01*
D02*
G37*
G36*
X1260963Y736811D02*
Y734840D01*
X1260805Y734683D01*
X1258994D01*
X1258837Y734840D01*
Y736811D01*
X1258994Y736969D01*
X1260805D01*
X1260963Y736811D01*
D02*
G37*
G36*
X968583Y733583D02*
Y731693D01*
X968386Y731418D01*
X966614D01*
X966417Y731693D01*
Y733583D01*
X966614Y733780D01*
X968386D01*
X968583Y733583D01*
D02*
G37*
G36*
X993129Y731397D02*
Y728248D01*
X992932Y728051D01*
X989783D01*
X989586Y728248D01*
Y729201D01*
X991042D01*
Y730500D01*
X989586D01*
Y731397D01*
X989783Y731594D01*
X992932D01*
X993129Y731397D01*
D02*
G37*
G36*
X986830D02*
Y730500D01*
X985334D01*
Y729201D01*
X986830D01*
Y728248D01*
X986633Y728051D01*
X983523D01*
X983326Y728248D01*
Y731397D01*
X983523Y731594D01*
X986633D01*
X986830Y731397D01*
D02*
G37*
G36*
X968583Y729725D02*
Y727835D01*
X968386Y727638D01*
X966614D01*
X966417Y727835D01*
Y729725D01*
X966614Y730000D01*
X968386D01*
X968583Y729725D01*
D02*
G37*
G36*
X1215583Y729228D02*
Y727338D01*
X1215386Y727063D01*
X1213614D01*
X1213417Y727338D01*
Y729228D01*
X1213614Y729425D01*
X1215386D01*
X1215583Y729228D01*
D02*
G37*
G36*
X1202875Y729228D02*
Y727338D01*
X1202678Y727063D01*
X1200906D01*
X1200709Y727338D01*
Y729228D01*
X1200906Y729425D01*
X1202678D01*
X1202875Y729228D01*
D02*
G37*
G36*
X1221740Y729228D02*
Y727338D01*
X1221543Y727063D01*
X1219772D01*
X1219575Y727338D01*
Y729228D01*
X1219772Y729425D01*
X1221543D01*
X1221740Y729228D01*
D02*
G37*
G36*
X1191077Y729228D02*
Y727338D01*
X1190880Y727063D01*
X1189109D01*
X1188912Y727338D01*
Y729228D01*
X1189109Y729425D01*
X1190880D01*
X1191077Y729228D01*
D02*
G37*
G36*
X1215583Y725370D02*
Y723480D01*
X1215386Y723283D01*
X1213614D01*
X1213417Y723480D01*
Y725370D01*
X1213614Y725645D01*
X1215386D01*
X1215583Y725370D01*
D02*
G37*
G36*
X1202875Y725370D02*
Y723480D01*
X1202678Y723283D01*
X1200906D01*
X1200709Y723480D01*
Y725370D01*
X1200906Y725645D01*
X1202678D01*
X1202875Y725370D01*
D02*
G37*
G36*
X1221740Y725370D02*
Y723480D01*
X1221543Y723283D01*
X1219772D01*
X1219575Y723480D01*
Y725370D01*
X1219772Y725645D01*
X1221543D01*
X1221740Y725370D01*
D02*
G37*
G36*
X1191077Y725370D02*
Y723480D01*
X1190880Y723283D01*
X1189109D01*
X1188912Y723480D01*
Y725370D01*
X1189109Y725645D01*
X1190880D01*
X1191077Y725370D01*
D02*
G37*
G36*
X1257782Y705380D02*
Y703569D01*
X1257625Y703411D01*
X1255653D01*
X1255496Y703569D01*
Y705380D01*
X1255653Y705537D01*
X1257625D01*
X1257782Y705380D01*
D02*
G37*
G36*
X1254433D02*
Y703569D01*
X1254276Y703411D01*
X1252304D01*
X1252147Y703569D01*
Y705380D01*
X1252304Y705537D01*
X1254276D01*
X1254433Y705380D01*
D02*
G37*
G36*
X1233363Y682393D02*
Y680422D01*
X1233206Y680265D01*
X1231394D01*
X1231237Y680422D01*
Y682393D01*
X1231394Y682550D01*
X1233206D01*
X1233363Y682393D01*
D02*
G37*
G36*
X1227063D02*
Y680422D01*
X1226906Y680265D01*
X1225095D01*
X1224937Y680422D01*
Y682393D01*
X1225095Y682550D01*
X1226906D01*
X1227063Y682393D01*
D02*
G37*
G36*
X1220763D02*
Y680422D01*
X1220605Y680265D01*
X1218795D01*
X1218637Y680422D01*
Y682393D01*
X1218795Y682550D01*
X1220605D01*
X1220763Y682393D01*
D02*
G37*
G36*
X1208411D02*
Y680422D01*
X1208253Y680265D01*
X1206442D01*
X1206285Y680422D01*
Y682393D01*
X1206442Y682550D01*
X1208253D01*
X1208411Y682393D01*
D02*
G37*
G36*
X1174038D02*
Y680422D01*
X1173880Y680265D01*
X1172069D01*
X1171912Y680422D01*
Y682393D01*
X1172069Y682550D01*
X1173880D01*
X1174038Y682393D01*
D02*
G37*
G36*
X1138811D02*
Y680422D01*
X1138653Y680265D01*
X1136842D01*
X1136685Y680422D01*
Y682393D01*
X1136842Y682550D01*
X1138653D01*
X1138811Y682393D01*
D02*
G37*
G36*
X1233363Y679044D02*
Y677073D01*
X1233206Y676916D01*
X1231394D01*
X1231237Y677073D01*
Y679044D01*
X1231394Y679202D01*
X1233206D01*
X1233363Y679044D01*
D02*
G37*
G36*
X1227063D02*
Y677073D01*
X1226906Y676916D01*
X1225095D01*
X1224937Y677073D01*
Y679044D01*
X1225095Y679202D01*
X1226906D01*
X1227063Y679044D01*
D02*
G37*
G36*
X1220763D02*
Y677073D01*
X1220605Y676916D01*
X1218795D01*
X1218637Y677073D01*
Y679044D01*
X1218795Y679202D01*
X1220605D01*
X1220763Y679044D01*
D02*
G37*
G36*
X1208411D02*
Y677073D01*
X1208253Y676916D01*
X1206442D01*
X1206285Y677073D01*
Y679044D01*
X1206442Y679202D01*
X1208253D01*
X1208411Y679044D01*
D02*
G37*
G36*
X1174038D02*
Y677073D01*
X1173880Y676916D01*
X1172069D01*
X1171912Y677073D01*
Y679044D01*
X1172069Y679202D01*
X1173880D01*
X1174038Y679044D01*
D02*
G37*
G36*
X1138811D02*
Y677073D01*
X1138653Y676916D01*
X1136842D01*
X1136685Y677073D01*
Y679044D01*
X1136842Y679202D01*
X1138653D01*
X1138811Y679044D01*
D02*
G37*
D18*
X1246000Y780000D02*
D03*
Y790000D02*
D03*
Y800000D02*
D03*
Y810000D02*
D03*
Y820000D02*
D03*
Y830000D02*
D03*
Y840000D02*
D03*
D19*
X1001585Y747443D02*
D03*
Y742443D02*
D03*
Y737443D02*
D03*
Y732443D02*
D03*
X1023415Y747443D02*
D03*
Y742443D02*
D03*
Y737443D02*
D03*
Y732443D02*
D03*
D20*
X1014500Y801585D02*
D03*
X1019500D02*
D03*
X1024500D02*
D03*
X1029500D02*
D03*
X1014500Y823415D02*
D03*
X1019500D02*
D03*
X1024500D02*
D03*
X1029500D02*
D03*
X1107563Y779915D02*
D03*
X1102563D02*
D03*
X1097563D02*
D03*
X1092563D02*
D03*
X1107563Y758085D02*
D03*
X1102563D02*
D03*
X1097563D02*
D03*
X1092563D02*
D03*
X1085500Y779500D02*
D03*
X1080500D02*
D03*
X1075500D02*
D03*
X1070500D02*
D03*
X1085500Y757670D02*
D03*
X1080500D02*
D03*
X1075500D02*
D03*
X1070500D02*
D03*
X1063500Y780000D02*
D03*
X1058500D02*
D03*
X1053500D02*
D03*
X1048500D02*
D03*
X1063500Y758170D02*
D03*
X1058500D02*
D03*
X1053500D02*
D03*
X1048500D02*
D03*
D21*
X1014017Y792618D02*
D03*
Y789210D02*
D03*
X1014017Y832689D02*
D03*
Y836097D02*
D03*
X1019797Y792618D02*
D03*
Y789210D02*
D03*
X1019797Y836097D02*
D03*
Y832689D02*
D03*
X1025578Y792618D02*
D03*
Y789210D02*
D03*
X1025578Y836097D02*
D03*
Y832689D02*
D03*
X1031358Y792618D02*
D03*
Y789210D02*
D03*
X1031357Y832689D02*
D03*
Y836097D02*
D03*
X1259900Y735796D02*
D03*
Y739204D02*
D03*
X1207348Y681437D02*
D03*
Y678029D02*
D03*
X1172975Y681437D02*
D03*
Y678029D02*
D03*
X1137748Y681437D02*
D03*
Y678029D02*
D03*
X1232300D02*
D03*
Y681437D02*
D03*
X1226000D02*
D03*
Y678029D02*
D03*
X1219700Y681437D02*
D03*
Y678029D02*
D03*
X1195000Y920408D02*
D03*
Y917000D02*
D03*
X1180177Y999469D02*
D03*
Y996061D02*
D03*
D22*
X1036000Y805877D02*
D03*
Y801585D02*
D03*
X1186500Y783646D02*
D03*
Y779354D02*
D03*
X1218871Y780492D02*
D03*
Y784784D02*
D03*
X1189995Y728500D02*
D03*
Y724208D02*
D03*
X1220658Y728500D02*
D03*
Y724208D02*
D03*
X1214500D02*
D03*
Y728500D02*
D03*
X1201792Y724208D02*
D03*
Y728500D02*
D03*
X1031530Y737797D02*
D03*
Y742089D02*
D03*
X967500Y747029D02*
D03*
Y751320D02*
D03*
Y732855D02*
D03*
Y728563D02*
D03*
X1130978Y819243D02*
D03*
Y823534D02*
D03*
Y811646D02*
D03*
Y807354D02*
D03*
X1056468Y818939D02*
D03*
Y823231D02*
D03*
Y811646D02*
D03*
Y807354D02*
D03*
D23*
X1114485Y772740D02*
D03*
Y765260D02*
D03*
X1123158Y769000D02*
D03*
D24*
X1097917Y787608D02*
D03*
X1102209D02*
D03*
X1075886D02*
D03*
X1080177D02*
D03*
X1120967Y758721D02*
D03*
X1116676D02*
D03*
X1097917Y750180D02*
D03*
X1102209D02*
D03*
X1075886D02*
D03*
X1080177D02*
D03*
X1053854D02*
D03*
X1058146D02*
D03*
X1053854Y787608D02*
D03*
X1058146D02*
D03*
X1116676Y779270D02*
D03*
X1120967D02*
D03*
X1228000Y757050D02*
D03*
X1232292D02*
D03*
X1178708Y790500D02*
D03*
X1183000D02*
D03*
X1174938Y767340D02*
D03*
X1179230D02*
D03*
X1232292Y751000D02*
D03*
X1228000D02*
D03*
X1207748Y806862D02*
D03*
X1212040D02*
D03*
X1207208Y780000D02*
D03*
X1211500D02*
D03*
X967008Y739943D02*
D03*
X962716D02*
D03*
X1169810Y822209D02*
D03*
X1174102D02*
D03*
X1169810Y806829D02*
D03*
X1174102D02*
D03*
X1095300Y822209D02*
D03*
X1099592D02*
D03*
X1095300Y806829D02*
D03*
X1099592D02*
D03*
X994137Y794145D02*
D03*
X989845D02*
D03*
X994137Y800611D02*
D03*
X989845D02*
D03*
X994137Y813543D02*
D03*
X989845D02*
D03*
X994137Y807077D02*
D03*
X989845D02*
D03*
D25*
X1217598Y770098D02*
D03*
Y766949D02*
D03*
Y763799D02*
D03*
Y760650D02*
D03*
Y757500D02*
D03*
Y754350D02*
D03*
Y751201D02*
D03*
Y748051D02*
D03*
Y744902D02*
D03*
Y741752D02*
D03*
X1214449Y770098D02*
D03*
Y766949D02*
D03*
Y763799D02*
D03*
Y760650D02*
D03*
Y757500D02*
D03*
Y754350D02*
D03*
Y751201D02*
D03*
Y748051D02*
D03*
Y744902D02*
D03*
Y741752D02*
D03*
X1211299Y770098D02*
D03*
Y766949D02*
D03*
Y763799D02*
D03*
Y760650D02*
D03*
Y757500D02*
D03*
Y754350D02*
D03*
Y751201D02*
D03*
Y748051D02*
D03*
Y744902D02*
D03*
Y741752D02*
D03*
X1208150Y770098D02*
D03*
Y766949D02*
D03*
Y763799D02*
D03*
Y760650D02*
D03*
Y757500D02*
D03*
Y754350D02*
D03*
Y751201D02*
D03*
Y748051D02*
D03*
Y744902D02*
D03*
Y741752D02*
D03*
X1205000Y770098D02*
D03*
Y766949D02*
D03*
Y763799D02*
D03*
Y760650D02*
D03*
Y757500D02*
D03*
Y754350D02*
D03*
Y751201D02*
D03*
Y748051D02*
D03*
Y744902D02*
D03*
Y741752D02*
D03*
X1201850Y770098D02*
D03*
Y766949D02*
D03*
Y763799D02*
D03*
Y760650D02*
D03*
Y757500D02*
D03*
Y754350D02*
D03*
Y751201D02*
D03*
Y748051D02*
D03*
Y744902D02*
D03*
Y741752D02*
D03*
X1198701Y770098D02*
D03*
Y766949D02*
D03*
Y763799D02*
D03*
Y760650D02*
D03*
Y757500D02*
D03*
Y754350D02*
D03*
Y751201D02*
D03*
Y748051D02*
D03*
Y744902D02*
D03*
Y741752D02*
D03*
X1195551Y770098D02*
D03*
Y766949D02*
D03*
Y763799D02*
D03*
Y760650D02*
D03*
Y757500D02*
D03*
Y754350D02*
D03*
Y751201D02*
D03*
Y748051D02*
D03*
Y744902D02*
D03*
Y741752D02*
D03*
X1192402Y770098D02*
D03*
Y766949D02*
D03*
Y763799D02*
D03*
Y760650D02*
D03*
Y757500D02*
D03*
Y754350D02*
D03*
Y751201D02*
D03*
Y748051D02*
D03*
Y744902D02*
D03*
Y741752D02*
D03*
X1189252Y770098D02*
D03*
Y766949D02*
D03*
Y763799D02*
D03*
Y760650D02*
D03*
Y757500D02*
D03*
Y754350D02*
D03*
Y751201D02*
D03*
Y748051D02*
D03*
Y744902D02*
D03*
Y741752D02*
D03*
D26*
X1194318Y780226D02*
D03*
Y793612D02*
D03*
D27*
X957669Y698390D02*
D03*
Y684610D02*
D03*
Y686579D02*
D03*
Y688547D02*
D03*
Y690516D02*
D03*
Y692484D02*
D03*
Y694453D02*
D03*
Y696421D02*
D03*
D28*
X967500Y678114D02*
D03*
X967500Y704886D02*
D03*
D29*
X1170092Y744000D02*
D03*
X1173500D02*
D03*
X1234500Y767000D02*
D03*
X1231092D02*
D03*
X1151204Y744000D02*
D03*
X1147796D02*
D03*
X1037500Y749175D02*
D03*
X1034092D02*
D03*
X1253261Y704474D02*
D03*
X1256668D02*
D03*
X1235408Y812327D02*
D03*
X1232000D02*
D03*
X1235408Y825436D02*
D03*
X1232000D02*
D03*
X1235408Y818935D02*
D03*
X1232000D02*
D03*
X1235408Y805718D02*
D03*
X1232000D02*
D03*
X1235408Y799109D02*
D03*
X1232000D02*
D03*
X1235408Y792500D02*
D03*
X1232000D02*
D03*
X1173660Y816178D02*
D03*
X1170252D02*
D03*
X1173660Y800759D02*
D03*
X1170252D02*
D03*
X1099150Y816178D02*
D03*
X1095742D02*
D03*
X1099150Y800759D02*
D03*
X1095742D02*
D03*
X1087204Y916500D02*
D03*
X1083796D02*
D03*
X1041405Y1028955D02*
D03*
X1037998D02*
D03*
D30*
X1226000Y690700D02*
D03*
X1219700D02*
D03*
X1232300D02*
D03*
Y712000D02*
D03*
X1219700D02*
D03*
X1226000D02*
D03*
D31*
X1211347Y795634D02*
D03*
Y787366D02*
D03*
X1204653D02*
D03*
Y795634D02*
D03*
D32*
X1270252Y704500D02*
D03*
X1277252D02*
D03*
D33*
X1174119Y775449D02*
D03*
X1180050D02*
D03*
X1174119Y783412D02*
D03*
X1180050D02*
D03*
X1174119Y759563D02*
D03*
X1180050D02*
D03*
X1174119Y751166D02*
D03*
X1180050D02*
D03*
X985262Y750075D02*
D03*
X991193D02*
D03*
X985262Y729823D02*
D03*
X991193D02*
D03*
D34*
X1111722Y713617D02*
D03*
X1129439D02*
D03*
Y678972D02*
D03*
X1199007Y678972D02*
D03*
Y713617D02*
D03*
X1181291D02*
D03*
X1164223Y678972D02*
D03*
Y713617D02*
D03*
X1146507D02*
D03*
X1284900Y720177D02*
D03*
X1267183D02*
D03*
Y754823D02*
D03*
D35*
X1111722Y678972D02*
D03*
X1181291Y678972D02*
D03*
X1146507Y678972D02*
D03*
X1284900Y754823D02*
D03*
D36*
X945772Y743683D02*
D03*
Y736203D02*
D03*
X954701Y739943D02*
D03*
D37*
X920905Y723525D02*
D03*
Y703249D02*
D03*
Y750081D02*
D03*
Y729805D02*
D03*
X920905Y776638D02*
D03*
Y756362D02*
D03*
D38*
X934095Y715848D02*
D03*
Y710926D02*
D03*
Y742404D02*
D03*
Y737482D02*
D03*
X934095Y768961D02*
D03*
Y764039D02*
D03*
D39*
X1166205Y832732D02*
D03*
X1130978Y832731D02*
D03*
X1089802Y832732D02*
D03*
X1058345D02*
D03*
D40*
X1166205Y846231D02*
D03*
X1130978Y846231D02*
D03*
X1089802Y846231D02*
D03*
X1058345D02*
D03*
D41*
X1157059Y836500D02*
D03*
Y830569D02*
D03*
X1140000Y836500D02*
D03*
Y830569D02*
D03*
X1081000Y836500D02*
D03*
Y830569D02*
D03*
X1067000Y836500D02*
D03*
Y830569D02*
D03*
D42*
X1121599Y802356D02*
D03*
Y821589D02*
D03*
X1047089Y802053D02*
D03*
Y821285D02*
D03*
D43*
X1158510Y802000D02*
D03*
X1084000Y802000D02*
D03*
D44*
X1158510Y807000D02*
D03*
Y817000D02*
D03*
X1139880D02*
D03*
Y812000D02*
D03*
Y807000D02*
D03*
Y802000D02*
D03*
X1158510Y812000D02*
D03*
X1084000Y807000D02*
D03*
Y817000D02*
D03*
X1065370D02*
D03*
Y812000D02*
D03*
Y807000D02*
D03*
Y802000D02*
D03*
X1084000Y812000D02*
D03*
D45*
X954717Y839676D02*
D03*
D46*
X968217D02*
D03*
D47*
X955236Y819584D02*
D03*
Y788556D02*
D03*
D48*
X978071Y828639D02*
D03*
Y819584D02*
D03*
Y810529D02*
D03*
Y797611D02*
D03*
Y788556D02*
D03*
Y779501D02*
D03*
D49*
X1166100Y939122D02*
D03*
X1171400D02*
D03*
X1176600D02*
D03*
X1181900D02*
D03*
X1181500Y917000D02*
D03*
X1176500D02*
D03*
X1171500D02*
D03*
X1166500D02*
D03*
X1023100Y939122D02*
D03*
X1028400D02*
D03*
X1033600D02*
D03*
X1038900D02*
D03*
X1038500Y917000D02*
D03*
X1033500D02*
D03*
X1028500D02*
D03*
X1023500D02*
D03*
D50*
X1202269Y1028282D02*
D03*
Y1022982D02*
D03*
Y1017782D02*
D03*
Y1012482D02*
D03*
X1180147Y1012882D02*
D03*
Y1017882D02*
D03*
Y1022882D02*
D03*
Y1027882D02*
D03*
X1002736Y1012482D02*
D03*
Y1017782D02*
D03*
Y1022982D02*
D03*
Y1028282D02*
D03*
X1024858Y1027882D02*
D03*
Y1022882D02*
D03*
Y1017882D02*
D03*
Y1012882D02*
D03*
D51*
X1208014Y961147D02*
D03*
X1195475D02*
D03*
Y951272D02*
D03*
X1208014D02*
D03*
Y980896D02*
D03*
X1195475D02*
D03*
Y971021D02*
D03*
X1208014D02*
D03*
Y990771D02*
D03*
X1195475D02*
D03*
X1218507D02*
D03*
X1231047D02*
D03*
Y951272D02*
D03*
X1218507D02*
D03*
Y980896D02*
D03*
X1231047D02*
D03*
Y971021D02*
D03*
X1218507D02*
D03*
Y961147D02*
D03*
X1231047D02*
D03*
X986235Y990771D02*
D03*
X973695D02*
D03*
X986235Y980929D02*
D03*
X973695D02*
D03*
X986235Y971088D02*
D03*
X973695D02*
D03*
X986235Y961246D02*
D03*
X973695D02*
D03*
X1009401Y961147D02*
D03*
X996861D02*
D03*
X986235Y951405D02*
D03*
X973695D02*
D03*
X1009401Y951272D02*
D03*
X996861D02*
D03*
X1009401Y971021D02*
D03*
X996861D02*
D03*
X1009401Y980896D02*
D03*
X996861D02*
D03*
X1009401Y990771D02*
D03*
X996861D02*
D03*
D52*
X1147572Y979000D02*
D03*
X1123428D02*
D03*
D53*
X1272500Y958949D02*
D03*
Y983093D02*
D03*
X932000D02*
D03*
Y958949D02*
D03*
M02*
