G04*
G04 #@! TF.GenerationSoftware,Altium Limited,Altium Designer,22.0.2 (36)*
G04*
G04 Layer_Color=8388736*
%FSLAX25Y25*%
%MOIN*%
G70*
G04*
G04 #@! TF.SameCoordinates,8DF314AF-FFA0-4F09-AA67-4057F65CF364*
G04*
G04*
G04 #@! TF.FilePolarity,Positive*
G04*
G01*
G75*
%ADD10C,0.01181*%
%ADD15C,0.00787*%
G36*
X943373Y936627D02*
X943500Y936500D01*
X940000D01*
Y939000D01*
X943373D01*
Y936627D01*
D02*
G37*
G36*
X921500Y936500D02*
X918127D01*
Y939000D01*
X921500D01*
Y936500D01*
D02*
G37*
G36*
X1289000Y934000D02*
X1281500D01*
X1279500Y932000D01*
Y926000D01*
X1281500Y924000D01*
X1289000D01*
Y923000D01*
X1281000D01*
X1278500Y925500D01*
Y932500D01*
X1281000Y935000D01*
X1289000D01*
Y934000D01*
D02*
G37*
G36*
X926000Y930000D02*
Y923000D01*
X923500Y920500D01*
X915500D01*
Y921500D01*
X923000D01*
X925000Y923500D01*
Y929500D01*
X923000Y931500D01*
X915500D01*
Y932500D01*
X923500D01*
X926000Y930000D01*
D02*
G37*
G36*
X1289000Y914000D02*
X1281500D01*
X1279500Y912000D01*
Y906000D01*
X1281500Y904000D01*
X1289000D01*
Y903000D01*
X1281000D01*
X1278500Y905500D01*
Y912500D01*
X1281000Y915000D01*
X1289000D01*
Y914000D01*
D02*
G37*
G36*
X926000Y910000D02*
Y903000D01*
X923500Y900500D01*
X915500D01*
Y901500D01*
X923000D01*
X925000Y903500D01*
Y909500D01*
X923000Y911500D01*
X915500D01*
Y912500D01*
X923500D01*
X926000Y910000D01*
D02*
G37*
G36*
X1286373Y896500D02*
X1283000D01*
Y899000D01*
X1286373D01*
Y896500D01*
D02*
G37*
G36*
X1264500D02*
X1261127D01*
Y898873D01*
X1261000Y899000D01*
X1264500D01*
Y896500D01*
D02*
G37*
G36*
X943373Y896627D02*
X943500Y896500D01*
X940000D01*
Y899000D01*
X943373D01*
Y896627D01*
D02*
G37*
G36*
X921500Y896500D02*
X918127D01*
Y899000D01*
X921500D01*
Y896500D01*
D02*
G37*
G36*
X1289000Y894000D02*
X1281500D01*
X1279500Y892000D01*
Y886000D01*
X1281500Y884000D01*
X1289000D01*
Y883000D01*
X1281000D01*
X1278500Y885500D01*
Y892500D01*
X1281000Y895000D01*
X1289000D01*
Y894000D01*
D02*
G37*
G36*
X926000Y890000D02*
Y883000D01*
X923500Y880500D01*
X915500D01*
Y881500D01*
X923000D01*
X925000Y883500D01*
Y889500D01*
X923000Y891500D01*
X915500D01*
Y892500D01*
X923500D01*
X926000Y890000D01*
D02*
G37*
G36*
X1289000Y874000D02*
X1281500D01*
X1279500Y872000D01*
Y866000D01*
X1281500Y864000D01*
X1289000D01*
Y863000D01*
X1281000D01*
X1278500Y865500D01*
Y872500D01*
X1281000Y875000D01*
X1289000D01*
Y874000D01*
D02*
G37*
G36*
X926000Y870000D02*
Y863000D01*
X923500Y860500D01*
X915500D01*
Y861500D01*
X923000D01*
X925000Y863500D01*
Y869500D01*
X923000Y871500D01*
X915500D01*
Y872500D01*
X923500D01*
X926000Y870000D01*
D02*
G37*
G36*
X1286373Y856500D02*
X1283000D01*
Y859000D01*
X1286373D01*
Y856500D01*
D02*
G37*
G36*
X1264500D02*
X1261127D01*
Y858873D01*
X1261000Y859000D01*
X1264500D01*
Y856500D01*
D02*
G37*
G36*
X943373Y830687D02*
X943500Y830561D01*
X940000D01*
Y833061D01*
X943373D01*
Y830687D01*
D02*
G37*
G36*
X921500Y830561D02*
X918127D01*
Y833061D01*
X921500D01*
Y830561D01*
D02*
G37*
G36*
X926000Y824061D02*
Y817061D01*
X923500Y814561D01*
X915500D01*
Y815561D01*
X923000D01*
X925000Y817561D01*
Y823561D01*
X923000Y825561D01*
X915500D01*
Y826561D01*
X923500D01*
X926000Y824061D01*
D02*
G37*
G36*
Y804061D02*
Y797061D01*
X923500Y794561D01*
X915500D01*
Y795561D01*
X923000D01*
X925000Y797561D01*
Y803561D01*
X923000Y805561D01*
X915500D01*
Y806561D01*
X923500D01*
X926000Y804061D01*
D02*
G37*
G36*
X1291283Y845699D02*
X1291424Y845559D01*
X1291500Y845375D01*
Y845275D01*
Y774724D01*
Y774625D01*
X1291424Y774441D01*
X1291283Y774300D01*
X1291099Y774224D01*
X1258076D01*
X1257783Y774517D01*
Y774931D01*
X1258076Y775224D01*
X1290500D01*
Y844775D01*
X1258116D01*
X1257823Y845068D01*
Y845483D01*
X1258116Y845776D01*
X1291099D01*
X1291283Y845699D01*
D02*
G37*
D10*
X1026477Y732443D02*
G03*
X1026477Y732443I-591J0D01*
G01*
X1030091Y825886D02*
G03*
X1030091Y825886I-591J0D01*
G01*
X1093154Y755614D02*
G03*
X1093154Y755614I-591J0D01*
G01*
X1071091Y755199D02*
G03*
X1071091Y755199I-591J0D01*
G01*
X1049091Y755699D02*
G03*
X1049091Y755699I-591J0D01*
G01*
D15*
X1112720Y772740D02*
G03*
X1112720Y772740I-394J0D01*
G01*
M02*
